<svg width="263" height="250" viewBox="0 0 263 250" fill="none" xmlns="http://www.w3.org/2000/svg">
<g opacity="0.5">
<path d="M0.429819 35.8556C0.384189 36.0599 0.342516 36.2655 0.305027 36.4723C-0.514027 40.9915 0.778095 45.5889 1.73607 49.9833C2.73087 54.5466 3.72289 59.1105 4.71129 63.6752C9.06182 83.7671 13.3427 103.874 17.486 124.01C21.6544 144.268 25.6845 164.555 29.4988 184.882C33.2668 204.963 36.8254 225.084 40.0773 245.255C40.7071 249.162 44.1772 251.03 47.7942 249.425C48.1133 249.283 48.4401 249.133 48.8058 248.982C49.4086 248.733 49.1309 247.774 49.0417 247.128C40.5605 185.718 29.4799 119.344 16.3393 58.8238C15.1291 53.2499 12.405 48.5837 10.6525 43.1624C9.68236 40.1615 9.58415 36.2779 8.47414 33.1319C8.01332 31.8259 7.54441 30.5226 7.05864 29.2256C6.8823 28.7548 5.29823 25.91 5.42243 25.7185C3.35846 28.8942 1.25193 32.1743 0.429819 35.8556Z" fill="#F5EFEB"/>
<path d="M245.316 37.8596C244.919 37.8596 244.517 37.7841 244.132 37.6211C242.577 36.965 241.849 35.1718 242.501 33.6212C242.971 32.5118 242.609 29.8757 240.744 26.4762C238.004 21.4783 232.545 15.9595 227.412 15.0808C225.75 14.7985 224.633 13.22 224.915 11.558C225.201 9.89202 226.808 8.75885 228.438 9.06103C235.849 10.3254 242.648 17.2477 246.1 23.5418C248.756 28.3807 249.475 32.8021 248.131 35.9909C247.638 37.1598 246.505 37.8596 245.316 37.8596Z" fill="#F5EFEB"/>
<path d="M140.057 87.5166C143.256 90.5474 145.572 94.9966 148.344 98.4226C145.017 99.3052 141.69 100.188 138.363 101.07C134.847 102.003 136.054 99.1555 136.658 96.8866C137.397 94.1138 138.986 90.1791 140.057 87.5166Z" fill="#F5EFEB"/>
<path d="M245.715 34.296C249.447 31.0145 253.069 27.6072 256.573 24.0818C258.401 22.242 260.294 20.171 260.582 17.5934C260.945 14.3476 258.663 11.4453 256.374 9.11613C253.815 6.51329 250.89 4.00464 247.319 3.25348C243.66 2.48402 239.808 3.73568 236.964 6.07303C234.734 7.90574 231.519 11.4352 232.632 14.6014C233.759 17.8059 237.889 19.2345 239.885 22.0176C242.282 25.3589 244.318 30.4276 245.715 34.296Z" fill="#F5EFEB"/>
<path d="M64.4272 223.942C63.1085 225.636 65.1167 227.701 66.7365 228.56C116.5 216.52 169.486 204.491 220.1 196.774C221.501 194.985 222.785 192.643 221.459 189.302C203.04 192.644 181.547 195.305 163.128 198.647C129.411 204.763 96.5708 212.065 64.4272 223.942Z" fill="#F5EFEB"/>
<path d="M47.7895 249.1C47.1732 249.1 46.5648 248.913 46.048 248.555C45.3442 248.066 44.879 247.302 44.7637 246.451C38.4855 199.637 32.247 158.382 26.2273 123.838C26.1915 123.647 26.1358 123.392 26.112 123.082C19.9014 87.6397 14.3349 61.0637 9.10638 41.8474C9.09047 41.8037 9.07854 41.7599 9.06661 41.7162L8.92745 41.2907L8.94336 41.2828C8.91155 41.2311 8.88372 41.1794 8.85588 41.1237C8.38273 40.1774 8.41454 39.0164 8.97119 38.1139C10.168 36.1815 13.4005 36.4399 14.323 38.3723C14.4144 38.5314 14.4939 38.7023 14.5536 38.8733C14.5536 38.8773 14.6967 39.2908 14.7007 39.2948L14.8995 39.919C14.9313 40.0065 14.9591 40.0939 14.983 40.1814C20.2751 59.6204 25.8973 86.4548 32.1596 122.212C32.1914 122.386 32.2073 122.565 32.2073 122.74C38.1396 156.616 44.2388 196.854 50.3858 242.428C100.397 232.607 151.306 228.281 200.566 224.094L201.035 224.054C199.747 216.365 198.427 208.524 197.079 200.56C196.796 198.898 197.918 197.323 199.58 197.041C201.198 196.723 202.816 197.876 203.098 199.542C204.645 208.675 206.156 217.649 207.623 226.416C207.794 227.43 207.444 228.46 206.693 229.16C205.985 229.816 205.011 230.086 204.065 229.927L201.083 230.177C151.294 234.412 99.8083 238.786 49.4475 248.837L48.4694 249.024C48.2427 249.076 48.0161 249.1 47.7895 249.1Z" fill="#F5EFEB"/>
<path d="M179.986 87.2421C178.3 87.2421 176.932 85.8942 176.932 84.2084V84.1686C176.932 82.4828 178.3 81.115 179.986 81.115C181.672 81.115 183.039 82.4828 183.039 84.1686C183.039 85.8545 181.672 87.2421 179.986 87.2421Z" fill="#F5EFEB"/>
<path d="M66.4648 226.512C65.8286 226.512 65.1965 226.313 64.6676 225.927C63.9957 225.438 63.5583 224.699 63.443 223.887C63.439 223.868 63.4351 223.848 63.4311 223.828L41.2288 142.064L22.3226 80.1369L14.6448 57.3103C14.0166 55.5092 13.3844 53.716 12.7482 51.9268L10.6091 45.9905C10.299 45.1356 10.0008 44.3166 9.65089 43.4538C9.38847 42.7977 9.14593 42.1536 8.91929 41.5055C8.81989 41.2272 8.73242 40.925 8.64892 40.6228C8.58132 40.3922 8.52566 40.1536 8.43023 39.9429C8.0048 39.0085 7.61912 37.9827 7.24934 36.9847L4.5337 29.9749C4.51779 29.9352 4.47803 29.8199 4.44225 29.7125C3.75041 28.8974 3.53173 27.7841 3.86969 26.7662C4.21561 25.7364 5.07842 24.9691 6.14002 24.7424C22.7202 21.2594 37.9962 18.2774 52.8389 15.6333C71.2162 12.349 88.9057 9.68906 106.913 7.49826C122.488 5.55794 138.952 3.91185 157.234 2.46456L165.95 1.81249C167.632 1.73297 169.091 2.96157 169.206 4.64742C169.322 6.32929 168.053 7.78851 166.371 7.90381L157.692 8.55589C139.525 9.99125 123.152 11.6294 107.661 13.5578C89.7566 15.7367 72.1784 18.3807 53.9124 21.6451C40.2347 24.0824 26.1913 26.806 11.0862 29.9471L12.9709 34.8536C13.293 35.7164 13.623 36.607 13.9888 37.4141C14.2075 37.8992 14.3705 38.4241 14.5216 38.9529L14.6846 39.4857C14.8794 40.0542 15.0901 40.6109 15.3128 41.1675C15.6866 42.086 16.0126 42.9766 16.3506 43.9031L18.5016 49.8751C19.1417 51.6802 19.7819 53.4894 20.4101 55.3024L33.9287 96.4547L57.4471 177.212L68.6477 219.554C103.748 208.492 140.598 201.94 176.272 195.598C183.735 194.27 191.186 192.946 198.597 191.586C204.43 190.508 210.263 189.403 216.068 188.266C206.649 155.392 196.204 119.949 186.097 85.6438L184.351 79.7274C183.874 78.1091 184.8 76.4113 186.419 75.9342C188.025 75.469 189.735 76.3875 190.212 78.0018L191.953 83.9181C202.323 119.11 213.046 155.499 222.553 188.775C222.704 189.204 222.827 189.578 222.923 189.992C223.13 190.898 222.911 191.848 222.33 192.576C221.754 193.304 220.875 193.725 219.945 193.725C213.428 195.017 206.569 196.325 199.703 197.59C192.275 198.954 184.816 200.282 177.341 201.61C140.809 208.106 103.041 214.822 67.4071 226.365C67.097 226.464 66.7789 226.512 66.4648 226.512Z" fill="#F5EFEB"/>
<path d="M178.148 50.6863C176.824 50.6863 175.604 49.8195 175.214 48.4835C171.015 34.0027 166.896 19.7724 162.94 6.02714C162.475 4.40889 163.409 2.71508 165.031 2.24988C166.63 1.78866 168.34 2.71906 168.809 4.34129C172.765 18.0786 176.884 32.3089 181.083 46.7818C181.552 48.4 180.618 50.0938 178.999 50.567C178.713 50.6465 178.427 50.6863 178.148 50.6863Z" fill="#F5EFEB"/>
<path d="M131.593 105.818C130.782 105.818 129.99 105.492 129.41 104.9C128.67 104.144 128.376 103.059 128.627 102.033C130.309 95.2381 132.873 89.2104 135.839 82.2363C137.131 79.1947 138.507 75.9621 139.919 72.3996C140.129 71.8628 140.491 71.4016 140.956 71.0596L234.1 2.94177C241.837 -2.72412 252.883 0.440827 258.334 6.94964C261.479 10.707 262.97 16.0986 262.33 21.3788C261.781 25.8836 259.717 29.6529 256.525 31.9869L165.421 98.6137C165.175 98.7927 164.904 98.9358 164.614 99.0352C158.038 101.306 149.608 102.705 142.169 103.942C138.46 104.558 134.957 105.142 132.261 105.743C132.038 105.795 131.816 105.818 131.593 105.818ZM145.27 75.4691C143.95 78.7613 142.67 81.7751 141.457 84.626C139.314 89.6716 137.386 94.2003 135.899 98.8125C137.569 98.5143 139.342 98.2201 141.167 97.9179C148.201 96.749 156.149 95.4249 162.197 93.4091L252.922 27.0566C254.735 25.7286 255.924 23.4503 256.266 20.6392C256.704 17.0608 255.698 13.3193 253.65 10.87C250.056 6.57589 242.473 4.38508 237.702 7.87208L145.27 75.4691Z" fill="#F5EFEB"/>
<path d="M162.495 99.4844C161.803 99.4844 161.111 99.2538 160.542 98.7766C159.246 97.6991 159.067 95.7747 160.149 94.4785C160.59 93.7628 160.459 90.5899 159.719 88.6138C159.274 87.425 156.94 85.6278 155.56 85.4052C154.395 85.2223 153.445 84.3833 153.111 83.2501C152.678 81.771 151.684 80.443 150.387 79.6041C148.706 78.5107 145.155 77.3338 144.022 77.5326C142.36 77.787 140.813 76.5902 140.586 74.9163C140.36 73.2464 141.529 71.7076 143.203 71.481C146.674 71.0158 151.743 73.2066 153.711 74.475C155.759 75.803 157.369 77.6876 158.363 79.8864C161.393 81.0593 164.435 83.7988 165.437 86.4668C166.188 88.4707 167.691 94.9596 164.84 98.383C164.24 99.1106 163.369 99.4844 162.495 99.4844Z" fill="#F5EFEB"/>
<path d="M159 83.286C158.05 83.286 157.115 82.8446 156.519 82.0176C155.533 80.6459 155.843 78.7413 157.211 77.7553C162.829 73.7116 168.67 69.5686 174.614 65.35C195.301 50.6783 216.689 35.5096 234.8 20.2495C236.084 19.1641 238.016 19.3271 239.102 20.6153C240.191 21.9036 240.024 23.8319 238.736 24.9174C220.43 40.3445 198.935 55.5887 178.149 70.332C172.212 74.5426 166.387 78.6738 160.781 82.7095C160.24 83.0991 159.616 83.286 159 83.286Z" fill="#F5EFEB"/>
<path d="M45.6263 58.7816C44.2228 58.7816 42.9584 57.8074 42.6482 56.38C42.2864 54.7339 43.3321 53.1038 44.9782 52.7459L109.899 38.5713C111.51 38.2055 113.176 39.2512 113.533 40.9012C113.895 42.5513 112.85 44.1775 111.203 44.5353L46.2824 58.71C46.0637 58.7577 45.845 58.7816 45.6263 58.7816Z" fill="#F5EFEB"/>
<path d="M49.2565 104.769C47.8291 104.769 46.5528 103.763 46.2665 102.308C45.9365 100.654 47.014 99.0473 48.668 98.7212L111.363 86.3358C113.017 86.0137 114.623 87.0833 114.949 88.7373C115.279 90.3914 114.201 91.9977 112.547 92.3237L49.8529 104.709C49.6541 104.749 49.4513 104.769 49.2565 104.769Z" fill="#F5EFEB"/>
<path d="M65.765 153.647C64.3655 153.647 63.1012 152.676 62.787 151.249C62.4252 149.603 63.463 147.973 65.113 147.611L163.004 126.009C164.618 125.647 166.276 126.681 166.642 128.335C167.004 129.981 165.966 131.611 164.316 131.973L66.4251 153.575C66.2065 153.623 65.9838 153.647 65.765 153.647Z" fill="#F5EFEB"/>
<path d="M95.6296 177.992C94.1664 177.992 92.8702 176.934 92.6237 175.443C92.3454 173.777 93.4666 172.207 95.1286 171.928C105.419 170.203 115.637 167.63 125.506 164.278C127.1 163.726 128.838 164.589 129.378 166.187C129.923 167.785 129.068 169.519 127.47 170.06C117.291 173.519 106.751 176.175 96.1385 177.948C95.9676 177.98 95.7966 177.992 95.6296 177.992Z" fill="#F5EFEB"/>
<path d="M17.4861 124.01C25.6852 163.857 33.5771 204.936 40.0773 245.255C40.7073 249.161 44.1771 251.03 47.7943 249.425C48.2035 249.243 47.8311 249.412 48.8326 248.955C62.4338 247.024 77.9461 240.65 201.082 230.178L204.064 229.927C206.21 230.288 207.968 228.465 207.623 226.416C205.17 211.759 204.297 206.653 203.092 199.526C208.783 198.565 214.461 197.634 220.1 196.774C220.935 195.709 221.714 194.44 221.939 192.889C222.065 192.776 222.224 192.71 222.33 192.576C222.911 191.848 223.13 190.898 222.923 189.992C222.827 189.578 222.704 189.204 222.553 188.775C213.046 155.499 202.323 119.11 191.953 83.9182L190.813 80.0436L256.525 31.9869C259.717 29.6529 261.781 25.8836 262.33 21.3788C262.97 16.0986 261.479 10.707 258.334 6.94964C252.883 0.440827 241.837 -2.72412 234.1 2.94177L179.871 42.6C176.2 29.9382 172.59 17.4643 169.11 5.38406C169.51 3.15678 167.727 1.72854 165.95 1.81257C109.282 6.69605 77.9896 9.64895 6.14014 24.7425C4.52197 25.088 3.44513 26.6617 3.77314 28.322C2.32038 30.6977 1.03015 33.1683 0.429767 35.8556C-1.0264 42.3964 0.423357 41.0879 17.4861 124.01ZM201.035 224.054C150.633 228.338 100.214 232.643 50.3857 242.428C44.2593 197.007 36.2808 143.01 27.7242 97.8295L41.2289 142.064C64.5178 227.714 63.3358 224.258 64.01 225.207C64.0607 226.559 65.5065 227.908 66.7368 228.56C109.006 218.333 153.589 208.142 197.08 200.567C198.426 208.528 199.747 216.367 201.035 224.054ZM166.345 90.3748C165.85 86.5964 164.955 84.462 161.818 81.9675C169.056 76.7673 235.737 29.8259 239.309 24.1958C239.837 24.9567 240.33 25.7206 240.744 26.4761C242.608 29.8756 242.97 32.5117 242.501 33.6211C242.332 34.0221 242.263 34.4381 242.27 34.8477L166.345 90.3748ZM136.146 98.7708C136.067 98.7847 135.977 98.7986 135.899 98.8125C136.207 97.8583 136.604 96.8971 136.947 95.9448C136.724 96.6852 136.325 98.022 136.146 98.7708ZM147.207 96.8851C144.954 93.7903 142.869 90.2576 140.191 87.6647C140.369 87.2414 143.524 79.7281 144.412 77.5595C145.783 77.5685 148.838 78.5973 150.388 79.6042C153.87 81.8582 152.399 84.9089 155.56 85.4053C156.94 85.6279 159.274 87.4251 159.719 88.6139C160.357 90.3182 160.516 92.8206 160.272 93.9613C156.295 95.1327 151.76 96.078 147.207 96.8851ZM227.726 15.1682C230.421 15.7258 233.173 17.519 235.575 19.8241C232.371 21.2044 235.654 22.0597 174.614 65.35C173.082 66.437 158.245 76.9493 157.09 77.8855C155.322 75.3706 153.571 73.9313 149.383 72.4612L227.726 15.1682ZM163.543 8.11661C167.128 20.5662 170.839 33.3904 174.622 46.4389C139.602 72.2518 140.505 70.9056 139.919 72.3996C135.325 83.9938 131.048 92.2522 128.627 102.033C128.376 103.059 128.67 104.144 129.41 104.9C130.164 105.669 131.26 105.975 132.261 105.743C137.99 104.467 162.083 101.037 165.421 98.6137L185.575 83.8745L186.097 85.6438C196.204 119.949 206.649 155.392 216.068 188.266C166.406 197.994 116.348 204.522 68.6478 219.554L57.4472 177.213L33.9288 96.4547L20.4102 55.3025C18.9475 51.0811 14.7539 39.4671 14.7006 39.2949C14.6966 39.2909 14.5535 38.8774 14.5535 38.8734C14.3283 38.2279 14.723 39.5473 12.971 34.8536L11.0864 29.9472C76.7953 16.283 107.754 12.9686 163.543 8.11661Z" fill="#F5EFEB"/>
<path d="M46.2824 58.71L111.203 44.5353C112.85 44.1775 113.895 42.5513 113.533 40.9012C113.176 39.2512 111.51 38.2055 109.899 38.5713L44.9782 52.7459C43.3321 53.1038 42.2864 54.7339 42.6482 56.38C43.0042 58.0182 44.6236 59.0719 46.2824 58.71Z" fill="#F5EFEB"/>
<path d="M48.668 98.7212C47.014 99.0472 45.9365 100.654 46.2665 102.308C46.5918 103.961 48.1996 105.04 49.8529 104.709L112.547 92.3237C114.201 91.9977 115.279 90.3914 114.949 88.7373C114.623 87.0833 113.017 86.0137 111.363 86.3358L48.668 98.7212Z" fill="#F5EFEB"/>
<path d="M65.7652 153.647C65.9839 153.647 66.2066 153.623 66.4253 153.575L164.316 131.973C165.966 131.611 167.004 129.981 166.642 128.335C166.276 126.681 164.618 125.647 163.004 126.009L65.1132 147.611C61.5604 148.39 62.1408 153.647 65.7652 153.647Z" fill="#F5EFEB"/>
<path d="M125.506 164.278C115.637 167.63 105.419 170.203 95.1286 171.928C93.4666 172.207 92.3454 173.777 92.6237 175.443C92.8702 176.934 94.1664 177.992 95.6296 177.992C95.7966 177.992 95.9676 177.98 96.1385 177.948C106.751 176.175 117.291 173.519 127.47 170.06C129.068 169.519 129.923 167.785 129.378 166.187C128.838 164.589 127.1 163.726 125.506 164.278Z" fill="#F5EFEB"/>
</g>
</svg>
