<svg width="73" height="70" viewBox="0 0 73 70" fill="none" xmlns="http://www.w3.org/2000/svg">
<path d="M54.626 30.9163V14.583L47.626 16.333L41.7926 20.9997L39.4593 26.2497L38.876 32.083L41.2093 40.2497L47.626 46.6663L58.7093 47.833L66.2926 43.1663L54.626 30.9163Z" fill="#4B2AAD"/>
<path d="M12.1479 31.5143C12.1585 31.5179 12.1694 31.5165 12.18 31.5198C12.5082 33.9355 13.2261 36.5753 14.8054 38.8445C19.2328 45.2102 30.6596 47.2016 33.2967 31.9582C36.5231 31.4478 36.676 26.8276 34.7372 25.7294C37.3613 16.5871 29.1311 8.96829 21.4632 13.3313C21.5612 12.9715 21.6972 12.6225 21.8803 12.3027C22.1135 11.8959 21.9731 11.3764 21.5663 11.1442C21.1551 10.9088 20.6388 11.0525 20.4078 11.4582C20.1273 11.9476 19.9196 12.4708 19.7845 13.0123C19.6669 12.9129 19.5502 12.8121 19.4173 12.7327C19.0149 12.494 18.4943 12.6255 18.2533 13.0279C18.0134 13.4303 18.1449 13.9509 18.5484 14.1919C18.6245 14.2373 18.6766 14.3141 18.741 14.3765C14.5478 14.0441 10.4309 18.0088 11.4454 25.1508C10.1492 25.3585 9.20408 26.6091 9.37653 28.2278C9.53792 29.7135 10.9407 31.0898 12.1479 31.5143ZM16.1983 37.874C14.5775 35.5459 13.7627 32.4588 13.6314 28.2251C14.3337 26.9279 15.1438 25.3362 15.7295 23.6855C20.399 25.703 25.1889 25.3559 29.9909 22.6431C30.0179 22.7589 31.561 29.2673 31.5921 29.3823C31.4164 31.7738 31.12 34.2526 30.1612 36.501C27.1705 43.5053 19.9261 43.2337 16.1983 37.874ZM15.1591 17.2761C16.4359 16.1265 18.3041 15.7351 19.7025 16.3155C20.0364 16.4581 20.4244 16.3675 20.6654 16.0955C22.4407 14.088 25.7935 13.2401 28.3018 14.161C32.6937 15.777 34.8426 21.334 32.6959 26.4272C32.1737 24.2839 31.7653 22.9372 31.4004 21.1386C31.2805 20.5555 30.6157 20.2716 30.1125 20.5914C25.1966 23.7132 20.3127 24.1023 15.598 21.7521C15.1164 21.5125 14.5503 21.7735 14.4041 22.2717C14.1004 23.3058 13.6649 24.3471 13.2014 25.3282C12.7158 22.4082 12.9605 19.2599 15.1591 17.2761Z" fill="#0A102F"/>
<path d="M40.8489 57.1396C37.5369 48.9889 28.3293 43.9558 20.0156 45.3964C5.58733 47.8983 2.9977 58.8433 0.0766003 65.7477C-0.173442 66.3916 0.19684 67.2113 1.06777 67.3241L1.9008 69.094C12.4742 69.9611 27.4986 70.0664 39.0954 69.9709C40.4077 69.9601 42.3018 68.9535 42.7835 67.7259C42.8 67.7082 42.8242 67.701 42.8398 67.6822C43.0918 67.3771 43.1913 66.9814 43.1117 66.5934C42.4697 63.4769 42.0939 60.2045 40.8489 57.1396ZM24.3181 46.9045C24.0113 48.0743 22.4705 48.3814 21.7478 47.8836C21.2444 47.5374 21.0176 47.3013 20.9435 46.9987C22.0616 46.8518 23.1904 46.813 24.3181 46.9045ZM22.6797 51.3149C23.4281 53.3559 24.1285 55.3596 25.0376 57.3761C24.4402 58.2915 23.6453 59.397 22.9174 60.4062C22.0971 59.5373 20.9773 58.2516 20.3185 57.3131C21.0746 55.4613 21.9033 53.2815 22.6797 51.3149ZM19.279 47.2809C19.5072 48.4144 20.5748 49.3241 21.5223 49.645C20.3754 52.4962 19.5344 54.7629 18.5774 57.0843C18.4724 57.3385 18.4967 57.626 18.6426 57.8592C19.5303 59.2753 21.6229 61.568 22.4509 62.3495C22.8382 62.7179 23.4734 62.6385 23.7575 62.176C23.7629 62.1672 26.0379 58.982 26.7135 57.9078C26.8406 57.7067 26.8771 57.4612 26.8141 57.2313C26.5598 56.3857 27.3058 58.7705 23.8338 49.5708C25.028 49.1467 25.7675 48.3321 25.9983 47.1165C32.2685 48.2701 37.2953 52.8987 39.2747 57.7785C40.3889 60.5203 40.7818 63.5823 41.3541 66.464C30.8785 67.0059 12.2086 66.9778 1.9238 65.7223C4.48439 59.3967 6.57543 50.207 19.279 47.2809Z" fill="#0A102F"/>
<path d="M61.1283 14.8053V8.62916L65.7964 3.96113C66.7234 4.31982 67.6356 4.03333 68.18 3.3827C68.8598 2.5713 68.7891 1.2713 68.0252 0.545015C66.5537 -0.855299 63.9035 0.645171 64.6168 2.73961C59.6683 7.80839 59.4304 7.64105 59.4304 8.27763V14.2877C58.0999 13.9567 56.7164 13.7618 55.2849 13.7618C51.3758 13.7618 47.7789 15.0872 44.8866 17.2919L41.5079 13.4851C41.9213 12.6857 41.7821 11.6288 41.123 11.0003C41.123 11.0003 41.1219 11.0003 41.1219 10.9992C39.9122 9.8457 37.8202 10.6426 37.6033 12.2915C37.4041 13.7927 38.8226 14.8262 40.1571 14.5205L43.5878 18.3859C33.2088 28.0424 38.6433 45.2852 50.824 48.624C51.8039 48.8926 52.7941 49.0575 53.7848 49.1571V52.343L49.6055 56.583C49.1391 56.3808 48.6028 56.3464 48.0896 56.5283C47.3135 56.8024 46.7663 57.459 46.6635 58.2406C46.3932 60.2805 49.0478 61.3266 50.3369 59.786C50.7804 59.2568 50.8988 58.5217 50.7194 57.8715C55.089 53.3243 55.4828 53.3324 55.4828 52.6912V49.2447C68.0914 49.2927 76.7436 36.3104 71.3618 24.892C69.5876 20.2138 65.8381 16.514 61.1283 14.8053ZM66.1532 19.9233L55.39 29.1614V15.465C59.5787 15.4933 63.3759 17.1898 66.1532 19.9233ZM66.2856 41.8824L65.4505 41.0474C65.6969 40.7084 65.3788 41.7842 68.6269 23.1031C72.2558 29.2353 71.2263 36.9035 66.2856 41.8824ZM57.1248 29.9102C56.9602 30.7055 56.826 31.505 56.7119 32.3087L55.6118 31.2088L57.1248 29.9102ZM58.273 33.3006C58.6736 29.995 59.2126 28.6189 59.2654 28.0728L62.0229 25.7061C61.3225 29.1199 60.8008 32.587 60.4647 36.0616L58.1009 33.6978C58.1867 33.583 58.2546 33.4533 58.273 33.3006ZM64.0601 23.9576L67.2231 21.2429L64.063 39.6599L62.0183 37.6151C62.7492 28.6875 64.1566 24.6166 64.0601 23.9576ZM53.692 15.5414V31.3384C53.692 31.5639 53.7815 31.7795 53.9407 31.9387L65.0217 43.0197C62.3575 45.176 58.9715 46.4742 55.2849 46.4742C46.7343 46.4742 39.7777 39.5176 39.7777 30.967C39.7777 22.9541 45.8869 16.3416 53.692 15.5414Z" fill="#0A102F"/>
</svg>
