<svg width="220" height="180" viewBox="0 0 220 180" fill="none" xmlns="http://www.w3.org/2000/svg">
<path d="M8.68089 52.7046C9.44654 59.5193 10.8567 65.1464 11.3463 71.1057C11.4492 72.3641 12.4706 73.3479 13.7306 73.4067C20.5129 73.7237 23.8148 74.1168 30.1547 74.8309C11.6914 135.108 61.5037 180.509 110.415 179.996C139.646 179.689 157.597 165.264 173.464 143.372L182.276 143.343C183.452 148 187.545 151.463 192.445 151.463C198.257 151.463 202.984 146.612 202.984 140.648C202.984 134.683 198.257 129.832 192.445 129.832C187.412 129.832 183.205 133.475 182.164 138.323L176.834 138.341C183.809 126.892 187.832 113.455 187.832 99.0964C187.832 97.7106 186.708 96.5862 185.322 96.5862H113.925L88.8205 29.7506C88.3269 28.4319 86.8444 27.7979 85.5881 28.2831C84.6411 28.6389 83.7331 29.0626 82.8065 29.454C78.5543 28.3382 73.869 26.5598 69.7196 26.8282C60.4385 27.4293 40.2554 47.1881 31.7611 69.9602C26.5928 69.3888 22.7987 68.8749 16.1345 68.5041C15.5192 63.1201 14.4141 58.6491 13.6913 52.3484C17.958 50.9642 21.0796 46.913 21.0796 42.0823C21.0796 36.1175 16.3518 31.2639 10.539 31.2639C4.72775 31.2639 0 36.1175 0 42.0823C3.34685e-07 47.3943 3.75622 51.7989 8.68089 52.7046ZM192.445 134.853C195.488 134.853 197.964 137.451 197.964 140.648C197.964 143.844 195.488 146.442 192.445 146.442C189.401 146.442 186.925 143.844 186.925 140.648C186.925 137.451 189.401 134.853 192.445 134.853ZM109.836 99.9788C110.204 100.959 111.14 101.607 112.186 101.607H182.768C182.291 115.186 177.915 127.768 170.796 138.36L153.398 138.415C152.012 138.419 150.891 139.546 150.896 140.932C150.901 142.318 152.023 143.436 153.406 143.436H153.414L167.072 143.392C154.115 159.416 134.352 169.72 112.186 169.72C35.35 169.72 14.097 63.5064 85.0194 33.908L109.836 99.9788ZM10.539 36.2842C13.5835 36.2842 16.0593 38.8858 16.0593 42.0823C16.0593 45.2788 13.5835 47.8772 10.539 47.8772C7.49609 47.8772 5.02027 45.2788 5.02027 42.0823C5.02027 38.8858 7.49609 36.2842 10.539 36.2842Z" fill="#FDFBF9"/>
<path d="M122.177 76.7605C122.886 78.1925 124.739 78.6085 125.985 77.6169L183.336 32.235C184.42 31.3815 184.61 29.8016 183.746 28.7084C160.996 -0.0426074 122.093 -7.59455 90.8922 7.8462C89.6475 8.46004 89.1422 9.96733 89.7548 11.2061L122.177 76.7605ZM178.217 29.8851L125.302 71.7566L95.3879 11.2715C123.442 -1.39655 157.385 5.36393 178.217 29.8851Z" fill="#FDFBF9"/>
<path d="M219.217 84.2154C218.785 67.7972 213.021 51.8323 202.553 38.8075C202.121 38.2685 201.522 37.9066 200.589 37.9066C198.153 36.7598 195.809 35.937 193.306 35.6428C169.991 52.5744 139.923 78.8891 141.117 86.0743C141.031 87.6463 142.264 88.716 143.599 88.716H143.664L216.774 86.7909C218.159 86.755 219.254 85.6012 219.217 84.2154ZM150.969 83.4996C199.592 44.8596 199.828 44.2302 200.178 43.9356C208.481 55.0469 213.248 68.2598 214.089 81.8393L150.969 83.4996Z" fill="#FDFBF9"/>
</svg>
