<svg width="150" height="150" viewBox="0 0 150 150" fill="none" xmlns="http://www.w3.org/2000/svg">
<path d="M72.7826 5.40363C73.9726 4.09756 76.0279 4.09756 77.2178 5.40362L86.8922 16.022C88.7341 18.0436 91.5846 18.8074 94.1906 17.9775L107.878 13.619C109.561 13.0829 111.341 14.1105 111.719 15.8366L114.788 29.8695C115.372 32.5412 117.459 34.628 120.131 35.2123L134.164 38.2813C135.89 38.6588 136.917 40.4388 136.381 42.1223L132.023 55.8097C131.193 58.4156 131.957 61.2662 133.978 63.1081L144.597 72.7824C145.903 73.9723 145.903 76.0277 144.597 77.2176L133.978 86.8919C131.957 88.7338 131.193 91.5844 132.023 94.1903L136.381 107.878C136.917 109.561 135.89 111.341 134.164 111.719L120.131 114.788C117.459 115.372 115.372 117.459 114.788 120.131L111.719 134.163C111.341 135.889 109.561 136.917 107.878 136.381L94.1906 132.022C91.5846 131.193 88.7341 131.956 86.8922 133.978L77.2178 144.596C76.0279 145.902 73.9726 145.902 72.7826 144.596L63.1083 133.978C61.2664 131.956 58.4159 131.193 55.8099 132.022L42.1226 136.381C40.439 136.917 38.659 135.889 38.2816 134.163L35.2125 120.131C34.6282 117.459 32.5414 115.372 29.8697 114.788L15.8368 111.719C14.1108 111.341 13.0831 109.561 13.6192 107.878L17.9778 94.1903C18.8076 91.5844 18.0438 88.7338 16.0222 86.8919L5.40387 77.2176C4.09781 76.0277 4.09781 73.9723 5.40387 72.7824L16.0222 63.1081C18.0438 61.2662 18.8076 58.4156 17.9778 55.8097L13.6192 42.1223C13.0831 40.4388 14.1108 38.6588 15.8368 38.2813L29.8697 35.2123C32.5414 34.628 34.6282 32.5412 35.2125 29.8695L38.2816 15.8366C38.659 14.1105 40.439 13.0829 42.1226 13.619L55.8099 17.9775C58.4159 18.8074 61.2664 18.0436 63.1083 16.0219L72.7826 5.40363Z" fill="#F5EFEB" stroke="#0A102F" stroke-width="4"/>
<path d="M35.5059 57.3636V69H33.0457V59.6989H32.9775L30.3127 61.3693V59.1875L33.1934 57.3636H35.5059ZM42.8341 69.2557C41.8568 69.2519 41.0159 69.0114 40.3113 68.5341C39.6106 68.0568 39.0708 67.3655 38.692 66.4602C38.317 65.5549 38.1314 64.4659 38.1352 63.1932C38.1352 61.9242 38.3227 60.8428 38.6977 59.9489C39.0765 59.0549 39.6162 58.375 40.317 57.9091C41.0216 57.4394 41.8606 57.2045 42.8341 57.2045C43.8075 57.2045 44.6447 57.4394 45.3454 57.9091C46.05 58.3788 46.5916 59.0606 46.9704 59.9545C47.3492 60.8447 47.5367 61.9242 47.5329 63.1932C47.5329 64.4697 47.3435 65.5606 46.9647 66.4659C46.5897 67.3712 46.0519 68.0625 45.3511 68.5398C44.6503 69.017 43.8113 69.2557 42.8341 69.2557ZM42.8341 67.2159C43.5007 67.2159 44.0329 66.8807 44.4306 66.2102C44.8284 65.5398 45.0253 64.5341 45.0216 63.1932C45.0216 62.3106 44.9306 61.5758 44.7488 60.9886C44.5708 60.4015 44.317 59.9602 43.9875 59.6648C43.6617 59.3693 43.2772 59.2216 42.8341 59.2216C42.1712 59.2216 41.6409 59.553 41.2431 60.2159C40.8454 60.8788 40.6447 61.8712 40.6409 63.1932C40.6409 64.0871 40.7299 64.8333 40.9079 65.4318C41.0897 66.0265 41.3454 66.4735 41.675 66.7727C42.0045 67.0682 42.3909 67.2159 42.8341 67.2159ZM55.6565 66.8182V66.2045C55.6565 65.7386 55.755 65.3106 55.9519 64.9205C56.1527 64.5265 56.4425 64.2121 56.8213 63.9773C57.2038 63.7386 57.6698 63.6193 58.219 63.6193C58.7758 63.6193 59.2436 63.7367 59.6224 63.9716C60.005 64.2064 60.2929 64.5208 60.486 64.9148C60.683 65.3049 60.7815 65.7348 60.7815 66.2045V66.8182C60.7815 67.2841 60.683 67.714 60.486 68.108C60.2891 68.4981 59.9993 68.8106 59.6167 69.0455C59.2341 69.2841 58.7682 69.4034 58.219 69.4034C57.6622 69.4034 57.1944 69.2841 56.8156 69.0455C56.4368 68.8106 56.1489 68.4981 55.9519 68.108C55.755 67.714 55.6565 67.2841 55.6565 66.8182ZM57.3099 66.2045V66.8182C57.3099 67.0871 57.3743 67.3409 57.5031 67.5795C57.6357 67.8182 57.8743 67.9375 58.219 67.9375C58.5637 67.9375 58.7985 67.8201 58.9235 67.5852C59.0523 67.3504 59.1167 67.0947 59.1167 66.8182V66.2045C59.1167 65.928 59.0561 65.6705 58.9349 65.4318C58.8137 65.1932 58.5751 65.0739 58.219 65.0739C57.8781 65.0739 57.6413 65.1932 57.5088 65.4318C57.3762 65.6705 57.3099 65.928 57.3099 66.2045ZM49.6849 60.1591V59.5455C49.6849 59.0758 49.7853 58.6458 49.986 58.2557C50.1868 57.8617 50.4766 57.5473 50.8554 57.3125C51.2379 57.0777 51.7001 56.9602 52.2417 56.9602C52.8023 56.9602 53.272 57.0777 53.6508 57.3125C54.0296 57.5473 54.3175 57.8617 54.5144 58.2557C54.7114 58.6458 54.8099 59.0758 54.8099 59.5455V60.1591C54.8099 60.6288 54.7095 61.0587 54.5088 61.4489C54.3118 61.839 54.022 62.1515 53.6394 62.3864C53.2607 62.6174 52.7948 62.733 52.2417 62.733C51.6887 62.733 51.2209 62.6155 50.8383 62.3807C50.4595 62.142 50.1716 61.8295 49.9747 61.4432C49.7815 61.053 49.6849 60.625 49.6849 60.1591ZM51.3497 59.5455V60.1591C51.3497 60.4356 51.4141 60.6913 51.5429 60.9261C51.6754 61.161 51.9084 61.2784 52.2417 61.2784C52.5902 61.2784 52.8269 61.161 52.9519 60.9261C53.0807 60.6913 53.1451 60.4356 53.1451 60.1591V59.5455C53.1451 59.2689 53.0845 59.0114 52.9633 58.7727C52.8421 58.5341 52.6016 58.4148 52.2417 58.4148C51.9046 58.4148 51.6716 58.536 51.5429 58.7784C51.4141 59.0208 51.3497 59.2765 51.3497 59.5455ZM50.4349 69L58.4349 57.3636H59.9235L51.9235 69H50.4349ZM77.5017 63.1818C77.5017 64.4508 77.2611 65.5303 76.7801 66.4205C76.3028 67.3106 75.6513 67.9905 74.8255 68.4602C74.0036 68.9261 73.0793 69.1591 72.0528 69.1591C71.0187 69.1591 70.0907 68.9242 69.2687 68.4545C68.4467 67.9848 67.7971 67.3049 67.3198 66.4148C66.8426 65.5246 66.6039 64.447 66.6039 63.1818C66.6039 61.9129 66.8426 60.8333 67.3198 59.9432C67.7971 59.053 68.4467 58.375 69.2687 57.9091C70.0907 57.4394 71.0187 57.2045 72.0528 57.2045C73.0793 57.2045 74.0036 57.4394 74.8255 57.9091C75.6513 58.375 76.3028 59.053 76.7801 59.9432C77.2611 60.8333 77.5017 61.9129 77.5017 63.1818ZM75.0073 63.1818C75.0073 62.3598 74.8842 61.6667 74.638 61.1023C74.3956 60.5379 74.0528 60.1098 73.6096 59.8182C73.1664 59.5265 72.6475 59.3807 72.0528 59.3807C71.4581 59.3807 70.9392 59.5265 70.496 59.8182C70.0528 60.1098 69.7081 60.5379 69.4619 61.1023C69.2195 61.6667 69.0983 62.3598 69.0983 63.1818C69.0983 64.0038 69.2195 64.697 69.4619 65.2614C69.7081 65.8258 70.0528 66.2538 70.496 66.5455C70.9392 66.8371 71.4581 66.983 72.0528 66.983C72.6475 66.983 73.1664 66.8371 73.6096 66.5455C74.0528 66.2538 74.3956 65.8258 74.638 65.2614C74.8842 64.697 75.0073 64.0038 75.0073 63.1818ZM79.3241 69V57.3636H87.0287V59.392H81.7843V62.1648H86.5173V64.1932H81.7843V69H79.3241ZM88.6835 69V57.3636H96.388V59.392H91.1437V62.1648H95.8767V64.1932H91.1437V69H88.6835ZM105.644 69.1705C104.761 69.1705 103.998 68.983 103.354 68.608C102.714 68.2292 102.219 67.7027 101.871 67.0284C101.522 66.3504 101.348 65.5644 101.348 64.6705C101.348 63.7689 101.522 62.9811 101.871 62.3068C102.219 61.6288 102.714 61.1023 103.354 60.7273C103.998 60.3485 104.761 60.1591 105.644 60.1591C106.526 60.1591 107.288 60.3485 107.928 60.7273C108.572 61.1023 109.068 61.6288 109.416 62.3068C109.765 62.9811 109.939 63.7689 109.939 64.6705C109.939 65.5644 109.765 66.3504 109.416 67.0284C109.068 67.7027 108.572 68.2292 107.928 68.608C107.288 68.983 106.526 69.1705 105.644 69.1705ZM105.655 67.2955C106.057 67.2955 106.392 67.1818 106.661 66.9545C106.93 66.7235 107.132 66.4091 107.269 66.0114C107.409 65.6136 107.479 65.161 107.479 64.6534C107.479 64.1458 107.409 63.6932 107.269 63.2955C107.132 62.8977 106.93 62.5833 106.661 62.3523C106.392 62.1212 106.057 62.0057 105.655 62.0057C105.25 62.0057 104.909 62.1212 104.632 62.3523C104.36 62.5833 104.153 62.8977 104.013 63.2955C103.877 63.6932 103.808 64.1458 103.808 64.6534C103.808 65.161 103.877 65.6136 104.013 66.0114C104.153 66.4091 104.36 66.7235 104.632 66.9545C104.909 67.1818 105.25 67.2955 105.655 67.2955ZM113.933 63.9545V69H111.513V60.2727H113.82V61.8125H113.922C114.115 61.3049 114.439 60.9034 114.894 60.608C115.348 60.3087 115.899 60.1591 116.547 60.1591C117.153 60.1591 117.682 60.2917 118.132 60.5568C118.583 60.822 118.933 61.2008 119.183 61.6932C119.433 62.1818 119.558 62.7652 119.558 63.4432V69H117.138V63.875C117.142 63.3409 117.005 62.9242 116.729 62.625C116.452 62.322 116.072 62.1705 115.587 62.1705C115.261 62.1705 114.973 62.2405 114.723 62.3807C114.477 62.5208 114.284 62.7254 114.144 62.9943C114.007 63.2595 113.937 63.5795 113.933 63.9545ZM35.986 93.1648C35.4292 93.1648 34.933 93.0682 34.4974 92.875C34.0618 92.678 33.7171 92.3883 33.4633 92.0057C33.2133 91.6193 33.0883 91.1383 33.0883 90.5625C33.0883 90.0777 33.1773 89.6705 33.3554 89.3409C33.5334 89.0114 33.7758 88.7462 34.0826 88.5455C34.3894 88.3447 34.7379 88.1932 35.1281 88.0909C35.522 87.9886 35.9349 87.9167 36.3667 87.875C36.8743 87.822 37.2834 87.7727 37.594 87.7273C37.9046 87.678 38.13 87.6061 38.2701 87.5114C38.4103 87.4167 38.4804 87.2765 38.4804 87.0909V87.0568C38.4804 86.697 38.3667 86.4186 38.1394 86.2216C37.916 86.0246 37.5978 85.9261 37.1849 85.9261C36.7493 85.9261 36.4027 86.0227 36.1451 86.2159C35.8876 86.4053 35.7171 86.6439 35.6338 86.9318L33.3951 86.75C33.5088 86.2197 33.7323 85.7614 34.0656 85.375C34.3989 84.9848 34.8288 84.6856 35.3554 84.4773C35.8857 84.2652 36.4993 84.1591 37.1963 84.1591C37.6811 84.1591 38.1451 84.2159 38.5883 84.3295C39.0353 84.4432 39.4311 84.6193 39.7758 84.858C40.1243 85.0966 40.3989 85.4034 40.5997 85.7784C40.8004 86.1496 40.9008 86.5947 40.9008 87.1136V93H38.6054V91.7898H38.5372C38.397 92.0625 38.2095 92.303 37.9747 92.5114C37.7398 92.7159 37.4576 92.8769 37.1281 92.9943C36.7985 93.108 36.4179 93.1648 35.986 93.1648ZM36.6792 91.4943C37.0353 91.4943 37.3497 91.4242 37.6224 91.2841C37.8951 91.1402 38.1091 90.947 38.2644 90.7045C38.4198 90.4621 38.4974 90.1875 38.4974 89.8807V88.9545C38.4216 89.0038 38.3175 89.0492 38.1849 89.0909C38.0561 89.1288 37.9103 89.1648 37.7474 89.1989C37.5845 89.2292 37.4216 89.2576 37.2588 89.2841C37.0959 89.3068 36.9482 89.3277 36.8156 89.3466C36.5315 89.3883 36.2834 89.4545 36.0713 89.5455C35.8591 89.6364 35.6944 89.7595 35.5769 89.9148C35.4595 90.0663 35.4008 90.2557 35.4008 90.483C35.4008 90.8125 35.5201 91.0644 35.7588 91.2386C36.0012 91.4091 36.308 91.4943 36.6792 91.4943ZM45.1991 81.3636V93H42.7787V81.3636H45.1991ZM49.5585 81.3636V93H47.138V81.3636H49.5585ZM59.1437 93.1705C58.2498 93.1705 57.4808 92.9811 56.8369 92.6023C56.1967 92.2197 55.7043 91.6894 55.3596 91.0114C55.0187 90.3333 54.8483 89.553 54.8483 88.6705C54.8483 87.7765 55.0206 86.9924 55.3653 86.3182C55.7138 85.6402 56.2081 85.1117 56.8483 84.733C57.4884 84.3504 58.2498 84.1591 59.1323 84.1591C59.8937 84.1591 60.5604 84.2973 61.1323 84.5739C61.7043 84.8504 62.157 85.2386 62.4903 85.7386C62.8236 86.2386 63.0073 86.8258 63.0414 87.5H60.7573C60.693 87.0644 60.5225 86.714 60.246 86.4489C59.9733 86.1799 59.6153 86.0455 59.1721 86.0455C58.7971 86.0455 58.4695 86.1477 58.1892 86.3523C57.9126 86.553 57.6967 86.8466 57.5414 87.233C57.3861 87.6193 57.3085 88.0871 57.3085 88.6364C57.3085 89.1932 57.3842 89.6667 57.5358 90.0568C57.6911 90.447 57.9089 90.7443 58.1892 90.9489C58.4695 91.1534 58.7971 91.2557 59.1721 91.2557C59.4486 91.2557 59.6967 91.1989 59.9164 91.0852C60.1399 90.9716 60.3236 90.8068 60.4676 90.5909C60.6153 90.3712 60.7119 90.108 60.7573 89.8011H63.0414C63.0036 90.4678 62.8217 91.0549 62.496 91.5625C62.174 92.0663 61.7289 92.4602 61.1608 92.7443C60.5926 93.0284 59.9202 93.1705 59.1437 93.1705ZM68.5343 93.1705C67.6518 93.1705 66.8885 92.983 66.2446 92.608C65.6044 92.2292 65.1101 91.7027 64.7616 91.0284C64.4131 90.3504 64.2389 89.5644 64.2389 88.6705C64.2389 87.7689 64.4131 86.9811 64.7616 86.3068C65.1101 85.6288 65.6044 85.1023 66.2446 84.7273C66.8885 84.3485 67.6518 84.1591 68.5343 84.1591C69.4169 84.1591 70.1783 84.3485 70.8184 84.7273C71.4624 85.1023 71.9586 85.6288 72.3071 86.3068C72.6555 86.9811 72.8298 87.7689 72.8298 88.6705C72.8298 89.5644 72.6555 90.3504 72.3071 91.0284C71.9586 91.7027 71.4624 92.2292 70.8184 92.608C70.1783 92.983 69.4169 93.1705 68.5343 93.1705ZM68.5457 91.2955C68.9472 91.2955 69.2824 91.1818 69.5514 90.9545C69.8203 90.7235 70.023 90.4091 70.1593 90.0114C70.2995 89.6136 70.3696 89.161 70.3696 88.6534C70.3696 88.1458 70.2995 87.6932 70.1593 87.2955C70.023 86.8977 69.8203 86.5833 69.5514 86.3523C69.2824 86.1212 68.9472 86.0057 68.5457 86.0057C68.1404 86.0057 67.7995 86.1212 67.523 86.3523C67.2502 86.5833 67.0438 86.8977 66.9037 87.2955C66.7673 87.6932 66.6991 88.1458 66.6991 88.6534C66.6991 89.161 66.7673 89.6136 66.9037 90.0114C67.0438 90.4091 67.2502 90.7235 67.523 90.9545C67.7995 91.1818 68.1404 91.2955 68.5457 91.2955ZM80.0002 89.2841V84.2727H82.4207V93H80.0968V91.4148H80.0059C79.809 91.9261 79.4813 92.3371 79.023 92.6477C78.5684 92.9583 78.0135 93.1136 77.3582 93.1136C76.7749 93.1136 76.2616 92.9811 75.8184 92.7159C75.3752 92.4508 75.0287 92.0739 74.7787 91.5852C74.5324 91.0966 74.4074 90.5114 74.4037 89.8295V84.2727H76.8241V89.3977C76.8279 89.9129 76.9662 90.3201 77.2389 90.6193C77.5116 90.9186 77.8771 91.0682 78.3355 91.0682C78.6271 91.0682 78.8999 91.0019 79.1537 90.8693C79.4074 90.733 79.612 90.5322 79.7673 90.267C79.9264 90.0019 80.004 89.6742 80.0002 89.2841ZM84.3568 93V84.2727H86.7034V85.7955H86.7943C86.9534 85.2538 87.2204 84.8447 87.5954 84.5682C87.9704 84.2879 88.4022 84.1477 88.8909 84.1477C89.0121 84.1477 89.1428 84.1553 89.2829 84.1705C89.4231 84.1856 89.5462 84.2064 89.6522 84.233V86.3807C89.5386 86.3466 89.3814 86.3163 89.1806 86.2898C88.9799 86.2633 88.7962 86.25 88.6295 86.25C88.2734 86.25 87.9553 86.3277 87.675 86.483C87.3984 86.6345 87.1787 86.8466 87.0159 87.1193C86.8568 87.392 86.7772 87.7064 86.7772 88.0625V93H84.3568ZM98.165 86.7614L95.9491 86.8977C95.9112 86.7083 95.8298 86.5379 95.7048 86.3864C95.5798 86.2311 95.415 86.108 95.2105 86.017C95.0097 85.9223 94.7692 85.875 94.4889 85.875C94.1139 85.875 93.7976 85.9545 93.54 86.1136C93.2824 86.2689 93.1537 86.4773 93.1537 86.7386C93.1537 86.947 93.237 87.1231 93.4037 87.267C93.5703 87.411 93.8563 87.5265 94.2616 87.6136L95.8412 87.9318C96.6896 88.1061 97.3222 88.3864 97.7389 88.7727C98.1555 89.1591 98.3639 89.6667 98.3639 90.2955C98.3639 90.8674 98.1953 91.3693 97.8582 91.8011C97.5249 92.233 97.0665 92.5701 96.4832 92.8125C95.9037 93.0511 95.2351 93.1705 94.4775 93.1705C93.3222 93.1705 92.4018 92.9299 91.7162 92.4489C91.0343 91.964 90.6347 91.3049 90.5173 90.4716L92.898 90.3466C92.9699 90.6989 93.1442 90.9678 93.4207 91.1534C93.6972 91.3352 94.0514 91.4261 94.4832 91.4261C94.9074 91.4261 95.2484 91.3447 95.5059 91.1818C95.7673 91.0152 95.8999 90.8011 95.9037 90.5398C95.8999 90.3201 95.8071 90.1402 95.6252 90C95.4434 89.8561 95.1631 89.7462 94.7843 89.6705L93.273 89.3693C92.4207 89.1989 91.7862 88.9034 91.3696 88.483C90.9567 88.0625 90.7502 87.5265 90.7502 86.875C90.7502 86.3144 90.9018 85.8314 91.2048 85.4261C91.5116 85.0208 91.9415 84.7083 92.4946 84.4886C93.0514 84.2689 93.7029 84.1591 94.4491 84.1591C95.5514 84.1591 96.4188 84.392 97.0514 84.858C97.6877 85.3239 98.059 85.9583 98.165 86.7614ZM103.865 93.1705C102.968 93.1705 102.195 92.9886 101.547 92.625C100.903 92.2576 100.407 91.7386 100.058 91.0682C99.71 90.3939 99.5358 89.5966 99.5358 88.6761C99.5358 87.7784 99.71 86.9905 100.058 86.3125C100.407 85.6345 100.897 85.1061 101.53 84.7273C102.166 84.3485 102.913 84.1591 103.769 84.1591C104.344 84.1591 104.88 84.2519 105.377 84.4375C105.877 84.6193 106.312 84.8939 106.683 85.2614C107.058 85.6288 107.35 86.0909 107.558 86.6477C107.767 87.2008 107.871 87.8485 107.871 88.5909V89.2557H100.502V87.7557H105.593C105.593 87.4072 105.517 87.0985 105.365 86.8295C105.214 86.5606 105.004 86.3504 104.735 86.1989C104.469 86.0436 104.161 85.9659 103.808 85.9659C103.441 85.9659 103.115 86.0511 102.831 86.2216C102.551 86.3883 102.331 86.6136 102.172 86.8977C102.013 87.178 101.932 87.4905 101.928 87.8352V89.2614C101.928 89.6932 102.007 90.0663 102.166 90.3807C102.329 90.6951 102.558 90.9375 102.854 91.108C103.149 91.2784 103.5 91.3636 103.905 91.3636C104.174 91.3636 104.42 91.3258 104.644 91.25C104.867 91.1742 105.058 91.0606 105.218 90.9091C105.377 90.7576 105.498 90.572 105.581 90.3523L107.82 90.5C107.706 91.0379 107.473 91.5076 107.121 91.9091C106.772 92.3068 106.322 92.6174 105.769 92.8409C105.219 93.0606 104.585 93.1705 103.865 93.1705ZM116.712 86.7614L114.496 86.8977C114.458 86.7083 114.377 86.5379 114.252 86.3864C114.127 86.2311 113.962 86.108 113.757 86.017C113.557 85.9223 113.316 85.875 113.036 85.875C112.661 85.875 112.344 85.9545 112.087 86.1136C111.829 86.2689 111.701 86.4773 111.701 86.7386C111.701 86.947 111.784 87.1231 111.951 87.267C112.117 87.411 112.403 87.5265 112.808 87.6136L114.388 87.9318C115.237 88.1061 115.869 88.3864 116.286 88.7727C116.702 89.1591 116.911 89.6667 116.911 90.2955C116.911 90.8674 116.742 91.3693 116.405 91.8011C116.072 92.233 115.613 92.5701 115.03 92.8125C114.451 93.0511 113.782 93.1705 113.024 93.1705C111.869 93.1705 110.949 92.9299 110.263 92.4489C109.581 91.964 109.182 91.3049 109.064 90.4716L111.445 90.3466C111.517 90.6989 111.691 90.9678 111.968 91.1534C112.244 91.3352 112.598 91.4261 113.03 91.4261C113.454 91.4261 113.795 91.3447 114.053 91.1818C114.314 91.0152 114.447 90.8011 114.451 90.5398C114.447 90.3201 114.354 90.1402 114.172 90C113.99 89.8561 113.71 89.7462 113.331 89.6705L111.82 89.3693C110.968 89.1989 110.333 88.9034 109.916 88.483C109.504 88.0625 109.297 87.5265 109.297 86.875C109.297 86.3144 109.449 85.8314 109.752 85.4261C110.058 85.0208 110.488 84.7083 111.041 84.4886C111.598 84.2689 112.25 84.1591 112.996 84.1591C114.098 84.1591 114.966 84.392 115.598 84.858C116.235 85.3239 116.606 85.9583 116.712 86.7614Z" fill="#0A102F"/>
</svg>
