<svg width="62" height="70" viewBox="0 0 62 70" fill="none" xmlns="http://www.w3.org/2000/svg">
<path d="M52.2205 44.333C52.2205 52.065 45.9524 58.333 38.2205 58.333C30.4885 58.333 24.2205 52.065 24.2205 44.333C24.2205 36.601 30.4885 30.333 38.2205 30.333C45.9524 30.333 52.2205 36.601 52.2205 44.333ZM27.8594 44.333C27.8594 50.0552 32.4982 54.694 38.2205 54.694C43.9427 54.694 48.5815 50.0552 48.5815 44.333C48.5815 38.6108 43.9427 33.972 38.2205 33.972C32.4982 33.972 27.8594 38.6108 27.8594 44.333Z" fill="#4B2AAD"/>
<path d="M26.7649 44.3896C26.7761 50.5343 31.7348 55.5906 38.0213 55.5906C48.0102 55.5527 52.96 43.4175 45.907 36.3999C38.881 29.4111 26.7546 34.3315 26.7649 44.3896ZM38.0149 53.9526C38.0043 53.9526 37.9936 53.9526 37.983 53.9526C32.7573 53.9526 28.4124 49.7274 28.4028 44.3869C28.3934 36.4226 36.835 34.5787 35.4254 35.1247C38.5706 34.2332 42.1936 35.0162 44.7522 37.5611C50.7739 43.5528 46.5542 53.9199 38.0149 53.9526Z" fill="#0A102F"/>
<path d="M61.0971 65.3647C59.3504 63.3701 58.0548 62.1326 56.8018 60.935C52.4863 56.8108 53.0867 56.9496 52.4604 56.498C52.6439 55.875 52.7318 55.2154 52.6707 54.6345C52.5516 53.5097 51.7573 52.5767 50.775 52.3407C55.3758 44.8967 52.6184 35.1987 44.8352 31.2264C44.2561 18.943 46.126 12.0332 41.8443 6.07372C40.0707 3.15957 37.4099 1.12363 34.242 0.381511C34.1126 0.351253 33.9863 0.36165 33.8656 0.390975C33.31 0.173861 35.3471 0.34176 1.4185 -0.000244141C0.636858 -0.000244141 0.000244141 0.635837 0.000244141 1.41748V55.2023C0.000244141 55.5831 0.212049 55.9024 0.512961 56.0863C0.874989 56.609 1.15111 57.0481 1.60511 57.6601C10.2197 57.5233 20.615 57.8142 29.2773 57.6889C33.8808 60.9281 39.7117 60.9608 44.2596 58.6808C44.6347 59.8759 46.0113 60.4777 47.2698 60.478C48.6067 62.0778 54.2369 67.4913 54.7491 67.9906C56.4587 69.6572 57.1416 69.9159 57.8108 69.8206C58.7278 70.0972 59.8257 70.1076 60.5202 69.4616C61.4266 68.6187 62.0451 66.4481 61.0971 65.3647ZM51.3719 44.4854C51.3922 51.8166 45.443 57.7978 38.1118 57.8186C38.1022 57.8186 38.0937 57.8186 38.0841 57.8186C26.9229 57.8186 20.7192 44.8229 27.7756 36.1177C30.3071 33.0221 34.0479 31.2413 38.0393 31.2333C38.0414 31.2365 38.0734 31.2333 38.0905 31.2333C45.3907 31.2333 51.3442 37.1681 51.3719 44.4854ZM34.8801 2.29349C38.0929 3.40929 40.5247 6.07252 41.7377 9.80203C39.5463 9.83402 37.28 9.85561 34.8029 9.68866C34.7429 7.17852 34.8562 5.18991 34.8801 2.29349ZM1.63817 1.63928L33.2471 1.85202C33.2363 4.64693 33.0977 7.08003 33.1671 9.82462C33.1927 10.6143 33.8336 11.2701 34.6195 11.3175C37.311 11.5036 39.7412 11.47 42.0882 11.4359L41.9917 30.1311C32.9883 27.6818 24.1422 33.9384 23.2279 42.9826C22.3993 47.2768 23.4765 51.3019 26.0561 54.6137H1.63817V1.63928ZM59.4048 68.262C59.1602 68.4855 57.9966 68.3286 57.6464 67.9271C54.2218 64.0177 52.9533 63.2666 49.7728 59.7157C50.5971 59.2215 51.2248 58.6781 51.6925 58.0474C54.985 61.7499 56.5621 62.6707 59.8644 66.4438C60.0595 66.6662 59.8537 67.8439 59.4048 68.262Z" fill="#0A102F"/>
<path d="M39.3244 39.0439C40.5252 39.2881 41.4923 40.4835 41.4806 41.7082C41.4764 42.1603 41.84 42.5303 42.2921 42.5346H42.2996C42.7485 42.5346 43.1143 42.1731 43.1185 41.7231C43.1367 39.7205 41.6139 37.8384 39.6508 37.439C39.2061 37.3478 38.7742 37.6347 38.6846 38.0783C38.5951 38.5214 38.8808 38.9538 39.3244 39.0439Z" fill="#0A102F"/>
<path d="M41.4923 44.1767L41.3857 44.2705C40.8216 44.7681 41.1751 45.7032 41.9274 45.7032C42.1204 45.7032 42.3134 45.6354 42.4691 45.4979L42.5566 45.4222C42.8999 45.1279 42.9404 44.6112 42.6472 44.2673C42.3529 43.9234 41.8368 43.885 41.4923 44.1767Z" fill="#0A102F"/>
<path d="M13.4527 15.5323C16.6826 15.6803 16.7071 15.7802 17.0682 15.7802C17.4841 15.7802 17.8403 15.4646 17.8819 15.0417C17.9266 14.5917 17.5982 14.1908 17.1482 14.146C13.6836 13.8037 10.1668 13.7253 6.69365 13.9125C6.24151 13.937 5.89495 14.323 5.91948 14.7746C5.944 15.2268 6.32043 15.5643 6.78109 15.5483C8.4494 15.4575 10.1278 15.4316 11.8052 15.4672C12.0432 19.1101 13.1173 24.6423 10.3086 26.5925C8.47079 27.8674 6.37676 25.456 6.22339 23.2991C6.19033 22.848 5.79045 22.4956 5.34898 22.5404C4.89791 22.5723 4.55774 22.9637 4.58973 23.4153C4.8391 26.9324 8.31058 29.9718 11.2427 27.9382C14.3776 25.7624 13.949 21.1318 13.5972 17.3552C13.5397 16.736 13.4946 16.1335 13.4527 15.5323Z" fill="#0A102F"/>
<path d="M25.1459 22.2668C24.6682 20.2924 22.7114 17.7604 20.3175 18.156C17.868 18.5505 15.8302 20.7798 15.5796 23.3411C15.3909 25.2643 16.3186 27.1902 17.8872 28.1339C19.592 29.1596 21.9459 28.9246 23.4856 27.6055C24.9486 26.352 25.6162 24.2065 25.1459 22.2668ZM18.7318 26.7306C17.7092 26.1153 17.0832 24.7877 17.209 23.5011C17.385 21.7165 18.896 20.044 20.5777 19.7726C21.8957 19.5726 23.2414 21.3641 23.5549 22.6523C23.8834 24.0081 23.427 25.4984 22.4192 26.3616C21.4094 27.228 19.8237 27.3864 18.7318 26.7306Z" fill="#0A102F"/>
<path d="M30.9461 28.7316C35.0656 28.7316 37.1402 24.3404 35.2616 21.2304C34.1355 19.3648 31.7042 18.4392 29.6184 19.0443L29.7709 12.9363C29.7827 12.4841 29.4244 12.1082 28.9722 12.0965C28.4988 12.0842 28.1447 12.4425 28.133 12.8947L27.7768 27.1598C27.7704 27.428 27.8952 27.6829 28.1117 27.8412C28.9274 28.4389 29.933 28.7316 30.9461 28.7316ZM29.5758 20.7206C29.691 20.7286 29.7944 20.7126 29.9021 20.6732C31.3097 20.1683 33.0852 20.7958 33.8604 22.0771C34.6335 23.3583 34.3648 25.2228 33.2611 26.2337C32.2449 27.1646 30.607 27.3566 29.4265 26.736L29.5758 20.7206Z" fill="#0A102F"/>
</svg>
