<svg width="73" height="70" viewBox="0 0 73 70" fill="none" xmlns="http://www.w3.org/2000/svg">
<path d="M43.1493 20.4163C43.1493 19.4205 42.9532 18.4344 42.5721 17.5143C42.191 16.5943 41.6324 15.7583 40.9282 15.0541C40.224 14.3499 39.3881 13.7914 38.468 13.4103C37.548 13.0292 36.5619 12.833 35.566 12.833C34.5701 12.833 33.584 13.0292 32.664 13.4103C31.7439 13.7914 30.908 14.3499 30.2038 15.0541C29.4996 15.7583 28.941 16.5943 28.5599 17.5143C28.1788 18.4344 27.9827 19.4205 27.9827 20.4163L35.566 20.4163H43.1493Z" fill="#4B2AAD"/>
<path d="M24.4825 60.0831C24.4825 59.0872 24.2713 58.1011 23.8609 57.1811C23.4504 56.261 22.8489 55.425 22.0905 54.7209C21.3322 54.0167 20.4319 53.4581 19.4411 53.077C18.4503 52.6959 17.3883 52.4998 16.3158 52.4998C15.2434 52.4998 14.1814 52.6959 13.1906 53.077C12.1998 53.4581 11.2995 54.0167 10.5411 54.7209C9.78279 55.425 9.18123 56.261 8.77082 57.1811C8.36041 58.1011 8.14917 59.0872 8.14917 60.0831L16.3158 60.0831H24.4825Z" fill="#4B2AAD"/>
<path d="M65.316 60.6664C65.316 59.594 65.1048 58.532 64.6943 57.5412C64.2839 56.5503 63.6824 55.6501 62.924 54.8917C62.1657 54.1334 61.2654 53.5318 60.2746 53.1214C59.2838 52.711 58.2218 52.4998 57.1493 52.4998C56.0769 52.4998 55.0149 52.711 54.0241 53.1214C53.0333 53.5318 52.133 54.1334 51.3746 54.8917C50.6163 55.6501 50.0147 56.5503 49.6043 57.5412C49.1939 58.532 48.9827 59.594 48.9827 60.6664L57.1493 60.6664H65.316Z" fill="#4B2AAD"/>
<path d="M43.4889 21.1469L43.5132 21.1466C43.9744 21.1433 44.3468 20.7693 44.349 20.3086C44.3508 19.9443 44.1893 19.6077 44.0677 19.328C43.414 17.5385 42.7635 15.8886 41.3096 14.5336C39.7579 13.0879 37.7366 12.3075 35.7743 12.2971C33.2432 12.2982 31.3961 13.6287 30.2045 14.6688C27.9679 16.3129 26.4873 18.4603 25.7989 21.0929C25.7408 21.3153 25.9146 21.5337 26.1444 21.5327C44.6318 21.5806 43.2438 21.4572 43.4889 21.1469ZM42.3253 19.4717L28.6298 19.6033C29.0466 18.3332 29.8644 17.2144 31.2327 16.0056C32.7177 14.6939 34.283 13.8357 36.2399 14.0016C37.6839 14.13 39.0769 14.7563 40.1612 15.7665C41.2496 16.7809 41.7999 18.0613 42.3253 19.4717Z" fill="#0A102F"/>
<path d="M34.4483 11.8828C38.1623 13.3858 41.7767 9.85982 40.3249 6.41552C38.6503 2.44588 32.3829 3.02955 31.7732 7.43067C31.2214 9.55968 32.399 11.3518 34.4483 11.8828Z" fill="#0A102F"/>
<path d="M16.0071 50.6152C18.5091 51.104 20.7881 49.7977 21.6686 47.7663C23.3518 43.8817 19.2778 39.9404 15.1565 41.4649C13.8659 41.9426 12.8121 42.8792 12.2737 44.275C10.6756 47.3468 12.6675 50.4733 16.0071 50.6152ZM20.1225 47.0962C18.9997 49.6893 14.9789 49.6911 13.866 47.0523C13.2169 45.5114 13.9809 43.6963 15.7411 43.0443C18.501 42.0246 21.2103 44.5867 20.1225 47.0962Z" fill="#0A102F"/>
<path d="M22.8615 53.6324C21.3072 52.1834 19.3055 51.2851 17.2275 51.103C15.0079 50.9036 13.0605 51.6293 11.2764 52.9049C8.5368 54.4247 5.93577 57.3461 4.94086 61.1511C4.87334 61.4094 5.07516 61.663 5.34218 61.6617C26.2533 61.6088 24.9147 61.5729 25.1509 61.4839C25.3252 61.4182 25.4644 61.2518 25.5731 61.065C26.0035 61.0288 26.3447 60.6798 26.3479 60.241C26.3501 59.8856 26.2102 59.5664 26.0978 59.3098C25.403 57.7087 24.8793 55.5125 22.8615 53.6324ZM24.328 59.4019L8.04232 59.5588C8.51452 57.9848 9.48853 56.6192 11.1612 55.1417C12.8929 53.6121 14.759 52.5765 17.0788 52.7812C18.7861 52.9304 20.4319 53.6708 21.7131 54.8653C23.0411 56.1029 23.6885 57.6695 24.328 59.4019Z" fill="#0A102F"/>
<path d="M56.7809 51.2897C60.7775 52.0753 63.9342 48.3199 62.4631 44.8333C60.7718 40.8245 54.669 40.7851 53.0527 44.9484C51.4456 48.0355 53.4647 51.1463 56.7809 51.2897ZM60.9006 47.7707C59.7759 50.3681 55.7564 50.3634 54.6441 47.7279C53.9842 46.1617 54.7832 44.3629 56.5192 43.7199C59.289 42.6979 61.988 45.2622 60.9006 47.7707Z" fill="#0A102F"/>
<path d="M63.6396 54.308C61.9381 52.7225 59.673 51.7685 57.3035 51.7468C55.4788 51.7476 53.7808 52.3443 52.0504 53.5824C49.313 55.1023 46.7136 58.0222 45.7189 61.8262C45.6514 62.0845 45.8532 62.338 46.1202 62.3369C67.6361 62.4819 66.0579 62.2433 66.3508 61.7406C66.7815 61.7047 67.1228 61.3554 67.126 60.9166C67.1282 60.5601 66.9878 60.2398 66.8748 59.9821C66.0652 57.8178 65.3536 55.904 63.6396 54.308ZM65.1066 60.0775L48.8204 60.2344C49.2926 58.6604 50.2666 57.2937 51.9393 55.8162C53.6806 54.278 55.5409 53.2526 57.8564 53.4557C59.5642 53.606 61.21 54.3464 62.4912 55.5409C63.8191 56.7765 64.4699 58.3515 65.1066 60.0775Z" fill="#0A102F"/>
<path d="M40.012 30.4699C40.0182 30.8788 40.265 31.2318 40.8056 31.3013C43.7605 31.7422 46.3447 31.819 48.7057 31.5349C52.6382 31.0617 53.1408 28.4622 53.0499 24.8591C52.5476 4.9605 52.7865 4.44578 51.6412 2.48241C50.987 1.36101 49.7108 0.520807 48.4658 0.516419C47.3105 0.257843 33.8152 -0.42971 23.264 0.388361C21.5364 0.521081 20.1494 1.94481 20.0381 3.6987C19.8748 6.2681 19.9219 8.87343 20.1537 11.4605C18.6554 11.259 17.4787 11.0952 16.13 11.9976C13.7387 13.5786 12.8403 16.4755 14.1022 19.1118C14.3319 20.1999 14.7851 21.2 15.8819 21.9729C17.0528 22.7981 18.6347 23.0714 20.0537 22.7371C19.8862 25.2348 19.8993 27.4403 20.1017 29.4147C20.2125 30.4863 21.0297 31.3364 22.0887 31.4845C25.9441 32.0171 31.3834 31.3597 31.7 31.2574C31.8125 31.2 31.8849 31.1677 31.9465 31.1198C32.566 31.0092 33.1381 30.8645 33.8234 30.8017C34.019 29.6837 34.5112 28.2129 35.2491 27.3504C35.9871 26.488 37.1151 25.9097 38.2439 26.0292C38.2527 26.0302 38.2611 26.0333 38.27 26.0343C39.5519 27.1055 39.9866 28.7978 40.012 30.4699ZM22.3207 29.815C22.036 29.7756 21.8079 29.5342 21.7777 29.2425C21.5315 26.8403 21.5786 23.9501 21.9192 20.6507C21.9733 20.1256 21.4808 19.6709 20.9874 19.7272C20.5956 19.7891 20.595 19.7235 19.3186 20.0244C18.1877 20.2943 17.5137 20.4193 16.8023 19.8709C14.761 18.297 14.55 15.0617 17.0634 13.4005C18.3609 12.5303 19.7701 13.3016 21.1152 13.2225C21.6078 13.1955 21.9672 12.7514 21.9187 12.2981C21.6083 9.47369 21.5414 6.61636 21.7196 3.80619C21.7783 2.88373 22.4973 2.13676 23.3934 2.06876C30.5005 1.51813 38.4967 1.53239 47.8354 2.11702C48.6893 2.16967 49.3748 2.85301 49.4308 3.70528C50.0308 12.8509 50.0192 21.1125 49.3957 28.9606C49.3584 29.4257 48.9838 29.8052 48.5045 29.8622C46.4917 30.1068 44.1982 30.0596 41.6633 29.7207C41.3928 26.2724 39.4322 24.1969 37.3817 23.7505C34.6489 23.1637 31.382 25.2415 30.6887 29.6955C27.1869 30.0827 24.5155 30.1189 22.3207 29.815Z" fill="#0A102F"/>
<path d="M35.3762 49.7571C34.4667 49.167 33.5991 49.0614 32.7867 49.1068C32.7169 47.8305 32.8448 46.5463 32.884 45.2655C32.9292 43.7891 32.8246 42.257 32.1438 40.9461C31.734 40.1571 30.7326 39.1381 29.4812 38.7021C29.0454 38.4644 28.5602 38.306 28.0349 38.273C26.1899 38.163 24.2415 38.1065 22.257 38.0761C22.4921 36.3288 21.9215 34.4753 20.7026 33.1952C19.7201 32.1631 17.558 30.9869 15.9936 31.4132C14.0796 31.2662 12.1047 32.2133 10.937 34.0413C9.97209 35.549 10.3225 37.0014 10.6449 38.2864C8.31768 38.4005 5.92501 38.5555 3.35327 38.7643C1.65971 38.9069 0.322637 40.2923 0.243663 41.9858C-0.19947 51.2357 -0.0387796 59.5752 0.735607 67.4792C0.979296 70.0083 3.51569 69.9998 5.89087 69.9998C6.00465 69.9998 29.019 69.6357 30.1599 69.2388C30.6749 69.2314 31.1905 69.1186 31.6159 68.8338C33.5318 67.5515 33.1936 62.6353 32.6809 60.3611C36.5915 60.673 38.5422 58.0777 38.0353 54.6633C38.113 52.557 37.0269 50.8096 35.3762 49.7571ZM3.31324 68.1932C2.8361 68.1482 2.45713 67.7797 2.41271 67.3157C1.646 59.4929 1.48696 51.2335 1.92625 42.0659C1.96629 41.2125 2.64086 40.5149 3.49203 40.4426C8.83526 40.0112 11.6868 39.9544 11.9545 39.8642C13.5496 39.3399 11.1356 36.8562 12.3569 34.9484C13.9124 32.5144 17.0938 32.3365 18.7922 35.0142C19.5583 36.1971 19.2438 37.3134 19.1712 38.8477C19.1708 38.8546 19.1742 38.8603 19.1741 38.8672C19.1739 38.8742 19.1701 38.8801 19.1701 38.8872C19.1701 38.9096 19.2238 39.1739 19.2323 39.1954C19.5937 40.1073 20.0167 39.4828 27.9318 39.9544C28.8373 40.0115 29.5557 40.7343 29.6391 41.6634C30.086 47.3153 29.4089 49.9311 29.6583 50.5477C29.9719 51.3204 30.9258 51.0629 31.8509 50.9143C32.8831 50.7509 33.6273 50.6302 34.4647 51.1732C36.998 52.7926 36.8723 56.0203 34.8442 57.6348C33.7757 58.4923 32.5787 57.7415 30.9783 57.5986C30.866 57.6211 29.5971 57.3608 29.7378 58.5134C30.136 61.77 30.2352 64.6591 30.0334 67.0964C30.0076 67.3859 29.7822 67.6305 29.4998 67.6755C27.5181 67.9899 4.80157 68.3488 3.31324 68.1932Z" fill="#0A102F"/>
<path d="M67.741 37.7929C67.4266 37.6862 67.0987 37.6097 66.7535 37.5952C64.5662 37.5036 62.352 37.5565 60.1471 37.7518C60.2399 36.1884 59.7077 34.5876 58.6554 33.4241C57.9641 32.6597 56.6108 31.6595 55.4429 31.6387C53.2123 30.8984 50.6394 31.6993 49.1593 33.709C48.0852 35.1672 48.5115 36.5047 48.897 38.0945C45.9061 37.9001 43.313 37.9301 41.0468 38.2127C39.995 38.3432 39.1427 39.1977 39.0193 40.2441C38.7292 42.7263 38.8542 45.7251 39.4164 49.7024C39.4747 50.0539 39.7918 50.3733 40.1768 50.4085C40.1773 50.4085 40.1777 50.4087 40.1781 50.4087C40.1791 50.4089 40.1787 50.4087 40.1842 50.4098C41.9928 50.561 43.6613 51.0744 44.7402 52.533C45.3174 53.8495 44.9486 55.3753 44.0322 56.3008C43.1663 57.1753 41.5754 57.749 40.3946 57.4021C40.2543 57.7528 40.0449 58.0576 39.8684 58.3843C39.7401 58.509 39.6632 58.6736 39.6345 58.8572C39.6268 58.89 39.6093 58.9182 39.605 58.9522C39.2272 61.9181 39.2063 64.5024 39.5414 66.8551C39.7229 68.1253 40.7704 69.0982 42.0329 69.1717C50.5333 69.6634 59.0104 69.4023 67.5268 68.6595C68.2908 68.5926 68.9721 68.2632 69.5055 67.776C72.4937 66.0626 72.6835 62.617 72.6936 59.1639C72.7344 45.3688 72.994 43.4981 71.7915 40.9856C71.2351 39.8232 69.3396 37.7208 67.741 37.7929ZM42.13 67.4891C41.6649 67.4628 41.2777 67.0964 41.2097 66.6182C40.9235 64.6077 40.9213 62.3097 41.2037 59.776C49.2562 58.9711 49.0628 49.8971 40.9931 48.804C40.5302 45.3116 40.4353 42.6419 40.6931 40.4404C40.7266 40.1542 40.9624 39.9205 41.2547 39.8843C45.8685 39.3086 49.5937 39.9182 50.0816 39.8169C51.0019 39.6422 50.6842 38.6953 50.708 38.5824C50.4956 36.9678 49.7076 35.8049 50.5155 34.7082C52.0621 32.6104 55.2843 32.3636 56.9903 34.83C57.996 36.2639 56.9829 37.9238 57.2884 39.041C57.6635 40.418 58.9733 38.962 66.6833 39.2778C67.6058 39.3173 68.3681 40.0203 68.4564 40.9143C69.16 48.0165 69.3163 56.0104 68.9346 65.3524C68.9001 66.2069 68.2315 66.9067 67.3809 66.9813C58.2451 67.7776 49.9857 67.9465 42.13 67.4891Z" fill="#0A102F"/>
</svg>
