<svg width="61" height="74" viewBox="0 0 61 74" fill="none" xmlns="http://www.w3.org/2000/svg">
<path d="M8.8083 51.6625L12.7277 34.5661L16.7434 44.7982L26.0171 41.3445L18.7317 62.1285L17.5481 49.4035L8.8083 51.6625Z" fill="#4B2AAD"/>
<path d="M47.3452 4.94925C44.0119 3.24753 39.9733 1.85937 36.2032 2.08361C35.9671 2.06212 35.731 2.03989 35.4962 2.02717C28.1234 1.60435 20.5267 5.57638 16.5961 11.9067C12.6074 18.3318 12.4557 26.9583 16.2183 33.3708C17.928 36.2953 20.3589 38.7406 21.9608 41.653C20.0194 42.5292 18.3335 43.3715 16.8779 44.1944C15.7187 40.2314 14.6463 35.5089 13.4541 31.6283C13.3462 31.2769 13.0109 31.0446 12.6381 31.0634C12.2327 31.0841 11.9483 31.3466 11.8672 31.7075L7.17376 52.5354C7.10243 52.8508 7.19358 53.1773 7.58384 53.3882C7.90887 53.6977 8.29437 53.9462 8.72482 54.0851C11.2851 53.1973 14.0684 52.2329 16.6613 51.3339C16.8056 55.8377 17.2887 58.878 17.9948 63.9584C18.0797 64.5784 18.8141 64.8598 19.3118 64.4714C19.5326 64.4241 19.8163 64.3384 20.2738 64.1582C21.5837 59.5831 22.9783 55.1081 24.4475 50.639C24.9784 51.7652 26.0024 52.8475 26.6532 52.9709L26.9565 53.4749C26.2749 55.0285 26.0575 56.7268 27.1827 57.979C26.2425 59.3802 26.3932 61.1997 27.4028 62.3995C27.2308 62.9702 27.2008 63.6007 27.3277 64.1855C27.6374 65.6053 28.6066 66.0975 28.899 66.3882C30.1718 67.8615 31.4879 69.5539 32.9738 70.8052L33.0967 71.0056C33.6585 71.9206 37.3363 71.6697 38.8407 71.1376C41.332 71.3801 45.1461 69.1636 46.1753 65.6566C47.5694 65.2056 48.4125 63.2677 47.9195 61.7159C47.6057 60.7283 47.9186 60.7431 48.2061 60.4011C48.9533 59.5119 49.2245 58.2398 48.8384 57.1579C48.6675 56.6791 48.231 56.1781 47.728 56.3133C48.7923 55.3127 49.1923 53.5391 48.085 52.0881C48.9753 51.5045 49.7698 50.7191 49.9665 50.1022C50.7804 47.5496 50.1374 44.8905 51.2092 42.216C52.2347 39.6569 53.9471 37.4094 55.3129 35.0213C58.9055 28.7394 59.1299 21.0173 55.9154 14.5953C53.961 10.6908 51.2768 6.95631 47.3452 4.94925ZM29.6357 64.8562C28.9293 64.3307 28.7632 63.5752 28.9742 62.8592C33.6512 63.7289 33.004 60.7871 31.6189 61.1685C29.8761 61.6324 28.7515 61.0762 28.4737 61.0681C27.6447 59.6127 28.8166 58.6081 28.9475 58.3129C30.6261 58.6626 32.3061 58.7192 33.9795 58.4833C34.4289 58.4193 34.746 58.0081 34.6878 57.565C34.6291 57.122 34.2199 56.8201 33.7675 56.8779C31.8915 57.1436 29.9562 56.9843 28.1567 56.4289C27.6977 55.1758 28.6924 53.884 28.7015 53.4197C32.9231 53.869 38.4302 53.4448 42.7446 52.6677C42.8428 52.8446 43.4824 53.6764 43.631 54.5456C43.8667 55.9289 43.0269 55.8295 42.9774 56.5453C42.9908 56.6661 42.8201 57.189 43.2982 57.5229C44.0804 58.0681 44.3698 59.3016 43.7964 60.2374C42.4405 60.9326 44.6717 62.0063 43.5787 63.574C43.4527 63.6031 36.3488 66.579 29.6357 64.8562ZM17.1765 48.6209C14.4737 49.5577 11.8237 50.5015 9.09417 51.4554L12.7616 35.1805C13.6872 38.5778 14.6059 42.4282 15.5993 45.6619C15.7544 46.1694 16.3532 46.3802 16.8044 46.1082C18.7778 44.9242 21.3457 43.6539 24.4543 42.3238C22.3403 48.8383 20.7796 54.0706 19.0921 59.9026C18.6105 56.3831 18.3014 53.6131 18.2601 49.3665C18.2549 48.8173 17.7081 48.4373 17.1765 48.6209ZM25.3413 47.9217C25.9535 46.1021 26.5797 44.2805 27.2214 42.4506C27.0734 42.1399 26.8065 41.5631 26.5735 41.0623C26.726 40.4074 26.0773 39.8942 25.4748 40.1439C24.778 40.4297 24.1153 40.7102 23.471 40.9882C21.7144 37.7401 19.3804 35.5154 17.6419 32.5451C14.1707 26.6285 14.3118 18.6695 17.9928 12.7406C21.6106 6.91376 28.5916 3.2522 35.3806 3.646C35.6565 3.66145 35.9323 3.68695 36.1985 3.71143C42.6381 4.3847 48.7044 8.62682 51.6541 14.5197C53.6461 18.4961 54.1208 23.3713 52.9897 28.2518C51.3391 35.5645 47.0371 38.4729 45.6792 43.9936C44.8251 47.5405 46.1569 49.5446 44.4192 50.6866C40.0791 51.4078 35.5883 52.5094 27.3782 51.5997C26.6326 50.8946 25.8503 50.6936 25.3413 47.9217ZM34.3186 69.8494C33.8512 69.2028 33.958 69.7997 31.4298 66.8262C34.8106 67.2375 38.1975 66.8747 41.4805 65.9634C41.3041 66.1907 41.1283 66.4193 40.9542 66.6462C38.5589 69.7671 38.8133 69.1438 38.5807 69.5123C37.3506 70.0117 35.921 70.1244 34.3186 69.8494Z" fill="#0A102F"/>
<path d="M10.497 23.9853C10.3917 23.5569 9.94593 23.3021 9.51336 23.4066L1.75925 25.324C1.32102 25.4324 1.05034 25.8672 1.1551 26.2956C1.25845 26.7166 1.69051 26.9829 2.13869 26.8744L9.8928 24.957C10.331 24.8486 10.6017 24.4138 10.497 23.9853Z" fill="#0A102F"/>
<path d="M2.28817 16.8451L8.7085 18.7412C9.1413 18.8679 9.59839 18.6252 9.73272 18.201C9.86783 17.7754 9.62843 17.3271 9.19788 17.1999L2.77649 15.3038C2.34761 15.178 1.88738 15.4184 1.75283 15.8445C1.61772 16.2702 1.85762 16.7178 2.28817 16.8451Z" fill="#0A102F"/>
<path d="M10.6565 13.3839C11.0252 13.6435 11.5366 13.5532 11.8022 13.1908C12.0685 12.8258 11.9883 12.3203 11.6223 12.0616C10.3978 11.1972 9.33614 10.1432 8.46635 8.92855C8.20613 8.56449 7.69449 8.48382 7.32496 8.74515C6.95384 9.00657 6.86357 9.51264 7.12372 9.87512C8.09705 11.2351 9.28547 12.4156 10.6565 13.3839Z" fill="#0A102F"/>
<path d="M30.8225 36.1146C36.7107 29.143 42.6937 22.2231 48.5167 15.3268C48.8701 14.9089 48.7191 14.2814 48.2227 14.0711C47.058 13.577 45.8764 13.1529 44.7676 12.6824C44.4501 12.5479 44.0785 12.6261 43.8395 12.8803C39.2609 17.7504 34.6842 23.086 30.2248 28.7496C28.2947 26.5732 27.0613 24.9631 25.1446 22.1593C24.9085 21.8129 24.4398 21.7073 24.0684 21.9156C22.8918 22.5729 21.8664 23.4689 20.8337 24.3476C20.5174 24.6159 20.4507 25.0733 20.6794 25.4121C23.5509 29.6679 26.3172 32.2681 29.5649 36.1239C29.8889 36.5086 30.4926 36.5059 30.8225 36.1146ZM22.4499 25.0925C23.024 24.6063 23.612 24.1224 24.2216 23.7131C26.1407 26.4868 27.4329 28.1108 29.6453 30.5596C29.9904 30.9413 30.5977 30.8985 30.905 30.5049C35.3983 24.7535 40.0164 19.3349 44.6391 14.3906C45.3118 14.6643 46.008 14.9305 46.5521 15.146C41.144 21.5381 35.6079 27.9524 30.2019 34.3436C27.3785 31.0611 24.924 28.6362 22.4499 25.0925Z" fill="#0A102F"/>
</svg>
