<svg width="151" height="150" viewBox="0 0 151 150" fill="none" xmlns="http://www.w3.org/2000/svg">
<g opacity="0.5">
<path d="M130.202 6.06771C126.566 1.52248 120.808 -0.901639 115.051 0.310423C114.142 0.613438 113.233 0.613438 112.324 1.21947C110.506 1.8255 85.0526 13.3401 74.7501 18.1883C74.7501 16.6733 74.7501 15.1582 74.4471 13.9461C72.629 7.88581 67.1747 3.64359 60.8114 3.94661C50.5089 3.34058 20.2073 2.73454 19.9043 2.73454H15.6621C14.147 2.73454 12.3289 2.73455 10.8139 3.34058C5.35958 4.85565 1.11737 9.40088 0.208323 16.0672V18.4913C0.208323 18.7944 0.208323 44.5507 0.208323 43.0356V59.3984V63.6406C0.208323 65.1557 0.511338 66.9738 0.814354 68.4889C1.7234 71.822 3.84451 74.5492 6.87466 76.3673C6.87466 76.6703 7.17768 76.6703 7.17768 76.6703C3.23848 79.3974 0.814354 83.6396 0.511338 88.4879C0.511338 90.912 -0.397708 134.849 0.208323 138.182C0.814354 141.516 2.93546 144.546 5.6626 146.667C8.38974 148.788 11.7229 150 15.0561 150H15.6621C18.0862 150 27.4797 150 59.9023 149.697C61.1144 149.697 62.9325 149.697 64.4476 149.091C67.7807 148.182 70.5079 146.364 72.629 143.637C72.932 143.334 72.932 143.031 72.932 143.031C73.538 143.94 74.1441 144.546 74.7501 145.152C77.1742 147.576 80.2044 149.091 83.5375 149.697C86.5677 150 131.414 150 133.232 149.697C136.565 149.394 139.898 147.576 142.02 145.152C144.444 142.728 145.959 139.394 146.262 136.061C146.262 134.849 146.262 133.94 145.656 94.8512V90.609C145.656 89.0939 145.656 87.8819 145.353 86.3668C145.05 83.3366 143.535 80.3065 141.11 78.1854C138.989 76.0643 135.959 74.8522 132.929 74.5492C132.323 74.5492 131.717 74.5492 131.414 74.5492C134.747 73.3371 138.08 71.822 141.716 70.307C145.05 68.7919 147.777 66.0648 149.292 62.7316C150.807 59.3984 150.807 55.4592 149.595 52.126C130.808 6.06771 131.717 8.18882 130.202 6.06771ZM6.57165 66.6708C6.26863 65.7617 6.26863 64.8527 6.26863 63.6406C6.26863 63.0346 6.26863 41.8235 6.26863 43.0356C6.26863 42.7326 6.26863 16.6733 6.26863 18.4913C6.26863 17.8853 6.26863 17.2793 6.26863 16.6733C6.87466 12.431 9.29878 9.7039 12.632 8.49184C13.541 8.18882 14.45 8.18882 15.6621 8.18882H19.9043C20.2073 8.18882 50.5089 7.58279 60.8114 7.27977C65.9627 6.97676 70.5079 10.0069 72.326 14.5521C72.629 15.7642 72.932 16.9763 72.932 18.1883V19.0974C72.023 19.4004 71.7199 20.3094 71.7199 21.2185C71.7199 27.8848 72.023 34.5512 72.326 40.9145C72.629 47.2778 72.932 53.3381 72.932 59.7014V63.3376C72.932 66.0648 72.023 68.1859 70.8109 70.307C69.2958 72.1251 67.1747 73.6401 65.0536 74.2462C63.8415 74.5492 62.9325 74.5492 61.4174 74.5492H57.1752L40.8124 73.9431L24.4496 73.6401H16.2681C13.844 73.6401 12.0259 73.0341 10.2078 71.822C8.38974 70.61 7.17768 68.7919 6.57165 66.6708ZM72.326 86.9728C72.023 88.4879 72.023 90.003 72.023 91.215V95.4572V95.7602V96.0633C72.023 97.8814 71.7199 105.457 71.4169 132.425V136.97V137.273C70.5079 140.91 67.4777 143.94 64.1446 144.849C61.4174 145.455 15.9651 144.849 15.6621 144.849C11.4199 144.849 7.48069 141.819 6.57165 137.879C6.26863 136.364 6.26863 107.275 5.6626 89.3969C5.35958 85.1547 8.38974 80.9125 12.632 79.7004C13.238 79.7004 13.541 80.0035 14.147 80.0035H16.5712H24.7526L41.1154 79.7004L57.4782 79.3974H61.7204C63.2355 79.3974 64.7506 79.0944 66.2657 78.4884C69.5988 80.0035 72.326 83.0336 72.932 86.3668C72.629 85.7607 72.326 86.3668 72.326 86.9728ZM73.538 83.0336C72.629 81.2155 71.4169 79.7004 69.5988 78.4884C68.6898 77.8823 67.7807 77.2763 66.5687 76.9733C69.2958 75.7612 71.4169 73.9431 72.932 71.519C74.1441 69.7009 74.7501 67.2768 75.0531 64.8527C76.8712 68.4889 78.6893 72.1251 80.5074 75.7612C78.9923 76.3673 77.7803 77.2763 76.5682 78.4884C75.0531 80.0035 74.1441 81.5185 73.538 83.0336ZM133.838 77.5793C136.262 77.8823 138.383 79.3974 140.201 80.9125C141.716 82.7306 142.929 84.8517 142.929 87.2758V91.215C142.323 124.244 142.02 134.849 142.02 136.061C141.716 138.182 140.807 140 139.292 141.516C137.777 143.031 135.959 143.94 133.838 144.243C133.232 144.243 86.5677 144.243 85.3556 144.243C83.2345 143.94 81.4164 143.031 79.9014 141.516C78.3863 140 77.4772 138.182 77.1742 136.061C77.1742 135.152 77.1742 133.637 77.1742 132.425C76.5682 105.457 76.5682 97.8814 76.5682 96.0633C76.5682 96.0633 76.5682 96.0633 76.5682 95.7602V95.4572V91.215C76.5682 90.003 76.5682 88.4879 76.5682 87.2758C76.8712 84.8517 77.7803 82.7306 79.2953 80.9125C80.8104 79.0944 83.2345 77.8823 85.6587 77.5793C88.0828 77.2763 91.1129 77.2763 93.8401 77.2763C95.3551 77.2763 96.5672 77.2763 98.0823 76.9733C100.809 76.9733 103.84 77.2763 106.567 77.2763C112.93 77.5793 119.596 77.8823 125.96 78.1854H126.566C127.172 77.8823 127.778 77.5793 128.384 77.5793C129.596 77.2763 131.717 77.2763 133.838 77.5793ZM140.504 66.9738L124.445 74.5492C118.081 74.8522 111.718 75.1552 105.355 75.4582C102.628 75.4582 99.5974 75.7612 96.8702 75.7612C95.6582 75.7612 94.1431 75.7612 92.931 75.4582C90.2039 75.4582 87.4767 75.1552 84.7496 75.1552C83.5375 75.1552 82.0225 75.7612 80.8104 76.0643C78.9923 70.913 77.1742 65.7617 75.0531 60.6105V59.0954C75.3561 53.0351 75.6591 46.6718 75.6591 40.6115C75.9622 34.5512 75.9622 28.4908 76.2652 22.4305C92.931 16.0672 113.839 6.97676 114.748 6.67374C115.354 6.37073 115.96 6.37073 116.263 6.06771C119.596 5.46168 123.233 6.67374 125.354 9.7039C125.96 10.6129 126.566 11.522 127.172 13.0371C126.869 12.431 130.202 20.0064 145.353 54.5502C147.171 59.0954 145.05 64.8527 140.504 66.9738Z" fill="#F5EFEB"/>
<path d="M25.9655 57.2767C26.8746 57.2767 27.4806 56.6707 27.7836 56.0647L30.8138 49.0953H46.2675L49.2977 56.0647C49.6007 56.9737 50.5098 57.2767 51.1158 57.2767C51.7218 57.2767 52.3278 56.9737 52.6309 56.6707C52.9339 56.3677 53.2369 55.7617 53.2369 55.1556C53.2369 54.8526 53.2369 54.5496 52.9339 54.2466L41.4193 26.9752C41.1163 26.3692 40.8133 26.0661 40.5102 25.7631C40.2072 25.4601 39.6012 25.1571 38.9952 25.1571H38.6922C38.0861 25.1571 37.4801 25.4601 37.1771 25.7631C36.8741 26.0661 36.268 26.6722 36.268 26.9752L24.7535 54.2466C24.7535 54.5496 24.4504 54.8526 24.4504 55.1556C24.4504 55.7617 24.7535 56.0647 25.0565 56.6707C24.7535 57.2767 25.3595 57.2767 25.9655 57.2767ZM38.3891 30.6114L44.4495 45.4591H32.3288L38.3891 30.6114Z" fill="#F5EFEB"/>
<path d="M46.5686 110.911C47.7807 110.305 48.9928 109.396 49.9018 108.184C50.8109 106.972 51.1139 105.457 51.1139 103.941C51.1139 101.517 50.2048 99.3962 48.3867 97.8811C46.5686 96.366 44.1445 95.76 40.8114 95.76H30.2058C29.5998 95.76 29.2968 96.063 28.6907 96.366C28.3877 96.6691 28.0847 97.2751 28.0847 97.8811V125.456C28.0847 126.062 28.3877 126.365 28.6907 126.971C28.9938 127.274 29.5998 127.577 30.2058 127.577H41.1144C45.0536 127.577 48.0837 126.668 49.9018 125.152C51.7199 123.637 52.629 121.516 52.629 118.486C52.629 116.668 52.0229 114.85 50.8109 113.638C49.9018 112.426 48.3867 111.517 46.5686 110.911ZM32.0239 99.6992H40.2053C42.3264 99.6992 43.8415 100.002 45.0536 100.911C46.2656 101.82 46.8717 103.032 46.8717 104.244C46.8717 105.76 46.2656 107.275 45.3566 108.184C44.1445 109.093 42.3264 109.396 39.5993 109.396H32.0239V99.6992ZM46.8717 122.425C45.6596 123.334 43.5385 123.637 40.5083 123.637H32.0239V113.335H40.8114C46.2656 113.335 48.6898 115.153 48.6898 118.486C48.6898 120.001 48.0837 121.516 46.8717 122.425Z" fill="#F5EFEB"/>
<path d="M121.112 50.3075C120.809 50.0045 120.203 50.0045 119.597 50.3075C119.294 50.3075 118.991 50.6106 118.991 50.9136C118.082 52.1256 116.869 53.0347 115.96 53.9437C115.051 54.8528 113.536 55.4588 112.021 56.0648C109.597 56.9739 107.476 57.2769 105.355 56.9739C103.234 56.6709 101.416 55.7618 99.9006 54.5498C98.3856 53.0347 97.1735 51.5196 96.2645 49.0955C95.3554 46.9744 95.0524 44.8533 95.0524 42.7322C95.3554 40.6111 95.9614 38.793 97.1735 36.9749C98.3856 35.1568 100.204 33.9447 102.628 33.0357C104.143 32.4296 105.658 32.1266 106.87 31.8236H111.112H112.021C112.627 31.5206 112.93 31.2176 112.93 30.9146C113.233 30.6116 113.233 30.0055 112.93 29.7025C112.627 29.0965 112.021 28.4904 111.415 28.4904C109.597 28.1874 107.779 28.1874 106.264 28.4904C104.446 28.7935 102.931 29.0965 100.81 30.0055C98.0825 31.2176 95.6584 32.7327 94.1433 34.8538C92.3253 36.9749 91.4162 39.399 91.1132 42.1261C90.8102 44.8533 91.1132 47.8834 92.3253 50.9136C93.5373 53.9437 95.3554 56.3679 97.4765 58.1859C99.5976 60.004 102.022 60.9131 104.749 61.2161C107.476 61.5191 110.203 61.2161 112.93 60.004C114.748 59.095 116.566 58.1859 117.779 57.2769C118.991 56.3679 120.203 54.8528 121.415 53.6407C122.021 53.0347 122.021 52.4287 121.718 51.5196C122.021 50.6106 121.718 50.3075 121.112 50.3075Z" fill="#F5EFEB"/>
<path d="M115.657 98.1841C113.233 96.6691 110.203 95.76 106.87 95.76H97.7791C97.173 95.76 96.87 96.063 96.264 96.366C95.961 96.6691 95.658 97.2751 95.658 97.8811V125.456C95.658 126.062 95.961 126.365 96.264 126.971C96.567 127.274 97.173 127.577 97.7791 127.577H106.87C110.203 127.577 113.233 126.668 115.657 125.152C118.081 123.637 119.899 121.516 121.111 119.092C122.323 116.668 122.929 114.244 122.929 111.517C122.929 108.79 122.323 106.366 121.111 103.941C119.899 101.517 118.081 99.6992 115.657 98.1841ZM117.172 117.88C116.263 119.698 114.748 121.213 112.93 122.122C111.112 123.031 108.991 123.637 106.263 123.637H99.5972V99.6992H106.263C108.688 99.6992 110.809 100.305 112.93 101.214C114.748 102.123 116.263 103.638 117.172 105.457C118.081 107.275 118.687 109.396 118.687 111.82C118.687 113.941 118.384 116.062 117.172 117.88Z" fill="#F5EFEB"/>
</g>
</svg>
