<svg width="279" height="297" viewBox="0 0 279 297" fill="none" xmlns="http://www.w3.org/2000/svg">
<g opacity="0.5">
<path d="M49.8098 228.007C73.5114 267.689 126.34 282.325 165.781 262.114C189.92 249.744 208.141 227.002 213.711 200.456C219.234 174.134 212.628 145.602 196.427 124.137C208.344 113.332 209.37 97.0551 209.641 80.9521C241.212 82.013 239.813 82.6877 241.349 81.308C244.164 78.7824 245.913 76.3992 246.781 74.6776C247.202 74.1503 247.554 73.5604 247.754 72.8726C248.437 70.5084 247.423 68.041 245.288 66.8741C155.7 17.8142 166.574 17.5889 57.0472 21.5286C53.465 21.6554 51.4869 25.4359 52.8688 28.4331C53.0286 30.254 53.2857 32.2633 53.3876 33.9965C53.4556 35.1494 54.1223 36.1637 55.1452 36.6996C61.0218 39.7782 66.8959 42.8658 72.7785 45.9192C70.3506 50.9521 70.4725 53.5228 62.0337 96.9338C61.5752 97.0171 61.1084 97.077 60.6818 97.2533C55.8378 97.1984 51.8794 102.963 55.648 108.269C52.3316 111.438 47.5384 125.231 44.3068 132.515C43.4611 134.422 42.7246 136.322 43.9394 138.018C35.6909 155.348 32.7523 173.181 34.6566 190.567C36.0897 203.841 41.4891 216.728 49.8098 228.007ZM92.5351 55.9698C107.572 63.5368 122.731 70.8021 138.276 77.4929C141.367 78.8145 171.974 79.7004 201.881 80.6926C200.719 90.6827 199.586 94.8237 197.331 106.737C195.956 113.786 190.247 119.819 181.869 121.461C166.059 124.37 149.152 123.765 134.112 120.24C113.042 115.333 93.7986 102.311 89.3253 97.2469C84.696 92.3204 82.9796 85.7232 84.7297 79.6135C87.5777 69.848 89.2713 65.1924 92.5351 55.9698ZM86.5519 102.695C88.6181 104.632 93.1967 107.815 95.5411 109.388C100.116 113.507 105.259 117.016 110.76 119.898C106.282 127.189 105.031 129.897 102.916 134.175C90.1744 129.078 78.3061 122.599 67.6606 114.904C72.9399 110.288 78.6225 106.32 86.5519 102.695ZM116.013 122.419C124.907 126.322 135.565 129.366 150.66 130.776C151.733 140.278 151.541 143.622 151.597 146.456C136.642 144.644 122.078 141.194 108.374 136.214C110.339 132.277 111.324 130.002 116.013 122.419ZM156.536 131.225C161.203 131.502 165.882 131.627 170.546 131.619C176.646 131.609 182.899 131.293 188.541 129.052C192.353 134.504 195.04 139.372 197.806 146.759C184.313 148.225 170.736 148.304 157.397 147.076C157.332 143.004 157.516 140.492 156.536 131.225ZM199.679 152.392C203.942 166.811 204.317 181.898 201.62 195.439C201.427 195.39 201.246 195.308 201.04 195.3C185.096 194.761 169.14 193.098 153.312 190.416C155.896 177.969 157.322 165.406 157.498 152.889C171.432 154.132 185.609 154.007 199.679 152.392ZM200.284 201.061C195.703 217.937 185.774 232.813 172.807 243.195C162.564 237.223 151.939 232.024 141.029 227.588C145.841 216.873 149.518 206.253 152.019 196.079C168.023 198.805 184.158 200.489 200.284 201.061ZM167.691 246.957C154.565 255.755 139.159 259.585 123.361 259.774C129.089 250.945 134.177 241.895 138.535 232.827C148.527 236.873 158.265 241.591 167.691 246.957ZM87.3206 53.3444C83.0217 65.1981 80.9761 71.8023 79.168 78.0034C77.1871 84.9098 78.5327 92.2205 82.6699 98.1744C78.1501 100.345 73.8853 102.804 69.9929 105.602C70.5992 102.915 69.9935 100.196 67.6623 98.3306C76.3001 53.7041 76.0698 52.4683 77.9134 48.5661C81.0462 50.1679 84.1841 51.7602 87.3206 53.3444ZM52.1932 134.555C52.4332 134.496 52.668 134.416 52.9259 134.429C52.1821 136.481 51.4274 138.682 51.9171 140.798C52.4067 142.915 54.7121 144.709 56.6575 143.791C58.0574 143.131 59.119 141.257 60.6012 141.648C62.077 142.038 62.1335 144.243 63.2805 145.262C64.5359 146.377 66.6712 145.551 67.5352 144.078C68.8405 141.853 68.2936 139.151 67.6129 121.958C77.6633 128.826 88.6849 134.675 100.419 139.393C95.0296 151.237 91.4047 162.247 88.9024 173.426C73.5464 167.854 58.539 161.253 44.0175 153.685C46.079 147.089 48.8031 140.64 52.1932 134.555ZM105.844 141.433C120.705 146.883 135.09 150.34 151.698 152.29C151.557 164.662 150.18 177.093 147.61 189.412C129.605 186.067 111.8 181.352 94.4007 175.345C96.959 163.591 100.868 152.3 105.844 141.433ZM146.302 195.073C143.866 204.876 140.303 215.112 135.644 225.452C121.226 219.975 106.33 215.87 91.1589 213.136C90.8833 201.949 91.6127 191.094 93.3242 181.138C110.852 187.144 128.366 191.73 146.302 195.073ZM133.144 230.688C128.445 240.421 122.906 250.155 116.592 259.587C109.704 259.12 103.062 257.817 96.8523 255.656C93.88 243.839 92.0892 231.362 91.4121 219.064C105.635 221.703 119.605 225.576 133.144 230.688ZM90.3415 253.088C74.0447 245.798 57.792 232.545 48.3355 214.975C60.8434 215.052 73.286 216.057 85.5537 218.026C86.1206 229.775 87.7356 241.673 90.3415 253.088ZM240.184 70.6808C203.622 68.3896 174.237 68.3023 143.42 65.6067C136.814 65.0151 143.161 66.1028 96.6186 44.1672L143.249 48.3368C148.554 53.7946 157.331 53.1452 158.513 48.1056C159.997 41.8824 150.561 39.58 143.776 41.6939C143.301 41.8435 142.923 42.1279 142.599 42.4608C87.3095 37.5294 87.5027 37.2163 83.3125 37.8854C75.9815 34.4247 68.561 30.8988 61.0202 27.181C163.892 23.4966 155.307 24.1153 240.184 70.6808ZM42.4239 159.366C57.1061 166.959 72.2773 173.559 87.7906 179.146C85.9529 189.394 85.1472 200.594 85.3652 212.142C72.2349 210.094 58.9165 209.094 45.5326 209.164C38.7888 193.399 38.5129 175.565 42.4239 159.366Z" fill="#F5EFEB"/>
<path d="M259.222 48.5696C257.866 47.7109 256.078 48.1132 255.227 49.4673C253.378 52.3879 251.191 55.1182 248.732 57.5773C247.601 58.7087 247.597 60.5424 248.728 61.6727C249.839 62.791 251.677 62.8169 252.824 61.6759C255.59 58.9107 258.044 55.8452 260.12 52.5643C260.978 51.2121 260.575 49.4237 259.222 48.5696Z" fill="#F5EFEB"/>
<path d="M257.046 70.7743C257.997 71.0039 257.3 70.8695 272.42 68.8374C274.006 68.615 275.111 67.1556 274.892 65.5706C274.671 63.9811 273.197 62.8847 271.625 63.0987L257.323 65.0927C254.187 65.5282 253.944 70.0257 257.046 70.7743Z" fill="#F5EFEB"/>
<path d="M268.177 86.056C264.136 83.4632 259.812 81.2907 255.313 79.5998C253.833 79.033 252.149 79.7902 251.585 81.291C251.022 82.7881 251.779 84.4565 253.276 85.0195C257.39 86.5709 261.351 88.5589 265.045 90.9322C266.467 91.8211 268.213 91.3533 269.049 90.06C269.913 88.7132 269.52 86.9193 268.177 86.056Z" fill="#F5EFEB"/>
</g>
</svg>
