<svg width="291" height="331" viewBox="0 0 291 331" fill="none" xmlns="http://www.w3.org/2000/svg">
<line x1="53.7807" y1="65.2754" x2="232.173" y2="110.039" stroke="#121212" stroke-opacity="0.5" stroke-width="2" stroke-linecap="round"/>
<line x1="65.387" y1="234.325" x2="236.593" y2="164.616" stroke="#121212" stroke-opacity="0.5" stroke-width="2" stroke-linecap="round"/>
<line x1="105.136" y1="156.534" x2="225.798" y2="137.429" stroke="#121212" stroke-opacity="0.5" stroke-width="2" stroke-linecap="round"/>
<line x1="134.01" y1="268.082" x2="248.356" y2="193.955" stroke="#121212" stroke-opacity="0.5" stroke-width="2" stroke-linecap="round"/>
<line x1="218.746" y1="273.219" x2="266.101" y2="215.132" stroke="#121212" stroke-opacity="0.5" stroke-width="2" stroke-linecap="round"/>
<circle cx="50.2242" cy="64.4123" r="7.351" transform="rotate(-22.1545 50.2242 64.4123)" fill="#C1FF00" stroke="#121212"/>
<circle cx="258.97" cy="225.247" r="5.7808" transform="rotate(-22.1545 258.97 225.247)" fill="#C1FF00" stroke="#121212"/>
<circle cx="198.859" cy="123.417" r="3.4255" transform="rotate(-22.1545 198.859 123.417)" fill="#C1FF00" stroke="#121212"/>
<circle cx="159.232" cy="148.233" r="7.351" transform="rotate(-22.1545 159.232 148.233)" fill="#A259FF" stroke="#121212"/>
<circle cx="168.883" cy="274.643" r="3.4255" transform="rotate(-22.1545 168.883 274.643)" fill="#A259FF" stroke="#121212"/>
<circle cx="130.958" cy="58.6662" r="7.351" transform="rotate(-22.1545 130.958 58.6662)" fill="white" stroke="#121212"/>
<circle cx="215.486" cy="195.482" r="7.351" transform="rotate(-22.1545 215.486 195.482)" fill="#FDFBF9" stroke="#121212"/>
<circle cx="241.457" cy="269.676" r="3.4255" transform="rotate(-22.1545 241.457 269.676)" fill="#FDFBF9" stroke="#121212"/>
<circle cx="109.921" cy="217.272" r="7.351" transform="rotate(-22.1545 109.921 217.272)" fill="white" stroke="#121212"/>
</svg>
