<svg width="180" height="50" viewBox="0 0 180 50" fill="none" xmlns="http://www.w3.org/2000/svg">
<path d="M173.622 36.8721C162.993 44.7537 155.046 23.2835 143.024 22.1796C130.929 19.9465 125.148 32.6688 116.566 38.2291C110.206 41.9757 104.224 28.6603 98.2949 26.2391C95.9377 25.0121 92.6861 23.7883 90.1183 25.0852C75.8076 35.4472 59.8277 45.9125 47.1566 27.2924C43.8558 23.2729 39.2535 23.0958 34.929 25.6049C25.6681 29.7793 18.1078 47.1001 7.20651 37.1322C4.17218 34.615 0.306047 39.5506 3.5246 41.8871C5.61042 43.5852 8.27843 45.2758 11.0621 45.9389C24.1497 49.1202 29.7582 33.2271 40.5944 30.4617C57.7492 52.1953 72.1482 46.3977 92.8984 33.5062C95.4142 34.6442 98.0414 38.6376 99.8973 40.6809C112.776 56.8718 124.334 47.6534 135.187 35.3976C137.742 32.9711 140.141 31.4584 143.368 32.8506C149.996 36.2111 154.68 42.5491 162.01 45.2361C167.693 47.3036 172.859 45.9111 177.104 41.6846C179.693 39.2188 176.717 35.1944 173.622 36.8721Z" fill="#FF9966"/>
<path d="M178.79 17.1973C176.857 14.9424 173.443 14.7076 171.217 16.6725C163.196 24.3147 153.783 6.42337 146.311 3.22099C138.535 -0.975612 135.197 6.66595 129.026 9.75653C112.257 18.8641 102.829 13.4827 90.9079 0.819462C80.5438 -4.05249 75.0159 14.3282 64.507 15.8083C61.7359 16.2657 58.8085 15.3545 56.2713 14.0038C56.8563 11.9095 56.1264 9.58216 54.2628 8.23145C29.3191 -10.3395 27.2252 20.2524 11.3634 19.0093C7.40129 18.175 3.41317 12.1067 0.267036 17.9915C-0.519057 20.0214 0.489223 22.3041 2.5195 23.0902C10.9454 26.7461 17.8487 27.0056 25.2164 20.9376C29.3532 17.7651 32.5176 13.2616 37.2233 11.489C43.737 9.35961 46.4433 19.1207 52.3823 17.7518C65.5202 27.001 75.4785 17.8133 84.932 8.24235C86.2645 7.32899 87.2277 6.12454 88.4491 7.6243C101.241 27.1346 125.549 25.6696 141.942 11.5168C148.076 16.1093 152.202 22.9556 159.249 26.8994C165.555 32.0969 185.007 26.8917 178.79 17.1973ZM142.826 10.7592C142.918 10.679 143.012 10.5968 143.104 10.5184C143.021 10.602 142.925 10.6832 142.826 10.7592Z" fill="#FF9966"/>
</svg>
