<svg width="107" height="60" viewBox="0 0 107 60" fill="none" xmlns="http://www.w3.org/2000/svg">
<path fill-rule="evenodd" clip-rule="evenodd" d="M42.1889 3.56288C42.2664 7.51436 46.8765 13.8677 50.0145 12.6668C51.3704 12.1244 51.3702 11.5433 49.8981 7.32069C46.3728 -2.71296 42.1114 0.386206 42.1889 3.56288ZM67.7573 12.5118C66.6726 15.5723 70.4304 16.1146 73.026 13.2866C75.6603 10.3811 78.4883 6.04226 79.9992 3.09802C81.665 0.270005 78.4108 -1.16337 75.699 1.16102C72.4836 3.87282 68.4933 10.3811 67.7573 12.5118ZM14.3737 10.1487C11.9718 11.1172 20.0297 21.1121 23.2839 21.1896C27.0804 21.267 27.3902 20.4148 24.7559 16.8894C20.6107 11.3109 17.1242 9.02522 14.3737 10.1487ZM50.7893 24.5212C49.3559 25.9546 47.6512 27.9303 46.9926 28.8601C41.3366 37.3054 41.2591 37.3829 38.6635 35.4072C32.6588 30.9133 22.7801 27.8529 24.7171 35.6783C25.9181 40.4046 29.4822 49.0436 30.412 51.9104C32.8139 59.4647 34.0923 60.7043 38.3537 59.6971C48.9297 57.1403 64.0384 57.0628 74.8468 59.5034C77.5199 60.1232 77.6748 59.8133 77.946 54.4285C78.4884 43.5425 84.7641 32.9278 84.7641 29.5187C84.7641 25.6834 77.5199 28.5502 67.6799 36.2594L66.6726 37.0342L65.2392 36.0657C62.295 34.09 60.8228 35.6396 62.4886 38.9325C63.8445 41.6056 64.968 42.4966 67.951 41.0632C69.6555 40.2497 72.0187 38.7 75.3504 36.3369C76.6675 35.4071 77.7523 34.7486 77.7523 34.8648C77.7523 35.4072 75.3891 45.557 75.3891 45.5957L69.5006 45.0922C64.813 44.8985 64.2707 47.3778 69.1132 48.1138C69.6168 48.1913 74.5756 48.8112 74.5756 48.8112C74.5756 48.8112 74.3819 50.9806 73.8395 52.2203C73.2584 53.4599 72.2899 53.7699 70.7016 53.2275C58.266 49.1211 38.005 54.1185 37.9663 54.1185C37.2302 54.2348 30.4895 36.4531 31.0319 35.9108C31.1094 35.8333 31.9228 36.3369 32.8525 37.0342C43.3511 44.666 44.4359 44.4336 51.3704 33.3152L54.6245 28.0853L55.9028 29.9836C59.6219 35.5234 64.8905 33.0828 61.9463 29.0151C60.9391 27.6592 59.2733 25.6447 56.6003 22.5067C55.3993 21.0734 53.6173 21.6932 50.7893 24.5212ZM101.19 23.9401C99.7954 24.7536 92.5122 31.7268 91.6599 33.044C89.8391 35.9495 93.6357 36.6081 97.0835 33.9738C101.112 30.9133 106.807 25.6447 106.807 24.9474C106.846 23.5527 103.088 22.8554 101.19 23.9401ZM5.23102 42.4966C10.8871 43.8912 14.1411 44.2399 15.4196 43.5426C17.5115 42.4191 16.5431 41.6055 11.5843 40.3659C11.1195 40.2496 6.5481 38.9712 3.41016 38.9712C1.16325 38.9712 -3.83413 40.2109 5.23102 42.4966Z" fill="#1B1C1D"/>
</svg>
