<svg width="47" height="60" viewBox="0 0 47 60" fill="none" xmlns="http://www.w3.org/2000/svg">
<path fill-rule="evenodd" clip-rule="evenodd" d="M26.7995 1.48636C20.4703 4.70231 6.20366 20.5768 1.5508 29.472C-1.2546 34.8433 -0.912379 35.1512 8.15386 35.6644L14.6199 36.0407C2.88515 56.568 4.08254 54.3784 3.9799 54.5837C1.41399 58.9971 4.90363 61.9394 8.59855 58.4839C8.63277 58.4497 40.3475 33.8169 46.0267 25.6402C46.6767 24.7164 46.5057 23.6559 45.0688 22.5953C42.7082 20.8505 39.5264 20.3031 27.9285 19.3451C26.1152 19.2083 25.2942 19.003 25.431 18.7293C26.2863 16.6424 29.5706 7.88403 31.1444 4.46281C32.9918 0.459976 32.8209 -1.59274 26.7995 1.48636ZM24.4387 9.14991C24.1308 9.86836 20.3333 18.9688 20.1622 19.3451C19.2727 21.1242 19.8543 22.0479 22.0781 22.2874C29.468 23.0743 32.4102 23.348 35.3867 23.4848C40.3132 23.7243 40.3475 23.519 35.1473 28.7535C29.6049 34.3643 15.441 47.3649 15.1331 47.057C14.8594 46.7833 19.4097 38.0935 20.6413 36.4855C22.8651 33.5774 22.1808 33.1669 15.0989 33.1669C11.9171 33.1669 9.93283 33.0984 8.42749 32.9958C7.02479 32.8932 6.16945 31.3878 6.8537 30.122C9.41961 25.4349 14.0041 19.5846 21.6334 11.2026C25.1231 7.43929 25.1914 7.37087 24.4387 9.14991Z" fill="#1B1C1D"/>
</svg>
