<svg width="103" height="17" viewBox="0 0 103 17" fill="none" xmlns="http://www.w3.org/2000/svg">
<path d="M17.8805 6.49517H11.0494L8.94652 0L6.83124 6.49517L0.00012207 6.48272L5.52474 10.5018L3.40946 16.9969L8.93408 12.9779L14.4587 16.9969L12.3559 10.5018L17.8805 6.49517Z" fill="#00B67A"/>
<path d="M12.8289 11.97L12.3561 10.5017L8.94678 12.9778L12.8289 11.97Z" fill="#005128"/>
<path d="M39.16 6.49517H32.3289L30.2261 0L28.1108 6.49517L21.2797 6.48272L26.8043 10.5018L24.689 16.9969L30.2136 12.9779L35.7382 16.9969L33.6354 10.5018L39.16 6.49517Z" fill="#00B67A"/>
<path d="M34.1085 11.9697L33.6357 10.5015L30.2263 12.9776L34.1085 11.9697Z" fill="#005128"/>
<path d="M60.4401 6.49517H53.6089L51.5061 0L49.3908 6.49517L42.5597 6.48272L48.0843 10.5018L45.969 16.9969L51.4937 12.9779L57.0183 16.9969L54.9154 10.5018L60.4401 6.49517Z" fill="#00B67A"/>
<path d="M55.3885 11.9697L54.9157 10.5015L51.5063 12.9776L55.3885 11.9697Z" fill="#005128"/>
<path d="M81.7201 6.49517H74.889L72.7861 0L70.6708 6.49517L63.8397 6.48272L69.3643 10.5018L67.2491 16.9969L72.7737 12.9779L78.2983 16.9969L76.1955 10.5018L81.7201 6.49517Z" fill="#00B67A"/>
<path d="M76.6685 11.97L76.1957 10.5017L72.7864 12.9778L76.6685 11.97Z" fill="#005128"/>
<path d="M103 6.49517H96.169L94.0662 0L91.9509 6.49517L85.1198 6.48272L90.6444 10.5018L88.5291 16.9969L94.0537 12.9779L99.5783 16.9969L97.4755 10.5018L103 6.49517Z" fill="#00B67A"/>
<path d="M97.9486 11.97L97.4757 10.5017L94.0664 12.9778L97.9486 11.97Z" fill="#005128"/>
</svg>
