<svg width="364" height="400" viewBox="0 0 364 400" fill="none" xmlns="http://www.w3.org/2000/svg">
<path fill-rule="evenodd" clip-rule="evenodd" d="M168.595 2.56059C29.1659 25.141 -46.5077 194.668 31.1329 310.581C69.3168 367.669 169.983 410.398 236.747 397.776C246.698 395.924 247.045 389.902 237.21 390.25C186.414 398.124 142.56 378.438 142.56 378.438C239.64 391.06 327.81 328.761 355.233 231.723C393.417 96.0089 299.924 -18.7461 168.595 2.56059ZM229.342 15.0667C238.83 17.4984 249.013 24.3305 253.757 30.1203C261.74 39.8473 261.856 28.036 254.914 20.5092L250.632 15.7615C250.748 15.8773 377.796 54.4377 341.464 212.848C327.463 273.758 287.891 331.077 225.408 356.784C102.294 407.388 -0.339858 313.592 21.5291 170.467C36.1084 75.976 147.883 -6.23999 229.342 15.0667Z" fill="#1B1C1D"/>
</svg>
