<svg width="60" height="60" viewBox="0 0 60 60" fill="none" xmlns="http://www.w3.org/2000/svg">
<path d="M12.8571 60H19.5238C20.6601 59.9988 21.7494 59.5468 22.5529 58.7434C23.3564 57.9399 23.8083 56.8505 23.8095 55.7143V40.4762C23.8083 39.3399 23.3564 38.2506 22.5529 37.4471C21.7494 36.6436 20.6601 36.1917 19.5238 36.1905H15.7143C15.3355 36.1901 14.9724 36.0394 14.7046 35.7716C14.4368 35.5038 14.2861 35.1407 14.2857 34.7619V25.2381C14.2861 24.8593 14.4368 24.4962 14.7046 24.2284C14.9724 23.9606 15.3355 23.8099 15.7143 23.8095H19.5238C20.6601 23.8083 21.7494 23.3564 22.5529 22.5529C23.3564 21.7494 23.8083 20.6601 23.8095 19.5238V4.28571C23.8083 3.14945 23.3564 2.06008 22.5529 1.25662C21.7494 0.453165 20.6601 0.00123776 19.5238 0H12.8571C9.44838 0.00379883 6.18033 1.35961 3.76997 3.76997C1.35961 6.18033 0.00379883 9.44838 0 12.8571V47.1429C0.00379883 50.5516 1.35961 53.8197 3.76997 56.23C6.18033 58.6404 9.44838 59.9962 12.8571 60ZM2.85714 12.8571C2.86012 10.2059 3.91464 7.66408 5.78936 5.78936C7.66408 3.91464 10.2059 2.86012 12.8571 2.85714H19.5238C19.9026 2.85756 20.2657 3.0082 20.5335 3.27602C20.8013 3.54384 20.952 3.90696 20.9524 4.28571V19.5238C20.952 19.9026 20.8013 20.2657 20.5335 20.5335C20.2657 20.8013 19.9026 20.952 19.5238 20.9524H15.7143C14.578 20.9536 13.4887 21.4055 12.6852 22.209C11.8817 23.0125 11.4298 24.1018 11.4286 25.2381V34.7619C11.4298 35.8982 11.8817 36.9875 12.6852 37.791C13.4887 38.5945 14.578 39.0464 15.7143 39.0476H19.5238C19.9026 39.048 20.2657 39.1987 20.5335 39.4665C20.8013 39.7343 20.952 40.0974 20.9524 40.4762V55.7143C20.952 56.093 20.8013 56.4562 20.5335 56.724C20.2657 56.9918 19.9026 57.1424 19.5238 57.1429H12.8571C10.2059 57.1399 7.66408 56.0854 5.78936 54.2106C3.91464 52.3359 2.86012 49.7941 2.85714 47.1429V12.8571Z" fill="#0A102F"/>
<path d="M32.3809 10.9525C32.3809 11.3314 32.5314 11.6947 32.7993 11.9626C33.0672 12.2305 33.4306 12.381 33.8094 12.3811H41.4285C41.8074 12.3811 42.1707 12.2306 42.4386 11.9627C42.7065 11.6947 42.857 11.3314 42.857 10.9525C42.857 10.5736 42.7065 10.2103 42.4386 9.94234C42.1707 9.67444 41.8074 9.52393 41.4285 9.52393H33.8094C33.4306 9.52395 33.0672 9.67446 32.7993 9.94237C32.5314 10.2103 32.3809 10.5736 32.3809 10.9525Z" fill="#0A102F"/>
<path d="M36.8367 1.14392L30.2388 4.95344C29.911 5.14299 29.6718 5.45498 29.5739 5.82081C29.476 6.18664 29.5274 6.57637 29.7168 6.90432C29.9062 7.23227 30.218 7.4716 30.5838 7.56969C30.9496 7.66777 31.3394 7.6166 31.6674 7.4274L38.2652 3.61788C38.5931 3.42833 38.8323 3.11634 38.9301 2.75051C39.028 2.38468 38.9766 1.99495 38.7873 1.667C38.5979 1.33905 38.286 1.09972 37.9203 1.00163C37.5545 0.903542 37.1647 0.954721 36.8367 1.14392Z" fill="#0A102F"/>
<path d="M30.2388 16.9514L36.8367 20.7609C37.1647 20.9501 37.5545 21.0013 37.9203 20.9032C38.286 20.8051 38.5979 20.5658 38.7873 20.2378C38.9766 19.9099 39.028 19.5201 38.9301 19.1543C38.8323 18.7885 38.5931 18.4765 38.2652 18.2869L31.6674 14.4774C31.3394 14.2882 30.9496 14.237 30.5838 14.3351C30.218 14.4332 29.9062 14.6725 29.7168 15.0005C29.5274 15.3284 29.476 15.7182 29.5739 16.084C29.6718 16.4498 29.911 16.7618 30.2388 16.9514Z" fill="#0A102F"/>
<path d="M56.6667 30.4761H26.1905C25.9082 30.4766 25.6324 30.5607 25.3979 30.7178C25.1633 30.8749 24.9805 31.0978 24.8725 31.3586C24.7645 31.6194 24.7361 31.9064 24.7909 32.1833C24.8457 32.4602 24.9813 32.7147 25.1805 32.9147L30.4762 38.2104V56.6665C30.4773 57.5503 30.8288 58.3975 31.4537 59.0224C32.0786 59.6473 32.9259 59.9988 33.8096 59.9999H56.6667C57.5505 59.9988 58.3977 59.6473 59.0226 59.0224C59.6475 58.3975 59.999 57.5503 60.0001 56.6665V33.8094C59.999 32.9257 59.6475 32.0785 59.0226 31.4536C58.3977 30.8287 57.5505 30.4771 56.6667 30.4761ZM44.5927 53.0096C44.3755 53.0157 44.1593 52.9778 43.9571 52.8981C43.7549 52.8185 43.5709 52.6987 43.4162 52.5461C43.2616 52.3935 43.1394 52.2111 43.0571 52.01C42.9747 51.8089 42.934 51.5932 42.9372 51.3759C42.934 51.0491 43.0278 50.7287 43.2069 50.4554C43.386 50.182 43.6422 49.968 43.9431 49.8404C44.244 49.7129 44.576 49.6775 44.8969 49.7389C45.2179 49.8003 45.5135 49.9556 45.7461 50.1851C45.9787 50.4146 46.1379 50.7081 46.2035 51.0282C46.2692 51.3484 46.2382 51.6808 46.1147 51.9833C45.9911 52.2859 45.7805 52.5449 45.5096 52.7276C45.2386 52.9103 44.9195 53.0085 44.5927 53.0096H44.5927ZM45.8446 45.7137L45.5944 47.3032H43.7538C43.5416 45.2232 43.5575 45.5208 43.5575 45.3431C43.5575 43.4387 46.7811 43.1544 46.7811 40.8026C46.7744 40.5578 46.7166 40.3171 46.6115 40.0959C46.5065 39.8747 46.3564 39.6778 46.1709 39.518C45.9854 39.3581 45.7686 39.2386 45.5343 39.1673C45.3 39.096 45.0534 39.0744 44.8103 39.1038C44.188 39.0872 43.5728 39.2395 43.0302 39.5447C42.494 39.8464 42.3776 39.9855 42.1531 39.9855C42.0372 39.9924 41.9217 39.9651 41.821 39.9071C41.7204 39.8491 41.6389 39.7629 41.5867 39.6591L40.879 38.5374C42.0135 37.49 43.5063 36.9172 45.0503 36.9368C47.4705 36.9368 49.2746 38.2928 49.2746 40.65C49.2746 43.9404 46.059 44.3391 45.8446 45.7137Z" fill="#3147FF"/>
</svg>
