<svg width="65" height="60" viewBox="0 0 65 60" fill="none" xmlns="http://www.w3.org/2000/svg">
<path d="M46.2735 30.51C45.8689 30.51 45.4809 30.6707 45.1948 30.9568C44.9087 31.2429 44.748 31.6309 44.748 32.0355V47.2905C44.7475 47.6949 44.5867 48.0827 44.3007 48.3687C44.0147 48.6547 43.6269 48.8155 43.2225 48.816H19.8315C19.458 48.816 19.0975 48.9531 18.8185 49.2013L12.204 55.0804V50.3415C12.204 49.9369 12.0432 49.5489 11.7572 49.2628C11.4711 48.9767 11.0831 48.816 10.6785 48.816H4.5765C4.17205 48.8155 3.78429 48.6547 3.49829 48.3687C3.2123 48.0827 3.05144 47.6949 3.051 47.2905V12.7125C3.05144 12.308 3.2123 11.9203 3.49829 11.6343C3.78429 11.3483 4.17205 11.1874 4.5765 11.187H25.9335C26.3381 11.187 26.7261 11.0263 27.0122 10.7402C27.2983 10.4541 27.459 10.0661 27.459 9.66149C27.459 9.2569 27.2983 8.86888 27.0122 8.58279C26.7261 8.29671 26.3381 8.13599 25.9335 8.13599H4.5765C3.36314 8.13731 2.19986 8.6199 1.34189 9.47787C0.483915 10.3358 0.00132443 11.4991 0 12.7125V47.2905C0.00132175 48.5038 0.483912 49.6671 1.34189 50.5251C2.19986 51.3831 3.36314 51.8656 4.5765 51.867H9.153V58.4775C9.15397 58.7711 9.23954 59.0582 9.39946 59.3044C9.55938 59.5507 9.78687 59.7456 10.0547 59.8659C10.3225 59.9862 10.6194 60.0267 10.9097 59.9827C11.1999 59.9387 11.4714 59.8119 11.6915 59.6176L20.4115 51.867H43.2225C44.4358 51.8656 45.5991 51.3831 46.4571 50.5251C47.3151 49.6671 47.7977 48.5038 47.799 47.2905V32.0355C47.799 31.6309 47.6382 31.2429 47.3521 30.9568C47.0661 30.6707 46.6781 30.51 46.2735 30.51Z" fill="#0A102F"/>
<path d="M7.62706 19.323H17.7971C18.2016 19.323 18.5897 19.1622 18.8757 18.8762C19.1618 18.5901 19.3226 18.2021 19.3226 17.7975C19.3226 17.3929 19.1618 17.0049 18.8757 16.7188C18.5897 16.4327 18.2016 16.272 17.7971 16.272H7.62706C7.22247 16.272 6.83446 16.4327 6.54837 16.7188C6.26228 17.0049 6.10156 17.3929 6.10156 17.7975C6.10156 18.2021 6.26228 18.5901 6.54837 18.8762C6.83446 19.1622 7.22247 19.323 7.62706 19.323Z" fill="#0A102F"/>
<path d="M40.1707 40.6799H31.0177C30.6131 40.6799 30.2251 40.8407 29.939 41.1267C29.6529 41.4128 29.4922 41.8008 29.4922 42.2054C29.4922 42.61 29.6529 42.998 29.939 43.2841C30.2251 43.5702 30.6131 43.7309 31.0177 43.7309H40.1707C40.5753 43.7309 40.9633 43.5702 41.2494 43.2841C41.5355 42.998 41.6962 42.61 41.6962 42.2054C41.6962 41.8008 41.5355 41.4128 41.2494 41.1267C40.9633 40.8407 40.5753 40.6799 40.1707 40.6799Z" fill="#0A102F"/>
<path d="M7.62706 27.459H25.9331C26.3376 27.459 26.7257 27.2982 27.0117 27.0121C27.2978 26.7261 27.4586 26.338 27.4586 25.9335C27.4586 25.5289 27.2978 25.1409 27.0117 24.8548C26.7257 24.5687 26.3376 24.408 25.9331 24.408H7.62706C7.22247 24.408 6.83446 24.5687 6.54837 24.8548C6.26228 25.1409 6.10156 25.5289 6.10156 25.9335C6.10156 26.338 6.26228 26.7261 6.54837 27.0121C6.83446 27.2982 7.22247 27.459 7.62706 27.459Z" fill="#0A102F"/>
<path d="M6.10156 34.0694C6.10158 34.474 6.26231 34.862 6.54839 35.1481C6.83447 35.4342 7.22248 35.5949 7.62706 35.5949H40.1711C40.5756 35.5949 40.9637 35.4342 41.2497 35.1481C41.5358 34.8621 41.6965 34.474 41.6965 34.0694C41.6965 33.6649 41.5358 33.2768 41.2497 32.9908C40.9637 32.7047 40.5756 32.5439 40.1711 32.5439H7.62706C7.22248 32.544 6.83448 32.7047 6.54839 32.9908C6.26231 33.2769 6.10158 33.6649 6.10156 34.0694Z" fill="#0A102F"/>
<path d="M60.5113 0H34.0693C33.1256 0.00114382 32.2209 0.376529 31.5536 1.04382C30.8863 1.7111 30.5109 2.61581 30.5098 3.5595V23.8995C30.5109 24.8432 30.8863 25.7479 31.5536 26.4152C32.2209 27.0825 33.1256 27.4578 34.0693 27.459H46.7261L53.4151 33.1935C53.6367 33.383 53.908 33.505 54.1968 33.5452C54.4856 33.5854 54.7799 33.542 55.0448 33.4202C55.3098 33.2984 55.5343 33.1032 55.6918 32.8578C55.8493 32.6124 55.9333 32.3271 55.9337 32.0355L55.9348 27.459H60.5113C61.4549 27.4578 62.3596 27.0825 63.0269 26.4152C63.6942 25.7479 64.0696 24.8432 64.0708 23.8995V3.5595C64.0696 2.61581 63.6942 1.7111 63.0269 1.04382C62.3596 0.376529 61.4549 0.00114382 60.5113 0ZM56.4433 19.323H38.1373C37.7327 19.323 37.3447 19.1623 37.0586 18.8762C36.7725 18.5901 36.6118 18.2021 36.6118 17.7975C36.6118 17.3929 36.7725 17.0049 37.0586 16.7188C37.3447 16.4327 37.7327 16.272 38.1373 16.272H56.4433C56.8478 16.272 57.2359 16.4327 57.5219 16.7188C57.808 17.0049 57.9688 17.3929 57.9688 17.7975C57.9688 18.2021 57.808 18.5901 57.5219 18.8762C57.2359 19.1623 56.8478 19.323 56.4433 19.323ZM56.4433 11.187H38.1373C37.7327 11.187 37.3447 11.0263 37.0586 10.7402C36.7725 10.4541 36.6118 10.0661 36.6118 9.6615C36.6118 9.25691 36.7725 8.86889 37.0586 8.5828C37.3447 8.29672 37.7327 8.136 38.1373 8.136H56.4433C56.8478 8.136 57.2359 8.29672 57.5219 8.5828C57.808 8.86889 57.9688 9.25691 57.9688 9.6615C57.9688 10.0661 57.808 10.4541 57.5219 10.7402C57.2359 11.0263 56.8478 11.187 56.4433 11.187Z" fill="#3147FF"/>
</svg>
