<svg width="60" height="60" viewBox="0 0 60 60" fill="none" xmlns="http://www.w3.org/2000/svg">
<path d="M52.8571 32.3809C52.6695 32.3809 52.4838 32.4178 52.3104 32.4896C52.1371 32.5614 51.9796 32.6666 51.8469 32.7992C51.7143 32.9319 51.609 33.0894 51.5373 33.2627C51.4655 33.4361 51.4285 33.6218 51.4286 33.8095V52.2656L39.581 40.4185C39.3131 40.1506 38.9498 40.0001 38.571 40.0001C38.1921 40.0001 37.8288 40.1506 37.5609 40.4185C37.293 40.6863 37.1425 41.0497 37.1425 41.4285C37.1425 41.8073 37.293 42.1707 37.5609 42.4386L51.3343 56.2114C51.2333 56.4841 51.0514 56.7195 50.8129 56.8859C50.5744 57.0524 50.2908 57.142 50 57.1428H4.28571C3.9949 57.142 3.71127 57.0524 3.4728 56.8859C3.23434 56.7195 3.05243 56.4842 2.95143 56.2114L16.7239 42.4386C16.8565 42.3059 16.9617 42.1484 17.0335 41.9751C17.1053 41.8018 17.1422 41.6161 17.1422 41.4285C17.1422 41.2409 17.1053 41.0552 17.0335 40.8819C16.9617 40.7086 16.8565 40.5511 16.7239 40.4185C16.5912 40.2858 16.4338 40.1806 16.2605 40.1088C16.0871 40.037 15.9014 40.0001 15.7138 40.0001C15.5262 40.0001 15.3405 40.037 15.1672 40.1088C14.9939 40.1806 14.8364 40.2858 14.7038 40.4185L2.85714 52.2655V22.1106L24.0574 44.0964C24.4569 44.5114 24.9361 44.8415 25.4662 45.067C25.9964 45.2925 26.5665 45.4087 27.1426 45.4087C27.7187 45.4087 28.2889 45.2925 28.819 45.067C29.3491 44.8415 29.8283 44.5114 30.2279 44.0964L38.6472 35.3654C38.7781 35.2306 38.8811 35.0712 38.9503 34.8964C39.0195 34.7216 39.0535 34.5349 39.0504 34.347C39.0473 34.1591 39.0072 33.9736 38.9322 33.8012C38.8573 33.6288 38.7491 33.4729 38.6137 33.3424C38.4784 33.212 38.3187 33.1095 38.1437 33.0409C37.9687 32.9722 37.7819 32.9389 37.594 32.9426C37.406 32.9463 37.2207 32.9871 37.0486 33.0626C36.8764 33.1381 36.7209 33.2468 36.5909 33.3826L28.171 42.1135C27.8973 42.3843 27.5277 42.5362 27.1426 42.5362C26.7575 42.5362 26.388 42.3843 26.1142 42.1135L2.94701 18.0883C3.04589 17.8122 3.22747 17.5733 3.46702 17.4041C3.70657 17.2349 3.99244 17.1437 4.28571 17.1428H24.2857C24.6646 17.1428 25.028 16.9923 25.2959 16.7244C25.5638 16.4565 25.7143 16.0931 25.7143 15.7142C25.7143 15.3353 25.5638 14.972 25.2959 14.7041C25.028 14.4362 24.6646 14.2856 24.2857 14.2856H4.28571C3.15821 14.2873 2.07674 14.7331 1.27549 15.5263C0.474249 16.3196 0.0177187 17.3966 0.0047619 18.524C0.00441904 18.5342 0.00190474 18.5437 0.00174284 18.554L0 18.5714V55.7143L5.71637e-05 55.7146C0.00137809 56.8508 0.453335 57.94 1.25677 58.7434C2.06021 59.5468 3.14952 59.9987 4.28571 59.9999H50C51.1363 59.9987 52.2256 59.5468 53.0291 58.7433C53.8326 57.9398 54.2845 56.8505 54.2857 55.7142V33.8095C54.2857 33.6218 54.2488 33.4361 54.177 33.2627C54.1052 33.0894 54 32.9319 53.8674 32.7992C53.7347 32.6666 53.5772 32.5614 53.4039 32.4896C53.2305 32.4178 53.0448 32.3809 52.8571 32.3809Z" fill="#0A102F"/>
<path d="M43.9292 12.6465C42.7871 12.6465 41.6055 13.7584 41.6055 15.619C41.6055 17.5112 42.7578 18.7821 43.8339 18.7821C45.0098 18.7821 45.9661 17.3512 45.9665 15.5924V15.5907C45.9662 13.8571 45.1284 12.6465 43.9292 12.6465Z" fill="#3147FF"/>
<path d="M44.2866 0C41.1786 0 38.1404 0.921627 35.5562 2.64833C32.972 4.37504 30.9578 6.82928 29.7685 9.70069C28.5791 12.5721 28.2679 15.7317 28.8742 18.78C29.4806 21.8283 30.9772 24.6283 33.1749 26.826C35.3726 29.0236 38.1726 30.5203 41.2209 31.1266C44.2691 31.733 47.4287 31.4218 50.3002 30.2324C53.1716 29.043 55.6258 27.0289 57.3525 24.4447C59.0792 21.8605 60.0008 18.8223 60.0008 15.7143C59.9961 11.548 58.339 7.55379 55.393 4.60781C52.4471 1.66183 48.4528 0.0047087 44.2866 0ZM53.7959 18.936C53.4618 19.8516 52.857 20.6438 52.062 21.2075C51.267 21.7713 50.3192 22.0798 49.3447 22.0922C48.8082 22.0867 48.2812 21.9497 47.81 21.6932C47.3387 21.4367 46.9376 21.0684 46.6418 20.6208C45.8526 21.2758 44.8601 21.6358 43.8345 21.6392C41.0304 21.6392 38.7489 18.9384 38.7489 15.619C38.7489 12.3498 41.0248 9.78936 43.9298 9.78936C46.766 9.78936 48.8243 12.2294 48.8243 15.5915L48.824 15.5978L48.8243 15.6004L48.8071 18.4547C48.8053 18.9116 49.131 19.235 49.3447 19.235C49.7462 19.2188 50.1333 19.0805 50.4542 18.8385C50.775 18.5965 51.0145 18.2624 51.1405 17.8808L51.1406 17.8804C51.7753 16.5079 51.9207 14.9595 51.5526 13.4929C50.971 11.6098 49.6751 10.0293 47.9425 9.09002C46.2099 8.15073 44.1783 7.92728 42.283 8.46756C40.3877 9.00784 38.7793 10.2689 37.8023 11.9805C36.8254 13.6922 36.5576 15.7184 37.0563 17.6251C37.4758 19.1994 38.3911 20.5969 39.6667 21.6105C40.9422 22.6242 42.5103 23.2002 44.1387 23.2533C44.5145 23.2629 44.8713 23.4202 45.1319 23.6912C45.3925 23.9621 45.5358 24.3249 45.5307 24.7007C45.5256 25.0766 45.3726 25.4353 45.1048 25.6991C44.837 25.963 44.476 26.1106 44.1001 26.11L44.0596 26.1095C41.6052 26.0409 39.2543 25.1058 37.4233 23.4698C35.5923 21.8339 34.3994 19.6026 34.056 17.1714C33.7125 14.7401 34.2407 12.2658 35.5468 10.1867C36.853 8.10751 38.8529 6.55777 41.1923 5.81194C42.5057 5.39334 43.8893 5.24015 45.2625 5.36132C46.6357 5.48248 47.9711 5.87556 49.191 6.51769C50.4109 7.15982 51.4908 8.03816 52.368 9.1016C53.2452 10.165 53.9021 11.3923 54.3005 12.7121L54.3072 12.7415L54.3131 12.7572C54.8496 14.8156 54.6671 16.9954 53.7959 18.936Z" fill="#3147FF"/>
</svg>
