<svg width="60" height="60" viewBox="0 0 60 60" fill="none" xmlns="http://www.w3.org/2000/svg">
<circle cx="30" cy="30" r="30" fill="#FFC900"/>
<path fill-rule="evenodd" clip-rule="evenodd" d="M22.7457 13.3385C16.9691 14.4292 14 18.7516 14 26.1642C13.9798 33.7586 21.6348 38.4243 29.512 35.6168L30.9663 35.0917C32.158 36.344 32.36 36.344 31.0875 37.1115C30.0776 37.7174 30.1785 38.3435 30.8249 38.5859C31.6934 38.9091 36.9651 43.9788 37.6721 45.2108C40.2776 49.7554 46.7813 48.1597 46.337 44.6049C46.135 42.9891 44.9028 41.1107 43.4486 39.7776C41.8328 38.283 40.9239 37.0711 39.7322 34.8089C38.5809 32.6073 37.5509 32.1226 36.0562 33.0315C35.4099 33.4153 35.3493 33.4355 35.0059 33.1123C34.299 32.4862 34.3394 32.062 35.2079 30.7491C38.5203 25.6592 38.7021 21.2157 35.7734 17.6811C31.6934 12.7528 28.1992 14.5302 30.5826 16.0652C36.3794 19.7816 36.0764 27.3357 29.8959 33.0315C26.4622 36.2026 19.5545 34.5059 17.7771 30.0624C14.9696 22.9931 19.5948 13.6617 27.0883 15.1563C29.6736 15.8229 30.7037 11.8439 22.7457 13.3385ZM21.9378 18.3678C21.0693 19.0949 21.6348 19.721 23.2507 18.6102C24.3817 17.8426 24.9272 17.7013 25.9573 17.9436C27.3105 18.2466 28.1386 17.9032 27.7144 17.2165C27.573 16.9741 24.6039 16.1258 21.9378 18.3678ZM30.0372 18.1052C28.9465 18.0446 28.6637 18.6506 29.411 19.4383C30.3401 20.428 32.1984 20.5896 32.0974 19.6807C32.0368 19.0545 30.8653 18.1456 30.0372 18.1052ZM37.0661 35.0311C37.2277 35.6976 38.8233 38.0406 39.6716 38.9091C40.7017 39.9392 41.1461 40.6259 42.4791 42.0802C45.1857 45.0493 41.9539 47.9982 39.409 44.2817C36.1975 39.5958 33.2082 38.1214 33.2486 37.576C33.3092 36.8893 36.9247 34.4656 37.0661 35.0311Z" fill="#0A102F"/>
</svg>
