<svg width="60" height="60" viewBox="0 0 60 60" fill="none" xmlns="http://www.w3.org/2000/svg">
<circle cx="30" cy="30" r="30" fill="#FFC900"/>
<path fill-rule="evenodd" clip-rule="evenodd" d="M19.1478 13.1563C16.7626 13.5462 18.3681 15.1287 20.3404 15.4039C21.9916 15.6332 25.1564 15.6332 31.9677 15.6103C40.2697 15.5873 43.8245 15.6791 44.352 15.9084C45.6592 16.5047 46.2326 18.7981 46.5995 25.0131C46.7371 27.2148 47.0123 30.5172 47.2187 32.3519C47.8608 38.2459 47.2646 38.8192 39.7194 39.1174C36.8068 39.232 33.0227 39.4614 31.3256 39.6219C23.3905 40.3787 18.4597 40.2411 15.7077 39.1403C13.4143 38.2229 13.529 37.4891 13.4602 35.9525C13.2997 32.9711 13.3685 26.8936 13.6666 21.3666C13.9189 16.734 14.217 15.8166 15.7077 15.1286C16.625 14.7158 16.304 14.2342 15.1573 14.2801C13.4373 14.3718 12.1071 14.9452 11.8549 17.6284C11.5338 20.9309 9.49262 39.0715 13.162 40.6081C15.5701 41.6172 19.7669 42.6033 21.4182 42.6033C22.5649 42.6033 22.5191 43.8876 21.3724 44.2316C18.735 44.9884 20.5926 46.8231 24.0785 46.9607C31.1421 47.1901 41.4624 46.6167 41.5541 45.9517C41.6458 45.2866 40.1551 43.7729 39.3754 43.7729C39.1231 43.7729 38.9625 43.4748 38.9625 43.039C38.9625 42.4198 38.9625 41.5483 39.6735 41.5483C42.7237 41.5483 44.352 41.4107 45.2693 41.2043C49.7414 40.2411 49.9249 37.2139 49.879 35.448C49.7185 28.2238 48.3654 21.3208 48.3654 19.6925C48.3424 16.8716 46.6913 14.0966 43.1595 13.5921C41.7834 13.1793 21.5099 12.7665 19.1478 13.1563ZM31.1192 27.1918C30.844 26.8937 28.1837 23.9352 27.4498 23.1784C26.5325 22.2381 25.5922 22.5362 23.6198 24.348C22.6108 25.2883 21.0284 26.6873 20.0881 27.49C16.8315 30.242 16.5792 31.4804 19.2624 31.4804C20.1798 31.4804 20.6156 31.1593 23.3447 28.3614C26.8765 24.7379 26.5554 24.7608 29.6285 27.7422C31.6926 29.7374 31.4403 29.7604 34.7886 27.146C37.6783 24.4627 39.3295 22.6739 41.4165 20.5869C43.4805 18.5228 40.3156 17.5826 38.6415 19.0044C36.6692 20.6327 31.1422 27.1689 31.1192 27.1918ZM38.5498 26.1139C38.1369 27.1689 38.3434 34.2096 38.802 34.6453C39.9258 35.7691 40.6138 33.361 40.545 28.5907C40.4992 25.9534 39.2148 24.371 38.5498 26.1139ZM25.2711 28.9807C24.5602 30.8612 25.1564 35.9984 26.6012 35.7461C28.0461 35.4939 27.0599 29.8292 26.7389 29.0036C26.5325 28.4073 25.5005 28.3844 25.2711 28.9807ZM34.6051 29.5081C34.2152 29.9897 33.8254 33.5445 34.0777 34.5077C34.5134 36.2277 36.3251 35.4709 36.3251 33.5674C36.3251 30.3796 35.4995 28.4302 34.6051 29.5081ZM21.5558 31.9621C21.2118 32.3061 21.3494 34.8746 21.7622 35.425C22.4961 36.4341 23.1382 35.792 23.1382 34.0261C23.1153 32.1914 22.3356 31.1594 21.5558 31.9621ZM29.468 31.9621C28.8717 32.5583 29.2845 35.0122 30.0183 35.3562C31.188 35.8837 31.5779 34.4389 30.8669 32.1455C30.7523 31.7327 29.812 31.618 29.468 31.9621ZM35.3849 41.9382C36.3023 42.1905 35.9583 43.0161 36.05 43.7729L25.4545 43.9564C25.4545 43.8876 25.6381 42.0758 25.6381 42.1905C26.372 42.1676 33.0916 41.8924 34.0089 41.8236C34.3759 41.7777 35.018 41.8465 35.3849 41.9382Z" fill="#0A102F"/>
</svg>
