<svg width="60" height="60" viewBox="0 0 60 60" fill="none" xmlns="http://www.w3.org/2000/svg">
<circle cx="30" cy="30" r="30" fill="#FFC900"/>
<path d="M18.1128 37.1217C10.3801 27.1283 11.5361 17.5972 20.7845 15.2594C23.6105 14.5401 27.2329 15.3622 29.2367 17.1605L30.2643 18.0854L31.78 17.1862C40.5403 11.894 51.3301 21.6563 46.7572 30.7249C42.5954 38.9714 29.0569 47.8345 26.2823 44.1351C25.4602 43.0304 25.8713 42.8763 28.0549 43.4158C30.1358 43.9296 39.7438 35.4005 42.133 30.9047C45.0103 25.5098 44.4452 22.5811 39.8466 18.8817C37.9456 17.366 34.9912 18.034 32.6791 20.5516C30.8551 22.504 28.954 22.6582 27.3869 20.1919C22.9426 13.2556 15.6466 18.7533 17.7275 27.4622C18.6009 31.0588 19.5515 32.8571 23.1738 37.6355C25.64 40.8724 25.717 41.0266 24.895 41.4633C23.3279 42.3111 20.8873 40.744 18.1128 37.1217Z" fill="#0A102F"/>
<path d="M37.2006 22.2728C35.9418 22.0416 36.995 20.6287 38.1768 21.0397C39.153 21.3994 40.5146 21.9902 41.0541 23.506C41.645 25.0987 40.4631 26.6402 39.7952 26.4603C39.2043 26.3062 39.0246 25.6382 39.1017 24.2767C39.1787 22.9151 38.4594 22.5041 37.2006 22.2728Z" fill="#0A102F"/>
<path d="M40.0778 30.4165C38.4079 30.8018 37.1491 29.543 37.8941 28.6952C38.4593 28.0787 40.5916 28.0273 41.2081 28.6438C41.7219 29.1833 41.388 30.1082 40.0778 30.4165Z" fill="#0A102F"/>
</svg>
