<svg width="60" height="60" viewBox="0 0 60 60" fill="none" xmlns="http://www.w3.org/2000/svg">
<circle cx="30" cy="30" r="30" fill="#FFC900"/>
<path fill-rule="evenodd" clip-rule="evenodd" d="M25.598 12.1986C23.5007 12.4503 23.5565 12.3385 23.5565 16.3374V19.9169L21.5432 19.1059C17.1807 17.4 16.5095 17.8195 13.8808 23.9997C12.7063 26.7402 12.6784 26.6843 15.6146 28.1664L18.0196 29.3689C18.0196 29.3689 12.4826 33.7593 12.5665 33.6754C11.9234 34.2626 11.8115 35.2134 12.3149 35.9126C16.5096 41.9529 20.5085 43.6308 23.6405 40.6945L24.4235 39.9674L24.4795 41.4775C24.5074 42.3164 24.5074 43.6587 24.4515 44.4417C24.3116 47.2941 27.3597 47.9373 36.1686 46.9306C38.8252 46.623 38.6575 46.8467 38.4617 43.6587L38.2939 40.8343L39.1048 41.2538C41.9852 42.7359 43.0478 42.2325 46.2078 38.0658C49.4237 33.8152 49.3118 34.2347 47.578 32.7805C45.5366 31.0467 43.1597 29.2011 42.7682 29.0612C44.3063 27.3834 47.1307 24.2234 47.1307 24.2234C47.5222 23.8319 47.7179 23.3006 47.7179 22.7692C47.7179 22.2379 47.4662 21.7066 47.0747 21.343C42.4047 17.0645 39.7481 16.0857 37.455 17.8475L36.1686 18.8262C36.1686 18.8262 36.0847 13.9604 36.0567 13.6528C35.9449 12.3944 30.4359 11.6114 25.598 12.1986ZM34.4347 23.9158C35.6931 23.72 37.1754 22.9091 38.7414 21.5108C40.3913 20.0287 40.3633 20.0287 41.9573 21.343C42.6564 21.9303 43.3554 22.4896 43.5232 22.6014C43.7189 22.7413 43.5232 23.0768 42.9919 23.5522C37.8185 28.0545 36.4482 30.068 38.5176 30.068C38.8811 30.068 43.747 34.011 43.747 34.011L40.5031 38.709L39.6361 38.1777C34.0992 34.794 32.5612 35.3253 33.8476 40.1911C34.9102 44.218 34.9661 44.8612 34.0712 44.8612C33.7077 44.8612 29.2054 45.2247 29.2054 45.2247L29.0376 41.897C28.8698 38.2895 29.1215 31.3823 22.5498 37.143C20.6482 38.8209 20.3966 39.2124 19.5297 38.2895C19.278 38.0099 17.0967 35.3533 17.0967 35.3533C17.0967 35.3533 20.3966 32.6687 21.0957 32.1653C24.4235 29.9002 23.976 29.6485 20.089 27.6351C18.6069 26.8521 17.3205 26.1529 17.2087 26.0411C17.0968 25.9292 19.6135 21.1193 19.6135 21.1193L22.2702 22.4896C26.0174 24.4471 28.1427 24.7268 27.7232 22.2938C27.4436 20.616 27.4436 14.4638 27.4436 14.4638L32.0577 14.4078C32.0577 14.4078 31.5264 19.4415 31.7781 22.0142C31.9459 23.1328 32.1416 24.2514 34.4347 23.9158Z" fill="#0A102F"/>
</svg>
