<svg width="60" height="60" viewBox="0 0 60 60" fill="none" xmlns="http://www.w3.org/2000/svg">
<circle cx="30" cy="30" r="30" fill="#FFC900"/>
<path d="M41.6573 15.4792C35.4142 12.3081 31.5494 15.058 36.1821 16.1481C47.9252 18.9228 49.5355 33.4157 38.2632 41.5169C24.8851 51.1046 8.08813 38.1229 16.6105 24.7943C20.2275 19.1458 24.3153 16.0985 28.4031 15.9747C31.9953 15.8756 30.8557 14.067 27.1891 14.067C18.1465 14.067 8.41024 25.5871 10.2188 34.159C11.6804 41.1701 17.4281 45.7286 26.223 46.8186C46.7113 49.3704 59.0488 24.2988 41.6573 15.4792Z" fill="#0A102F"/>
<path d="M26.496 34.7043C25.406 32.9701 25.3069 32.8958 24.2169 32.9701C21.3678 33.1931 23.2507 37.256 26.843 38.5938C29.8159 39.7087 34.4239 39.1141 35.9847 37.4542C38.3382 34.952 37.7683 30.9881 35.2909 32.6232C35.1423 32.7223 34.7955 33.3169 34.523 33.9115C32.6897 37.9745 28.7505 38.3461 26.496 34.7043Z" fill="#0A102F"/>
<path d="M37.2722 26.7767C36.3803 24.6462 34.9931 24.1259 34.0021 25.5628C32.8129 27.3218 33.4819 28.9569 35.3895 28.9569C37.2971 28.9569 37.8916 28.288 37.2722 26.7767Z" fill="#0A102F"/>
<path d="M26.9906 27.1232C26.9906 25.389 25.8758 24.5962 24.3398 25.2403C22.9525 25.8101 22.3083 28.4362 23.2993 29.3529C24.86 30.765 26.9906 29.452 26.9906 27.1232Z" fill="#0A102F"/>
</svg>
