<svg width="60" height="60" viewBox="0 0 60 60" fill="none" xmlns="http://www.w3.org/2000/svg">
<circle cx="30" cy="30" r="30" fill="#FFC900"/>
<path fill-rule="evenodd" clip-rule="evenodd" d="M31.6331 13.867C27.941 15.743 19.6188 25.0031 16.9046 30.192C15.2681 33.3253 15.4678 33.5049 20.7564 33.8042L24.5283 34.0237C17.683 45.998 18.3815 44.7208 18.3216 44.8405C16.8248 47.415 18.8605 49.1313 21.0158 47.1156C21.0358 47.0957 39.536 32.7265 42.8489 27.9568C43.2281 27.4179 43.1283 26.7993 42.2901 26.1806C40.9131 25.1628 39.0571 24.8435 32.2916 24.2847C31.2339 24.2048 30.7549 24.0851 30.8348 23.9254C31.3337 22.7081 33.2495 17.599 34.1676 15.6033C35.2452 13.2683 35.1455 12.0709 31.6331 13.867ZM30.2559 18.3374C30.0763 18.7565 27.8611 24.0651 27.7613 24.2847C27.2424 25.3224 27.5817 25.8613 28.8789 26.001C33.1897 26.46 34.9059 26.6197 36.6422 26.6995C39.516 26.8392 39.5361 26.7194 36.5026 29.7729C33.2695 33.0458 25.0073 40.6295 24.8277 40.4499C24.668 40.2903 27.3223 35.2212 28.0408 34.2832C29.338 32.5868 28.9388 32.3473 24.8077 32.3473C22.9517 32.3473 21.7942 32.3074 20.916 32.2476C20.0978 32.1877 19.5988 31.3096 19.998 30.5712C21.4948 27.837 24.1691 24.4244 28.6195 19.5349C30.6551 17.3396 30.695 17.2997 30.2559 18.3374Z" fill="#0A102F"/>
</svg>
