<svg width="98" height="69" viewBox="0 0 98 69" fill="none" xmlns="http://www.w3.org/2000/svg">
<path d="M84.5912 41.2387L89.0377 45.2406L95.2318 42.1436C96.6273 41.4458 97.255 39.7948 96.6756 38.3461L87.2917 14.8864C86.6657 13.3215 84.8737 12.5792 83.3245 13.2432L82.7811 13.4761L75.8948 16.3755C74.5807 16.9289 73.8376 18.3307 74.1172 19.7288L74.5257 21.7714C74.5746 22.0156 74.6536 22.2528 74.7611 22.4774L79.8934 33.2086L83.9833 40.4796C84.1433 40.764 84.3486 41.0204 84.5912 41.2387Z" fill="#F65510"/>
<path d="M92.6542 40.4075C91.1588 40.8418 88.6273 42.3006 87.0736 43.2739C81.9111 36.3098 76.5625 26.2251 74.9495 17.7082C77.4449 17.0194 82.8297 14.7176 85.2968 13.569C87.6754 19.1515 89.1668 23.8883 90.7798 27.058C91.0505 27.5902 91.7035 27.8061 92.2417 27.5335C92.7766 27.261 92.9896 26.6065 92.7171 26.0716C91.2387 23.1684 87.7051 13.1994 86.8253 11.5687C86.8205 11.5599 86.8118 11.5552 86.8068 11.5465C86.3851 10.5994 85.2912 10.6095 84.853 11.3789C82.5408 12.5016 75.6563 15.4177 73.9896 15.712C73.1713 15.4512 72.4804 16.1474 72.5941 16.8988C72.6915 17.5389 72.8132 18.1889 72.952 18.8451C62.5356 21.8444 58.2155 15.5411 51.4494 16.7615C50.1018 17.0055 48.7658 17.4466 47.475 17.975C39.7879 13.1374 28.894 19.2504 23.0776 15.9344C21.2485 14.8771 19.3571 13.8641 17.452 12.8386C17.6092 12.017 17.7461 11.4255 17.6772 11.1338C17.4646 10.226 6.3401 5.29859 6.10469 5.31479C6.09319 5.31267 6.08443 5.30506 6.07276 5.30329C5.48124 5.21343 4.92651 5.62665 4.83877 6.22029C4.25297 10.198 1.01292 19.4672 0.030896 23.4996C-0.110616 24.0827 0.24741 24.6707 0.83044 24.8129C1.42814 24.955 2.00457 24.5844 2.14367 24.0133C3.10671 20.047 5.71174 12.7206 6.73725 7.88687C8.83904 8.90903 13.5555 11.0586 15.4049 11.9716C14.4968 16.7638 12.0013 29.1822 8.89646 38.4126C7.84654 37.7876 6.52397 36.988 5.61214 36.4516C4.55073 35.829 3.41251 37.1855 4.27794 38.1172C4.38523 38.6507 4.47456 39.2124 4.6158 39.6924C6.01607 40.7241 7.8904 41.8735 9.49461 42.5454C9.84406 42.3522 10.1059 41.6529 10.1935 41.2633C11.5854 42.16 12.9742 43.4098 14.3661 44.3064C13.2343 45.5026 13.3797 48.981 15.8747 51.4155C16.9421 52.4571 18.5219 53.0491 19.965 52.6728C19.3292 56.8559 23.214 59.6484 26.7946 58.7234C26.7439 62.563 30.5316 65.4811 34.2738 64.2069C34.8023 66.1513 36.3413 67.9792 38.254 68.6132C40.1666 69.2473 42.3858 68.8604 43.9711 67.6167C44.2015 67.4359 44.4187 67.2843 44.6376 67.1298C47.5337 67.9418 50.4813 67.5234 53.0571 66.3479C56.2334 67.7269 59.7282 65.4229 60.1918 62.5305C63.4554 64.1195 67.1444 61.5518 67.4867 58.6784C68.9857 59.0933 70.6779 58.7312 71.8759 57.7391C73.0738 56.747 73.9728 54.7956 73.8445 53.2455C78.1365 50.811 82.2343 48.4849 86.6243 45.9946C86.6425 46.0016 86.6621 46.0014 86.6807 46.0074C87.4086 46.9434 87.5112 46.9335 87.8568 46.8382C89.2118 46.5056 92.0611 45.2396 93.2484 44.5069C93.5745 43.7008 93.6004 43.575 93.7337 42.1854C94.5152 41.3553 93.686 40.0993 92.6542 40.4075ZM50.1163 63.4054C50.3459 63.6058 50.6055 63.8309 50.8892 64.0576C49.4095 64.7728 48.0584 64.8405 47.2401 64.6203C46.1149 64.3166 44.5515 63.3307 43.8354 62.3012C44.1451 61.3165 44.6344 60.4685 44.8238 59.2654C46.9698 60.9221 48.5078 62.0025 50.1163 63.4054ZM42.7159 58.4249C42.7478 59.0334 42.5008 59.7091 42.1824 60.5058C41.492 62.2383 41.5343 62.6769 41.4706 63.4493C41.4453 64.003 41.4131 64.7662 41.7139 65.4038C39.5905 66.1773 37.1187 64.2159 36.3526 62.2737C37.911 60.4765 39.3422 58.5559 40.631 56.5538C40.6346 56.5537 40.6377 56.5556 40.6414 56.5555C41.6362 56.4968 42.6636 57.4314 42.7159 58.4249ZM39.1598 54.8642C38.5873 55.6979 37.3981 57.7516 34.7146 60.8457C34.6198 60.8813 34.5186 60.8985 34.4353 60.9608C33.7023 61.507 32.6693 61.6704 31.8039 61.3761C30.9386 61.0811 30.2204 60.3218 29.9735 59.4416C29.7653 58.7006 29.766 57.5256 29.8707 56.6805C30.6227 55.7514 30.2485 55.7475 34.0816 51.4306L34.7912 50.629C34.8326 50.582 34.8494 50.5245 34.8813 50.473C35.8269 50.4139 36.5845 50.5019 37.2104 50.7606C38.4776 51.2842 39.3854 53.1408 39.1527 54.7335C39.1461 54.7785 39.1608 54.8198 39.1598 54.8642ZM28.092 55.5142C26.7375 56.0812 25.0373 55.8159 23.9514 54.8312C22.8229 53.807 22.3967 52.0465 22.9158 50.6146C25.5847 48.1873 27.6759 44.9931 30.5438 46.4359C31.9369 47.1386 32.7591 48.7454 32.7245 49.3518C32.7188 49.4523 32.7453 49.5445 32.7657 49.6384C31.6076 50.9451 28.9147 53.9474 28.092 55.5142ZM22.4341 48.0643C21.9899 48.5167 21.5614 48.9327 21.1512 49.2781C19.8679 49.7072 18.2444 49.1263 17.5954 47.9353C16.9159 46.6888 17.3722 44.9066 18.5396 44.1047C21.3431 43.8688 23.1291 46.5982 22.4341 48.0643ZM51.8357 18.9005C57.4211 17.8936 62.6862 24.0141 73.4642 20.9593C75.4926 28.5319 79.8399 36.7577 84.1612 42.947C79.7511 44.4099 76.2666 46.3347 72.1075 49.5819C71.3555 47.8509 70.2762 46.7698 68.7358 45.2713C63.342 40.0121 57.0037 32.4762 50.4254 28.7927C50.6009 28.772 50.7722 28.7563 50.9229 28.7604C51.5251 28.8049 52.0232 28.3068 52.0416 27.7068C52.06 27.1068 51.588 26.6058 50.988 26.5881C48.8455 26.5039 45.6509 27.9035 44.1042 29.5337C41.5624 32.1866 40.1027 36.1914 36.9422 37.3558C36.0026 37.7032 34.7601 37.6346 34.3165 36.9242C33.9507 36.3249 33.7738 35.0428 33.9379 34.176C34.4488 31.3967 35.6064 29.6561 37.3144 27.3169C38.5625 25.6004 40.6201 23.927 43.2593 22.4786C45.8816 21.0543 48.854 19.4404 51.8357 18.9005ZM21.995 17.8193C28.2337 21.374 38.0322 16.2749 44.9785 19.1171C41.4865 20.8639 37.8655 22.8655 35.5575 26.0363C33.732 28.5375 32.3933 30.5576 31.8011 33.777C31.5718 34.989 31.7247 36.8478 32.4669 38.0655C33.5327 39.7727 35.8738 40.0715 37.6951 39.3943C40.331 38.4252 41.9847 36.0924 43.4313 33.9744C45.0192 31.6451 45.6791 30.6944 47.5152 29.7578C54.2869 32.7869 60.5962 40.2238 66.0173 45.6449C67.4043 47.0319 67.8296 47.3794 68.8278 48.4766C71.9474 51.9029 70.3348 55.4375 67.7204 55.0802C65.8264 54.8277 64.2469 52.9873 62.7689 51.6061C60.1035 49.1176 57.3193 46.4296 55.0084 43.6312C54.6277 43.1677 53.9414 43.1026 53.4786 43.4854C53.0159 43.8675 52.9501 44.5524 53.3329 45.0152C55.7216 47.9084 58.5667 50.6566 61.2859 53.1953C62.367 54.2056 63.5503 55.4985 65.0069 56.3587C64.3777 58.7927 61.839 60.1059 59.5347 59.3242C57.841 58.7476 57.1059 57.7729 49.8312 50.3884C49.4116 49.9617 48.7224 49.9561 48.2943 50.3771C47.867 50.7981 47.8613 51.4865 48.283 51.9139C55.1196 58.8451 55.8818 59.776 57.452 60.723C57.0146 62.709 55.5971 63.4604 54.4317 63.3884C53.4617 63.3714 52.5128 62.6122 51.5456 61.7681C49.0995 59.6337 46.3458 57.8476 43.9853 55.7871C43.8634 55.6806 43.7239 55.612 43.5784 55.569C42.963 54.9799 42.1861 54.5618 41.3419 54.4271C41.402 52.2728 40.2609 49.6685 38.0411 48.7511C37.0975 48.3614 36.0239 48.2279 34.7306 48.3096C34.3213 46.9159 33.1617 45.3217 31.523 44.4958C28.7183 43.08 26.4036 44.3688 24.535 46.0103C23.7363 43.4585 21.1483 41.5806 18.303 41.9543C18.2234 41.9649 18.1573 42.0032 18.0848 42.0294C17.929 42.0278 17.7768 42.0583 17.6286 42.1265C15.2775 40.2892 13.8466 39.5612 11.259 38.1731C13.7912 30.3811 15.888 20.7248 17.0154 15.0742C18.6853 15.9726 20.356 16.8715 21.995 17.8193Z" fill="#221F1A"/>
<path d="M9.94349 15.7484C11.0042 15.3359 11.2704 14.0349 10.472 13.2366C9.51236 12.2769 7.91849 12.898 7.85901 14.2533C7.83566 14.7861 8.07057 15.2814 8.48591 15.5793C8.91246 15.886 9.46186 15.9353 9.94349 15.7484Z" fill="#221F1A"/>
<path d="M77.0362 19.8977C76.2574 22.0337 78.0165 24.5763 80.4551 23.916C81.9332 23.519 82.7561 22.186 82.4561 20.6746C81.8688 17.7137 77.958 17.3689 77.0362 19.8977ZM79.8912 21.8173C79.6322 21.8831 79.4568 21.8421 79.3011 21.673C78.9766 21.3194 78.8504 20.4595 79.4384 20.3824C79.9148 20.3206 80.2421 20.6823 80.3242 21.0985C80.4381 21.6702 80.0263 21.7805 79.8912 21.8173Z" fill="#221F1A"/>
<path d="M40.8034 11.852C41.1083 12.3662 41.7735 12.5395 42.2928 12.2334C42.8093 11.927 42.9798 11.2605 42.6742 10.744L39.0868 4.68586C38.7812 4.16863 38.1153 3.99881 37.5981 4.30377C37.0816 4.60944 36.9104 5.27596 37.216 5.79248L40.8034 11.852Z" fill="#221F1A"/>
<path d="M47.3247 11.8303C47.8518 11.8303 48.3153 11.4454 48.3973 10.9083L49.8776 1.25223C49.9688 0.658586 49.5613 0.103858 48.9683 0.0132903C48.3775 -0.0801078 47.82 0.328862 47.7294 0.922506L46.2492 10.5786C46.148 11.2365 46.6566 11.8303 47.3247 11.8303Z" fill="#221F1A"/>
<path d="M55.6398 10.6942L58.7247 6.06883C59.058 5.56929 58.9229 4.89498 58.4233 4.56172C57.9238 4.22846 57.2495 4.3636 56.9162 4.86314L53.8313 9.48847C53.498 9.98801 53.6331 10.6623 54.1327 10.9956C54.6303 11.328 55.3063 11.1944 55.6398 10.6942Z" fill="#221F1A"/>
</svg>
