<svg width="98" height="90" viewBox="0 0 98 90" fill="none" xmlns="http://www.w3.org/2000/svg">
<path d="M92.6883 45.154L31.9861 38.812C30.3373 38.6397 29.1408 37.1628 29.3143 35.5142L29.908 29.8739C29.9681 29.3033 30.1905 28.7619 30.5489 28.3138L30.9512 27.811C31.6029 26.9964 32.6308 26.5789 33.6659 26.7082L93.3721 34.1715C94.8734 34.3592 96 35.6354 96 37.1483V42.1702C96 43.9504 94.4588 45.339 92.6883 45.154Z" fill="#F65510"/>
<path d="M10.0536 67.0481C12.0127 68.7393 14.9464 68.3958 17.4965 67.9548C18.5252 67.7769 19.6225 67.5461 20.5787 67.1239C20.2567 69.8561 19.935 72.5882 19.6289 75.314C19.3859 77.4772 19.5057 79.943 20.8348 81.667C21.4739 82.4961 23.9469 83.3438 26.1361 83.5604C83.032 89.1896 84.56 90.2649 87.738 89.1839C90.2408 88.3326 92.5518 85.5621 92.5828 82.9144C92.6952 82.3602 95.9019 52.8124 97.6765 36.6659C97.7892 35.6345 97.4931 34.6207 96.8418 33.8117C96.1912 33.0028 95.2636 32.4959 94.2315 32.3854L75.9502 30.4317L71.1025 3.19959C70.7431 1.08725 68.7291 -0.3192 66.6032 0.0624893L5.66176 11.0475C4.64135 11.2324 3.75356 11.8034 3.16342 12.6566C2.90574 13.0287 2.73187 13.4382 2.61804 13.8619C1.36049 15.6124 0.0609471 17.4641 0.00219081 19.564C-0.118084 23.8574 4.74164 48.0748 7.75239 62.0143C8.14922 63.8514 8.63079 65.8201 10.0536 67.0481ZM90.4033 82.3256C90.3068 83.2038 89.5207 83.8477 88.6336 83.7608C23.7656 77.0803 26.8573 78.002 26.0485 77.0062C25.2434 76.0123 25.708 77.3256 29.5881 39.3959L94.3435 46.3166L90.4033 82.3256ZM95.4265 36.4199L94.5898 44.0657L29.8288 37.1444L30.6466 29.4929C30.7357 28.664 31.4386 28.0474 32.2549 28.0474C32.4354 28.0474 29.0241 27.6961 93.9898 34.6369C94.8889 34.7322 95.5233 35.539 95.4265 36.4199ZM32.6682 25.8062C30.9696 25.613 29.4103 26.5864 28.7358 28.0736C26.5183 30.5425 24.8408 31.2482 24.5816 33.5317C23.5412 42.699 22.4005 51.9063 21.2944 61.0998L14.9169 62.2947C14.4903 62.3757 14.0585 62.2873 13.7005 62.0398C13.3432 61.7937 13.1037 61.4224 13.0271 60.9921L6.53251 24.9531L70.6191 13.3965L73.6068 30.1813L32.6682 25.8062ZM5.02446 13.9444C5.27054 13.5893 5.63965 13.3513 6.06402 13.2747C70.4792 1.84264 67.1825 1.82214 68.2233 2.55567C69.1515 3.20602 68.749 3.70418 70.2223 11.1675L6.13098 22.7251C4.92342 15.1887 4.36594 14.8974 5.02446 13.9444Z" fill="#221F1A"/>
<path d="M67.7991 55.8573C71.141 49.9519 65.2849 43.0258 58.4916 44.7441C54.1038 45.8554 51.6955 50.1368 52.9122 54.176C54.9008 60.7724 64.3791 61.9031 67.7991 55.8573ZM59.0479 46.9367C64.0154 45.6803 68.1593 50.6247 65.8297 54.7433C63.4138 59.0078 56.5093 58.2735 55.0797 53.5218C54.237 50.727 55.9054 47.7355 59.0479 46.9367Z" fill="#221F1A"/>
<path d="M71.9325 71.8769C66.5361 55.4431 44.9847 57.9897 40.5843 73.8912C40.397 74.5694 40.8671 75.2541 41.5657 75.319C41.7186 75.3339 71.9696 78.2837 72.144 78.2837C72.7127 78.2837 73.202 77.8564 73.2668 77.2788C73.3272 76.7469 73.1607 76.2252 73.0266 75.8053C72.7674 74.9873 72.5687 73.8128 71.9325 71.8769ZM43.174 73.2016C46.8358 62.941 59.8494 59.1914 67.0486 67.4903C69.1262 69.888 69.921 72.748 70.6955 75.8716L43.174 73.2016Z" fill="#221F1A"/>
<path d="M11.2978 19.1709C12.4979 17.7522 11.333 15.8192 9.70342 16.0536C8.94472 15.9329 7.92715 16.7288 7.95363 17.9869C7.97785 19.0903 10.1113 20.5723 11.2978 19.1709Z" fill="#221F1A"/>
<path d="M18.3278 17.5436C19.5244 16.1273 18.3736 14.2051 16.732 14.4279C15.9636 14.3131 14.9566 15.1093 14.9829 16.3597C15.0218 18.206 17.1439 18.9441 18.3278 17.5436Z" fill="#221F1A"/>
<path d="M24.3165 16.6277C25.7289 16.6277 26.8062 15.003 26.0913 13.7204C25.7382 13.085 24.9832 12.6739 24.2281 12.7818C23.4545 12.6683 22.4528 13.4666 22.479 14.7121C22.5013 15.8169 23.3221 16.6277 24.3165 16.6277Z" fill="#221F1A"/>
<path d="M35.7875 35.1867C37.3327 34.163 36.773 31.9808 35.1303 31.7461C34.9549 31.6665 34.7538 31.6267 34.5519 31.6503C32.8435 31.8153 32.2055 34.1955 33.5919 35.1941C33.9058 35.4225 35.0718 35.6588 35.7875 35.1867Z" fill="#221F1A"/>
<path d="M41.8591 35.9513C43.0565 35.9513 44.1396 34.8264 43.8602 33.5863C43.6996 32.876 43.0961 32.2758 42.3366 32.1615C41.6285 31.8369 40.4386 32.3153 40.113 33.5274C39.7656 34.8187 40.6561 35.9513 41.8591 35.9513Z" fill="#221F1A"/>
<path d="M50.6484 36.1272C51.9182 35.2878 51.8264 33.5735 50.5895 32.8913C50.4009 32.7882 50.1982 32.7204 49.9934 32.6895C49.2826 32.3623 48.0971 32.8474 47.7714 34.0495C47.5511 34.8599 47.8185 35.6792 48.4536 36.139C49.1052 36.6101 49.974 36.5749 50.6484 36.1272Z" fill="#221F1A"/>
</svg>
