<svg width="98" height="93" viewBox="0 0 98 93" fill="none" xmlns="http://www.w3.org/2000/svg">
<path d="M51 54.5L59.5 53.5L57.5 47.5L52 38L51 41L47.5 35L44 31.5L38.5 27.5L36 29L32.5 25.5L28 22L24 20L23.5 22L22 21L18 19L13 17H6.5L1.5 19L1 22L6.5 28L15.5 37L19.5 37.5L26 38L22.5 39.5V41L26 43.5L30.5 46.5L43.5 48.5L46 49.5L40 52L42.5 53L51 54.5Z" fill="#F65510"/>
<path d="M49.8676 32.2037C51.4568 32.268 53.0975 33.2776 54.8587 33.8576C57.1351 34.609 59.9404 34.3794 61.2454 32.3431C61.3694 32.1474 61.5848 31.7557 61.5932 31.7341C61.9367 31.5931 62.8285 32.5738 63.6756 32.9785C66.886 34.5074 69.517 30.7035 75.2074 32.7716C75.79 32.9815 76.4401 32.6821 76.6515 32.0965C76.8643 31.511 76.5619 30.8653 75.9764 30.6525C73.1161 29.6155 70.3465 29.7103 67.4956 30.6261C64.4625 31.5893 64.7991 30.9173 63.25 29.9613C62.2169 29.3303 61.0751 29.3141 60.2739 29.9129C59.8126 30.2588 59.5727 30.7306 59.3464 31.128C58.6787 32.1684 56.9191 32.1655 55.5646 31.7179C53.8121 31.1353 52.0684 30.0351 49.9557 29.9525C49.3892 29.8952 48.8096 30.4104 48.7861 31.034C48.7611 31.6563 49.2454 32.1802 49.8676 32.2037Z" fill="#221F1A"/>
<path d="M73.5478 56.6819C72.2595 56.2157 71.511 56.3446 70.5555 57.3569C70.3889 57.5331 70.2202 57.8027 69.603 57.6798C69.3536 57.6299 69.2288 57.5271 69.2112 57.4949C68.9192 56.9577 68.2382 56.7259 67.6923 57.012C66.4399 57.6585 67.2083 59.4605 69.0953 59.8767C70.0155 60.0811 71.0455 59.904 71.7412 59.3425C71.8005 59.2944 72.4407 58.692 72.3679 58.6762C72.8942 58.6977 73.7275 59.7234 77.7375 58.6087C78.3378 58.4414 78.6885 57.8207 78.5212 57.2204C78.3539 56.6202 77.7346 56.268 77.1329 56.4368C74.125 57.2761 73.7783 56.6933 73.5478 56.6819Z" fill="#221F1A"/>
<path d="M76.7597 67.0249C75.4316 67.4255 73.9553 67.135 72.388 66.8253C66.5984 65.694 64.0416 66.9293 58.3408 67.8276C53.6609 68.5731 50.1608 67.9274 47.9522 65.9184C47.4928 65.5001 46.7782 65.5354 46.3599 65.9932C45.9402 66.454 45.9754 67.1673 46.4348 67.5855C48.479 69.4449 51.2952 70.3782 54.8349 70.3782C60.2234 70.3782 65.2273 68.085 70.1837 68.7287C72.442 69.0223 74.8987 69.936 77.4084 69.1851C78.0042 69.0046 78.3432 68.3765 78.1641 67.7807C77.9851 67.1849 77.3614 66.8473 76.7597 67.0249Z" fill="#221F1A"/>
<path d="M5.41767 30.1506C8.19432 33.0505 11.0566 36.0132 14.6845 37.7329C17.0233 38.8414 19.7692 39.3172 22.2839 38.8738C21.9602 39.1796 21.6603 39.51 21.4091 39.8801C21.224 40.1527 21.1876 40.4757 21.2599 40.7752C20.9072 43.1798 28.8655 47.0281 31.5833 48.1223C32.9414 51.87 33.6271 53.6752 34.4099 56.0361C39.11 70.2035 36.1928 75.9527 36.0859 77.0484C32.0697 77.2192 28.0505 77.4373 24.0316 77.7306C23.3385 77.7827 22.8473 78.4459 23.0219 79.1321C23.8872 82.5433 25.3742 85.1724 27.3683 86.9477C27.374 86.9539 27.3788 86.9605 27.3845 86.9665C27.3797 86.9611 27.3754 86.9552 27.3707 86.9498C28.5835 88.0289 29.6322 88.5635 30.7862 88.9752C29.1565 88.5146 28.2159 87.8536 27.3845 86.9665C28.4181 88.1265 29.6019 89.133 30.822 89.8897C34.293 92.0424 37.8619 92.03 41.9438 92.1714C47.6449 92.3691 53.9616 92.3195 59.6653 92.2239C68.6097 92.0739 77.5534 93.3677 85.3144 88.6057C85.7866 88.4084 86.2457 88.1496 86.6936 87.8373C89.0269 86.9917 90.681 84.8717 91.8082 82.6387C98.2009 69.9744 90.4965 54.8348 87.103 43.9493C85.2221 37.9162 84.0012 31.4829 85.1015 25.2858C89.0475 24.4768 91.2733 23.8852 95.1048 23.1012C94.9226 23.6893 95.2415 24.3145 95.8273 24.5063C95.9447 24.5445 96.0622 24.5621 96.1781 24.5621C96.6521 24.5621 97.0938 24.2613 97.2494 23.7858C98.0932 21.2015 97.7351 18.1872 96.316 15.9184C94.0591 12.3014 89.1295 11.8522 86.0316 10.9303C74.5112 7.46213 64.444 12.9218 49.8923 10.3975C44.3392 9.42164 38.1257 11.3015 33.6967 15.2961C31.6983 17.0852 30.1914 19.2489 29.1438 21.7042C27.5292 20.6426 25.8214 19.72 24.0404 18.9532C23.3794 18.6695 22.6251 19.068 22.4892 19.7692L22.3997 20.2197C17.9355 16.931 12.3501 15.3196 6.7999 15.7863C0.377259 16.316 -1.41839 20.6693 1.08599 24.3358C2.02143 26.5875 3.61986 28.2732 5.41767 30.1506ZM2.56563 26.0946C3.24912 26.7795 3.19062 26.6899 8.60954 31.6632C7.17357 30.4935 3.80997 27.488 2.56563 26.0946ZM25.5813 79.8805C43.3728 78.6456 61.1694 78.6291 78.5414 79.8086C77.1242 82.3476 77.5653 85.6291 79.148 87.3851C64.7551 89.0355 55.1046 88.6121 42.0058 88.2351C38.3356 88.1133 34.542 87.9871 31.3076 86.7764C28.666 85.7873 26.7436 83.4701 25.5813 79.8805ZM95.4469 20.7294C92.057 21.3971 89.8347 21.974 85.6479 22.8681C86.1793 21.0935 86.9839 19.3967 88.2943 18.1063C89.6038 16.8169 90.9073 16.7141 92.5181 16.1658C92.8359 16.0577 93.2179 16.1353 93.5298 16.1097C94.814 17.2703 95.4123 19.0269 95.4469 20.7294ZM35.2024 16.9721C39.1339 13.4295 44.6151 11.7579 49.5049 12.6179C56.7559 13.8785 62.6481 13.2578 68.3494 12.6561C81.5772 11.268 81.5219 12.1052 88.646 13.9178C84.5434 16.2127 81.9161 21.0452 81.1697 27.8376C79.6679 41.438 87.9941 53.1328 90.2962 65.6616C91.5891 72.6955 90.6367 79.2318 87.6841 83.5933C86.6151 85.1724 85.4622 86.1857 84.2562 86.623C83.4509 86.6352 82.6482 86.3874 82.0735 85.8148C81.0598 84.805 80.7383 82.9244 81.5246 81.6756C81.9593 80.985 82.2451 79.7368 82.098 78.8421C82.229 77.9682 81.3563 77.2812 80.5149 77.6767C66.6938 76.6687 52.5935 76.4239 38.4325 76.9425C41.0021 67.4879 37.4994 57.7191 34.2801 48.9448C37.9619 49.8449 40.623 49.693 43.3149 49.8138C42.0396 50.3744 40.4943 50.844 39.9792 50.6899C39.4186 50.4317 38.745 50.6738 38.4838 51.2403C38.2226 51.8053 38.4691 52.4759 39.0341 52.7357L39.0356 52.7371C47.3131 56.5543 56.5657 55.8744 58.5484 54.5271C62.373 58.0672 62.3357 58.5133 63.1367 58.5133C64.1474 58.5133 64.6445 57.2765 63.9189 56.5747C59.4036 52.2624 60.1261 52.8588 59.7497 52.6095C59.8727 51.7522 59.6388 50.9307 59.5032 50.4654C58.0958 45.6813 55.6626 41.1319 52.4634 37.309C51.8774 36.6094 50.7655 36.8638 50.5175 37.717C47.5971 32.9299 43.3706 29.0043 38.3385 26.4611C38.045 26.3114 37.6957 26.2997 37.3934 26.4273C36.6923 26.7239 36.8712 27.2241 36.306 28.0548C34.7354 26.1939 32.9579 24.5192 31.0255 23.0476C31.9439 20.7035 33.3281 18.6516 35.2024 16.9721ZM2.27698 20.7788C2.4164 20.0054 3.02395 19.2629 3.90007 18.7918C7.0455 17.1039 16.1158 17.6051 22.4026 23.1122C23.0555 23.6831 24.0826 23.3337 24.2502 22.4826L24.4234 21.6065C25.9896 22.3681 27.4866 23.2624 28.9001 24.2725C28.9113 24.2825 28.9261 24.2882 28.9376 24.2979C31.35 26.027 33.5149 28.0981 35.3447 30.4484C35.7234 30.9341 36.4263 31.028 36.9223 30.6479C37.4961 30.2062 37.9863 29.6485 38.359 29.0234C43.5614 31.9364 47.7409 36.4828 50.199 41.9332C50.381 42.3368 50.7831 42.5965 51.2263 42.5965C52.0451 42.5965 52.3143 41.9183 52.5515 41.1349C54.6647 44.1712 56.301 47.567 57.34 51.1008C57.7576 52.5234 57.6127 52.805 56.0618 53.0321C51.9571 53.6235 47.6793 53.286 43.6876 52.09C45.1889 51.4751 46.5273 50.6488 46.9543 50.0516C47.2405 49.6524 47.2346 49.1138 46.9411 48.7205C45.7479 47.1244 41.5654 47.6714 40.1612 47.4584C34.3826 46.5738 28.6913 44.1798 23.9538 40.3879C24.6788 39.7598 25.6327 39.3724 26.5792 39.3548C27.644 39.3351 28.0825 37.9814 27.2469 37.3369C25.3861 35.8943 23.1379 35.912 20.9733 35.9354C14.9052 35.9715 16.5643 35.4364 4.8745 25.1873C3.43339 23.868 1.99962 22.3124 2.27698 20.7788Z" fill="#221F1A"/>
<path d="M29.1267 10.7334L24.4996 8.34725C23.9419 8.06108 23.2668 8.28121 22.9807 8.833C22.696 9.38626 22.9132 10.0657 23.4664 10.3519C28.2005 12.7441 28.1218 12.8628 28.6086 12.8628C29.7903 12.8628 30.1713 11.2738 29.1267 10.7334Z" fill="#221F1A"/>
<path d="M32.765 9.69628C33.3785 9.59649 33.7967 9.01828 33.6969 8.40339C33.3183 6.05975 32.6051 3.78655 31.5764 1.6469C31.3078 1.08631 30.6371 0.845632 30.0736 1.11859C29.5115 1.38715 29.2753 2.06074 29.5453 2.62134C30.4786 4.56728 31.1273 6.63355 31.4722 8.7644C31.5737 9.39171 32.167 9.79596 32.765 9.69628Z" fill="#221F1A"/>
<path d="M37.0678 1.02309L36.5615 6.46027C36.5043 7.07957 36.9592 7.62842 37.58 7.68712C38.2233 7.74074 38.7508 7.27075 38.8068 6.66866L39.3131 1.23148C39.3703 0.612181 38.9154 0.0633261 38.2946 0.00462502C37.6812 -0.0511409 37.125 0.403792 37.0678 1.02309Z" fill="#221F1A"/>
</svg>
