<svg width="98" height="81" viewBox="0 0 98 81" fill="none" xmlns="http://www.w3.org/2000/svg">
<path d="M95.5 57.5L94.5 38L72.5 41.5L74.5 62L95.5 57.5Z" fill="#F65510"/>
<path d="M68.203 31.4227H65.3962C63.2957 27.3007 59.8434 23.9115 55.7472 21.7426C58.4206 21.7808 57.9602 21.8137 61.4051 21.7619C61.69 22.2221 62.1762 22.5455 62.7572 22.5455H65.4848C66.3775 22.5455 67.101 21.8218 67.101 20.9292V19.0039C67.101 18.1113 66.3775 17.3876 65.4848 17.3876H62.7572C61.8646 17.3876 61.1409 18.1113 61.1409 19.0039V19.4969C57.2593 19.5502 53.2487 19.468 49.26 19.3403V17.2974C49.26 16.6723 48.7528 16.165 48.1276 16.165H42.5593C41.9342 16.165 41.427 16.6723 41.427 17.2974V19.0753C37.2244 18.9397 32.9876 18.8484 28.8827 18.9122V18.6501C28.8827 17.7575 28.159 17.0339 27.2664 17.0339H24.5389C23.6462 17.0339 22.9226 17.7575 22.9226 18.6501V20.5754C22.9226 21.468 23.6462 22.1917 24.5389 22.1917H27.2664C27.9452 22.1917 28.5216 21.7714 28.7611 21.1783C31.2907 21.1354 33.8758 21.1493 36.4832 21.2043C31.4659 23.5509 27.2713 27.7149 25.1141 32.8145H22.4839C21.8588 32.8145 21.3516 33.3218 21.3516 33.9469V38.7647C21.3516 39.3899 21.8588 39.8971 22.4839 39.8971H28.0515C28.6766 39.8971 29.1839 39.3899 29.1839 38.7647V33.9469C29.1839 33.3218 28.6766 32.8145 28.0515 32.8145H27.6116C30.2579 27.3574 35.5171 23.2266 41.427 21.8778V22.1159C41.427 22.7411 41.9342 23.2483 42.5593 23.2483H48.1276C48.7528 23.2483 49.26 22.7411 49.26 22.1159V21.782C54.849 22.9142 59.9325 26.5087 62.8262 31.4227H62.6355C62.0103 31.4227 61.5031 31.9299 61.5031 32.555V37.3728C61.5031 37.998 62.0103 38.5052 62.6355 38.5052H68.203C68.8282 38.5052 69.3354 37.998 69.3354 37.3728V32.555C69.3354 31.9299 68.8282 31.4227 68.203 31.4227Z" fill="#221F1A"/>
<path d="M97.6912 58.4106C97.7734 57.3762 97.2705 51.5134 96.5703 37.3093C96.6082 37.1676 96.6192 37.0162 96.5977 36.8617C96.5122 36.2417 95.946 35.8053 95.3208 35.896C92.9893 36.2192 90.6217 36.5585 88.2441 36.9022C88.2869 29.5476 88.1945 7.97962 88.4956 2.80366C88.5207 2.04098 87.9937 1.61703 87.3853 1.60686C87.3 1.6076 87.2236 1.63986 87.1431 1.65939C58.8506 0.87391 32.7931 0.79999 4.51818 0.0129839C3.87525 -0.0349616 4.1757 -0.258084 0 6.26088C1.57287 22.9466 2.99102 39.7915 3.30591 55.8484C4.81999 56.812 6.42384 58.9573 8.11289 58.8274C9.25029 58.7399 13.0931 58.1569 40.1714 55.616C40.1556 56.6346 40.2932 57.2535 40.2777 62.1873C36.9966 62.9385 32.159 63.6264 28.9041 64.3875C28.582 64.464 28.2308 64.7562 28.1047 65.1438C28.0548 65.2948 27.6273 67.7227 28.0209 69.8589C30.6085 72.783 34.5638 77.4821 37.1513 80.4061C47.856 78.2022 57.7734 76.628 68.208 74.456C68.4564 73.3011 68.5389 72.2423 68.758 71.1042C69.1359 70.6269 69.0758 69.9353 68.6074 69.5393C64.8131 66.3336 61.5267 63.4085 57.4739 60.338C57.2602 60.1762 56.4097 59.9579 56.1314 60.0055C55.979 60.0279 52.216 60.6188 52.0644 60.6512L52.0232 54.5124C58.1928 53.9418 64.3348 53.3727 69.9533 52.8389C70.2655 56.3096 70.5686 59.6899 70.7729 62.5364C71.5281 62.7509 71.9677 62.9752 72.4492 63.201C72.6507 63.5248 72.9984 63.7447 73.3987 63.7447C73.4077 63.7447 73.417 63.7438 73.4261 63.7435C74.2541 63.918 88.1998 61.0332 96.7584 59.6376C97.3505 59.5407 97.7476 58.9993 97.6912 58.4106ZM49.8296 65.1447C49.8347 65.7669 50.3405 66.2682 50.9619 66.2682H50.9708C51.596 66.263 52.0995 65.7522 52.0943 65.127L52.0789 62.8355C52.5617 62.9313 53.9855 62.6654 56.2783 62.2771C59.4816 64.7142 62.2197 67.0707 65.2819 69.6833C56.3406 71.1342 47.1367 73.0257 38.4185 74.395C36.2597 71.8896 33.6727 68.9648 31.2728 66.2004C34.1645 65.6264 37.5143 65.1048 40.2495 64.512C40.2395 65.0029 40.2469 65.4965 40.2316 65.9858C40.2117 66.611 40.7027 67.1337 41.3279 67.1529C41.3397 67.1536 41.3522 67.1536 41.364 67.1536C41.9729 67.1536 42.4757 66.67 42.4949 66.0566C42.579 63.3741 42.5721 56.318 42.3783 55.4083C44.8509 55.1773 47.3067 54.9499 49.7597 54.7226L49.8296 65.1447ZM9.07239 56.4468C7.7359 38.3135 7.25083 24.5159 5.71442 2.30797C33.4042 3.06177 58.4753 3.146 86.2055 3.90065C85.8703 15.073 86.0529 25.4987 85.9788 37.231C85.8834 37.2449 82.6573 37.713 82.4918 37.7371C82.4955 36.7174 82.6198 8.09552 82.2273 7.36976C82.0247 6.97165 81.6258 6.74826 81.2457 6.74238C72.6581 6.61779 10.7415 5.89141 10.5546 5.90194C9.93089 5.94618 9.46128 6.48804 9.50551 7.11173C10.5533 21.8019 11.9759 37.0396 12.4456 51.1241C12.4723 51.916 13.3298 52.5257 14.1391 52.052C33.5198 50.648 52.5108 49.3144 69.4648 47.7675C69.4725 47.767 69.4802 47.7661 69.4879 47.7655C69.5722 48.7026 69.6589 49.6416 69.7479 50.5835C69.7469 50.5835 69.746 50.5836 69.745 50.5837C49.59 52.4973 28.9347 54.2862 9.07239 56.4468ZM71.3514 39.3337C70.8822 39.3984 70.5228 39.7432 70.4123 40.1755C69.9484 40.6495 69.4782 41.1335 68.946 41.5496C69.0524 42.814 69.1686 44.1521 69.2862 45.5097C69.2843 45.5099 69.2825 45.51 69.2805 45.5101C52.4719 47.0446 34.5902 48.2999 14.6515 49.7438C14.1528 36.3026 12.8888 22.4128 11.8584 8.19435C12.0206 8.19648 68.786 8.83113 80.1205 8.99295C80.2829 19.0455 80.2467 27.725 80.2264 38.066C77.2436 38.4993 74.2696 38.9286 71.3514 39.3337ZM74.4306 61.3836C74.2833 59.6795 72.8275 42.8405 72.7164 41.4271C79.8602 40.4281 86.9097 39.364 94.3431 38.3213C94.5778 44.2625 95.1241 51.3083 95.4086 57.5683C88.0932 58.7914 81.4234 60.1901 74.4306 61.3836Z" fill="#221F1A"/>
<path d="M90.6612 44.7131C90.4807 44.2911 89.775 43.7812 89.1816 43.9155C85.2411 44.7721 81.2203 45.4843 77.2311 46.0335C76.7436 46.1007 76.0947 46.6665 76.1076 47.3074L76.1386 48.8077C76.1518 49.4248 76.6561 49.9165 77.2702 49.9165H77.2945C77.9197 49.9032 78.4159 49.3857 78.4033 48.7605L78.3906 48.1435C79.842 47.9356 81.2951 47.7065 82.7473 47.4572C83.0697 49.7925 83.3298 52.1563 83.5308 54.5118C83.07 54.714 82.7745 55.1895 82.8577 55.7089C82.9571 56.3302 83.5405 56.7462 84.1544 56.6488L85.7616 56.3908C86.3786 56.2913 86.7989 55.7103 86.6986 55.0925C86.6203 54.603 86.236 54.2456 85.7726 54.1672C85.5675 51.7902 85.3052 49.4063 84.9789 47.0518C86.2804 46.8094 87.579 46.5583 88.8689 46.285L89.0666 46.7486C89.3134 47.3266 89.9818 47.5893 90.5528 47.3458C91.1279 47.1003 91.3955 46.4353 91.15 45.8595L90.6612 44.7131Z" fill="#221F1A"/>
</svg>
