<svg width="98" height="95" viewBox="0 0 98 95" fill="none" xmlns="http://www.w3.org/2000/svg">
<path d="M56 25.5L57 36.5L64 31.5L71 34L81.5 33.5L90.5 29L95 23.5V16.5L91.5 9.5L85.5 4.5L80 2L69.5 1L59.5 4L55.5 7L52 12V18.5L56 25.5Z" fill="#F65510"/>
<path d="M36.739 36.6518H42.643L42.8808 45.2789C42.8979 45.8964 43.4036 46.3852 44.0168 46.3852H44.0486C44.6766 46.3674 45.172 45.8446 45.1542 45.2166L44.9181 36.6518H50.951C52.4555 36.6518 52.4564 34.377 50.951 34.377H36.739C36.111 34.377 35.6016 34.8864 35.6016 35.5144C35.6016 36.1423 36.111 36.6518 36.739 36.6518Z" fill="#221F1A"/>
<path d="M12.0066 42.1792H36.4555C37.0835 42.1792 37.5929 41.6697 37.5929 41.0417C37.5929 40.4138 37.0835 39.9043 36.4555 39.9043H12.0066C11.3786 39.9043 10.8691 40.4138 10.8691 41.0417C10.8691 41.6697 11.3786 42.1792 12.0066 42.1792Z" fill="#221F1A"/>
<path d="M53.3242 57.0271C53.3242 56.3991 52.8147 55.8896 52.1868 55.8896H12.1433C11.5153 55.8896 11.0059 56.3991 11.0059 57.0271C11.0059 57.655 11.5153 58.1645 12.1433 58.1645H52.1868C52.8147 58.1645 53.3242 57.655 53.3242 57.0271Z" fill="#221F1A"/>
<path d="M48.428 71.5691C48.428 70.9411 47.9185 70.4316 47.2906 70.4316H20.1492C19.5212 70.4316 19.0117 70.9411 19.0117 71.5691C19.0117 72.197 19.5212 72.7065 20.1492 72.7065H47.2906C47.9185 72.7065 48.428 72.197 48.428 71.5691Z" fill="#221F1A"/>
<path d="M36.8768 81.248H28.4245C27.7966 81.248 27.2871 81.7575 27.2871 82.3855C27.2871 83.0134 27.7966 83.5229 28.4245 83.5229H36.8768C37.5048 83.5229 38.0142 83.0134 38.0142 82.3855C38.0142 81.7575 37.5048 81.248 36.8768 81.248Z" fill="#221F1A"/>
<path d="M88.1769 55.8658L61.6784 69.9541C61.4218 57.6532 61.3444 48.2963 61.6619 36.3276C62.5758 35.5371 63.8181 34.3082 64.7421 33.2096C70.3391 35.5256 75.8275 36.3916 81.4709 35.224C98.0814 31.7869 101.572 14.277 88.4161 4.97298C78.7805 -1.82448 61.5206 -2.06388 54.082 6.81539C50.166 11.4595 49.6185 17.7247 52.6484 22.835C50.6128 22.8749 48.2129 23.0658 44.5434 23.326C27.1235 24.569 21.3829 23.9125 3.16701 23.8695C3.16553 23.8695 3.16479 23.8695 3.16405 23.8695C2.6972 23.8695 2.22038 24.1412 2.07715 24.752C1.38477 25.5705 0.692384 26.3891 0 27.2078C0.78791 47.6744 0.970633 69.7753 1.75854 90.2421C1.81964 91.8275 2.40483 92.9577 3.68185 93.4931C3.87115 93.6966 4.13255 93.8325 4.42885 93.8543C15.1684 94.6495 28.1351 94.0322 38.9029 93.2871C52.0246 92.3848 50.7753 92.6641 60.9133 93.1434C61.5542 93.1746 62.1095 92.6598 62.1048 92.0001C62.0908 89.6908 62.073 87.3474 62.0334 84.9714L94.7882 67.5556C96.0679 66.8758 97.0113 65.6184 97.4445 64.0144C97.9532 62.1365 97.6926 60.1045 96.7491 58.579C95.1141 55.9369 91.2782 54.2159 88.1769 55.8658ZM59.2163 83.8936C59.2263 82.5325 59.0129 81.7231 58.0307 80.6701C67.9723 75.4917 79.1189 70.0442 88.4893 64.2284L89.744 66.4702C89.7673 66.8899 89.716 67.209 89.6098 67.3853C89.5285 67.5208 89.4789 67.6663 89.4583 67.8137L59.2163 83.8936ZM51.9312 85.2671C51.2878 84.0465 50.7223 82.6851 49.904 81.6195C51.6051 78.7881 51.7697 78.5026 51.9493 78.197C52.4511 78.286 53.4728 78.797 53.9739 79.235C55.0754 80.1947 54.4275 81.2532 55.5482 81.6017C56.0296 81.7513 56.7686 82.5126 56.8671 82.9598C57.0062 83.5948 56.9373 84.4914 56.7953 84.892C55.3 85.1068 53.6154 85.2125 51.9312 85.2671ZM85.254 59.9956C85.6941 60.1558 86.1248 60.41 86.536 60.7384L87.3771 62.2413C78.4292 67.805 67.7197 73.0926 56.5264 78.8901C55.9436 77.7664 55.1667 77.1771 54.0468 76.5869L85.254 59.9956ZM55.823 8.27865C61.185 1.88112 72.456 1.0179 80.7125 3.70373C80.7132 3.70522 80.7147 3.70522 80.7155 3.70522C91.9464 7.3236 95.9203 16.7193 93.5027 22.7972C90.7431 29.7656 79.1642 34.7859 66.5271 30.4956L66.1554 30.3624C62.9198 29.168 62.7629 30.3417 57.792 34.7314C57.6994 32.0241 57.521 28.9687 57.0678 25.1891C56.9724 24.3917 56.2283 24.3508 54.6685 21.8049C52.0552 17.5188 52.5077 12.2108 55.823 8.27865ZM59.8225 90.8093C38.8455 89.6928 26.5665 93.0777 5.6233 91.6579C5.07843 70.2049 4.87465 47.6785 4.3311 26.1473C21.4238 26.2157 27.5548 26.8214 44.7056 25.5949C48.6157 25.3224 51.6747 25.053 54.2682 25.1147C54.4626 25.3511 54.6454 25.5942 54.8521 25.823C56.067 36.237 54.9422 36.8441 56.2739 37.6313C56.7328 37.9037 57.2522 37.9253 57.7928 37.6279C58.4945 37.706 58.8927 37.7922 59.3522 37.7572C59.0425 49.377 59.2006 60.6658 59.4252 71.1519C50.6209 75.9024 50.8567 75.5514 50.5631 76.0612C48.3839 79.8706 46.3245 82.7784 44.9485 86.1766C44.6452 86.9226 45.1938 87.7836 46.0896 87.7376C49.1698 87.497 54.3087 87.7229 58.12 86.9942C58.4052 86.9413 58.4921 86.8383 59.7716 86.174C59.7928 87.7291 59.8125 89.2838 59.8225 90.8093Z" fill="#221F1A"/>
<path d="M85.4678 21.384C87.4045 21.1637 88.5112 19.0854 87.2554 17.5141C87.0861 16.4756 84.9973 15.6427 83.4603 16.5943C82.3606 17.2741 81.9429 18.6515 82.4887 19.7978C83.0073 20.8903 84.2911 21.5271 85.4678 21.384Z" fill="#221F1A"/>
<path d="M77.2319 17.7087C77.3793 17.023 77.183 16.315 76.7483 15.773C76.5819 14.729 74.4822 13.9049 72.9539 14.8518C71.855 15.5301 71.4374 16.9089 71.9824 18.0567C73.0729 20.3541 76.7169 20.1107 77.2319 17.7087Z" fill="#221F1A"/>
<path d="M64.1407 17.8477C66.0789 17.6218 67.1829 15.5426 65.9246 13.9778C65.8809 13.7038 65.738 13.4461 65.5025 13.2624C63.2195 11.4782 59.9557 13.7282 61.1586 16.2615C61.617 17.2272 62.8516 17.9871 64.1407 17.8477Z" fill="#221F1A"/>
</svg>
