<svg width="98" height="86" viewBox="0 0 98 86" fill="none" xmlns="http://www.w3.org/2000/svg">
<path d="M78 76C78.4 76 82.5 81.3333 84.5 84H86.5L88.5 71.5L92.5 67L95.5 60.5V50L90.5 41.5L80.5 36L70.5 33.5L56 37L46.5 46.5L44.5 61.5L52.5 72C56.8333 73.8333 65.6 77.5 66 77.5C66.5 77.5 77.5 76 78 76Z" fill="#F65510"/>
<path d="M7.41285 44.8039C8.57683 51.5123 9.2929 57.3131 9.92941 62.4051C9.92941 63.0748 10.3375 63.6649 10.9682 63.9087C11.1626 63.9839 11.3645 64.02 11.5619 64.02C11.7915 64.02 12.0139 63.9669 12.2191 63.874C12.9237 63.9259 13.7331 63.8408 15.2862 63.8408C17.9313 60.6499 20.2554 57.7976 22.8022 54.7105C25.4135 56.1311 30.7568 56.9248 33.4538 56.9615C36.7282 57.006 40.002 56.4952 43.12 55.4924C42.9466 57.4755 43.4141 59.5904 43.8786 61.5055C45.5985 68.5968 50.9148 74.1423 57.5958 77.0764C63.7857 79.7947 70.1797 79.8914 76.9608 78.1544C78.0308 79.8445 79.5172 81.7644 80.3938 83.0652C81.5458 84.7747 82.5044 85.3177 82.7402 85.3405C83.6942 85.4329 84.5871 85.4606 85.1807 85.3968C85.4273 85.4577 85.5999 85.5469 86.0582 85.3834C87.6065 84.8336 86.5823 84.2135 89.4176 72.3811C100.632 64.1269 101.323 45.3693 86.0685 37.2526C81.01 34.1824 74.5087 32.4836 67.6706 32.8882C67.8304 32.0478 67.7339 30.755 67.7472 30.2081C67.9347 22.4698 65.2918 16.3911 60.8088 10.9623C54.716 3.58385 45.8536 0.744192 36.3042 0.156122C23.811 -0.878394 10.1411 3.70553 3.65569 14.4402C-1.83517 23.54 -1.57258 35.7719 7.41285 44.8039ZM81.0782 37.2815C94.7724 42.7994 97.8304 56.8294 91.1739 65.6046C90.2972 66.7561 89.2923 67.8272 88.1873 68.7879C88.0134 68.9389 87.8912 69.1385 87.8337 69.361C86.543 74.4052 85.7429 78.4762 85.102 82.1788C83.4757 79.9575 81.0239 75.8546 79.6018 74.7573C79.0449 74.3205 78.4099 74.1864 77.7984 74.1864C76.3837 74.1864 70.9043 76.0921 62.727 74.0884C52.5079 71.6092 44.0851 62.8308 45.8979 52.6026C47.2237 44.9082 53.7489 37.3233 64.4877 35.509C64.4892 35.5083 64.4892 35.5083 64.4907 35.5083C70.0483 34.5521 75.9345 35.1819 81.0782 37.2815ZM5.59321 15.6101C14.243 1.29563 37.5662 -1.59227 51.6206 7.34951C60.7482 13.1576 65.6779 24.0946 63.386 33.4288C52.3697 35.5696 45.5658 43.3642 43.8412 51.4892C37.6717 53.1743 30.7172 53.1981 24.4807 51.6515C24.295 51.6066 24.0976 51.5499 23.8913 51.4909C22.745 51.1646 21.1788 50.7181 19.8571 51.6213C18.2065 52.7396 18.1244 54.2424 12.0202 60.945C11.4087 56.0017 10.6985 50.4441 9.58169 44.0591C9.54043 43.8256 9.42698 43.6112 9.25754 43.4455C0.916817 35.2842 0.485194 24.0761 5.59321 15.6101Z" fill="#221F1A"/>
<path d="M14.6336 41.9983C15.1802 42.3018 15.8697 42.1081 16.1733 41.5629C18.7443 36.9645 20.7703 33.2147 22.7446 29.5614C22.7742 29.5067 22.8035 29.4525 22.833 29.3978L36.7507 29.8244C36.7625 29.8251 36.7742 29.8251 36.7861 29.8251C36.8618 29.8251 36.9285 29.797 37.0002 29.7829C38.6595 33.9131 40.3191 38.1001 41.7573 42.086C41.9223 42.5471 42.357 42.8337 42.8211 42.8337C42.9478 42.8337 43.0775 42.8124 43.2042 42.7667C43.7935 42.5545 44.097 41.9062 43.8849 41.3183C42.1389 36.4723 40.0732 31.3479 38.0753 26.3921C36.0862 21.4555 34.0293 16.3509 32.2952 11.5447C32.1463 11.13 31.7706 10.8404 31.3316 10.8014C30.8733 10.7572 30.4696 10.9833 30.2501 11.3635C26.2498 18.3098 23.58 23.2523 20.7526 28.4858C18.7841 32.1302 16.7626 35.8712 14.1989 40.4579C13.8939 41.0038 14.0884 41.6933 14.6336 41.9983ZM31.0059 14.5976C32.5559 18.7518 34.2901 23.0549 35.9772 27.2386C36.0175 27.3386 36.0583 27.4403 36.0986 27.5405L24.0372 27.171C26.12 23.3233 28.2403 19.4432 31.0059 14.5976Z" fill="#221F1A"/>
<path d="M58.2859 46.6787C57.6611 46.6787 57.1543 47.1856 57.1543 47.8103C57.1543 48.435 57.6611 48.9418 58.2859 48.9418H73.1916C71.9224 52.256 70.2044 55.3771 68.1021 58.2217C66.6176 56.1258 65.4602 53.7576 64.3548 51.4378C64.0881 50.8742 63.4118 50.634 62.8475 50.9022C62.2832 51.1711 62.043 51.8459 62.3127 52.4102C63.5525 55.0155 64.8592 57.6826 66.6521 60.0652C65.3338 61.6429 63.9055 63.1311 62.3495 64.4869C61.5609 65.1754 62.0553 66.4716 63.0936 66.4716C63.3573 66.4716 63.6225 66.3802 63.8376 66.1931C65.3767 64.852 66.7974 63.3885 68.1173 61.841C70.4521 64.2823 73.233 65.8038 76.0594 66.1489C76.1066 66.154 76.1523 66.157 76.1979 66.157C76.7622 66.157 77.2499 65.7363 77.3192 65.1624C77.3958 64.5421 76.9538 63.9778 76.3335 63.902C73.9513 63.611 71.5725 62.2495 69.5579 60.0628C72.7239 55.9081 75.0797 50.8988 75.6019 48.9418H78.8353C79.46 48.9418 79.9669 48.435 79.9669 47.8103C79.9669 47.1856 79.46 46.6787 78.8353 46.6787H68.7219C68.6376 46.0144 68.6751 45.3253 68.8457 44.6793C69.0048 44.0752 68.6424 43.4564 68.0383 43.2973C67.4445 43.1411 66.8168 43.4999 66.6562 44.1047C66.4371 44.9368 66.3923 45.8172 66.467 46.6787H58.2859Z" fill="#221F1A"/>
</svg>
