<svg width="60" height="70" viewBox="0 0 60 70" fill="none" xmlns="http://www.w3.org/2000/svg">
<path d="M0.138441 24.7919C1.03847 35.6714 2.47112 47.0155 9.09068 55.6653C13.9273 61.985 19.5084 65.3934 26.2519 69.0453C27.0306 69.5426 27.8282 70.0926 28.4895 69.9868C36.4826 68.71 44.2994 63.0021 49.3011 56.7107C54.4532 50.23 56.9323 43.3214 58.2449 35.1713C59.5086 27.3241 59.6342 19.0207 58.9705 11.0774C58.8959 10.1848 58.3482 9.39801 57.5339 9.02481C57.1061 8.8287 56.5154 8.56107 55.6768 8.07502C55.592 7.96658 55.5444 7.84792 55.2114 7.78192C55.2093 7.76899 55.1969 7.75817 55.1392 7.75711C55.1528 7.76556 55.163 7.77084 55.1765 7.77928C53.8605 7.57267 43.7834 10.704 28.8771 0.14963C28.5872 -0.0551856 28.2003 -0.0499068 27.9179 0.166522C19.9179 6.24554 10.6463 8.61253 1.10762 7.01518C0.631741 6.92788 0.1661 7.30167 0.162723 7.80805C0.144248 10.2775 0.109408 12.8018 0.0745681 15.3261C0.00189851 20.5641 -0.072799 22.2357 0.138441 24.7919ZM1.77644 8.75928C10.8819 10.0494 19.7187 7.88116 27.4898 2.47044V10.5023C27.4898 10.95 27.853 11.3131 28.3006 11.3131C28.7483 11.3131 29.1114 10.95 29.1114 10.5023V2.27301C37.654 8.03029 45.9074 10.3995 54.2726 9.47931C54.6632 20.9518 55.4839 33.356 51.4485 44.0351C48.0385 53.0584 40.7274 60.9686 31.4452 65.8812C30.0778 66.5102 28.681 67.0461 27.2686 67.4554V57.6765C27.2686 57.2288 26.9054 56.8657 26.4578 56.8657C26.0102 56.8657 25.647 57.2288 25.647 57.6765V66.8668C19.6896 63.5773 14.6941 60.3185 10.3787 54.6792C4.02572 46.3789 2.63477 35.2977 1.7548 24.6589C1.5039 21.635 1.67078 20.5074 1.77644 8.75928Z" fill="black"/>
<path d="M12.202 39.504C12.5505 39.6716 12.3739 39.6304 16.2093 38.9696C17.1504 39.9921 17.2304 40.0356 18.2478 41.1347L16.6191 44.4685C16.5788 44.5061 16.5324 44.535 16.4995 44.582C16.2726 44.9061 16.3069 45.3626 16.6844 45.6969C16.6901 45.7011 16.6927 45.7077 16.6985 45.7116C16.7458 45.7448 16.8227 45.8122 16.8568 45.8288C16.8694 45.8349 16.8831 45.8325 16.8958 45.8378C18.9745 47.2485 21.2808 47.9952 21.6779 47.9952C21.861 47.9952 22.0348 47.9306 22.1754 47.8208C22.4156 47.7164 22.4855 47.5917 22.5662 47.4811C22.6747 47.465 24.0064 47.267 24.1579 47.2414C24.5132 46.5311 24.5809 46.3726 25.6413 44.4817C25.7875 44.519 27.3256 44.9082 27.4338 44.9355L28.7361 48.2782C28.8607 48.5981 29.1674 48.7944 29.4915 48.7944C29.6002 48.7944 32.6363 48.2653 34.3285 47.6563C34.6738 47.5318 34.8702 47.1968 34.8507 46.8482C35.0438 46.6084 35.2782 46.2509 35.5745 45.6565C35.33 44.8466 35.0954 43.7883 34.9218 42.8669C35.6212 42.3764 36.1329 41.9677 37.0004 41.3148C39.6843 42.5926 40.0401 42.8031 40.2987 42.8031C40.5838 42.8031 40.8535 42.6479 41.0008 42.3866C42.4335 40.7506 43.4104 38.9034 43.5308 38.5109C43.647 38.198 43.5587 37.86 43.3193 37.6417C43.3666 37.3422 43.3922 37.0348 43.382 36.7058C42.3266 35.9655 41.2744 35.166 40.4114 34.5067C40.7292 33.76 40.9273 33.0703 41.0216 32.4224C42.3033 32.0947 43.5519 31.6438 44.7366 31.062C45.1658 30.8522 45.3755 30.2674 44.9803 29.8126C44.5098 28.3049 43.9417 26.8137 43.2849 25.38C43.1411 25.0664 42.8228 24.8924 42.4971 24.9132C42.4845 24.9125 42.4738 24.9059 42.4609 24.9059C42.4577 24.9059 42.4551 24.9059 42.4519 24.9059C41.3243 24.9191 40.1976 25.0545 39.0899 25.2765L37.8837 23.3677C38.473 22.228 38.8919 21.0159 39.1146 19.7516C39.1181 19.7468 39.1241 19.7452 39.1274 19.7402C39.3749 19.3664 39.2731 18.8639 38.8999 18.6158C37.4545 17.6561 35.8862 16.878 34.2387 16.3026C34.1998 16.2892 34.1606 16.2941 34.1213 16.2868C33.815 16.1738 33.4596 16.2497 33.2321 16.5106C32.3937 17.4721 31.6726 18.5274 31.0408 19.6298C29.986 19.2329 28.8696 18.9804 27.744 18.8845L26.6373 15.6301C26.4932 15.2057 26.0324 14.9777 25.6085 15.1234C25.5555 15.1414 25.5159 15.1772 25.4694 15.2044C20.9645 16.6438 21.1206 16.496 20.8643 16.7689C20.6705 16.9519 20.56 17.2163 20.6127 17.4977L21.2174 20.7363L18.8826 23.108L15.3761 20.8899C14.8844 20.5776 14.2351 20.8725 14.1426 21.4455C13.2511 22.7262 12.2102 24.6656 11.5385 25.57C11.3862 25.7754 11.3567 26.0253 11.4161 26.2545C11.5168 26.7922 11.7935 26.7505 15.1841 29.0173L14.9451 31.795C13.9274 32.4533 12.7905 32.9532 11.6118 33.2562C11.0178 33.184 10.6192 33.7 10.7155 34.204L11.6097 38.8809C11.6704 39.1977 11.91 39.4268 12.202 39.504ZM15.2388 22.7217L18.3088 24.6637C18.3347 24.6993 18.3495 24.7401 18.3819 24.7719C18.5397 24.9281 18.7456 25.0052 18.9509 25.0052C19.5517 25.0052 19.5153 24.6588 22.4914 21.7535C22.6069 21.6364 22.6646 21.4907 22.6944 21.3407C23.0962 20.8286 22.7239 20.4434 22.3353 17.888L25.369 16.9361L26.2574 19.5485C26.2543 19.5733 26.2416 19.5942 26.2409 19.6198C26.2277 20.0674 26.5803 20.4401 27.0279 20.4538C28.3798 20.4929 29.747 20.7991 30.9817 21.3396C31.2458 21.4558 31.5459 21.4269 31.7968 21.2346C32.3813 20.9505 32.1561 20.3999 34.1284 17.9968C35.2993 18.4371 36.4216 18.9889 37.4803 19.6432C36.9258 22.5222 35.9544 22.8102 36.2755 23.5962C36.2716 24.0661 36.4109 23.9714 37.9893 26.5709C38.1456 26.8173 38.426 26.9801 38.7793 26.9344C39.2636 26.9828 39.7313 26.6445 42.0209 26.5562C42.5016 27.65 42.9297 28.7721 43.2988 29.9102C42.3797 30.3111 41.432 30.643 40.4559 30.8819C40.4011 30.8694 40.3499 30.8473 40.2913 30.8467C40.2882 30.8467 40.2845 30.8467 40.2813 30.8467C39.8379 30.8467 39.4763 31.2035 39.4705 31.6469C39.4594 32.5454 39.1179 33.6085 38.4264 34.8976C38.2141 35.2924 38.3625 35.7834 38.7573 35.9956C38.8019 36.0196 38.8508 36.0159 38.8974 36.0307C39.9094 36.7639 40.8626 37.5776 41.7571 38.4435C41.2807 39.3428 40.7134 40.1918 40.0625 40.9806L37.2344 39.6295C36.9084 39.4739 36.5389 39.5632 36.3039 39.8113C35.5707 40.3821 34.1539 41.4501 33.3725 41.9544C32.9997 42.058 32.7374 42.4028 32.7776 42.8009L33.1313 46.3448C32.1256 46.6578 31.3592 46.7742 29.9953 47.0431L28.941 44.3372C28.9663 43.9785 28.7587 43.6506 28.4159 43.5276C28.3201 43.4745 24.6691 42.5623 24.5628 42.5359C24.1932 42.4403 23.8377 42.6273 23.6538 42.9371C23.381 43.3902 22.3433 45.01 21.4453 46.2567C20.3246 45.9009 19.2603 45.4105 18.2661 44.791L19.9961 41.25C20.1888 40.8553 20.0468 40.3274 19.5429 40.1448C18.5323 39.0433 18.072 38.618 17.2619 37.7222C17.132 37.4728 16.8862 37.3052 16.5276 37.2928C16.2437 37.2948 15.6764 37.4297 13.0674 37.8685L12.4614 34.6987C13.7996 34.3032 15.088 33.7004 16.2202 32.9064C16.4924 32.7151 16.6098 32.3867 16.5478 32.0803C16.8135 28.6152 16.9396 28.6552 16.7223 28.2796C16.6633 28.127 16.5714 27.9858 16.424 27.8895L13.309 25.8556C13.9368 24.8853 14.3672 24.0425 15.2388 22.7217Z" fill="black"/>
<path d="M19.9354 34.5217C21.1217 37.8913 24.8057 40.3003 28.4928 40.019C32.1547 39.7392 35.427 36.8507 36.1059 33.3013C36.8169 29.6494 34.9794 25.8646 31.7366 24.302C31.617 24.2468 31.6398 24.2662 30.4449 23.884C27.4767 23.1734 25.5135 23.4659 23.2019 24.964C20.0378 27.0023 18.7809 31.1478 19.9354 34.5217ZM24.0819 26.3259C26.0181 25.0717 27.5284 24.8521 30.0094 25.4454L31.0821 25.7875C33.6006 27.0312 35.0744 30.1182 34.5138 32.993C34.5138 32.9941 34.5138 32.9951 34.5133 32.9962C33.8048 36.7063 29.5298 39.6765 25.2506 37.86C25.1292 37.779 23.7347 37.2488 22.6857 36.0177C21.8064 35.0318 21.2577 33.8555 21.1733 32.5316C21.1707 32.4915 21.1649 32.4524 21.1559 32.4123C20.9959 30.1157 22.0108 27.6607 24.0819 26.3259Z" fill="black"/>
</svg>
