<svg width="73" height="70" viewBox="0 0 73 70" fill="none" xmlns="http://www.w3.org/2000/svg">
<path d="M27.2923 27.2288H31.6783L31.855 33.6378C31.8676 34.0966 32.2434 34.4596 32.6989 34.4596H32.7225C33.189 34.4464 33.5571 34.0581 33.5439 33.5915L33.3685 27.2288H37.8502C38.9679 27.2288 38.9686 25.5388 37.8502 25.5388H27.2923C26.8258 25.5388 26.4473 25.9173 26.4473 26.3838C26.4473 26.8503 26.8258 27.2288 27.2923 27.2288Z" fill="black"/>
<path d="M8.91921 31.3349H27.0821C27.5486 31.3349 27.9271 30.9564 27.9271 30.4899C27.9271 30.0234 27.5486 29.6449 27.0821 29.6449H8.91921C8.4527 29.6449 8.07422 30.0234 8.07422 30.4899C8.07422 30.9564 8.4527 31.3349 8.91921 31.3349Z" fill="black"/>
<path d="M39.6138 42.3649C39.6138 41.8984 39.2353 41.5199 38.7688 41.5199H9.02077C8.55427 41.5199 8.17578 41.8984 8.17578 42.3649C8.17578 42.8314 8.55427 43.2099 9.02077 43.2099H38.7688C39.2353 43.2099 39.6138 42.8314 39.6138 42.3649Z" fill="black"/>
<path d="M35.9762 53.1682C35.9762 52.7017 35.5977 52.3232 35.1312 52.3232H14.968C14.5015 52.3232 14.123 52.7017 14.123 53.1682C14.123 53.6347 14.5015 54.0132 14.968 54.0132H35.1312C35.5977 54.0132 35.9762 53.6347 35.9762 53.1682Z" fill="black"/>
<path d="M27.3966 60.3584H21.1175C20.6509 60.3584 20.2725 60.7369 20.2725 61.2034C20.2725 61.6699 20.6509 62.0484 21.1175 62.0484H27.3966C27.8631 62.0484 28.2416 61.6699 28.2416 61.2034C28.2416 60.7369 27.8631 60.3584 27.3966 60.3584Z" fill="black"/>
<path d="M65.506 41.5023L45.8204 51.9684C45.6298 42.8302 45.5723 35.879 45.8081 26.9875C46.4871 26.4002 47.41 25.4873 48.0964 24.6712C52.2543 26.3917 56.3317 27.0351 60.5241 26.1677C72.8639 23.6143 75.4574 10.6062 65.6836 3.69439C58.5254 -1.3554 45.7032 -1.53324 40.1771 5.0631C37.2679 8.51321 36.8612 13.1675 39.1121 16.9639C37.5998 16.9936 35.817 17.1354 33.091 17.3287C20.1498 18.2521 15.8852 17.7644 2.35275 17.7325C2.35165 17.7325 2.3511 17.7325 2.35055 17.7325C2.00373 17.7325 1.6495 17.9343 1.5431 18.3881C1.02873 18.9961 0.514367 19.6043 0 20.2124C0.585333 35.4169 0.721076 51.8355 1.30641 67.0402C1.35179 68.218 1.78653 69.0576 2.73522 69.4553C2.87585 69.6065 3.07004 69.7074 3.29016 69.7237C11.2685 70.3144 20.9013 69.8559 28.9007 69.3023C38.6487 68.6319 37.7206 68.8395 45.252 69.1955C45.7281 69.2187 46.1407 68.8363 46.1372 68.3461C46.1268 66.6306 46.1136 64.8897 46.0842 63.1246L70.4175 50.1865C71.3681 49.6815 72.0689 48.7474 72.3908 47.5558C72.7687 46.1607 72.5751 44.6512 71.8742 43.5179C70.6595 41.5551 67.8099 40.2766 65.506 41.5023ZM43.9913 62.3239C43.9988 61.3128 43.8402 60.7115 43.1106 59.9292C50.4961 56.0822 58.7768 52.0353 65.738 47.7148L66.6702 49.3802C66.6874 49.692 66.6493 49.9291 66.5704 50.06C66.51 50.1607 66.4732 50.2688 66.4579 50.3783L43.9913 62.3239ZM38.5793 63.3443C38.1013 62.4375 37.6812 61.4261 37.0733 60.6345C38.3371 58.5311 38.4593 58.319 38.5928 58.092C38.9655 58.1581 39.7246 58.5377 40.0968 58.8631C40.9151 59.5761 40.4338 60.3624 41.2664 60.6213C41.6239 60.7324 42.173 61.298 42.2461 61.6302C42.3495 62.102 42.2983 62.768 42.1928 63.0656C41.0819 63.2252 39.8305 63.3037 38.5793 63.3443ZM63.3345 44.5703C63.6615 44.6893 63.9815 44.8781 64.2869 45.1221L64.9118 46.2386C58.2644 50.3719 50.3084 54.2999 41.993 58.6069C41.5601 57.7721 40.9829 57.3343 40.151 56.8959L63.3345 44.5703ZM41.4705 6.15015C45.4538 1.39747 53.827 0.756188 59.9607 2.75148C59.9613 2.75258 59.9624 2.75258 59.9629 2.75258C68.3063 5.44065 71.2585 12.4207 69.4625 16.9359C67.4124 22.1127 58.8105 25.8422 49.4225 22.655L49.1464 22.556C46.7427 21.6687 46.6261 22.5406 42.9332 25.8017C42.8645 23.7904 42.7319 21.5206 42.3952 18.7128C42.3244 18.1204 41.7715 18.0901 40.6128 16.1987C38.6714 13.0146 39.0076 9.07131 41.4705 6.15015ZM44.4417 67.4615C28.858 66.6321 19.7361 69.1468 4.17751 68.092C3.77273 52.1547 3.62134 35.42 3.21754 19.4247C15.9156 19.4754 20.4702 19.9254 33.2114 19.0143C36.1163 18.8118 38.3887 18.6117 40.3155 18.6575C40.4599 18.8331 40.5957 19.0137 40.7492 19.1837C41.6517 26.9202 40.8161 27.3712 41.8055 27.956C42.1463 28.1584 42.5322 28.1744 42.9339 27.9535C43.4551 28.0115 43.751 28.0755 44.0923 28.0495C43.8623 36.6818 43.9797 45.0682 44.1465 52.8582C37.6059 56.3873 37.7811 56.1265 37.5629 56.5053C35.9441 59.3352 34.4142 61.4955 33.3919 64.02C33.1666 64.5742 33.5742 65.2138 34.2396 65.1796C36.5279 65.0009 40.3456 65.1687 43.1769 64.6273C43.3888 64.588 43.4534 64.5115 44.4039 64.018C44.4196 65.1733 44.4343 66.3283 44.4417 67.4615Z" fill="black"/>
<path d="M63.493 15.8862C64.9318 15.7226 65.7539 14.1786 64.821 13.0113C64.6952 12.2399 63.1435 11.6211 62.0016 12.328C61.1847 12.833 60.8744 13.8563 61.2799 14.7079C61.6652 15.5194 62.6189 15.9926 63.493 15.8862Z" fill="black"/>
<path d="M57.3756 13.1554C57.4851 12.6459 57.3393 12.12 57.0164 11.7173C56.8928 10.9418 55.3329 10.3295 54.1976 11.033C53.3812 11.5369 53.0709 12.5612 53.4758 13.4139C54.286 15.1206 56.9931 14.9398 57.3756 13.1554Z" fill="black"/>
<path d="M47.6494 13.2588C49.0892 13.091 49.9094 11.5463 48.9746 10.3838C48.9422 10.1803 48.836 9.98885 48.6611 9.85242C46.9651 8.52696 44.5404 10.1984 45.434 12.0804C45.7746 12.7978 46.6917 13.3623 47.6494 13.2588Z" fill="black"/>
</svg>
