<svg width="73" height="70" viewBox="0 0 73 70" fill="none" xmlns="http://www.w3.org/2000/svg">
<path d="M33.4058 38.9099C31.9973 45.963 37.3559 53.0687 45.0704 53.0687C51.6288 53.0687 56.9642 47.7327 56.9642 41.1748C56.9642 26.7393 36.0544 25.0152 33.4058 38.9099ZM55.2795 41.1748C55.2795 46.8037 50.6998 51.3839 45.0704 51.3839C39.4206 51.3839 34.9007 46.8423 34.8722 41.1748C34.8722 33.3288 43.3337 28.4765 50.0488 32.2621C53.2751 34.0729 55.2795 37.4873 55.2795 41.1748Z" fill="black"/>
<path d="M70.8923 63.5816C70.7463 63.5759 70.6112 63.6166 70.486 63.6762C66.8659 59.8788 63.2236 56.2336 59.8758 52.7067C59.8469 51.6169 59.3186 50.4851 58.4968 49.8373C60.0638 47.3824 60.9848 44.4769 60.9848 41.3547C60.9848 35.3154 57.5279 29.8156 52.1381 27.1619C53.7219 10.5901 38.9391 -2.42375 20.6116 0.382324C11.5142 1.77537 1.34517 9.90478 0.115086 23.2743C-1.47149 40.5185 13.5913 53.2116 30.1582 49.51C34.5277 57.0937 44.8979 58.7408 51.4924 55.8477C52.1806 56.7202 53.3118 57.2327 54.4218 57.1422C58.3218 60.7444 62.1354 64.4506 66.025 68.0651C66.5427 69.8318 68.6834 70.5932 70.5177 69.4759C73.9193 67.4029 73.0336 63.7138 70.8923 63.5816ZM24.8497 2.3934C22.075 5.28926 19.7474 8.61816 17.9962 12.1373C15.5495 11.6044 13.1272 10.9011 10.7394 10.0253C14.2442 5.98421 19.1853 3.15303 24.8497 2.3934ZM25.3897 13.2247C23.4875 13.0797 21.5934 12.8299 19.7108 12.483C21.4099 9.17089 23.6428 6.04236 26.296 3.32336C25.9324 6.62244 25.6257 9.92008 25.3897 13.2247ZM25.2848 14.9013C25.0289 18.8471 24.8662 22.8083 24.7911 26.7948C22.1262 26.6741 19.2444 26.5087 16.0608 26.2937C16.0269 22.1896 17.2614 17.7684 18.9475 14.0577C21.0467 14.4628 23.1613 14.7402 25.2848 14.9013ZM28.0908 37.9261C27.5652 37.9313 27.0314 37.9559 26.4988 37.9767C26.4266 34.8116 26.4103 31.6706 26.4486 28.5502C28.6208 28.6455 30.8075 28.7206 33.003 28.7788C30.2837 31.0407 28.5688 34.8323 28.0908 37.9261ZM21.958 46.7671C18.6761 45.8782 15.6867 44.2832 13.1705 42.1351C14.8532 41.5685 16.5676 41.0976 18.2942 40.724C19.3291 42.7664 20.5565 44.7951 21.958 46.7671ZM16.1407 27.9874C19.2809 28.1983 22.129 28.361 24.7647 28.4796C24.7253 31.6574 24.7422 34.8562 24.8166 38.0799C22.9076 38.2307 21.0358 38.4741 19.2365 38.817C17.4955 35.1113 16.4316 31.4079 16.1407 27.9874ZM14.3757 26.1784C11.1888 25.9481 8.18003 25.6977 5.20396 25.4161C5.07641 20.1334 6.7159 15.3614 9.63234 11.4165C12.1401 12.3645 14.6861 13.1246 17.258 13.7037C15.5845 17.4845 14.3617 21.979 14.3757 26.1784ZM14.445 27.8728C14.7158 31.4481 15.7773 35.3074 17.5421 39.1635C15.5902 39.6028 13.6542 40.164 11.7626 40.8412C8.1912 37.2357 5.81619 32.4442 5.28999 27.1152C8.25886 27.395 11.2606 27.6449 14.445 27.8728ZM24.4368 47.2878C22.7178 45.0555 21.2403 42.7336 20.0202 40.3948C21.5919 40.1113 23.2107 39.9 24.8618 39.767C24.9354 42.2947 25.0339 44.8352 25.1768 47.4011C24.9275 47.3715 24.6835 47.3256 24.4368 47.2878ZM26.8686 47.5259C26.7194 44.8807 26.6191 42.2638 26.5439 39.6596C27.0085 39.641 27.4746 39.6178 27.9345 39.6115C27.825 42.1254 28.2089 45.0825 29.188 47.522C27.508 47.62 27.7417 47.5646 26.8686 47.5259ZM37.2714 26.2162C36.6243 26.4959 35.9936 26.8062 35.3954 27.1457C32.4117 27.0849 29.4287 26.9956 26.4749 26.8658C26.5492 22.8937 26.711 18.9472 26.9657 15.016C29.6875 15.1398 32.4067 15.0709 35.43 14.7498C36.7476 18.4771 37.3695 22.3224 37.2714 26.2162ZM27.0722 13.3218C27.3253 9.77969 27.6524 6.24575 28.0531 2.70935C30.9756 5.83445 33.2416 9.3328 34.8082 13.1241C32.2272 13.3768 29.6447 13.4374 27.0722 13.3218ZM69.6381 65.2257C69.6388 65.2266 69.639 65.2288 69.6398 65.2296C69.1727 66.0036 68.1713 66.4565 67.4433 66.5156C64.3609 63.2707 60.9039 59.6828 57.4595 56.0641C58.2268 55.7509 58.8944 55.2231 59.3327 54.5738C62.9598 58.3668 66.4573 61.8743 69.6381 65.2257ZM58.1495 53.1992C57.754 54.5231 55.5549 55.3035 54.4855 54.1112C55.6213 53.2784 56.6451 52.3055 57.5229 51.2061C58.0212 51.6469 58.3352 52.58 58.1495 53.1992ZM59.3 41.3547C59.3 49.1519 52.9566 55.4948 45.1594 55.4948C36.5121 55.4948 29.7869 47.8405 31.2209 38.9346C32.804 29.8516 42.5228 24.6681 50.9045 28.4331C56.0047 30.7046 59.3 35.7763 59.3 41.3547ZM50.5092 26.4761C46.6207 25.0702 42.8734 24.3297 38.9466 25.5782C38.9724 21.8337 38.3667 18.1353 37.1393 14.5403C40.3776 14.0969 43.6075 13.3783 46.8047 12.3704C49.541 16.5018 50.8738 21.4039 50.5092 26.4761ZM45.7495 10.9254C42.7016 11.8541 39.626 12.5185 36.5425 12.9195C35.0083 9.05839 32.7904 5.48525 29.9318 2.272C36.3483 2.85194 41.9894 6.11496 45.7495 10.9254Z" fill="black"/>
<path d="M39.7892 39.5175C39.0077 39.5175 38.3743 40.1441 38.3743 40.9173C38.3743 41.6904 39.0077 42.3171 39.7892 42.3171C40.5706 42.3171 41.2041 41.6904 41.2041 40.9173C41.2041 40.1441 40.5706 39.5175 39.7892 39.5175Z" fill="black"/>
<path d="M45.1092 39.5876C44.3278 39.5876 43.6943 40.2143 43.6943 40.9875C43.6943 41.7606 44.3278 42.3873 45.1092 42.3873C45.8907 42.3873 46.5242 41.7606 46.5242 40.9875C46.5242 40.2143 45.8907 39.5876 45.1092 39.5876Z" fill="black"/>
<path d="M49.0137 40.9173C49.0137 41.6904 49.6472 42.3171 50.4286 42.3171C51.21 42.3171 51.8435 41.6904 51.8435 40.9173C51.8435 40.1441 51.21 39.5175 50.4286 39.5175C49.6472 39.5175 49.0137 40.1441 49.0137 40.9173Z" fill="black"/>
</svg>
