<svg width="69" height="70" viewBox="0 0 69 70" fill="none" xmlns="http://www.w3.org/2000/svg">
<path d="M59.9622 36.9923C59.8036 35.6805 59.0498 34.6509 57.8949 34.1675C56.6336 33.6406 55.0593 33.8471 53.9754 34.6826C53.6379 34.9432 53.3864 35.2665 53.1763 35.6135L43.0394 32.138C43.4629 31.0277 43.3335 29.9694 42.7383 28.9986L50.7162 21.0207C51.512 22.0359 52.7968 22.6377 54.083 22.4703C57.6261 22.0043 58.4946 16.9689 55.1717 15.5781C52.6226 14.5122 49.5224 16.3542 49.9965 19.405L41.5445 27.8569C38.9946 26.4206 35.5617 28.2517 36.013 31.4325C36.3958 34.1361 39.8355 35.7317 42.1031 33.5567C58.3343 39.1314 50.4392 36.4198 52.6923 37.1936C52.5703 39.5329 54.5248 41.0882 56.3734 41.0882C56.5174 41.0882 56.6621 41.0785 56.8067 41.0591C58.7191 40.8075 60.1934 38.9069 59.9622 36.9923Z" fill="black"/>
<path d="M12.0464 45.3002C9.33772 48.1229 8.86298 52.7746 10.9432 56.1221C13.0252 59.4577 17.4209 61.0616 21.1376 59.9157C24.8711 58.7555 27.5755 54.9403 27.4287 51.0412C27.1564 43.1493 17.842 39.2416 12.0464 45.3002ZM20.65 58.3383C17.6498 59.262 14.0019 57.9038 12.3454 55.2489C10.6797 52.5682 11.0722 48.7014 13.2389 46.4432C17.8265 41.6462 25.5501 44.4894 25.7781 51.0972V51.1004C25.8991 54.2801 23.6931 57.392 20.65 58.3383Z" fill="black"/>
<path d="M10.5535 6.30586C10.8882 7.15601 11.818 7.66943 12.7229 7.48924C13.6224 7.30966 14.2886 6.48275 14.2724 5.56498C14.2611 4.93377 13.9154 4.35795 13.3918 4.09772C13.0563 3.93051 12.6606 3.90847 12.2982 4.03051C12.032 3.80846 11.6433 3.77029 11.3336 3.96116C10.5653 4.43591 10.2228 5.46551 10.5535 6.30586Z" fill="black"/>
<path d="M20.3121 7.4591C21.3771 7.4591 22.244 6.54838 22.2256 5.49882C22.2143 4.86762 21.8686 4.29179 21.3449 4.03156C21.0094 3.86435 20.6148 3.8407 20.2519 3.96436C19.9857 3.74177 19.5975 3.7036 19.2868 3.89446C18.5061 4.37728 18.1706 5.38538 18.5072 6.23971C18.798 6.97844 19.5352 7.4591 20.3121 7.4591Z" fill="black"/>
<path d="M28.828 7.29082C29.7146 7.11447 30.3958 6.26928 30.3786 5.36656C30.3597 4.30679 29.4231 3.48561 28.4049 3.83156C27.5152 3.08239 26.1014 4.68669 26.6602 6.10691C26.9855 6.93359 27.9245 7.4665 28.828 7.29082Z" fill="black"/>
<path d="M65.8135 0.341556L65.8127 0.406142C65.6747 0.302509 65.5118 0.229792 65.326 0.229792C65.293 0.229792 65.2649 0.244846 65.2329 0.248609C65.193 0.242695 65.1573 0.224953 65.1158 0.224953C44.1423 0.224953 6.21814 -0.103581 5.43466 0.0334136C4.86911 -0.0654753 4.47119 0.364675 4.47119 0.831426C4.47119 15.0208 4.72718 28.9824 4.74351 43.5149L2.87651 42.8356C2.33323 42.6415 1.72126 43.0498 1.77633 43.6823C1.46147 44.4839 1.19399 45.306 0.94203 46.1067C-0.413374 50.4265 -1.11385 49.0635 4.66306 51.4009L5.09984 54.4738C4.18979 55.4254 3.11301 56.2345 1.94327 56.8396C1.33328 56.8958 1.05438 57.5014 1.26193 57.9791L3.31792 62.7266C3.45341 63.0385 3.75718 63.2245 4.07655 63.2245C4.07756 63.2245 4.07856 63.2239 4.07957 63.2239C4.48084 63.3032 4.22414 63.2968 8.09282 61.6971C9.45017 62.651 9.38063 62.5592 10.7893 63.5463L9.88226 67.5192C9.85088 67.5651 9.81143 67.6035 9.78911 67.6569C9.63487 68.0257 9.76462 68.4759 10.2213 68.7299C10.2257 68.7317 10.2282 68.7358 10.2327 68.7376C10.3706 68.7947 10.3376 68.8076 10.4848 68.8307C12.1596 69.4994 13.9182 69.8975 15.721 69.9989C15.7372 70 15.7522 70 15.7678 70C16.0036 70 16.2126 69.8951 16.364 69.7336C16.5536 69.617 16.6381 69.4822 16.7132 69.3023C17.2624 69.0822 17.8128 68.8612 18.359 68.6441C18.7005 67.2632 18.9056 66.5762 19.2563 65.3171C19.3687 65.3206 20.4576 65.3533 21.2371 65.375L23.4122 68.6333C23.6671 69.0144 24.1788 69.1141 24.5579 68.8623C24.5595 68.8613 24.5602 68.8596 24.5618 68.8585C28.1825 67.2053 29.6185 66.7428 29.3864 65.7542C29.5358 65.4535 29.7023 65.0094 29.8769 64.2716C29.419 63.4556 28.9107 62.3649 28.5047 61.4168C29.0859 60.7642 29.4641 60.2826 30.3032 59.2741C33.8883 60.1036 33.7377 60.0964 33.919 60.0964C34.2878 60.0964 34.6191 59.8465 34.7152 59.4767C35.6816 57.6492 36.3071 55.5641 36.4069 54.864C36.4792 54.5133 36.3132 54.1746 36.0218 53.9987C36.0009 53.6524 35.9534 53.3029 35.8588 52.9376C34.5644 52.3948 33.2605 51.7875 32.1956 51.2888C32.2294 51.0956 32.2441 50.9175 32.2673 50.7327C45.3988 50.6371 57.8883 50.5391 65.205 50.5391C65.2241 50.5391 65.2417 50.5326 65.2605 50.5313C65.2593 50.5761 65.2589 50.6219 65.2577 50.6666C65.9715 50.6279 65.8428 50.5677 67.4387 49.8817C67.9543 49.6601 68.297 49.1644 68.3025 48.6032C68.4397 34.5103 68.5959 17.7462 68.3445 3.65155C68.3228 2.43476 66.7922 1.06995 65.8135 0.341556ZM64.5002 1.87582V9.48751C63.9282 9.21275 65.0615 9.54529 6.15283 9.5486C6.13724 6.92129 6.12649 4.28894 6.12467 1.658C25.3822 1.66203 45.2213 1.87138 64.5002 1.87582ZM24.3901 67.1234L22.6133 64.4618C22.5643 64.0911 22.2798 63.802 21.9045 63.7566C21.817 63.7303 17.7523 63.6204 17.6609 63.618C16.7262 63.6005 16.9977 64.2411 15.3334 68.3022C14.0508 68.1895 12.7959 67.9131 11.5856 67.4774L12.5489 63.2578C12.6492 62.8186 12.3824 62.3313 11.8417 62.2663C10.556 61.3582 9.90521 60.9682 8.87141 60.2281C8.54797 59.8287 8.16676 59.9578 8.0566 59.9509C7.75497 60.0203 8.39549 59.8022 4.54196 61.3975L3.10635 58.0834C4.41749 57.346 5.6258 56.3968 6.62126 55.2801C6.84042 55.0337 6.87967 54.6945 6.75931 54.4101C6.17132 50.6775 6.35475 50.7108 6.0363 50.3382C5.74526 49.8902 5.60009 50.0592 1.85544 48.5652C2.41607 47.0307 2.62459 46.1581 3.15998 44.6969L4.90057 45.3302C5.09061 45.6105 5.40251 45.7718 5.79812 45.6567L6.85756 46.0422C7.28222 46.4277 7.85693 46.2819 8.10626 45.8712C10.455 41.8848 10.5983 42.024 10.5724 41.5126C10.8642 40.9093 10.4273 40.6769 9.35254 37.9274L12.3487 36.163L13.9348 38.7768C13.9826 39.3224 14.4662 39.6054 14.9038 39.514C17.3685 39.0328 19.1494 39.5366 19.4083 39.5366C19.8028 39.5366 20.2418 39.1474 20.3325 38.8064C20.6603 37.5716 21.1324 36.3771 21.6969 35.2287C23.0428 35.4201 24.3666 35.746 25.6489 36.1997C25.7774 39.3932 24.8275 39.9775 25.3397 40.6944C25.4354 41.1722 25.5538 41.0395 27.8274 43.4249C28.5071 44.1114 29.1298 43.2049 32.0103 42.4373C32.7946 43.5101 33.5286 44.6264 34.2005 45.7727C33.3257 46.4288 32.4021 47.0154 31.4262 47.5078C30.8292 47.4986 30.5076 48.0215 30.6076 48.4906C30.8141 49.4573 30.7135 50.6757 30.3006 52.2155C30.1823 52.6564 30.4431 53.1091 30.8839 53.2274C30.9489 53.245 31.0142 53.2513 31.0788 53.2528C32.3064 53.7916 33.4949 54.4283 34.635 55.1376C34.3506 56.2341 33.9539 57.2967 33.4503 58.313L30.157 57.5436C29.3095 57.3409 29.2439 58.2938 26.7206 60.9118C26.3706 61.0973 26.1851 61.5002 26.3139 61.889L27.5499 65.6101C26.5473 66.2002 25.7659 66.5071 24.3901 67.1234ZM32.346 49.0804C32.3425 49.0229 32.3292 48.9721 32.3243 48.9156C33.5889 48.2637 34.789 47.4869 35.8895 46.5852C36.2702 46.2734 36.3356 45.6431 35.8396 45.2875C34.9883 43.8017 34.0377 42.3538 33.0082 40.9871C32.8128 40.7284 32.5018 40.5991 32.0662 40.7011C30.888 40.9814 29.7414 41.3935 28.638 41.894L26.8763 40.1091C27.2233 38.7509 27.3704 37.3559 27.2963 35.9538C27.2989 35.9474 27.3039 35.9429 27.3064 35.9364C27.4715 35.5111 27.2607 35.0326 26.8354 34.8676C25.3541 34.2922 22.3659 33.4777 21.2974 33.5302C20.9667 33.4892 20.6292 33.6455 20.4642 33.9584C19.8185 35.1837 19.3013 36.476 18.9075 37.8028C17.7055 37.6295 16.4735 37.6261 15.2704 37.7941L13.3177 34.5762C13.0728 34.1715 12.4836 34.0013 12.0491 34.4224C9.11265 36.1715 7.58847 37.0093 7.71626 37.0389C7.51593 37.2801 7.42508 37.6219 7.55678 37.929L8.97894 41.2509L7.08647 44.3674L6.39652 44.1164C6.38932 33.0125 6.23762 22.391 6.16224 11.2003C14.2175 11.1998 64.276 11.074 64.5002 10.9663V48.8874C57.0755 48.8925 45.6182 48.9836 32.346 49.0804Z" fill="black"/>
<path d="M31.135 16.3508H14.5065C14.0506 16.3508 13.6807 16.7207 13.6807 17.1767C13.6807 17.6326 14.0506 18.0025 14.5065 18.0025H31.135C31.591 18.0025 31.9609 17.6326 31.9609 17.1767C31.9609 16.7207 31.591 16.3508 31.135 16.3508Z" fill="black"/>
<path d="M31.0855 25.9856H10.9284C10.4724 25.9856 10.1025 26.3555 10.1025 26.8114C10.1025 27.2674 10.4724 27.6373 10.9284 27.6373H31.0855C32.1779 27.6373 32.1785 25.9856 31.0855 25.9856Z" fill="black"/>
<path d="M21.6888 48.4841L17.1967 52.9768L15.3687 51.1487C15.0461 50.8261 14.5235 50.8261 14.2009 51.1487C13.8783 51.4713 13.8783 51.9939 14.2009 52.3165L16.6128 54.7284C16.9353 55.0509 17.4582 55.0508 17.7806 54.7284L22.8566 49.6519C23.1792 49.3293 23.1792 48.8067 22.8566 48.4841C22.534 48.1615 22.0114 48.1615 21.6888 48.4841Z" fill="black"/>
</svg>
