<svg width="75" height="70" viewBox="0 0 75 70" fill="none" xmlns="http://www.w3.org/2000/svg">
<path d="M56.5267 42.0173V44.0953C56.5267 44.1584 56.5499 44.2138 56.5626 44.273C55.6209 44.47 54.7656 44.8651 54.0783 45.453C52.315 46.9618 51.9628 49.7261 53.3251 51.3667C55.161 53.5814 58.7103 52.841 60.1238 54.4013C60.7827 55.1285 60.8372 56.3941 60.2476 57.2826C59.0887 59.0255 56.2003 59.1867 54.2726 56.9713C53.9556 56.6077 53.4057 56.5702 53.041 56.8872C52.6786 57.2042 52.64 57.7552 52.9569 58.1188C53.9501 59.2575 55.2631 59.9892 56.6256 60.2394V61.7135C56.6256 62.1953 57.0164 62.5861 57.4981 62.5861C57.9798 62.5861 58.3707 62.1953 58.3707 61.7135V60.2924C62.2088 59.6997 63.5141 55.5446 61.4167 53.2288C59.5175 51.131 55.9842 51.8385 54.668 50.2533C53.8329 49.2466 54.2669 47.589 55.2133 46.7789C56.1995 45.9348 57.8071 45.6553 59.4057 46.0541C59.8727 46.1722 60.3464 45.887 60.4635 45.419C60.5805 44.9509 60.2953 44.4782 59.8284 44.3612C59.302 44.2297 58.7774 44.1566 58.2638 44.1351C58.2775 43.837 58.2698 42.5916 58.2718 42.0173C58.2718 41.5356 57.881 41.1448 57.3993 41.1448C56.9175 41.1448 56.5267 41.5356 56.5267 42.0173Z" fill="black"/>
<path d="M1.55068 9.23146C0.481712 21.3328 -0.185702 33.4819 0.0458584 45.628C0.22443 54.9994 2.52876 58.7648 13.9287 60.9664C23.2996 62.7763 31.8777 63.0555 42.0825 61.207C43.2481 63.327 45.0259 65.2454 46.8746 66.6841C48.9148 68.272 50.8009 69.2344 53.3456 69.6906C58.7783 70.6645 64.7063 69.3424 68.8346 65.6791C72.3028 62.6019 74.7162 57.5476 74.4233 52.887C75.1336 42.408 66.211 34.1152 56.0143 35.2736C56.0168 -2.44729 55.601 15.1937 56.0109 10.5017C56.3528 6.84129 53.9561 5.09567 50.5699 3.59164C36.6706 -2.45726 10.211 -0.360914 3.38918 6.1207C2.73035 6.68743 1.94087 7.77712 1.71699 8.87798L1.55068 9.23146ZM54.2692 25.1179C37.1784 32.4171 19.1996 32.4036 3.58005 25.0401V13.2651C7.58191 16.832 17.5049 19.175 29.0161 19.175C39.7833 19.175 49.97 16.4039 54.2374 12.5774C54.2969 15.6455 54.2563 18.9613 54.2692 25.1179ZM40.4709 56.1835C40.4681 56.1838 40.4655 56.1845 40.4627 56.1849C28.957 58.0698 12.8317 57.4142 7.16345 53.4366C5.43765 52.2221 3.58005 49.943 3.58005 47.807V41.8905C11.4565 44.617 19.7239 46.0017 28.0288 46.0017C32.7435 46.0017 37.4702 45.5449 42.1402 44.6546C40.3856 48.1906 39.8338 52.2777 40.4709 56.1835ZM43.3107 42.666C30.5732 45.4024 16.6215 44.6685 3.66413 40.0812C3.63643 40.0713 3.6081 40.0761 3.58005 40.0693V26.9448C11.4493 30.5254 19.8727 32.3304 28.4753 32.3304C37.0293 32.3304 45.7526 30.5392 54.2692 27.0019V35.569C49.3915 36.603 45.5306 39.4538 43.3107 42.666ZM72.5384 49.3817C73.8506 57.479 68.3369 65.1355 60.2464 66.4477C54.418 67.3964 48.4044 64.6663 45.2675 59.6661C42.4714 55.2079 42.0329 49.4874 44.1484 45.0905C46.1935 40.8402 50.3256 37.9237 55.4849 37.0875C63.6089 35.7697 71.2244 41.2866 72.5384 49.3817ZM4.56168 7.4125C10.815 1.47424 36.5535 -0.604428 49.8677 5.18906C52.1061 6.18319 54.2947 7.3616 54.2999 9.78704C52.3718 13.4829 41.7738 17.4299 29.0161 17.4299C17.5115 17.4299 7.04189 14.8679 4.11063 11.3231C3.71495 10.8658 3.38463 10.2344 3.38463 9.62343C3.38463 8.81519 3.99988 7.90363 4.56168 7.4125Z" fill="black"/>
<path d="M62.7709 19.0989C62.3346 18.9068 61.8165 19.1034 61.6211 19.5465L59.1795 25.0943C58.9852 25.5363 59.1852 26.0509 59.626 26.2452C60.073 26.4399 60.5836 26.2356 60.7769 25.7987L63.2185 20.2486C63.4128 19.8078 63.2117 19.2931 62.7709 19.0989Z" fill="black"/>
<path d="M63.6513 28.0382L68.3811 23.6322C68.7333 23.3039 68.7526 22.7517 68.4243 22.3983C68.0936 22.045 67.5415 22.0268 67.1904 22.3552L62.4629 26.7611C62.1096 27.0895 62.0903 27.6417 62.4186 27.9939C62.75 28.3516 63.3058 28.3625 63.6513 28.0382Z" fill="black"/>
<path d="M65.5932 31.684L69.9969 31.1944C70.4763 31.141 70.8206 30.7092 70.7672 30.2309C70.7149 29.7514 70.2934 29.414 69.8037 29.4606L65.4 29.9503C64.9206 30.0037 64.5763 30.4354 64.6297 30.9137C64.6803 31.3759 65.092 31.7359 65.5932 31.684Z" fill="black"/>
</svg>
