<?xml version="1.0" encoding="utf-8"?>
<!-- Generator: Adobe Illustrator 21.0.0, SVG Export Plug-In . SVG Version: 6.00 Build 0)  -->
<svg version="1.1" id="Layer_1" xmlns="http://www.w3.org/2000/svg" xmlns:xlink="http://www.w3.org/1999/xlink" x="0px" y="0px"
	 viewBox="0 0 512 512" style="enable-background:new 0 0 512 512;" xml:space="preserve">
<style type="text/css">
	.st0{fill:url(#SVGID_1_);}
	.st1{fill:#FFFFFF;stroke:#FFFFFF;stroke-miterlimit:10;}
</style>
<linearGradient id="SVGID_1_" gradientUnits="userSpaceOnUse" x1="436.8001" y1="75.1999" x2="75.1999" y2="436.8001" gradientTransform="matrix(1 0 0 -1 0 512)">
	<stop  offset="0" style="stop-color:#9E005D"/>
	<stop  offset="1" style="stop-color:#D4145A"/>
</linearGradient>
<path class="st0" d="M256,512L256,512C115.2,512,0,396.8,0,256v0C0,115.2,115.2,0,256,0h0c140.8,0,256,115.2,256,256v0
	C512,396.8,396.8,512,256,512z"/>
<path class="st1" d="M439.1,319.4c-0.1-1.3-10-56.2-13-62.8c-3.2-7.1-15.6-37.1-32.9-45.6c1.6-2.7,4.6-4.4,8-4.2l0.5-7.7
	c-4.8-0.3-8.4-4.4-8.1-9.2c0.3-4.8,4.4-8.4,9.2-8.1l0.5-7.7c-4.8-0.3-8.4-4.4-8.1-9.2c0.3-4.8,4.4-8.4,9.2-8.1l0.8-13.5l-13.5-0.8
	c-0.3,4.8-4.4,8.4-9.2,8.1c-4.8-0.3-8.4-4.4-8.1-9.2l-7.7-0.5c-0.3,4.8-4.4,8.4-9.2,8.1c-4.8-0.3-8.4-4.4-8.1-9.2l-7.7-0.5
	c-0.3,4.8-4.4,8.4-9.2,8.1c-4.8-0.3-8.4-4.4-8.1-9.2l-7.7-0.5c-0.3,4.8-4.4,8.4-9.2,8.1c-4.8-0.3-8.4-4.4-8.1-9.2l-7.7-0.5
	c-0.3,4.8-4.4,8.4-9.2,8.1c-4.8-0.3-8.4-4.4-8.1-9.2l-7.7-0.5c-0.3,4.8-4.4,8.4-9.2,8.1c-4.8-0.3-8.4-4.4-8.1-9.2l-7.7-0.5
	c-0.3,4.8-4.4,8.4-9.2,8.1c-4.8-0.3-8.4-4.4-8.1-9.2l-7.7-0.5c-0.3,4.8-4.4,8.4-9.2,8.1c-4.8-0.3-8.4-4.4-8.1-9.2l-7.7-0.5
	c-0.3,4.8-4.4,8.4-9.2,8.1c-4.8-0.3-8.4-4.4-8.1-9.2l-7.7-0.5c-0.3,4.8-4.4,8.4-9.2,8.1c-4.8-0.3-8.4-4.4-8.1-9.2l-13.5-0.8
	l-0.8,13.6c4.8,0.3,8.4,4.4,8.1,9.2c-0.3,4.8-4.4,8.4-9.2,8.1l-0.5,7.7c4.8,0.3,8.4,4.4,8.1,9.2c-0.3,4.8-4.4,8.4-9.2,8.1l-0.5,7.7
	c4.8,0.3,8.4,4.4,8.1,9.2c0,0.2,0,0.4-0.1,0.7c-11.4-7.6-27.6-17.6-30.1-20.6c-5.1-6.1,1.8-46.6,1.7-47.2
	c-0.2-1.4,8.1-10.6,11.7-16.4c3-4.9,7.9-7.5,7.9-7.5c2.4-3.7,1.6-8.8-1.7-11.5l0,0c-3.3-2.6-7.9-1.8-10.3,1.9l-4.9,7.5
	c0,0,1.6-16.6-2.7-21.8c-7.2-8.6-24.7-7.2-24.7,16c0,14.7,12.4,29.9,12.8,31.4c0.3,1.3-7.3,51.1-3.1,56.7
	c4.2,5.6,24.9,25.4,41.8,35.4c0,0.2,0,0.3,0,0.5c-0.3,4.8-4.4,8.4-9.2,8.1l-0.5,7.7c4.8,0.3,8.4,4.4,8.1,9.2
	c-0.3,4.8-4.4,8.4-9.2,8.1l-0.5,7.7c4.8,0.3,8.4,4.4,8.1,9.2c-0.3,4.8-4.4,8.4-9.2,8.1l-0.5,7.7c4.8,0.3,8.4,4.4,8.1,9.2
	c-0.3,4.8-4.4,8.4-9.2,8.1l-0.5,7.7c4.8,0.3,8.4,4.4,8.1,9.2c-0.3,4.8-4.4,8.4-9.2,8.1l-0.8,13.6l13.5,0.8c0.3-4.8,4.4-8.4,9.2-8.1
	c4.8,0.3,8.4,4.4,8.1,9.2l7.7,0.5c0.3-4.8,4.4-8.4,9.2-8.1c4.8,0.3,8.4,4.4,8.1,9.2l7.7,0.5c0.3-4.8,4.4-8.4,9.2-8.1
	c4.1,0.3,7.3,3.3,8,7.1l-3.5,76.3c0,0-3.3,12.5-12.7,14.2s-40.6,5.8-38.3,20.2s30.4,7.5,39.9,2.7c9.8-4.9,25.3-15.1,22.4-30.2
	c-0.7-3.7,3.1-29.2,4.5-53.7c0.9-15.6,2.7-28,3.9-35.1c0.2,0,0.5,0,0.7,0c4.8,0.3,8.4,4.4,8.1,9.2l7.7,0.5c0.3-4.8,4.4-8.4,9.2-8.1
	c4.8,0.3,8.4,4.4,8.1,9.2l7.7,0.5c0.3-4.8,4.4-8.4,9.2-8.1c4.8,0.3,8.4,4.4,8.1,9.2l7.7,0.5c0.3-4.8,4.4-8.4,9.2-8.1
	c3.4,0.2,6.2,2.3,7.4,5.2c0.2,0.6,0.4,1.3,0.6,2c0.1,0.6,0.1,1.3,0.1,2l0.5,0c1.8,6.5,3.3,14.3,3.8,22.9
	c1.4,24.5-10.9,46.5-11.6,50.2c-2.9,15.1,12.6,25.3,22.4,30.2c9.5,4.8,37.6,11.7,39.9-2.7s-34.1-22-43.5-23.7s5.2-32.4,6-44.2
	c0.6-7.7-2.5-26.2-5-39.6c1.3-0.6,2.8-0.9,4.3-0.9c4.8,0.3,8.4,4.4,8.1,9.2l7.7,0.5c0.3-4.8,4.4-8.4,9.2-8.1
	c4.8,0.3,8.4,4.4,8.1,9.2l7.7,0.5c0.3-4.8,4.4-8.4,9.2-8.1c4.8,0.3,8.4,4.4,8.1,9.2l13.6,0.8l0.8-13.6c-4.8-0.3-8.4-4.4-8.1-9.2
	c0.3-4.8,4.4-8.4,9.2-8.1l0.5-7.7c-4.8-0.3-8.4-4.4-8.1-9.2c0.3-4.8,4.4-8.4,9.2-8.1l0.5-7.7c-4.8-0.3-8.4-4.4-8.1-9.2
	c0.3-4.8,4.4-8.4,9.2-8.1l0.5-7.7c-4.8-0.3-8.4-4.4-8.1-9.2c0.3-4.8,4.4-8.4,9.2-8.1l0.5-7.7c-4.8-0.3-8.4-4.4-8.1-9.2
	c0-0.6,0.1-1.3,0.3-1.8c9.5,10.3,22.8,24,24.6,27.5c3.7,7.2,9.8,52.2,9.8,52.9c-0.1,1.5-3.6,9.2-8.3,14c-4,4-9.2,5.2-9.2,5.2
	c-3.1,3-3.4,8.2-0.7,11.6l0,0c2.7,3.4,7.3,3.8,10.4,0.8l6.3-6l-0.9,24.7c-0.2,4.5,2.9,8.4,7,8.6l0,0c2,0.1,14.6-9.4,17-23.8
	C449.1,339.3,439.2,321,439.1,319.4z M251.9,308.8c-11.9,2-27.4,3.5-45.5,2.2c-16.4-1.2-30.4-4.3-41.2-7.6c0.1-1.8,0.2-3.6,0.3-5.5
	c10.8,3.2,24.6,6.4,40.9,7.6c18.2,1.3,33.9-0.2,45.8-2.2C252.1,305.1,252,307,251.9,308.8z M253.6,282.2c-11.9,2-27.4,3.5-45.5,2.2
	c-16.4-1.2-30.4-4.3-41.2-7.6c0.1-1.8,0.2-3.6,0.3-5.5c10.8,3.2,24.6,6.4,40.9,7.6c18.2,1.3,33.9-0.2,45.8-2.2
	C253.8,278.6,253.7,280.4,253.6,282.2z M255.5,255.6c-11.9,2-27.4,3.5-45.5,2.2c-16.4-1.2-30.4-4.3-41.2-7.6
	c0.1-1.8,0.2-3.6,0.3-5.5c10.8,3.2,24.6,6.4,40.9,7.6c18.2,1.3,33.9-0.2,45.8-2.2C255.7,252,255.6,253.8,255.5,255.6z M359.3,240.9
	l-48.1-3l3.7-60.6l48.1,3L359.3,240.9z"/>
</svg>
