<svg width="158" height="169" viewBox="0 0 158 169" fill="none" xmlns="http://www.w3.org/2000/svg">
<path d="M37.4248 13.3917C38.9865 14.7214 40.8131 15.6059 42.7371 16.2852C48.4601 18.305 54.8824 17.8655 60.3424 15.2156C59.8375 15.986 58.5646 18.2373 58.2368 18.951C57.0353 21.568 56.0257 24.1973 56.1746 27.133C56.8036 39.5556 71.726 40.1036 80.1085 36.0355C79.6188 36.5737 76.898 40.6355 76.5187 41.3862C74.5529 45.2768 73.1579 50.2201 74.9104 54.4419C78.5292 63.1599 89.1021 62.9668 96.3304 59.6274C96.3304 59.6274 95.442 60.84 95.0465 61.4781C94.3757 62.5608 93.7623 63.6715 93.2785 64.8523C91.8607 68.312 91.228 72.3027 92.4904 75.907C95.4573 84.3783 106.638 87.4339 114.007 83.1184C114.007 83.1184 113.28 84.0571 112.999 84.577C112.213 86.0301 111.599 87.5809 111.115 89.1593C109.975 92.8703 109.559 96.9518 110.646 100.726C112.85 108.38 125.903 114.853 132.755 108.586C132.754 108.584 132.113 109.837 132.083 109.917C131.723 110.875 131.457 111.874 131.205 112.864C130.594 115.267 130.138 117.685 130.117 120.172C130.044 129.059 134.31 133.233 141.35 137.565" stroke="#0A102F" stroke-width="5.98326" stroke-miterlimit="1.5" stroke-linecap="round" stroke-linejoin="round"/>
<path d="M21.8479 24.8235C23.2867 26.1798 25.0532 27.1386 26.819 27.9963C31.8141 30.4226 37.1266 31.0876 42.5972 31.1582C42.6014 31.1586 41.7794 33.5616 41.7235 33.7781C41.1856 35.8709 41.1229 38.0986 41.5002 40.2259C42.9311 48.2881 50.9417 53.4942 58.7599 51.4973C58.2285 51.9405 57.6759 54.0601 57.6117 54.4664C57.1106 57.6404 57.0032 61.0773 58.0912 64.1451C60.7184 71.5558 69.7913 76.679 77.5228 75.0137C76.6615 75.8011 76.0052 77.9739 75.9656 78.1708C75.3369 81.2795 75.6614 84.711 77.1168 87.5442C80.5793 94.2864 88.5175 98.0772 95.9264 96.4419C94.9798 97.9293 94.359 99.8624 94.2933 100.313C93.8019 103.676 94.0355 107.15 95.3194 110.317C98.4788 118.109 109.11 123.534 115.487 122.366C115.045 122.57 114.439 123.395 114.404 123.48C114.002 124.45 113.797 125.488 113.683 126.529C113.379 129.316 113.665 132.173 114.256 134.903C116.003 142.966 122.93 151.709 132.221 150.01" stroke="#0A102F" stroke-width="5.98326" stroke-miterlimit="1.5" stroke-linecap="round" stroke-linejoin="round"/>
<path d="M3.88236 38.5072C5.2257 39.8047 5.86139 41.6988 7.4366 42.9453C12.9799 47.3315 19.091 47.5199 25.641 47.2117C25.0997 48.0319 24.9075 48.9868 24.8148 49.5195C24.3355 52.2645 24.3496 55.2369 25.2525 57.9011C27.6707 65.0354 34.6377 66.7272 41.2514 65.5976C41.2514 65.5976 41.0041 66.3624 40.9299 66.7568C40.791 67.4926 40.6828 68.2354 40.6015 68.98C40.3001 71.7464 40.5464 74.5225 41.5981 77.1208C44.3333 83.8777 52.3763 88.4873 59.598 86.9714C59.44 87.1407 58.5732 90.0642 58.5242 90.3258C57.8294 94.0547 58.0574 97.6274 59.4642 101.163C62.6033 109.053 70.8245 111.013 78.461 109.304C77.8381 109.994 77.3552 112.606 77.3148 112.863C76.8323 115.942 76.6668 119.021 77.3347 122.09C79.0272 129.871 87.7513 139.213 96.6661 134.955C96.652 134.929 96.1627 136.207 96.11 136.388C95.7415 137.653 95.5178 138.963 95.4082 140.276C95.1416 143.489 95.6343 146.778 96.6309 149.835C98.5158 155.621 103.766 159.583 109.523 161.147C111.32 161.636 113.324 161.301 115.022 161.779" stroke="#0A102F" stroke-width="5.98326" stroke-miterlimit="1.5" stroke-linecap="round" stroke-linejoin="round"/>
</svg>
