<svg width="127" height="122" viewBox="0 0 127 122" fill="none" xmlns="http://www.w3.org/2000/svg">
<path fill-rule="evenodd" clip-rule="evenodd" d="M8.30423 121.398C13.7468 120.225 27.0971 115.815 46.3884 115.272C49.3219 115.203 50.4563 114.554 49.6976 113.406C48.3242 111.427 44.5666 111.082 33.6685 112.123C23.295 113.076 28.0272 112.628 38.0002 106.992C88.9023 78.282 83.4895 65.5872 87.3308 59.677L90.9192 57.5728C109.277 46.7373 131.765 10.3182 125.078 2.2608C122.822 -0.441659 121.871 0.569215 118.487 9.55966C111.971 26.6476 101.765 41.6576 90.6413 50.5502C87.9078 52.7228 88.0745 52.7797 87.3833 48.9415C84.6023 32.8051 51.6461 29.6887 42.6413 44.7512C34.75 57.9463 53.3656 70.3066 73.3677 65.1683C78.3478 63.8712 78.1063 63.6779 76.0234 67.7288C64.8216 89.5724 32.9179 102.671 21.7138 109.079C17.8575 111.292 17.8609 111.249 22.5802 105.148C31.138 94.1371 31.8714 92.6742 29.7098 91.3272C26.5763 89.2936 24.3818 90.7267 18.4635 98.6882C11.3266 108.248 7.82157 112.315 3.25951 116.168C-3.76801 122.084 2.42265 122.666 8.30423 121.398ZM52.2059 60.1263C45.2338 54.3071 48.3912 43.9941 58.2378 40.2603C71.1995 35.3845 80.7477 41.2796 79.733 53.6337C79.3488 58.4293 74.7064 59.3186 74.2054 59.6264C65.5865 63.1105 56.0088 63.3439 52.2059 60.1263Z" fill="white"/>
</svg>
