<svg width="110" height="24" viewBox="0 0 110 24" fill="none" xmlns="http://www.w3.org/2000/svg">
<path d="M29 3H34.4421L39.0586 14.2571H39.2717L43.8881 3H49.3303V21.1818H45.0511V10.0135H44.9002L40.5323 21.0664H37.7979L33.43 9.95135H33.2791V21.1818H29V3Z" fill="black"/>
<path d="M55.9154 21.4126C55.0454 21.4126 54.273 21.2676 53.5983 20.9776C52.9295 20.6817 52.3998 20.2378 52.0091 19.646C51.6244 19.0482 51.4321 18.2995 51.4321 17.3999C51.4321 16.6423 51.5653 16.0031 51.8316 15.4822C52.0979 14.9614 52.4649 14.5382 52.9324 14.2127C53.4 13.8872 53.9386 13.6416 54.5482 13.4759C55.1578 13.3042 55.8089 13.1888 56.5013 13.1296C57.2767 13.0586 57.9011 12.9846 58.3746 12.9077C58.848 12.8248 59.1913 12.7094 59.4044 12.5614C59.6234 12.4076 59.7329 12.1915 59.7329 11.9134V11.869C59.7329 11.4132 59.576 11.0611 59.2623 10.8125C58.9487 10.5639 58.5255 10.4396 57.9928 10.4396C57.4187 10.4396 56.9571 10.5639 56.6079 10.8125C56.2587 11.0611 56.0367 11.4044 55.942 11.8423L51.9381 11.7003C52.0565 10.8717 52.3613 10.1319 52.8525 9.48082C53.3497 8.82386 54.0303 8.30895 54.8944 7.93608C55.7645 7.55729 56.8091 7.3679 58.0283 7.3679C58.8983 7.3679 59.7003 7.47147 60.4342 7.67862C61.1681 7.87985 61.8073 8.17578 62.3518 8.56641C62.8963 8.95111 63.3166 9.4246 63.6125 9.98686C63.9143 10.5491 64.0653 11.1913 64.0653 11.9134V21.1818H59.9814V19.282H59.8749C59.6322 19.7436 59.3215 20.1342 58.9427 20.4538C58.5699 20.7734 58.1289 21.0131 57.6199 21.1729C57.1169 21.3327 56.5487 21.4126 55.9154 21.4126ZM57.2559 18.5717C57.7235 18.5717 58.1437 18.477 58.5166 18.2876C58.8954 18.0982 59.1972 17.8378 59.4221 17.5064C59.647 17.169 59.7595 16.7784 59.7595 16.3345V15.0384C59.6352 15.1035 59.4843 15.1626 59.3067 15.2159C59.1351 15.2692 58.9457 15.3195 58.7385 15.3668C58.5314 15.4142 58.3183 15.4556 58.0993 15.4911C57.8804 15.5266 57.6702 15.5592 57.469 15.5888C57.0606 15.6539 56.7114 15.7545 56.4214 15.8906C56.1373 16.0268 55.9184 16.2043 55.7645 16.4233C55.6165 16.6364 55.5425 16.8909 55.5425 17.1868C55.5425 17.6366 55.7023 17.9799 56.0219 18.2166C56.3474 18.4534 56.7588 18.5717 57.2559 18.5717Z" fill="black"/>
<path d="M78.6249 11.7092L74.6388 11.8157C74.5973 11.5316 74.4849 11.2801 74.3014 11.0611C74.1179 10.8362 73.8782 10.6616 73.5823 10.5373C73.2923 10.4071 72.9549 10.342 72.5702 10.342C72.0671 10.342 71.638 10.4426 71.2829 10.6438C70.9337 10.8451 70.7621 11.1173 70.768 11.4606C70.7621 11.7269 70.8686 11.9577 71.0876 12.1531C71.3125 12.3484 71.712 12.5052 72.2861 12.6236L74.914 13.1207C76.2752 13.3812 77.2873 13.8132 77.9502 14.4169C78.619 15.0206 78.9564 15.8196 78.9623 16.8139C78.9564 17.7491 78.6782 18.5629 78.1278 19.2553C77.5832 19.9478 76.8375 20.4864 75.8905 20.8711C74.9436 21.2499 73.8605 21.4393 72.6412 21.4393C70.694 21.4393 69.1582 21.0398 68.0336 20.2408C66.915 19.4358 66.2758 18.3587 66.116 17.0092L70.404 16.9027C70.4987 17.3999 70.7443 17.7786 71.1409 18.0391C71.5374 18.2995 72.0435 18.4297 72.659 18.4297C73.2153 18.4297 73.6681 18.3261 74.0173 18.119C74.3665 17.9118 74.5441 17.6366 74.55 17.2933C74.5441 16.9856 74.4079 16.7399 74.1416 16.5565C73.8753 16.3671 73.458 16.2191 72.8898 16.1126L70.5106 15.6598C69.1434 15.4112 68.1254 14.9525 67.4566 14.2837C66.7878 13.609 66.4564 12.7508 66.4623 11.7092C66.4564 10.7977 66.699 10.0194 67.1903 9.37429C67.6815 8.72325 68.3799 8.22609 69.2854 7.88281C70.191 7.53954 71.2593 7.3679 72.4903 7.3679C74.3369 7.3679 75.7929 7.75556 76.8582 8.5309C77.9236 9.30031 78.5125 10.3597 78.6249 11.7092Z" fill="black"/>
<path d="M87.465 21.4393C86.0268 21.4393 84.7928 21.1433 83.763 20.5515C82.7391 19.9596 81.9519 19.137 81.4015 18.0835C80.851 17.024 80.5758 15.7989 80.5758 14.408C80.5758 13.0112 80.851 11.7861 81.4015 10.7326C81.9578 9.67318 82.7479 8.84754 83.7718 8.25568C84.8017 7.66383 86.0298 7.3679 87.4561 7.3679C88.7168 7.3679 89.8147 7.59576 90.7498 8.05149C91.6909 8.50722 92.4248 9.15234 92.9515 9.98686C93.4842 10.8155 93.7653 11.7891 93.7949 12.9077H89.7377C89.6549 12.2093 89.4181 11.6618 89.0275 11.2653C88.6428 10.8687 88.1397 10.6705 87.5183 10.6705C87.0152 10.6705 86.5743 10.8125 86.1955 11.0966C85.8167 11.3748 85.5208 11.7891 85.3077 12.3395C85.1006 12.884 84.997 13.5587 84.997 14.3636C84.997 15.1686 85.1006 15.8492 85.3077 16.4055C85.5208 16.956 85.8167 17.3732 86.1955 17.6573C86.5743 17.9355 87.0152 18.0746 87.5183 18.0746C87.9207 18.0746 88.2759 17.9888 88.5836 17.8171C88.8973 17.6455 89.1548 17.3939 89.356 17.0625C89.5572 16.7251 89.6845 16.3168 89.7377 15.8374H93.7949C93.7535 16.9619 93.4724 17.9444 92.9515 18.7848C92.4366 19.6252 91.7116 20.2792 90.7765 20.7468C89.8472 21.2085 88.7434 21.4393 87.465 21.4393Z" fill="black"/>
<path d="M102.382 21.4393C100.95 21.4393 99.7187 21.1463 98.6888 20.5604C97.6649 19.9685 96.8748 19.1458 96.3185 18.0923C95.768 17.0329 95.4928 15.8048 95.4928 14.408C95.4928 13.0053 95.768 11.7772 96.3185 10.7237C96.8748 9.6643 97.6649 8.84162 98.6888 8.25568C99.7187 7.66383 100.95 7.3679 102.382 7.3679C103.814 7.3679 105.042 7.66383 106.066 8.25568C107.096 8.84162 107.886 9.6643 108.437 10.7237C108.993 11.7772 109.271 13.0053 109.271 14.408C109.271 15.8048 108.993 17.0329 108.437 18.0923C107.886 19.1458 107.096 19.9685 106.066 20.5604C105.042 21.1463 103.814 21.4393 102.382 21.4393ZM102.409 18.1634C102.929 18.1634 103.37 18.0036 103.731 17.6839C104.092 17.3643 104.368 16.9205 104.557 16.3523C104.752 15.7841 104.85 15.1271 104.85 14.3814C104.85 13.6238 104.752 12.9609 104.557 12.3928C104.368 11.8246 104.092 11.3807 103.731 11.0611C103.37 10.7415 102.929 10.5817 102.409 10.5817C101.87 10.5817 101.414 10.7415 101.041 11.0611C100.675 11.3807 100.393 11.8246 100.198 12.3928C100.009 12.9609 99.914 13.6238 99.914 14.3814C99.914 15.1271 100.009 15.7841 100.198 16.3523C100.393 16.9205 100.675 17.3643 101.041 17.6839C101.414 18.0036 101.87 18.1634 102.409 18.1634Z" fill="black"/>
<rect width="24" height="24" rx="3" fill="#3147FF"/>
<path d="M17.1762 2.40535L5.92114 10.8444L10.8862 12.9615L5.85415 21.4064L17.8518 12.5684L13.0586 9.88055L17.1762 2.40535Z" fill="white"/>
</svg>
