<svg width="387" height="383" viewBox="0 0 387 383" fill="none" xmlns="http://www.w3.org/2000/svg">
<mask id="mask0_1_9195" style="mask-type:alpha" maskUnits="userSpaceOnUse" x="0" y="0" width="387" height="383">
<path d="M292.512 25.1299L387 68.3532V382.979H354.834L309.6 338.751L268.387 284.47L216.117 251.299L150.779 262.356H21.1091L0 173.899L30.1559 104.54L58.3013 38.1974L121.629 0H204.055L292.512 25.1299Z" fill="#0A102F"/>
</mask>
<g mask="url(#mask0_1_9195)">
<path d="M135.832 -72.3798C154.936 -72.3798 160.667 -60.4849 167.269 -37.6873C167.681 -36.112 167.779 -34.4707 167.557 -32.8574C167.335 -31.2441 166.798 -29.6904 165.975 -28.2852C165.111 -26.5206 163.586 -25.1684 161.731 -24.5219C153.751 -22.5253 145.566 -22.3801 137.646 -22.2349C126.764 -22.0413 116.462 -21.8598 106.354 -17.3947C103.003 -15.7239 99.771 -13.8236 96.6813 -11.7073C87.4437 -5.76593 76.9849 0.962006 67.5539 -2.18417C61.2061 -4.30176 57.6996 -7.39951 57.1193 -11.3927C55.7771 -20.6497 71.0966 -31.3587 81.2289 -38.4497C83.0305 -39.6598 84.5902 -40.7972 85.7993 -41.7048C89.7762 -44.8792 93.5519 -48.2981 97.1045 -51.9419C105.774 -60.4123 115.616 -70.0928 127.187 -71.7264C130.05 -72.1486 132.939 -72.3669 135.832 -72.3798ZM160.837 -28.0432C161.707 -28.4846 162.405 -29.2044 162.82 -30.0882C163.977 -32.0807 164.315 -34.4455 163.763 -36.683C156.411 -62.179 151.381 -71.5086 127.634 -68.1446C117.236 -66.6683 108.289 -57.8712 99.5832 -49.3644C95.9193 -45.6053 92.0222 -42.0811 87.9153 -38.8127C86.7061 -37.8688 85.0738 -36.7677 83.2481 -35.485C74.9899 -29.713 59.6342 -18.9677 60.6499 -11.9251C61.0247 -9.39612 63.7089 -7.29062 68.6421 -5.64493C76.4287 -3.0433 86.1137 -9.27512 94.6621 -14.7688C97.911 -16.9979 101.318 -18.9877 104.855 -20.7223C115.64 -25.5626 126.776 -25.7198 137.501 -25.9135C145.263 -25.9981 153.255 -26.1918 160.837 -28.0432Z" fill="#221F1A" fill-opacity="0.1"/>
<path d="M-185.67 165.107C-180.454 165.136 -175.379 166.804 -171.16 169.874C-155.442 180.971 -148.864 207.737 -147.595 220.346C-145.842 237.928 -152.601 252.013 -159.13 265.614C-162.66 272.972 -166.3 280.571 -168.633 288.727C-170.592 295.576 -170.786 304.336 -171.052 313.605C-171.547 335.024 -172.116 359.297 -195.548 367.114C-200.747 368.857 -202.803 367.828 -204.846 366.328C-205.1 366.146 -205.354 365.953 -205.632 365.771C-205.753 365.697 -205.866 365.612 -205.971 365.517L-208.244 363.194C-208.326 363.118 -208.399 363.033 -208.461 362.94C-211.448 358.499 -210.166 349.702 -208.667 345.188C-202.355 326.251 -195.911 303.622 -195.911 279.421C-195.911 267.901 -201.146 258.983 -206.696 249.533C-215.631 234.298 -225.764 217.03 -213.37 186.005C-209.066 175.235 -201.848 168.301 -192.513 165.966C-190.276 165.399 -187.977 165.11 -185.67 165.107ZM-200.022 364.404C-198.851 364.335 -197.698 364.09 -196.6 363.678C-175.586 356.659 -175.078 334.733 -174.582 313.521C-174.365 304.01 -174.159 295.031 -172.067 287.722C-169.649 279.252 -165.937 271.532 -162.394 264.053C-155.793 250.283 -149.554 237.287 -151.21 220.709C-152.613 206.721 -159.674 182.435 -173.24 172.851C-175.85 170.951 -178.854 169.661 -182.028 169.079C-185.203 168.497 -188.468 168.636 -191.582 169.487C-201.896 172.065 -207.301 180.632 -209.949 187.36C-221.689 216.728 -212.451 232.471 -203.516 247.693C-197.966 257.144 -192.235 266.909 -192.235 279.421C-192.235 304.143 -198.776 327.122 -205.173 346.338C-206.551 350.464 -207.397 357.7 -205.487 360.774L-203.48 362.819C-203.202 363 -202.936 363.194 -202.67 363.387C-201.941 364.038 -200.999 364.4 -200.022 364.404Z" fill="#221F1A" fill-opacity="0.1"/>
<path d="M141.346 89.3812C142.102 89.3785 142.858 89.4311 143.607 89.5385C149.265 90.3492 153.28 94.1609 155.504 100.877C157.729 107.593 153.787 114.03 149.967 120.238C147.548 124.134 145.312 127.825 144.743 131.261C139.713 161.513 157.27 181.237 196.94 190.058L198.585 190.421C204.461 191.716 210.531 193.047 215.766 196.072C216.142 196.292 216.488 196.561 216.794 196.871C217.486 197.539 217.964 198.398 218.166 199.338C218.368 200.279 218.286 201.259 217.929 202.152C217.572 203.046 216.957 203.813 216.163 204.355C215.368 204.897 214.43 205.19 213.469 205.196C204.57 205.426 196.916 206.079 190.157 206.648C167.801 208.524 151.659 209.879 117.514 194.693C94.9038 184.637 87.2864 166.752 93.598 138.401C95.5357 129.569 99.1032 121.177 104.117 113.655C109.014 106.6 127.235 89.3812 141.346 89.3812ZM170.135 204.18C176.482 204.18 182.794 203.647 189.843 203.054C196.65 202.473 204.352 201.844 213.372 201.59C213.626 201.606 213.878 201.542 214.092 201.406C214.307 201.271 214.474 201.071 214.569 200.835C214.664 200.599 214.682 200.34 214.622 200.093C214.561 199.846 214.424 199.625 214.231 199.46C214.147 199.378 214.053 199.305 213.953 199.243C209.201 196.496 203.409 195.225 197.811 193.991L196.155 193.628C154.259 184.31 135.699 163.134 141.164 130.705C141.854 126.566 144.405 122.416 146.871 118.386C150.426 112.614 153.775 107.157 152.07 102.051C150.281 96.6778 147.343 93.7737 143.087 93.1566C131.068 91.4261 112.17 108.44 107.104 115.76C102.378 122.911 99.0012 130.867 97.1407 139.236C91.2039 165.966 97.9387 182.072 118.989 191.426C141.89 201.59 156.121 204.18 170.135 204.18Z" fill="#221F1A" fill-opacity="0.1"/>
<path d="M194.692 411.318C197.279 406.95 199.963 402.424 199.963 396.797C199.963 392.38 198.113 388.424 196.336 384.588C194.849 381.774 193.754 378.769 193.084 375.657C191.693 367.187 196.711 359.927 201.088 355.244C214.461 341.146 242.089 330.571 260.213 332.603C269.342 333.632 275.351 336.693 278.58 341.945C284.891 352.194 279.426 369.232 273.816 384.394C272.969 386.669 272.147 389.162 271.277 391.8C268.242 400.96 264.808 411.354 259.186 417.114C258.581 417.719 257.855 418.421 257.033 419.207C255.304 420.889 253.213 422.91 251.145 425.161H256.09C257.299 423.951 258.508 422.813 259.488 421.821C260.322 421.01 261.072 420.284 261.688 419.667C267.976 413.302 271.555 402.484 274.71 392.937C275.569 390.323 276.379 387.867 277.201 385.677C283.114 369.692 288.857 351.686 281.602 340.045C277.794 333.862 270.72 330.147 260.54 328.997C258.89 328.815 257.23 328.726 255.57 328.731C236.732 328.731 211.256 339.186 198.379 352.751C191.234 360.277 188.138 368.397 189.432 376.238C190.154 379.681 191.346 383.007 192.975 386.124C194.667 389.755 196.276 393.179 196.276 396.797C196.276 401.432 193.966 405.268 191.512 409.466C188.864 413.944 185.938 418.917 186.155 425.197H189.783C189.601 419.946 192.128 415.735 194.692 411.318Z" fill="#221F1A" fill-opacity="0.1"/>
<path d="M326.194 411.112C321.89 407.966 316.231 407.252 309.388 408.982C303.608 410.447 297.152 417.041 289.824 425.161H294.745C300.61 418.784 306.026 413.581 310.27 412.504C316.11 411.027 320.608 411.536 324.054 414.041C327.246 416.388 329.326 420.321 330.741 425.161H334.549C332.953 419.232 330.414 414.198 326.194 411.112Z" fill="#221F1A" fill-opacity="0.1"/>
<path d="M158.273 398.455C159.386 391.074 161.127 381.514 164.778 373.044C171.105 358.701 179.324 345.27 189.214 333.112C194.051 327.17 200.737 321.979 207.242 316.945C209.02 315.578 210.761 314.235 212.417 312.892C218.293 308.125 225.041 304.549 232.283 302.364C271.929 290.372 290.151 322.475 307.767 353.525C321.249 377.267 333.981 399.75 355.576 402.4C366.458 403.755 377.255 402.484 388.004 400.101V396.374C377.327 398.794 366.603 400.125 356.023 398.794C336.23 396.374 323.933 374.665 310.923 351.734C295.991 325.416 279.353 296.072 248.328 296.072C242.52 296.13 236.751 297.039 231.207 298.77C223.517 301.08 216.353 304.875 210.12 309.939C208.475 311.258 206.746 312.589 204.993 313.956C198.319 319.111 191.427 324.435 186.361 330.704C176.258 343.146 167.865 356.885 161.405 371.555C157.584 380.461 155.795 390.323 154.658 397.922C153.123 406.93 153.025 416.123 154.368 425.161H157.995C156.714 417.743 156.665 408.995 158.273 398.455Z" fill="#221F1A" fill-opacity="0.1"/>
<path d="M-216.55 42.7817C-212.036 43.1255 -207.505 43.1821 -202.984 42.9511C-178.609 41.5112 -156.724 29.6404 -135.552 18.2175C-120.269 9.95276 -104.454 1.39761 -88.0222 -2.98282C-47.5291 -13.8008 -15.0767 -1.10721 5.80463 33.7304C12.4426 44.7904 17.0493 53.5149 15.9732 65.3009C14.4377 82.2418 8.28333 96.7625 1.7662 112.07C-1.47418 119.693 -4.82343 127.583 -7.556 135.799C-11.3163 147.101 -11.8846 157.931 -12.4892 169.402C-12.6826 173.033 -12.8761 176.905 -13.2025 180.704C-13.7588 187.493 -15.9109 194.366 -18.039 201.009C-19.7618 206.141 -21.167 211.375 -22.2467 216.68C-25.5717 234.951 -16.4309 267.381 -3.7836 282.132C12.1766 300.779 35.2948 308.826 64.918 306.055C95.0248 303.235 122.375 290.118 136.001 282.543C156.254 271.278 192.104 254.712 204.546 270.273C205.306 271.2 205.861 272.278 206.173 273.436C206.486 274.594 206.549 275.805 206.36 276.989C205.308 285.338 194.885 295.14 188.9 299.666C184.233 303.163 179.227 306.648 174.391 310.012C150.741 326.444 126.292 343.446 121.516 374.52C118.53 393.978 120.609 409.394 126.643 425.113H130.56C124.346 409.466 122.097 394.28 125.107 375.077C129.69 345.587 153.437 329.046 176.507 313.037C181.343 309.661 186.409 306.151 191.125 302.618C192.902 301.275 208.512 289.307 210.011 277.497C210.26 275.83 210.159 274.13 209.713 272.505C209.268 270.879 208.488 269.365 207.424 268.059C200.773 259.734 188.307 258.197 170.352 263.497C159.821 266.607 147.694 271.967 134.285 279.421C120.876 286.875 94.0817 299.738 64.6278 302.485C36.25 305.147 14.1717 297.512 -0.99054 279.821C-12.8398 265.99 -21.7389 234.467 -18.6314 217.381C-17.5743 212.225 -16.2055 207.137 -14.5326 202.147C-12.3925 195.31 -10.1797 188.243 -9.58728 181.055C-9.26083 177.195 -9.05533 173.347 -8.86185 169.632C-8.28149 158.415 -7.72528 147.851 -4.11005 136.961C-1.42581 128.89 1.93552 121.073 5.10336 113.522C11.4391 98.5897 18.0045 83.1493 19.6127 65.6519C20.8218 52.801 15.7072 43.1568 8.94833 31.8911C-7.82202 3.92664 -31.6898 -10.3763 -61.0228 -10.3763C-70.4555 -10.2983 -79.8373 -8.98431 -88.929 -6.4678C-105.784 -1.97845 -121.781 6.68558 -137.293 15.0471C-158.114 26.3127 -179.612 37.9657 -203.214 39.3451C-207.646 39.5738 -212.089 39.5172 -216.514 39.1757L-216.55 42.7817Z" fill="#221F1A" fill-opacity="0.1"/>
<path d="M-216.55 102.898C-197.51 96.5221 -179.062 88.4973 -161.415 78.9141C-155.153 75.3886 -149.135 71.4471 -143.399 67.116C-137.197 62.6509 -130.788 58.0285 -123.945 54.604C-102.253 43.7134 -62.909 43.7134 -44.6998 59.9041C-19.9373 81.9393 -27.1557 109.033 -34.1322 135.242C-36.7923 145.213 -41.2539 157.616 -45.9936 170.758C-62.2682 215.966 -82.5328 272.233 -60.2852 305.631C-35.5106 342.816 19.1048 340.796 61.9556 326.505C65.3653 325.367 69.5972 323.455 74.0467 321.422C87.891 315.166 106.814 306.575 117.26 314.416C120.392 316.764 122.097 319.256 122.484 321.943C123.233 327.291 118.772 333.196 114.467 338.884C112.774 341.11 111.178 343.228 109.861 345.345C108.095 348.165 106.233 351.008 104.299 354.021C91.9052 373.177 77.8433 394.873 80.4187 418.155C80.69 420.52 81.1386 422.863 81.7608 425.161H85.5212C84.8165 422.73 84.315 420.245 84.0219 417.731C81.6036 395.781 95.2787 374.665 107.346 356.018C109.304 352.993 111.154 350.137 112.932 347.294C114.141 345.309 115.725 343.264 117.357 341.086C122.121 334.794 127.03 328.283 126.075 321.435C125.555 317.804 123.318 314.428 119.437 311.512C107.346 302.388 87.9998 311.113 72.5716 318.119C68.1826 320.103 64.0474 321.979 60.819 323.056C19.2378 336.923 -33.6244 339.101 -57.2625 303.61C-78.4944 271.737 -58.5804 216.425 -42.5718 171.992C-37.82 158.778 -33.3222 146.29 -30.6259 136.174C-23.3712 108.912 -15.8505 80.705 -42.2937 57.1935C-51.4829 49.0135 -66.0164 44.137 -83.1858 43.4593C-84.5158 43.4593 -85.8458 43.3746 -87.1758 43.3746C-101.322 43.3746 -115.421 46.2909 -125.565 51.361C-132.675 54.9186 -139.204 59.6257 -145.515 64.1756C-151.123 68.407 -157.004 72.2634 -163.12 75.7196C-180.239 85.0004 -198.113 92.8131 -216.55 99.0737V102.898Z" fill="#221F1A" fill-opacity="0.1"/>
<path d="M-216.55 425.161H-216.26C-216.26 420.321 -213.528 415.601 -208.22 410.955C-183.905 389.706 -151.029 393.288 -119.205 396.761C-103.668 398.455 -87.6112 400.21 -73.114 398.891C-60.3821 397.68 -49.488 391.824 -38.9445 386.124C-28.4011 380.425 -18.692 375.149 -7.09665 373.866C8.0535 372.172 24.3402 373.467 36.4313 377.303C52.9356 382.543 62.1611 392.078 63.8539 405.655C64.676 412.201 63.4185 418.554 61.8467 425.161H65.5708C67.0822 418.687 68.3155 412.044 67.457 405.195C63.9627 376.988 31.8729 369.498 6.3728 369.498C1.73987 369.498 -2.88971 369.749 -7.49567 370.248C-19.7923 371.616 -30.4083 377.364 -40.6736 382.93C-51.3622 388.714 -61.4582 394.183 -73.4405 395.272C-87.575 396.555 -102.749 394.909 -118.806 393.155C-151.452 389.597 -185.138 385.894 -210.614 408.232C-212.884 410.168 -214.881 412.403 -216.551 414.875L-216.55 425.161Z" fill="#221F1A" fill-opacity="0.1"/>
<path d="M-61.6153 425.161C-59.4873 424.459 -57.2988 423.733 -55.0499 422.959C-36.2966 416.618 -15.0405 409.418 1.77826 419.498C4.27859 420.918 6.45346 422.847 8.16235 425.161H12.4909C10.4122 421.455 7.33221 418.41 3.60397 416.376C-2.86594 412.59 -10.2557 410.668 -17.7488 410.822C-30.517 410.822 -43.8777 415.347 -56.2106 419.522C-60.0919 420.841 -63.7675 422.087 -67.2981 423.152C-70.3126 424.028 -73.3827 424.699 -76.4874 425.161H-61.6153Z" fill="#221F1A" fill-opacity="0.1"/>
<path d="M-216.551 338.037C-216.405 337.553 -216.236 337.056 -216.091 336.56C-211.521 320.539 -212.21 302.679 -216.551 284.975V338.037Z" fill="#221F1A" fill-opacity="0.1"/>
<path d="M-216.55 119.984L-214.688 119.487C-206.225 117.164 -198.607 112.723 -191.292 108.44C-187.665 106.346 -184.037 104.168 -180.265 102.305C-158.646 91.4867 -108.093 78.4785 -89.1708 97.4644C-45.9452 140.676 -72.8116 207.87 -92.4233 256.962C-93.838 260.593 -95.6396 264.066 -97.5379 267.853C-101.286 275.247 -105.155 282.894 -106.171 291.001C-108.009 305.716 -96.0023 313.993 -85.4105 321.362C-73.1623 329.832 -62.5826 337.093 -70.1999 352.4C-72.2191 356.454 -75.4112 360.265 -78.5065 363.968C-79.4738 365.178 -80.4411 366.279 -81.36 367.429C-85.8821 373.092 -94.2249 371.821 -101.576 370.708C-102.858 370.515 -104.091 370.321 -105.276 370.176C-121.369 368.155 -159.069 360.967 -161.657 337.661C-163.567 320.515 -155.515 307.942 -147.003 294.644C-143.523 289.397 -140.319 283.973 -137.402 278.393C-134.694 272.911 -132.046 267.853 -129.495 263.013C-112.482 230.813 -101.25 209.54 -124.973 167.999C-130.619 158.1 -142.771 140.7 -160.678 135.327C-175.429 130.898 -196.141 133.488 -216.563 141.377V145.371C-196.455 137.372 -175.828 134.553 -161.717 138.788C-145.02 143.798 -133.497 160.363 -128.116 169.79C-105.385 209.601 -115.662 229.083 -132.699 261.307C-135.274 266.147 -137.934 271.229 -140.667 276.686C-143.511 282.161 -146.643 287.48 -150.049 292.623C-158.513 305.934 -167.291 319.583 -165.248 338C-162.382 363.871 -122.663 371.592 -105.724 373.709C-104.514 373.854 -103.305 374.048 -102.096 374.229C-94.1886 375.44 -84.3344 376.94 -78.4944 369.631C-77.5997 368.506 -76.6566 367.381 -75.7014 366.231C-72.3159 362.493 -69.3743 358.376 -66.9354 353.961C-57.9033 335.895 -70.8287 326.952 -83.3188 318.313C-94.0073 310.907 -104.115 303.925 -102.544 291.389C-101.613 283.911 -97.8885 276.553 -94.2733 269.438C-92.4233 265.808 -90.513 261.996 -89.0258 258.294C-69.0392 208.282 -41.665 139.804 -86.6075 94.8506C-94.3942 87.0457 -106.703 84.1174 -120.245 84.1174C-142.275 84.1174 -167.557 91.886 -181.909 99.0495C-185.754 100.974 -189.515 103.176 -193.142 105.306C-200.252 109.48 -207.651 113.776 -215.668 115.978L-216.575 116.232L-216.55 119.984Z" fill="#221F1A" fill-opacity="0.1"/>
<path d="M-216.551 -140.071C-211.883 -141.099 -207.228 -142.091 -202.646 -143.059C-180.821 -147.694 -160.218 -152.074 -146.422 -158.984C-136.073 -164.154 -126.796 -171.241 -119.084 -179.87H-124.09C-131.011 -172.665 -139.112 -166.698 -148.042 -162.227C-161.427 -155.535 -181.813 -151.203 -203.396 -146.617C-207.736 -145.697 -212.137 -144.754 -216.551 -143.785V-140.071Z" fill="#221F1A" fill-opacity="0.1"/>
<path d="M15.3928 -166.922C19.5642 -146.06 40.4455 -140.071 58.9207 -134.795C72.7529 -130.826 85.8234 -127.087 89.233 -117.781C92.0623 -110.097 88.3625 -98.7349 77.9158 -83.0525C73.1383 -75.6826 66.4522 -69.7482 58.57 -65.8817C48.2201 -60.7027 39.055 -53.0309 30.5671 -42.4187C27.907 -39.1031 26.0329 -34.8921 24.2193 -30.8263C19.9027 -21.1458 15.7555 -11.9009 1.50009 -11.9009C-0.642456 -11.914 -2.78082 -12.092 -4.89609 -12.4334C-15.7781 -14.1033 -21.4367 -19.2823 -27.446 -24.7639C-36.5747 -33.1012 -46.0179 -41.7047 -73.4767 -37.1428C-101.48 -32.472 -131.514 -19.0645 -158.114 -7.24222L-162.806 -5.1488C-168.398 -2.52426 -173.832 0.425262 -179.08 3.68463C-187.774 8.85159 -196.77 14.2122 -206.89 16.2209C-210.142 16.8743 -213.395 17.3583 -216.563 17.6851V21.3152C-213.105 20.9643 -209.622 20.4561 -206.128 19.7542C-195.44 17.6245 -186.178 12.1067 -177.218 6.78238C-172.092 3.59384 -166.783 0.708923 -161.318 -1.85745L-156.615 -3.95084C-130.293 -15.6884 -100.44 -28.9991 -72.8842 -33.5852C-47.1906 -37.881 -38.7874 -30.2213 -29.9005 -22.1017C-23.7582 -16.4992 -17.4104 -10.7151 -5.46439 -8.86368C16.8558 -5.41501 22.5265 -18.1449 27.5201 -29.3742C29.0241 -33.2035 30.9937 -36.8327 33.3843 -40.1801C41.5458 -50.3688 50.3118 -57.726 60.1781 -62.663C68.5996 -66.8272 75.7518 -73.1743 80.8902 -81.0438C92.1833 -97.9847 95.9073 -110.085 92.6065 -119.04C88.5559 -130.063 74.627 -134.057 59.888 -138.28C41.6063 -143.519 22.6958 -148.94 18.9596 -167.636C18.1566 -171.674 17.6195 -175.761 17.3515 -179.87H13.7242C13.9968 -175.522 14.5541 -171.197 15.3928 -166.922Z" fill="#221F1A" fill-opacity="0.1"/>
<path d="M-216.55 -107.496C-212.766 -109.105 -209.03 -110.727 -205.354 -112.336C-181.873 -122.537 -159.698 -132.169 -133.569 -137.408C-119.604 -140.204 -103.341 -142.975 -100.633 -142.709C-91.4439 -136.356 -78.8691 -114.466 -76.4509 -104.652C-71.2397 -83.8028 -91.2746 -69.161 -107.38 -57.3993C-110.1 -55.4026 -112.676 -53.527 -115.046 -51.6757C-123.981 -44.7299 -133.4 -43.544 -143.375 -42.2856C-149.659 -41.6977 -155.869 -40.4815 -161.911 -38.6554C-169.44 -35.9192 -176.779 -32.6852 -183.88 -28.9749C-192.646 -24.6429 -201.702 -20.1657 -210.65 -17.9271C-212.572 -17.4431 -214.555 -17.08 -216.562 -16.7775V-13.1473C-214.276 -13.4651 -212.008 -13.9012 -209.767 -14.4542C-200.445 -16.7896 -191.207 -21.3515 -182.272 -25.7682C-175.32 -29.3999 -168.134 -32.5652 -160.762 -35.243C-154.944 -37.0005 -148.966 -38.172 -142.916 -38.7401C-132.892 -40.0107 -122.542 -41.3175 -112.821 -48.8804C-110.499 -50.6834 -107.984 -52.5106 -105.24 -54.5314C-88.3123 -66.9345 -67.1287 -82.3628 -72.9324 -105.596C-75.5924 -116.269 -88.542 -139.054 -98.8557 -145.939C-99.0733 -146.085 -99.424 -146.315 -101.056 -146.315C-104.26 -146.315 -112.446 -145.395 -134.283 -141.027C-160.798 -135.714 -183.143 -126.01 -206.829 -115.724L-216.587 -111.513L-216.55 -107.496Z" fill="#221F1A" fill-opacity="0.1"/>
<path d="M-216.55 -81.6005C-212.161 -83.2825 -207.821 -85.0249 -203.516 -86.7432C-185.537 -94.0036 -166.929 -101.445 -147.196 -103.236C-133.714 -104.446 -125.601 -102.873 -124.924 -98.8801C-123.485 -90.4097 -149.022 -71.3029 -164.087 -67.5275C-178.5 -63.8973 -193.795 -59.8073 -208.014 -54.12C-210.154 -53.2608 -213.092 -52.196 -216.55 -51.0222V-47.2347C-212.077 -48.7231 -208.57 -49.9816 -206.672 -50.7439C-192.646 -56.3586 -177.496 -60.4244 -163.205 -64.0546C-148.913 -67.6848 -119.326 -87.5903 -121.357 -99.5336C-122.458 -106.056 -131.333 -107.375 -138.829 -107.375C-142.36 -107.375 -145.576 -107.084 -147.522 -106.903C-167.787 -105.064 -186.637 -97.4886 -204.87 -90.1677C-208.728 -88.6188 -212.621 -87.0579 -216.55 -85.5332V-81.6005Z" fill="#221F1A" fill-opacity="0.1"/>
<path d="M-175.646 -179.87H-175.441C-173.526 -179.416 -171.53 -179.437 -169.625 -179.93L-175.646 -179.87Z" fill="#221F1A" fill-opacity="0.1"/>
<path d="M-216.55 -169.39C-212.557 -171.753 -209.422 -175.332 -207.603 -179.603C-207.569 -179.69 -207.541 -179.779 -207.518 -179.87H-211.46C-212.679 -177.494 -214.419 -175.425 -216.55 -173.819V-169.39Z" fill="#221F1A" fill-opacity="0.1"/>
<path d="M-65.6538 -132.52C-56.2106 -125.441 -50.3585 -118.544 -45.4495 -108.706C-41.1693 -100.139 -38.8962 -91.0026 -36.6956 -82.1692C-33.8905 -70.8672 -30.9765 -59.178 -23.8549 -48.4811C-20.8805 -44.016 -16.2133 -41.4385 -9.9743 -40.8093C1.33087 -39.696 13.8693 -45.3712 15.9611 -47.4646C19.8544 -51.361 23.4818 -54.5435 26.6859 -57.3508C36.1653 -65.6761 43.0088 -71.6901 46.7933 -86.84C49.7678 -98.7228 35.2827 -107.23 19.9511 -116.232C6.82022 -123.953 -6.75806 -131.963 -8.7168 -141.74C-9.79291 -146.774 -8.58383 -158.088 -7.37473 -171.133C-7.09662 -173.952 -6.80643 -176.881 -6.52832 -179.87H-10.1556C-10.4217 -177.002 -10.6998 -174.194 -10.9658 -171.484C-12.3321 -157.58 -13.384 -146.593 -12.3079 -141.027C-10.0226 -129.616 4.26901 -121.23 18.0891 -113.098C32.2236 -104.809 45.5601 -96.9683 43.2507 -87.6871C39.7442 -73.6383 33.5778 -68.2293 24.2677 -60.0493C21.0273 -57.2057 17.3516 -53.999 13.3857 -49.9937C12.0315 -48.6384 2.20145 -44.2701 -7.02408 -44.2701C-7.90671 -44.2701 -8.77728 -44.2701 -9.63574 -44.3911C-14.7261 -44.8993 -18.5106 -46.9443 -20.8563 -50.4414C-27.6273 -60.6059 -30.3236 -71.4722 -33.1892 -82.9799C-35.4381 -92.007 -37.7475 -101.337 -42.2091 -110.267C-47.3962 -120.649 -53.5627 -127.922 -63.4774 -135.363C-73.9362 -143.205 -72.0862 -163.122 -69.2086 -179.809H-72.8359C-75.8466 -162.372 -77.5635 -141.462 -65.6538 -132.52Z" fill="#221F1A" fill-opacity="0.1"/>
<path d="M32.2721 26.0587C47.9059 36.4894 71.7495 22.4285 94.8072 8.92419C107.793 1.2887 120.065 -5.91113 129.243 -7.58102C153.57 -12.0099 175.66 -10.7756 201.318 -7.58102C206.638 -6.9155 212.707 -4.59216 219.116 -2.13574C230.421 2.19626 242.089 6.66141 252.354 3.23691C263.865 -0.598969 267.021 -23.3844 269.548 -41.6805C270.757 -50.0058 271.797 -57.8833 273.405 -61.1867C274.082 -61.9612 277.963 -64.0183 281.699 -66.027C299.388 -75.4534 336.194 -95.0684 349.119 -129.906C353.508 -141.728 357.426 -156.419 348.696 -165.143C337.814 -176.034 315.433 -165.385 302.06 -159.032C299.884 -157.992 297.998 -157.096 296.462 -156.443C267.976 -144.221 228.305 -132.508 201.148 -146.097C187.534 -152.909 173.798 -166.353 163.569 -179.894H158.987C169.663 -165.155 184.487 -150.38 199.528 -142.854C208.693 -138.268 219.14 -136.404 230.07 -136.404C253.043 -136.404 278.12 -144.62 297.889 -153.103C299.485 -153.781 301.395 -154.7 303.62 -155.753C316.135 -161.694 337.076 -171.641 346.133 -162.578C353.387 -155.317 349.76 -142.007 345.721 -131.177C333.268 -97.5854 297.321 -78.4301 279.994 -69.2094C273.127 -65.5793 270.914 -64.3692 270.188 -62.8687C268.302 -59.0812 267.214 -51.2401 265.957 -42.1646C263.683 -25.7682 260.576 -3.30954 251.205 -0.187561C242.185 2.82547 231.122 -1.39761 220.421 -5.51184C213.783 -8.05295 207.532 -10.4489 201.777 -11.1749C175.769 -14.4179 153.413 -15.6642 128.59 -11.1749C118.784 -9.39612 106.245 -2.02686 92.9693 5.76593C71.9066 18.1449 48.0267 32.1816 34.2913 23.0214C22.9619 15.4586 31.3653 -0.768372 36.9272 -11.5016C37.5075 -12.6149 38.0516 -13.6677 38.5352 -14.6357C45.7173 -29.0112 66.8889 -55.3421 82.438 -62.2516L84.6023 -63.2075C99.5711 -69.8145 124.612 -80.8744 127.078 -98.1783C130.367 -121.169 109.474 -137.566 87.3591 -154.882C77.13 -162.88 66.8042 -171 58.8725 -179.894H54.036C62.4152 -169.79 73.9138 -160.787 85.1101 -152.062C106.378 -135.424 126.462 -119.705 123.475 -98.747C121.287 -83.4276 96.4637 -72.4645 83.1272 -66.5836L80.9508 -65.6155C64.4464 -58.2705 42.8759 -31.5039 35.2827 -16.3055L33.6988 -13.2199C27.9193 -1.99054 18.2464 16.6928 32.2721 26.0587Z" fill="#221F1A" fill-opacity="0.1"/>
<path d="M112.581 -168.217C117.647 -161.114 122.145 -153.248 126.498 -145.637C129.206 -140.906 132.011 -135.956 134.962 -131.358C140.161 -123.033 142.482 -113.449 144.719 -104.168C147.21 -93.931 149.773 -83.343 156.206 -74.328C165.117 -61.8281 176.978 -56.1771 188.44 -50.6108C195.393 -47.2589 202.599 -43.7861 209.249 -38.8006C211.401 -37.1791 213.771 -34.033 216.274 -30.7053C222.561 -22.3317 230.397 -11.9131 241.411 -17.3947C247.118 -20.2504 250.589 -23.7596 252.015 -28.1279C254.434 -35.3882 250.335 -43.2778 246.768 -50.2115C243.987 -55.5963 241.363 -60.7027 242.826 -63.6432C245.402 -68.798 253.152 -71.2303 259.995 -73.3237C263.165 -74.2133 266.262 -75.346 269.257 -76.7118C275.375 -79.7733 328.903 -107.314 323.437 -130.898C323.261 -131.927 322.82 -132.891 322.156 -133.696C321.492 -134.5 320.629 -135.117 319.653 -135.484C312.253 -138.219 296.837 -127.534 280.345 -115.385C277.433 -113.107 274.402 -110.987 271.264 -109.033C248.702 -97.7548 215.766 -91.0148 196.771 -102.898C161.332 -125.066 152.929 -140.772 140.209 -164.538C137.67 -169.281 134.962 -174.34 131.854 -179.797H127.671C131.201 -173.674 134.212 -168.059 137.017 -162.856C149.543 -139.441 158.588 -122.525 194.849 -99.8361C202.841 -94.8506 212.429 -92.9266 222.32 -92.9266C241.145 -92.9266 261.011 -99.8845 272.885 -105.814C276.239 -107.841 279.469 -110.067 282.557 -112.481C292.944 -120.141 312.277 -134.383 318.456 -132.096C318.866 -131.933 319.223 -131.661 319.49 -131.309C319.756 -130.957 319.921 -130.539 319.967 -130.1C323.897 -113.159 287.491 -89.8894 267.698 -79.979C264.869 -78.7111 261.951 -77.6515 258.968 -76.8086C251.447 -74.449 242.911 -71.7747 239.622 -65.2404C237.325 -60.6543 240.36 -54.7613 243.576 -48.5174C246.792 -42.2735 250.504 -35.0857 248.594 -29.229C247.493 -25.8409 244.616 -23.0214 239.828 -20.6255C232.113 -16.7533 226.419 -23.2513 219.2 -32.835C216.54 -36.3805 214.025 -39.7324 211.462 -41.6563C204.534 -46.8596 197.17 -50.4051 190.049 -53.8296C178.489 -59.3958 167.571 -64.6475 159.192 -76.3851C153.147 -84.8555 150.801 -94.6207 148.31 -104.979C146.001 -114.538 143.607 -124.412 138.093 -133.234C135.228 -137.82 132.447 -142.684 129.762 -147.391C125.361 -155.075 120.815 -163.025 115.64 -170.274C113.103 -173.643 110.31 -176.81 107.285 -179.748L107.213 -179.821H102.158C102.993 -178.938 103.851 -178.067 104.685 -177.207C107.538 -174.412 110.177 -171.406 112.581 -168.217Z" fill="#221F1A" fill-opacity="0.1"/>
<path d="M289.8 -175.973C294.828 -176.536 299.743 -177.849 304.382 -179.87H291.783C291.021 -179.749 290.26 -179.64 289.51 -179.591C282.446 -179.07 275.35 -179.163 268.302 -179.87H246.877C260.889 -176.312 275.376 -174.997 289.8 -175.973Z" fill="#221F1A" fill-opacity="0.1"/>
<path d="M302.29 14.7083C306.111 16.7654 309.714 18.7136 312.93 20.6497C319.69 24.8705 326.153 29.5482 332.276 34.6501C347.245 46.5692 361.404 57.8349 388.004 56.0924V52.4622C362.613 54.1805 349.603 43.8102 334.549 31.8064C328.296 26.6081 321.699 21.8377 314.804 17.5277C311.504 15.5553 307.864 13.595 304.007 11.4774C294.987 6.63718 285.653 1.57913 280.043 -4.03555C278.966 -5.11252 279.184 -9.48083 279.293 -11.5863C279.293 -12.3729 279.365 -13.0868 279.365 -13.6555C279.365 -28.7692 283.368 -42.0315 302.895 -57.6776C306.522 -60.5817 310.935 -62.2516 315.602 -64.0062C320.669 -65.9302 325.916 -67.9147 330.196 -71.6538C362.25 -99.6909 396.335 -140.906 380.072 -179.87H376.106C392.973 -142.479 359.336 -101.966 327.742 -74.3522C323.97 -71.0366 319.278 -69.2578 314.26 -67.3701C309.533 -65.5793 304.588 -63.74 300.573 -60.4728C285.629 -48.5053 275.678 -35.9691 275.678 -13.6192C275.678 -13.0989 275.678 -12.4091 275.605 -11.7315C275.424 -8.10135 275.206 -3.64835 277.419 -1.43393C283.464 4.55588 293.028 9.71072 302.29 14.7083Z" fill="#221F1A" fill-opacity="0.1"/>
<path d="M388.004 -82.3749V-86.4528C387.198 -86.9362 386.451 -87.513 385.779 -88.1711C384.884 -89.0786 384.57 -91.1237 385.078 -93.9189C385.689 -97.1316 386.671 -100.262 388.004 -103.248V-111.586C384.884 -105.765 382.297 -99.4247 381.499 -94.4998C380.834 -90.3976 381.414 -87.4088 383.216 -85.6058C384.605 -84.2495 386.227 -83.1551 388.004 -82.3749Z" fill="#221F1A" fill-opacity="0.1"/>
<path d="M347.97 -0.877289C350.389 3.21274 352.879 7.44794 357.764 10.3763C364.922 14.672 375.55 17.1042 387.992 17.3704V13.7402C377.037 13.474 366.615 11.4774 359.614 7.27853C355.527 4.8584 353.375 1.22821 351.09 -2.71658C349.818 -4.99509 348.383 -7.17883 346.797 -9.25092C337.705 -20.6255 334.465 -29.822 337.125 -36.5983C342.227 -49.304 367.062 -53.0309 387.907 -55.802V-59.4322C365.986 -56.5159 339.64 -52.6437 333.727 -37.9173C330.438 -29.7252 333.727 -19.5969 343.871 -6.9397C345.381 -5.01959 346.751 -2.99359 347.97 -0.877289Z" fill="#221F1A" fill-opacity="0.1"/>
<path d="M74.8448 251.469C77.3597 252.401 79.6812 253.453 81.9543 254.47C87.4437 256.95 92.6307 259.31 99.6315 259.915C117.587 261.549 139.532 258.136 162.711 254.53C202.95 248.262 244.567 241.8 274.626 258.983C296.607 271.556 307.393 293.627 317.827 314.961C327.984 335.713 337.56 355.316 356.519 366.715C365.333 372.015 376.421 373.975 387.956 373.661V370.031C377.98 370.285 367.135 368.821 358.32 363.593C340.256 352.703 330.898 333.608 320.995 313.351C310.319 291.57 299.231 268.954 276.331 255.825C245.16 238.001 201.015 244.934 162.058 250.985C139.085 254.615 117.321 257.943 99.8612 256.345C93.465 255.765 88.5439 253.55 83.3448 251.215C81.0354 250.174 78.6414 249.097 76.0297 248.117C50.9528 238.703 36.9634 229.639 29.2372 217.793C20.6767 204.664 19.1774 187.215 24.4007 161.198C27.1333 147.561 32.5259 136.803 38.2329 125.417C42.147 117.962 45.623 110.285 48.6433 102.426C50.5209 96.9186 52.1071 91.3163 53.3952 85.6421C56.2729 73.9529 59.2473 61.8765 67.0581 52.9704C89.8256 26.9178 123.789 12.0825 165.274 10.0496C200.604 8.33127 240.239 16.2814 273.997 31.8307C286.439 37.5179 298.288 45.2018 309.714 52.68C325.13 62.7235 340.982 73.1058 358.985 79.0835C367.449 81.9151 377.267 82.8105 388.004 81.7941V78.1639C377.606 79.1803 368.187 78.3454 360.098 75.647C342.578 69.8024 326.871 59.5532 311.733 49.6428C300.162 42.1162 288.252 34.3113 275.557 28.4546C243.963 13.9913 209.676 6.3631 174.935 6.06845C171.63 6.06845 168.361 6.14911 165.129 6.31046C122.641 8.37964 87.7459 23.6506 64.3618 50.4656C55.9706 60.0493 52.8873 72.5734 49.9129 84.674C48.6568 90.2219 47.107 95.6991 45.27 101.082C42.2996 108.826 38.8801 116.39 35.0288 123.735C29.4669 134.843 23.6994 146.314 20.8822 160.436C15.4775 187.457 17.1461 205.741 26.2628 219.729C34.4363 232.277 48.9456 241.764 74.8448 251.469Z" fill="#221F1A" fill-opacity="0.1"/>
<path d="M129.605 226.711C145.239 230.619 160.921 228.139 176.096 225.743C180.63 225.029 185.309 224.291 189.879 223.734C193.712 223.274 197.569 222.79 201.438 222.306C232.573 218.398 264.759 214.356 295.265 221.29C319.834 226.844 349.022 247.718 355.358 272.972C357.027 279.651 356.809 287.492 356.567 295.963C356.071 313.775 355.503 333.971 376.348 341.8C380.09 343.129 384.033 343.804 388.004 343.796V340.166C384.46 340.171 380.941 339.561 377.606 338.363C359.191 331.442 359.674 314.247 360.182 296.011C360.412 287.771 360.642 279.264 358.852 272.088C354.886 256.224 343.412 244.257 334.477 236.996C323.099 227.727 309.085 220.721 296.063 217.757C264.941 210.678 232.428 214.756 200.991 218.7C197.122 219.197 193.265 219.668 189.456 220.128C184.813 220.685 180.098 221.435 175.527 222.161C160.716 224.497 145.396 226.917 130.488 223.19C115.096 219.342 99.2083 209.322 87.9878 196.387C75.6669 182.205 70.0688 166.135 72.2693 151.07C75.6428 127.389 88.9913 106.685 111.952 89.5505C153.062 58.8997 213.517 48.6505 252.088 54.362C269.511 56.9152 285.774 65.1436 301.516 73.0332C307.429 76.0221 313.607 79.0836 319.653 81.8546C329.144 86.1261 337.608 93.9552 346.58 102.208C358.985 113.788 371.85 125.598 388.004 127.728V124.025C373.084 121.799 360.884 110.545 348.998 99.6546C340.22 91.5471 331.127 83.1615 321.104 78.6479C315.058 75.9495 309.013 72.8759 303.149 69.8992C287.152 61.816 270.624 53.4544 252.572 50.7802C213.264 44.9598 151.587 55.4026 109.728 86.6464C86.3071 104.132 72.1001 126.24 68.6179 150.574C66.3326 166.668 72.2452 183.79 85.2431 198.783C96.9352 212.19 113.536 222.645 129.605 226.711Z" fill="#221F1A" fill-opacity="0.1"/>
<path d="M218.475 185.012C226.153 188.086 234.193 191.063 241.944 193.93C257.42 199.678 273.501 205.62 287.648 212.674C292.146 214.925 298.046 214.695 303.753 214.465C306.976 214.216 310.215 214.277 313.426 214.647C321.745 216.038 331.938 221.701 339.893 226.469C353.919 234.939 370.943 255.244 373.966 273.431C374.631 277.388 374.982 281.611 375.369 286.077C376.469 299.315 377.726 314.114 388.004 322.524V317.466C381.003 309.733 379.963 297.596 378.96 285.75C378.573 281.212 378.198 276.928 377.521 272.826C374.317 253.611 356.458 232.18 341.731 223.347C333.509 218.41 322.93 212.541 313.994 211.053C310.532 210.639 307.037 210.562 303.56 210.823C298.312 211.029 292.883 211.246 289.22 209.419C274.952 202.28 258.811 196.302 243.201 190.518C235.463 187.65 227.483 184.686 219.817 181.624C204.921 175.659 179.336 154.555 183.544 135.484C186.445 122.392 197.642 113.28 206.517 107.956C217.369 101.612 229.296 97.325 241.702 95.3105C274.215 90.3008 325.493 117.733 362.927 137.747C370.593 141.849 377.823 145.71 383.953 148.783C385.32 149.473 386.674 150.138 388.004 150.792V146.738L385.586 145.528C379.54 142.479 372.285 138.618 364.656 134.541C329.906 115.954 283.392 91.0752 249.912 91.0752C246.986 91.0634 244.063 91.2779 241.17 91.7166C219.696 95.0201 185.708 109.19 180.049 134.698C175.298 156.056 202.116 178.466 218.475 185.012Z" fill="#221F1A" fill-opacity="0.1"/>
<path d="M298.457 195.249L300.876 195.891L308.396 197.899C329.797 203.587 359.106 211.367 373.688 223.843C379.057 228.538 384.207 236.633 388.004 245.007V236.888C384.534 230.607 380.387 224.908 375.913 221.157C360.739 208.149 330.97 200.235 309.23 194.463C306.583 193.761 304.068 193.095 301.734 192.454L299.316 191.813C286.523 188.4 275.472 185.448 278.314 169.814C279.523 163.485 283.356 157.943 289.57 153.781C298.941 147.5 313.233 144.778 324.332 147.162C341.901 150.852 358.985 164.865 375.441 178.43C379.673 181.902 383.905 185.339 388.004 188.582V183.96C384.618 181.261 381.197 178.454 377.739 175.622C360.92 161.791 343.521 147.488 325.167 143.556C322.074 142.903 318.92 142.582 315.76 142.6C305.808 142.562 296.053 145.375 287.648 150.707C280.599 155.426 276.173 161.791 274.843 169.112C271.373 187.989 285.762 191.873 298.457 195.249Z" fill="#221F1A" fill-opacity="0.1"/>
</g>
</svg>
