<svg width="98" height="92" viewBox="0 0 98 92" fill="none" xmlns="http://www.w3.org/2000/svg">
<path d="M84.7368 62.3296C85.0057 61.6331 85.1622 60.8877 85.1775 60.1226C86.5879 40.3639 86.8509 23.1488 85.9806 7.5665C86.0307 3.84901 83.0217 0.94715 79.5054 0.94715C79.504 0.94715 79.504 0.94715 79.5026 0.94715C57.7179 0.0964728 30.0904 -0.670259 9.71605 0.945754C8.55135 0.945754 7.47252 1.27761 6.5253 1.81305C4.3279 2.08624 2.57196 4.23137 1.72579 6.13614C0.612161 8.64315 0.533285 11.4693 0.472247 14.2117C0.183673 27.1857 0.324462 40.1189 0.0358012 53.0928C-0.300201 68.1983 1.48205 69.0972 16.0667 69.765C34.6306 70.615 53.2256 69.8838 71.7945 69.1289C71.9118 74.1387 72.0583 79.149 72.2502 84.1363C72.2642 84.4973 72.7005 84.936 72.9721 85.1705C73.3824 85.8148 74.2427 85.8156 74.6881 85.2974C76.0501 83.7112 77.1239 82.6044 79.6385 79.8574C81.4248 83.0872 83.4471 86.4919 85.2515 89.7351C85.7689 90.6651 86.6487 91.0666 87.7115 91.12C87.9768 91.221 88.2155 91.3074 88.7216 91.2592C90.8287 91.0633 92.295 90.1846 93.4703 88.4161C93.96 87.6927 93.9949 86.7413 93.557 85.99C91.5073 82.4893 89.4841 79.0082 87.3392 75.0557C90.3735 74.6243 92.6162 74.4784 96.7373 74.0455C97.6721 73.9474 98.0395 72.7742 97.3249 72.1608C93.3327 68.7324 89.0474 65.4182 84.7368 62.3296ZM74.2446 55.2955C73.5166 54.8398 72.5932 55.3772 72.5992 56.2134L72.6017 56.4842L71.7747 57.8812C71.5035 58.3395 71.5957 58.123 71.711 64.5581C65.1102 64.6332 40.3862 65.4475 9.71605 64.3732C7.30672 64.3732 5.34652 62.4074 5.34372 59.9057C4.44022 48.3048 4.25466 35.1451 4.78266 19.9294H84.2746C84.6036 38.8112 83.1678 59.9881 82.8983 61.0614C80.3102 59.2475 77.0331 57.0462 74.2446 55.2955ZM9.8014 3.09204C30.4989 1.45478 58.6383 2.28455 79.4606 3.09484C81.8238 3.09484 83.8651 4.97782 83.833 7.61128C84.0174 10.9214 84.1395 14.3195 84.2217 17.7803H4.86101C4.99 14.4395 5.1502 11.0081 5.34652 7.46577C5.34652 5.05504 7.30672 3.09484 9.8014 3.09204ZM85.5007 73.1598C84.7681 73.2765 84.3767 74.079 84.7228 74.7269C87.1559 79.2797 89.4127 83.1665 91.7017 87.0757L92.6294 86.5329L91.685 87.2198C90.7377 88.6456 89.7723 89.0037 88.3928 89.0625C88.2863 88.8715 81.7188 76.7816 81.5915 76.5443C81.2209 75.9257 80.3375 75.8326 79.8538 76.3974C78.3779 78.1164 76.635 79.9385 74.926 81.7995C74.9111 80.284 74.7675 58.3723 74.7665 58.175C81.0796 62.2449 88.1294 67.2785 93.9963 72.1622C90.7863 72.4709 88.5989 72.6645 85.5007 73.1598Z" fill="#221F1A"/>
<path d="M11.1545 13.9115C12.9359 13.5778 13.7251 11.7093 12.7243 10.2038C12.2542 9.49578 11.5029 9.07324 10.7124 9.07324C10.571 9.1418 10.4073 9.10682 10.2716 9.16698C9.67385 9.11768 8.63273 9.78503 8.35759 11.0139C7.96539 12.7788 9.35866 14.2311 11.1545 13.9115Z" fill="#221F1A"/>
<path d="M19.2961 13.8081C21.3102 13.8081 22.4926 11.7568 21.3557 10.0514C20.5435 8.83314 19.1976 8.88605 19.3409 8.92513C19.187 8.92513 19.0401 8.95871 18.9072 9.01747C18.7603 9.00488 18.612 9.03147 18.4678 9.08743C16.1055 9.98675 16.5314 13.8081 19.2961 13.8081Z" fill="#221F1A"/>
<path d="M28.957 13.9492C30.7391 13.6184 31.525 11.7473 30.5241 10.2415C29.8413 9.21024 28.6625 8.94525 28.0756 9.20471C27.9329 9.19492 27.7804 9.2187 27.6362 9.27327C25.0575 10.2598 25.8703 14.5247 28.957 13.9492Z" fill="#221F1A"/>
<path d="M43.0522 11.1202H43.0648L72.6833 10.776C73.2765 10.769 73.7522 10.2821 73.7452 9.6889C73.7382 9.09567 73.2737 8.67173 72.6581 8.62695L43.0396 8.97114C42.4463 8.97814 41.9706 9.46504 41.9776 10.0583C41.9846 10.6473 42.4645 11.1202 43.0522 11.1202Z" fill="#221F1A"/>
<path d="M30.5507 27.1348H13.5105C10.9612 27.1348 8.8877 28.9802 8.8877 31.2497V44.7598C8.8877 46.9984 10.9332 48.8439 13.4475 48.8747C35.2887 49.1374 28.8951 49.0748 30.0987 49.0748C32.578 49.0748 34.6446 47.2964 34.7201 45.0816L35.172 31.3714C35.2056 30.3388 34.8083 29.3412 34.0541 28.5619C33.1769 27.6552 31.8994 27.1348 30.5507 27.1348ZM32.571 45.0102C32.536 46.0834 31.3762 46.9131 30.061 46.9257L13.4727 46.7256C12.1295 46.7088 11.0368 45.8273 11.0368 44.7598V31.2497C11.0368 30.1653 12.1463 29.2839 13.5105 29.2839H30.5507C31.3202 29.2839 32.0352 29.5651 32.5109 30.0576C32.7543 30.3094 33.0425 30.7306 33.0229 31.3014L32.571 45.0102Z" fill="#221F1A"/>
<path d="M71.4042 30.6904H46.6351C46.0419 30.6904 45.5605 31.1717 45.5605 31.765C45.5605 32.3582 46.0419 32.8395 46.6351 32.8395H71.4042C71.9974 32.8395 72.4787 32.3582 72.4787 31.765C72.4787 31.1717 71.9974 30.6904 71.4042 30.6904Z" fill="#221F1A"/>
<path d="M70.9635 42.8516H41.0218C40.4286 42.8516 39.9473 43.3329 39.9473 43.9261C39.9473 44.5193 40.4286 45.0006 41.0218 45.0006H70.9635C71.5568 45.0006 72.0381 44.5193 72.0381 43.9261C72.0381 43.3329 71.5568 42.8516 70.9635 42.8516Z" fill="#221F1A"/>
<path d="M62.7308 53.7046H47.7572C47.1639 53.7046 46.6826 54.1859 46.6826 54.7791C46.6826 55.3724 47.1639 55.8537 47.7572 55.8537H62.7308C63.324 55.8537 63.8054 55.3724 63.8054 54.7791C63.8054 54.1859 63.324 53.7046 62.7308 53.7046Z" fill="#221F1A"/>
</svg>
