<svg width="98" height="97" viewBox="0 0 98 97" fill="none" xmlns="http://www.w3.org/2000/svg">
<path d="M97.4016 78.255C97.3897 78.0819 97.3774 77.9039 97.3477 77.5962C97.314 77.248 97.0841 76.9445 96.7563 76.8224C95.4793 76.3469 94.1052 75.7905 92.9894 75.3424C93.124 74.5057 93.175 73.7337 93.1406 73.0207C94.4553 72.3074 95.7197 71.5013 96.8722 70.5469C97.5155 70.0148 97.6052 69.0626 97.0731 68.4201C97.0237 68.3603 96.9559 68.3298 96.8998 68.2795C95.9402 66.6285 94.8733 65.0195 93.7172 63.4978C93.3299 62.9896 92.6852 62.8026 92.1056 62.9653C92.0888 62.9688 92.0726 62.9632 92.0558 62.9673C90.8382 63.2643 89.6561 63.6931 88.5067 64.1932L87.0408 62.7208C87.3725 61.2673 87.5105 59.7792 87.4306 58.283C87.619 57.5496 87.2564 56.7758 86.5317 56.4993C84.5421 55.7372 82.4597 55.2266 80.3436 54.9843C80.2864 54.977 80.2357 54.9976 80.1796 54.9968C80.0338 54.9811 79.8923 55.0033 79.7501 55.0294C79.7468 55.0303 79.7428 55.0297 79.7394 55.0306C79.3009 55.1142 78.8991 55.3666 78.676 55.7924C78.0235 57.0437 77.5157 58.3674 77.0901 59.7179C76.9303 59.7008 76.7707 59.6887 76.6102 59.6767C79.6285 50.8219 81.1488 41.0393 79.1688 31.9457C77.0623 22.2711 71.698 13.2436 63.8375 7.34211C62.1325 6.062 60.3118 4.93983 58.4085 3.98834C55.0039 2.28635 51.2949 1.27871 47.4032 0.820695C46.7999 0.700418 46.1918 0.592791 45.578 0.500595C44.6419 0.301251 43.6651 0.213847 42.7197 0.129509L42.4015 0.101908C25.4857 -1.10949 9.6992 8.57249 3.10782 24.1673C1.40727 28.2078 0.395213 32.4339 0.0984971 36.7244C-0.178284 40.5408 0.136162 44.3487 0.942258 48.0381C2.62029 60.5994 10.8272 72.4015 22.2512 77.8636C34.0616 83.5105 49.0194 82.7956 59.9649 75.6366L61.1007 76.0629L61.511 78.8622C60.595 79.7862 59.5328 80.5771 58.3827 81.1836C58.2893 81.2044 58.1947 81.2043 58.1037 81.244C57.3385 81.5798 56.9904 82.4708 57.3255 83.2359L59.6471 88.5308C59.8955 89.0982 60.4498 89.4355 61.0318 89.4355C61.0334 89.4355 61.035 89.4345 61.0366 89.4345C61.0955 89.4415 61.1521 89.4601 61.2119 89.4601C61.409 89.4601 61.6099 89.4217 61.8031 89.3389L65.4511 87.7862C65.8859 88.0842 66.316 88.3831 66.7629 88.678C67.1417 88.928 67.5047 89.1821 67.8755 89.434L66.9855 93.4132C66.9597 93.4605 66.9181 93.4941 66.8971 93.5451C66.6297 94.1918 66.864 94.8978 67.3952 95.3028C67.4723 95.3692 67.5558 95.4208 67.6463 95.4709C67.6728 95.4837 67.6899 95.5073 67.7174 95.5186C67.7812 95.5448 67.847 95.5634 67.9109 95.589C67.955 95.6032 67.9889 95.634 68.0349 95.6443C68.0483 95.6473 68.0617 95.6462 68.0751 95.6488C69.9937 96.3969 71.9997 96.8406 74.0512 96.9431C74.0773 96.9446 74.1033 96.9462 74.1294 96.9462C74.549 96.9462 74.9253 96.7674 75.2007 96.4865C75.2239 96.4695 75.2431 96.4472 75.2654 96.4287C75.7797 96.2288 76.6388 96.0248 76.9205 95.6458C77.2971 95.1393 77.479 94.0629 77.6339 93.4786C77.7916 92.884 77.9582 92.2919 78.121 91.6987L79.8754 91.7426C80.1729 92.2063 80.4708 92.6674 80.766 93.1449C81.223 93.884 81.6792 94.6231 82.1438 95.3131C82.4359 95.7455 82.9128 95.9801 83.3989 95.9801C83.6895 95.9801 83.9831 95.8958 84.2415 95.721C84.257 95.7105 84.2643 95.6936 84.2794 95.6826C84.3999 95.6597 84.522 95.6567 84.6387 95.6029C86.9786 94.5173 87.51 94.1707 89.0879 93.1403L89.265 93.0237C89.7759 92.6906 90.0108 92.0997 89.9257 91.5329C90.0258 91.3049 90.1295 91.036 90.239 90.6469C90.3397 90.2885 90.3007 89.9052 90.126 89.5764C89.6989 88.7723 89.2511 87.8179 88.8774 86.9615C89.2873 86.4908 89.6677 86.0267 90.0754 85.5253C90.216 85.3521 90.3879 85.1446 90.5427 84.9554L93.9653 85.7395C93.9696 85.7406 93.9738 85.7415 93.9781 85.7425L94.0209 85.7523C94.1343 85.7783 94.2478 85.7906 94.3597 85.7906C94.4354 85.7906 94.5051 85.7643 94.5787 85.7532C94.6372 85.7435 94.6961 85.7398 94.753 85.7234C94.861 85.6938 94.959 85.6481 95.0572 85.596C95.0791 85.584 95.1009 85.5732 95.1222 85.5602C95.3884 85.4014 95.5963 85.1663 95.7248 84.8699C96.62 83.1786 97.2803 81.3769 97.6833 79.5098C97.698 79.4371 97.6901 79.3661 97.6939 79.2929C97.7272 78.9089 97.6239 78.5468 97.4016 78.255ZM2.44769 36.8916C2.72677 32.8556 3.67902 28.8825 5.27837 25.0828C11.4764 10.4187 26.3153 1.31637 42.2122 2.44956L42.5112 2.47563C43.4266 2.5569 44.2915 2.63511 45.1579 2.81605C64.2213 5.68353 78.0595 22.9988 76.6618 42.2355C76.6075 42.9852 76.5296 43.7323 76.43 44.476C75.9004 47.4708 75.0727 50.4378 74.0985 53.3669C73.5571 54.7254 72.9375 56.0518 72.2397 57.3358L71.7173 56.484C71.2811 55.771 70.3511 55.5471 69.6388 55.9856C69.5778 56.023 69.5418 56.0816 69.4881 56.1258L67.342 57.4022C73.4308 47.5829 73.9263 34.6989 68.5493 24.3958C63.9253 15.436 54.7363 8.64916 44.5744 6.68485C43.2963 6.42877 41.917 6.25243 40.3483 6.14509C33.5783 5.74487 26.2363 8.74423 21.6299 11.7007C16.056 15.2812 11.57 20.5944 8.99613 26.6668C7.58692 30.0203 6.74278 33.5533 6.489 37.163C5.88637 45.3484 8.29153 53.1182 13.4469 59.6352C18.6536 66.1767 26.0584 70.6205 34.3013 72.1509C36.3001 72.5189 38.2866 72.7029 40.2494 72.7029C46.3263 72.7014 52.1709 70.9487 57.4098 67.5184C57.4802 67.4723 57.5429 67.4167 57.6128 67.3701C57.3502 68.1023 57.1092 68.838 56.8862 69.5579C56.5764 70.5607 56.2835 71.5084 55.914 72.4116C55.8334 72.6079 55.7994 72.8112 55.8031 73.0109C49.9306 75.8749 43.4314 77.1479 36.8713 76.6653C36.4258 76.6346 35.9949 76.5917 35.5196 76.5273C24.8095 75.3803 15.1405 69.6438 8.99 60.7883C4.15591 53.8711 1.83202 45.3867 2.44769 36.8916ZM60.0299 65.6032C61.6585 64.2985 63.1344 62.8416 64.4679 61.2884L65.7413 64.2265L64.0476 67.0451L60.0299 65.6032ZM39.5517 66.0111C38.9015 66.0111 38.374 66.5386 38.374 67.1888V70.2576C37.1649 70.1819 35.951 70.0597 34.7291 69.8354C28.8706 68.748 23.4722 66.0714 19.0847 62.1634L21.9397 59.9572C22.4541 59.56 22.5492 58.8194 22.1521 58.3057C21.7534 57.7889 21.015 57.6954 20.4998 58.0925L17.3634 60.5161C16.64 59.7691 15.9446 58.9918 15.2923 58.1723C11.2334 53.0407 9.03303 47.0696 8.7964 40.7389H13.9491C14.5992 40.7389 15.1267 40.2114 15.1267 39.5612C15.1267 38.9111 14.5992 38.3836 13.9491 38.3836H8.80867C8.82266 38.0322 8.81222 37.6847 8.83819 37.3317C9.07433 33.9766 9.85791 30.695 11.1659 27.5822C12.5651 24.2821 14.5871 21.2346 17.0511 18.5971L19.5268 21.0729C19.7569 21.3029 20.0582 21.4179 20.3595 21.4179C20.6608 21.4179 20.9621 21.3029 21.1921 21.0729C21.6522 20.6128 21.6522 19.8676 21.1921 19.4076L18.7218 16.9373C20.0239 15.7382 21.4151 14.6372 22.9019 13.6818C27.6815 10.6172 33.5445 8.69133 38.374 8.50224V12.8998C38.374 13.5499 38.9015 14.0774 39.5517 14.0774C40.2019 14.0774 40.7294 13.5499 40.7294 12.8998V8.54709C41.96 8.64858 43.0876 8.79004 44.1205 8.99571C50.2043 10.172 55.9025 13.2021 60.346 17.4214L58.9371 18.831C58.4771 19.291 58.4771 20.0363 58.9371 20.4963C59.1671 20.7263 59.4684 20.8413 59.7698 20.8413C60.0711 20.8413 60.3724 20.7263 60.6024 20.4963L61.9918 19.1062C63.754 21.0449 65.2723 23.181 66.4577 25.4784C66.4585 25.4799 66.4593 25.4814 66.46 25.483C68.5519 29.4905 69.6745 33.9196 69.8764 38.3836H66.2231C65.573 38.3836 65.0455 38.9111 65.0455 39.5612C65.0455 40.2114 65.573 40.7389 66.2231 40.7389H69.8996C69.7406 46.335 68.1276 51.8805 65.07 56.6159C64.0291 58.2322 62.7858 59.7542 61.4061 61.1711L59.4608 59.2257C59.0008 58.7657 58.2555 58.7657 57.7955 59.2257C57.3355 59.6858 57.3355 60.431 57.7955 60.891L59.6856 62.7812C58.561 63.7734 57.387 64.7188 56.1195 65.5495C51.4132 68.6297 46.1765 70.2306 40.7294 70.3238V67.1888C40.7294 66.5386 40.2019 66.0111 39.5517 66.0111ZM64.2811 80.3455C64.6306 79.9493 64.7078 79.427 64.5787 78.9526L63.9721 74.8144C63.9298 74.525 63.7885 74.2857 63.6124 74.0777C63.4438 73.8397 63.2282 73.6324 62.9347 73.5218L59.2339 72.1328C59.4248 71.569 59.6031 71.0055 59.7744 70.4519C59.939 69.9189 60.1007 69.4042 60.2695 68.9014L63.7749 70.1597C63.8144 70.189 63.8386 70.2312 63.8816 70.2571C64.1254 70.4028 64.3938 70.4733 64.6583 70.4733C65.1712 70.4733 65.6719 70.2111 65.9556 69.7404L68.5754 65.3809C68.7055 65.1642 68.7563 64.9291 68.7701 64.6932C68.9035 64.3392 68.9095 63.9365 68.7471 63.5622L67.5491 60.7961L69.9435 59.3718L71.3493 61.6645C71.3512 61.6748 71.3473 61.6843 71.3493 61.6945C71.4942 62.4122 72.1245 62.9075 72.8298 62.9075C72.9287 62.9075 73.0292 62.8967 73.1296 62.8768C74.6377 62.5747 76.2363 62.5655 77.7536 62.863C78.2292 62.9518 78.6836 62.7889 79.0245 62.4898C79.3175 62.2912 79.5481 61.9993 79.6443 61.6301C79.9576 60.4317 80.4059 59.2755 80.9221 58.1524C82.1024 58.3387 83.2615 58.6208 84.3972 58.9921C84.4115 60.2222 84.2887 61.445 83.9601 62.6315C83.8431 63.055 83.9266 63.48 84.1412 63.826C84.211 64.052 84.3167 64.268 84.4953 64.447L87.0553 67.0185C87.3505 67.316 87.7385 67.4648 88.1264 67.4648C88.3391 67.4648 88.5474 67.4099 88.7449 67.3206C88.8293 67.2968 88.9166 67.3018 88.9982 67.2624C89.9308 66.8094 90.9103 66.4586 91.9062 66.165C92.5816 67.0981 93.2194 68.058 93.8185 69.0419C93.0266 69.6093 92.2025 70.1264 91.3363 70.5739C91.2846 70.5796 91.2352 70.5648 91.1833 70.5761C90.4081 70.7451 89.9232 71.4838 90.0275 72.2566C90.0277 72.2627 90.0274 72.2685 90.0277 72.2746C90.0328 72.3091 90.0218 72.3418 90.0294 72.3763C90.2418 73.3469 90.1344 74.655 89.7112 76.2635C89.498 77.0701 89.9803 77.8966 90.7877 78.1097C90.8502 78.1261 90.9125 78.1259 90.9752 78.1344C92.1615 78.6513 93.3098 79.2571 94.4244 79.9202C94.1739 80.813 93.8554 81.6804 93.4687 82.5239L90.2786 81.793C89.6404 81.6471 89.0145 81.938 88.6797 82.4608C88.3246 82.8866 88.0154 83.2671 87.7293 83.6178C87.1022 84.3903 86.5753 85.0223 85.9123 85.7195C85.3676 86.0919 85.0959 86.7734 85.3172 87.4298L86.577 91.1642C85.7855 91.6684 85.2049 91.9927 83.9827 92.5717C83.7683 92.2316 83.5518 91.9033 83.3383 91.5578C82.9951 91.001 82.6488 90.4617 82.3018 89.9266C82.1702 89.3532 81.728 88.9202 81.1456 88.8031C80.983 88.752 80.8191 88.7338 80.6481 88.7394L76.2294 88.629C76.2187 88.6274 76.2072 88.6274 76.1964 88.6274C75.5337 88.6274 74.9862 89.0646 74.7842 89.6643C74.7773 89.683 74.762 89.6955 74.7558 89.7146C74.3038 91.0972 73.7927 92.4761 73.2519 93.836C72.1938 93.719 71.1503 93.5086 70.1344 93.1847L71.0771 88.9694C71.2589 88.1551 70.7459 87.347 69.9317 87.1645C69.9253 87.1631 69.919 87.1655 69.9126 87.1642C69.424 86.8258 68.9329 86.4881 68.4266 86.154C67.8642 85.783 67.3109 85.4103 66.7749 85.0318C66.4328 84.6608 65.9332 84.5004 65.4285 84.5856C65.389 84.5907 65.3528 84.6012 65.3138 84.6095C65.2368 84.6288 65.1586 84.6251 65.083 84.6574L61.8522 86.0325L60.6807 83.3599C62.0204 82.5381 63.2488 81.5148 64.2811 80.3455Z" fill="#221F1A"/>
<path d="M77.2527 84.4364C78.1046 84.4364 78.9571 84.3137 79.7775 84.0577C83.5037 82.88 86.1879 79.0541 86.0239 75.1577C85.8675 71.1601 83.0391 67.6256 79.2975 66.7516C79.2293 66.7362 79.1595 66.724 79.089 66.7178L77.8124 66.6074C74.6513 66.6136 72.6157 67.3757 70.6223 69.4795C67.9258 72.3148 67.4711 76.9702 69.5665 80.31C71.1927 82.8877 74.2227 84.4364 77.2527 84.4364ZM72.815 71.5603C74.1943 70.1051 75.3774 69.6236 77.5119 69.6236C77.5602 69.6236 77.6093 69.6236 77.6591 69.6252L78.7064 69.7187C81.0633 70.3198 82.9026 72.6905 83.003 75.2773V75.2835C83.1111 77.8197 81.2941 80.4081 78.872 81.1733C76.4423 81.9354 73.4782 80.8436 72.125 78.6999C70.7656 76.5332 71.0677 73.3974 72.815 71.5603Z" fill="#221F1A"/>
<path d="M42.693 42.7077C43.9366 41.0332 44.001 38.6411 42.8502 36.8915C42.0651 35.6985 40.8789 34.962 39.5678 34.7628L39.3727 19.0857L40.7686 20.4333C40.997 20.6542 41.2922 20.7646 41.5866 20.7646C41.8949 20.7646 42.2023 20.645 42.4339 20.4057C42.8854 19.9381 42.8724 19.1913 42.4047 18.7405L38.9584 15.4114C38.4991 14.9667 37.77 14.9713 37.3138 15.4191L33.9855 18.696C33.5224 19.1514 33.5163 19.8982 33.9725 20.3613C34.4302 20.8228 35.1747 20.8336 35.6385 20.3735L37.0161 19.0174L37.215 34.9931C35.1593 35.7019 33.768 37.5718 33.7348 39.7406C33.7215 40.6075 33.9687 41.4506 34.3923 42.1951L24.5405 51.9415L24.4262 50.2797C24.3825 49.6311 23.8128 49.1465 23.1711 49.1864C22.5225 49.2309 22.0326 49.7921 22.077 50.4423L22.4052 55.2234C22.4473 55.8429 22.9633 56.3198 23.579 56.3198C23.5959 56.3198 23.6135 56.3198 23.6311 56.3183L28.2973 56.1159C28.9467 56.0883 29.4504 55.5378 29.4228 54.8892C29.3945 54.239 28.8723 53.713 28.1946 53.7636L25.9493 53.8605L35.9987 43.9187C36.353 44.1535 36.7307 44.3549 37.1405 44.488C37.6151 44.6429 38.1104 44.7165 38.6065 44.7165C40.1736 44.7165 41.7477 43.9789 42.693 42.7077Z" fill="#221F1A"/>
</svg>
