<svg width="98" height="82" viewBox="0 0 98 82" fill="none" xmlns="http://www.w3.org/2000/svg">
<path d="M67.2313 33.7483C67.1109 33.1084 66.8211 32.5186 66.4247 32.0235C65.9673 31.075 65.2434 30.3725 64.2703 30.0277C62.782 29.4987 61.005 29.8877 59.7393 31.0105C58.5148 32.0994 58.0226 33.6481 58.3881 35.2601C58.4443 35.5084 58.5302 35.75 58.6356 35.9843C57.3246 37.0482 56.089 38.0004 54.9076 38.8967C53.7663 39.7639 52.675 40.6038 51.5659 41.5052C51.2504 41.2587 50.9041 41.0499 50.5092 40.9095C49.0224 40.3835 47.2439 40.7681 45.9767 41.8938C45.0877 42.6844 44.5979 43.7206 44.529 44.8442C40.863 45.2601 37.186 45.8333 33.5646 46.552C33.1381 45.3757 32.3406 44.52 31.2239 44.1232C29.7357 43.5987 27.9586 43.9833 26.6929 45.1075C25.4684 46.1965 24.9762 47.7451 25.3417 49.3571C25.4212 49.7086 25.569 50.0416 25.7451 50.3621L23.9433 52.7963C22.3 55.025 21.7148 55.8148 19.5342 58.5264C19.4687 58.4992 19.4166 58.4535 19.3489 58.4295C17.8621 57.9035 16.0836 58.2881 14.8179 59.4138C13.5934 60.5028 13.1012 62.0514 13.4667 63.6634C13.6197 64.3394 13.9793 64.9634 14.4659 65.4935C14.6583 65.7901 14.8741 66.0697 15.1295 66.3095C16.3982 67.5012 18.3744 67.7904 19.8883 66.9505C21.3713 66.1279 22.2766 64.2477 22.0005 62.5089C22.0015 62.2806 21.9962 62.0514 21.9585 61.823C21.8425 61.1154 21.5887 60.5168 21.2575 59.9955C23.5015 57.2058 24.0894 56.4116 25.7646 54.1387L27.337 52.0139C27.376 52.0375 27.4169 52.0559 27.4565 52.078C28.7253 53.1002 30.5532 53.3209 31.9787 52.5303C33.2757 51.8105 34.1302 50.2814 34.1411 48.746C37.723 48.0395 41.3577 47.4722 44.9813 47.0677C45.1106 47.3167 45.2664 47.5514 45.4462 47.7731C45.6742 48.1916 45.9562 48.5747 46.2985 48.8959C47.5671 50.088 49.5432 50.3772 51.0572 49.5373C52.5611 48.7029 53.476 46.7807 53.1619 45.0217C53.165 44.7826 53.1579 44.5425 53.1188 44.303C53.0637 43.9671 52.9639 43.6657 52.8587 43.3699C53.987 42.4479 55.1032 41.5895 56.2765 40.6988C57.4887 39.779 58.7422 38.8223 60.0988 37.7197C60.1669 37.768 60.2251 37.8266 60.2962 37.8711C60.6649 38.1018 61.06 38.2749 61.4657 38.3906C62.6221 38.9225 64.0037 38.9247 65.1302 38.2996C66.6441 37.4597 67.5641 35.5168 67.2313 33.7483ZM16.3223 61.1054C16.785 60.6929 17.4053 60.463 17.9785 60.463C18.1937 60.463 18.4014 60.4954 18.593 60.5632C19.203 60.7798 19.5832 61.3265 19.7247 62.1899C19.8985 63.2435 19.1264 64.4194 18.1053 64.6551C17.6131 64.7656 17.0605 64.6581 16.5758 64.3545C16.1087 64.0613 15.7786 63.6266 15.674 63.1625C15.4426 62.1443 15.8979 61.4812 16.3223 61.1054ZM47.4811 43.5854C47.9453 43.1728 48.5656 42.943 49.1374 42.943C49.3525 42.943 49.5617 42.9754 49.7518 43.0432C50.3633 43.2598 50.7435 43.8064 50.8849 44.6684C51.0573 45.7235 50.2852 46.8993 49.2656 47.1351C48.7734 47.2471 48.2179 47.138 47.7346 46.8345C47.2675 46.5413 46.9374 46.1066 46.8328 45.6424C46.6015 44.6242 47.0568 43.9626 47.4811 43.5854ZM28.1973 46.7991C28.66 46.3866 29.2804 46.1567 29.8536 46.1567C30.0687 46.1567 30.2764 46.1891 30.468 46.2569C31.078 46.4735 31.4582 47.0202 31.5997 47.8822C31.7721 48.9372 31.0014 50.1131 29.9803 50.3488C29.4896 50.4623 28.9356 50.3518 28.4508 50.0482C27.9837 49.755 27.6536 49.3203 27.549 48.8562C27.3176 47.838 27.773 47.1749 28.1973 46.7991ZM61.2437 32.7021C61.7064 32.2895 62.3267 32.0596 62.8985 32.0596C63.1136 32.0596 63.3228 32.092 63.5129 32.1598C64.1229 32.3764 64.5046 32.9246 64.646 33.7866C64.8184 34.8416 64.0463 36.016 63.0267 36.2532C62.533 36.3652 61.9805 36.2547 61.4986 35.9526C61.03 35.6594 60.7015 35.2247 60.5954 34.7591C60.364 33.7409 60.8193 33.0778 61.2437 32.7021Z" fill="#221F1A"/>
<path d="M11.2432 20.1981C11.7354 20.5679 12.3395 20.761 12.9717 20.761C13.2192 20.761 13.4726 20.73 13.7246 20.6696C14.6146 20.4545 15.3411 19.8901 15.7153 19.1195C16.0896 18.3474 16.0852 17.4279 15.7035 16.5954C15.5886 16.3434 15.4442 16.112 15.2762 15.9072C15.2806 15.8615 15.2821 15.8159 15.2821 15.7702C15.2689 15.1454 14.7325 14.6754 14.1269 14.6621C13.0409 14.6857 11.9151 14.8154 11.0414 15.6037C10.4048 16.1769 10.0629 17.03 10.1027 17.9466C10.1425 18.8616 10.558 19.6824 11.2432 20.1981Z" fill="#221F1A"/>
<path d="M20.6185 19.9329C21.1091 20.3043 21.7133 20.4973 22.3454 20.4973C22.593 20.4973 22.8449 20.4678 23.0969 20.4059C23.9884 20.1923 24.7148 19.6264 25.0891 18.8558C25.4633 18.0852 25.4589 17.1657 25.0788 16.3332C24.9624 16.0812 24.8194 15.8498 24.6514 15.645C24.6559 15.5993 24.6588 15.5522 24.6573 15.5065C24.6441 14.8817 24.1225 14.4264 23.5021 14.3984C22.4161 14.422 21.2918 14.5517 20.4151 15.3415C19.7786 15.9147 19.4367 16.7678 19.478 17.6829C19.5177 18.5979 19.9347 19.4187 20.6185 19.9329Z" fill="#221F1A"/>
<path d="M29.7298 20.1966C30.2205 20.5679 30.8246 20.761 31.4567 20.761C31.7043 20.761 31.9563 20.7315 32.2082 20.6696C33.0997 20.4559 33.8261 19.8901 34.2004 19.1195C34.5747 18.3474 34.5703 17.4279 34.1886 16.5954C34.0737 16.3449 33.9308 16.1135 33.7628 15.9087C33.7672 15.863 33.7701 15.8173 33.7687 15.7702C33.7554 15.1454 33.2014 14.6754 32.6134 14.6621C31.5275 14.6857 30.4032 14.8154 29.5264 15.6052C28.8899 16.1783 28.548 17.0315 28.5893 17.9466C28.6291 18.8616 29.0461 19.6824 29.7298 20.1966Z" fill="#221F1A"/>
<path d="M48.9363 17.9523H71.4044C72.0292 17.9523 72.5361 17.4454 72.5361 16.8206C72.5361 16.1959 72.0292 15.689 71.4044 15.689H48.9363C48.3116 15.689 47.8047 16.1959 47.8047 16.8206C47.8047 17.4454 48.3116 17.9523 48.9363 17.9523Z" fill="#221F1A"/>
<path d="M1.46853 75.762C1.48971 76.4225 1.57434 76.8082 1.72989 77.2024C2.8818 80.1236 5.80543 81.9312 8.9452 81.9721C9.76558 81.9828 10.6114 81.9614 11.4379 81.8907H83.1783C84.9037 81.8907 86.5231 81.2144 87.7373 79.9884C88.9515 78.761 89.6101 77.1342 89.5925 75.4073L88.9279 14.9006C88.8881 11.4039 86.0118 8.55859 82.5137 8.55859H9.91984C9.2655 8.55859 8.64636 8.68605 8.05124 8.86877C6.0889 8.7822 2.75646 11.8482 2.0257 13.1721C0.751019 15.4815 0.411743 18.1795 0.233633 20.813C-0.0253362 24.6438 -0.0523198 28.4867 0.0710866 32.3241L1.46853 75.762ZM86.1282 78.3955C85.3429 79.1898 84.2952 79.6274 83.1783 79.6274H9.91984C7.63148 79.6274 5.76896 77.7649 5.76896 75.4765V25.8738H86.7618C86.77 25.8738 86.7767 25.8694 86.7848 25.8694L87.3291 75.4308C87.3409 76.5492 86.9151 77.6013 86.1282 78.3955ZM82.5137 10.8219C84.777 10.8219 86.6395 12.6638 86.6646 14.9256L86.76 23.6105H5.76896V14.9713C5.76896 14.25 5.97046 13.5814 6.29556 12.9902C6.5828 12.6148 6.9253 12.2107 7.26982 11.8044C7.99101 11.2002 8.90763 10.8219 9.91984 10.8219H82.5137Z" fill="#221F1A"/>
<path d="M85.2106 0.877358L84.3265 4.67754C84.185 5.2861 84.5637 5.89466 85.1723 6.03611C85.2592 6.05674 85.3447 6.06558 85.4302 6.06558C85.9444 6.06558 86.41 5.71341 86.5309 5.19032L87.415 1.39014C87.5564 0.78158 87.1777 0.173021 86.5692 0.0315641C85.9591 -0.115787 85.3521 0.267326 85.2106 0.877358Z" fill="#221F1A"/>
<path d="M94.9456 2.44681C95.3199 1.94729 95.2182 1.23853 94.7172 0.862785C94.2162 0.488514 93.5075 0.588713 93.1332 1.09118L89.3389 6.163C88.9646 6.66399 89.0663 7.37275 89.5673 7.74702C89.7707 7.89879 90.0079 7.97247 90.2436 7.97247C90.5885 7.97247 90.9288 7.81627 91.1513 7.51862L94.9456 2.44681Z" fill="#221F1A"/>
<path d="M92.5146 12.9043H92.5338C94.0471 12.8778 95.5368 12.5993 96.9587 12.0762C97.5452 11.8596 97.8458 11.2098 97.6306 10.6233C97.414 10.0369 96.7613 9.73626 96.1777 9.95139C94.9931 10.3875 93.7538 10.6204 92.4955 10.641C91.8707 10.6513 91.3727 11.167 91.383 11.7918C91.3933 12.4107 91.8987 12.9043 92.5146 12.9043Z" fill="#221F1A"/>
<path d="M38.8443 58.6196H31.3309C30.7061 58.6196 30.1992 59.1265 30.1992 59.7513V73.7732C30.1992 74.398 30.7061 74.9048 31.3309 74.9048H38.8443C39.4691 74.9048 39.9759 74.398 39.9759 73.7732V59.7513C39.9759 59.1265 39.4691 58.6196 38.8443 58.6196ZM37.7126 72.6415H32.4625V60.8829H37.7126V72.6415Z" fill="#221F1A"/>
<path d="M57.2937 51.6367H49.1688C48.544 51.6367 48.0371 52.1436 48.0371 52.7684V73.7732C48.0371 74.398 48.544 74.9049 49.1688 74.9049H57.2937C57.9185 74.9049 58.4253 74.398 58.4253 73.7732V52.7684C58.4253 52.1436 57.9185 51.6367 57.2937 51.6367ZM56.162 72.6416H50.3004V53.9H56.162V72.6416Z" fill="#221F1A"/>
<path d="M75.1596 44.4653H67.2498C66.6251 44.4653 66.1182 44.9722 66.1182 45.597V73.7734C66.1182 74.3982 66.6251 74.9051 67.2498 74.9051H75.1596C75.7844 74.9051 76.2913 74.3982 76.2913 73.7734V45.597C76.2913 44.9722 75.7844 44.4653 75.1596 44.4653ZM74.028 72.6418H68.3815V46.7286H74.028V72.6418Z" fill="#221F1A"/>
</svg>
