<svg width="345" height="337" viewBox="0 0 345 337" fill="none" xmlns="http://www.w3.org/2000/svg">
<mask id="mask0_1_9290" style="mask-type:alpha" maskUnits="userSpaceOnUse" x="0" y="0" width="345" height="337">
<path d="M270.344 48.403L275.267 -7.15041e-05H0.435689V298.622L37.3533 311.749L64.4262 326.516L101.344 336.36H138.261L171.897 316.671L189.126 294.52L192.407 266.627L171.897 206.739L162.053 164.078L171.897 128.801L192.407 116.495L232.606 112.394L290.034 128.801H323.67H340.078L345 116.495L323.67 100.908L270.344 48.403Z" fill="white"/>
</mask>
<g mask="url(#mask0_1_9290)">
<path d="M267.396 378.878C281.852 378.878 286.189 369.88 291.185 352.633C291.497 351.442 291.571 350.2 291.403 348.979C291.235 347.759 290.828 346.584 290.206 345.521C289.551 344.186 288.397 343.163 286.994 342.674C280.956 341.163 274.762 341.053 268.769 340.944C260.534 340.797 252.739 340.66 245.09 337.282C242.555 336.018 240.109 334.58 237.771 332.979C230.781 328.485 222.867 323.395 215.73 325.775C210.927 327.377 208.274 329.721 207.835 332.741C206.819 339.744 218.411 347.846 226.078 353.21C227.441 354.125 228.622 354.986 229.537 355.672C232.546 358.074 235.403 360.66 238.091 363.417C244.651 369.825 252.099 377.148 260.855 378.384C263.021 378.703 265.207 378.868 267.396 378.878ZM286.317 345.337C286.976 345.671 287.504 346.216 287.818 346.885C288.693 348.392 288.949 350.181 288.531 351.874C282.968 371.161 279.162 378.219 261.193 375.674C253.325 374.557 246.554 367.902 239.967 361.467C237.194 358.623 234.245 355.957 231.138 353.485C230.223 352.771 228.988 351.938 227.606 350.967C221.357 346.601 209.738 338.472 210.506 333.144C210.79 331.231 212.821 329.638 216.554 328.393C222.446 326.425 229.775 331.139 236.243 335.295C238.701 336.982 241.279 338.487 243.956 339.799C252.117 343.461 260.544 343.58 268.659 343.726C274.533 343.79 280.581 343.937 286.317 345.337Z" fill="#221F1A" fill-opacity="0.1"/>
<path d="M24.1169 199.22C28.0638 199.197 31.9041 197.936 35.0961 195.613C46.9902 187.219 51.9674 166.97 52.928 157.431C54.2547 144.13 49.1402 133.475 44.1996 123.186C41.528 117.62 38.7741 111.871 37.0083 105.701C35.5261 100.52 35.3797 93.8926 35.1784 86.8806C34.8033 70.6778 34.3733 52.3147 16.642 46.4011C12.7078 45.0829 11.1524 45.861 9.60617 46.9961C9.41403 47.1334 9.22192 47.2799 9.01147 47.4172C8.92022 47.4731 8.83447 47.5375 8.75531 47.6095L7.03521 49.367C6.97299 49.4244 6.91772 49.489 6.87054 49.5593C4.61068 52.9188 5.58047 59.5739 6.71499 62.9883C11.4909 77.3145 16.3675 94.4327 16.3675 112.741C16.3675 121.456 12.4058 128.202 8.20633 135.352C1.445 146.877 -6.22208 159.939 3.15594 183.411C6.41308 191.558 11.8752 196.803 18.9384 198.57C20.6313 198.999 22.3706 199.217 24.1169 199.22ZM13.2567 48.4516C14.1425 48.5039 15.0153 48.6891 15.846 49.0009C31.7475 54.3103 32.1317 70.8975 32.5068 86.9446C32.6715 94.1398 32.8271 100.932 34.4099 106.461C36.2398 112.869 39.0486 118.709 41.7293 124.367C46.7248 134.784 51.4459 144.615 50.1924 157.157C49.1311 167.739 43.7879 186.111 33.5224 193.361C31.5475 194.799 29.2747 195.774 26.8723 196.215C24.4698 196.655 21.9991 196.55 19.6429 195.906C11.8386 193.956 7.74887 187.475 5.74517 182.385C-3.1388 160.168 3.85128 148.259 10.6126 136.743C14.8121 129.594 19.1489 122.206 19.1489 112.741C19.1489 94.0391 14.1991 76.6554 9.35916 62.1187C8.31613 58.9972 7.67569 53.523 9.12127 51.1979L10.64 49.6508C10.8505 49.5135 11.0518 49.367 11.253 49.2206C11.8047 48.7281 12.5174 48.4546 13.2567 48.4516Z" fill="#221F1A" fill-opacity="0.1"/>
<path d="M271.568 256.506C272.141 256.508 272.713 256.468 273.279 256.387C277.561 255.774 280.599 252.89 282.282 247.81C283.966 242.729 280.983 237.859 278.092 233.163C276.262 230.216 274.569 227.423 274.139 224.824C270.333 201.938 283.618 187.017 313.637 180.344L314.881 180.069C319.328 179.09 323.921 178.083 327.882 175.794C328.167 175.628 328.428 175.425 328.66 175.19C329.184 174.685 329.545 174.035 329.698 173.323C329.851 172.612 329.789 171.871 329.519 171.195C329.249 170.519 328.783 169.939 328.182 169.529C327.581 169.118 326.871 168.897 326.144 168.892C319.41 168.718 313.619 168.224 308.504 167.794C291.587 166.375 279.373 165.35 253.535 176.838C236.426 184.445 230.662 197.975 235.438 219.423C236.904 226.104 239.604 232.453 243.398 238.143C247.103 243.48 260.891 256.506 271.568 256.506ZM293.353 169.661C298.156 169.661 302.932 170.064 308.266 170.512C313.417 170.952 319.245 171.428 326.071 171.62C326.262 171.608 326.453 171.657 326.616 171.759C326.778 171.862 326.904 172.013 326.976 172.191C327.048 172.37 327.062 172.566 327.016 172.753C326.97 172.939 326.867 173.107 326.72 173.231C326.657 173.294 326.586 173.349 326.51 173.396C322.914 175.474 318.532 176.435 314.296 177.369L313.042 177.643C281.34 184.692 267.296 200.712 271.431 225.245C271.953 228.376 273.883 231.515 275.75 234.564C278.44 238.93 280.974 243.059 279.684 246.922C278.33 250.986 276.106 253.183 272.886 253.65C263.792 254.959 249.491 242.088 245.658 236.55C242.082 231.141 239.526 225.122 238.119 218.791C233.626 198.57 238.722 186.386 254.651 179.31C271.98 171.62 282.749 169.661 293.353 169.661Z" fill="#221F1A" fill-opacity="0.1"/>
<path d="M311.935 12.9612C313.893 16.2658 315.924 19.6894 315.924 23.9461C315.924 27.2874 314.524 30.2807 313.179 33.1826C312.054 35.3112 311.226 37.5844 310.718 39.9383C309.666 46.3462 313.463 51.8387 316.775 55.3813C326.894 66.0458 347.8 74.0465 361.515 72.5086C368.423 71.7305 372.97 69.4145 375.413 65.4416C380.189 57.6881 376.053 44.7991 371.808 33.3291C371.168 31.6081 370.545 29.7223 369.887 27.7267C367.59 20.7971 364.992 12.9337 360.737 8.57637C360.28 8.11866 359.731 7.58772 359.109 6.99271C357.8 5.72029 356.218 4.19155 354.653 2.48889L358.395 2.48889C359.31 3.4043 360.225 4.26478 360.966 5.01542C361.597 5.62875 362.165 6.17799 362.631 6.64485C367.389 11.4599 370.097 19.6437 372.485 26.8663C373.135 28.8435 373.748 30.7018 374.37 32.3587C378.844 44.4513 383.19 58.0726 377.7 66.8788C374.818 71.5566 369.466 74.3669 361.762 75.2365C360.513 75.3745 359.258 75.4418 358.002 75.4379C343.747 75.4379 324.47 67.5288 314.726 57.267C309.318 51.5732 306.976 45.4308 307.955 39.4989C308.501 36.8947 309.404 34.3781 310.636 32.02C311.917 29.2738 313.134 26.6832 313.134 23.9461C313.134 20.4401 311.386 17.5382 309.529 14.3618C307.525 10.9747 305.311 7.2124 305.476 2.46143L308.221 2.46143C308.083 6.43431 309.995 9.61993 311.935 12.9612Z" fill="#221F1A" fill-opacity="0.1"/>
<path d="M411.443 13.1168C408.186 15.4969 403.904 16.037 398.725 14.7279C394.352 13.6203 389.466 8.63129 383.922 2.48889H387.645C392.083 7.3131 396.182 11.2494 399.393 12.0641C403.812 13.1809 407.216 12.7964 409.823 10.9015C412.239 9.12561 413.812 6.15053 414.883 2.48889H417.765C416.557 6.9744 414.636 10.7825 411.443 13.1168Z" fill="#221F1A" fill-opacity="0.1"/>
<path d="M284.377 22.692C285.219 28.276 286.537 35.5077 289.3 41.9156C294.087 52.7661 300.306 62.926 307.79 72.1241C311.45 76.6188 316.51 80.5459 321.432 84.354C322.777 85.3884 324.094 86.4045 325.348 87.4206C329.794 91.0266 334.9 93.7316 340.38 95.3847C370.381 104.456 384.169 80.1706 397.499 56.6812C407.701 38.7208 417.335 21.7125 433.675 19.7078C441.91 18.6825 450.08 19.6437 458.214 21.447V24.2665C450.135 22.4357 442.02 21.4287 434.014 22.4357C419.037 24.2665 409.732 40.689 399.887 58.036C388.588 77.9462 375.998 100.145 352.521 100.145C348.126 100.101 343.762 99.4132 339.566 98.1035C333.747 96.3558 328.326 93.4855 323.61 89.6543C322.365 88.6565 321.057 87.6495 319.73 86.6151C314.68 82.7154 309.465 78.6876 305.631 73.9458C297.987 64.5335 291.636 54.1398 286.747 43.0416C283.856 36.3041 282.502 28.8435 281.642 23.0948C280.48 16.2809 280.406 9.32594 281.422 2.48889L284.167 2.48889C283.197 8.10035 283.161 14.7188 284.377 22.692Z" fill="#221F1A" fill-opacity="0.1"/>
<path d="M0.74957 291.759C4.16522 291.498 7.59396 291.456 11.0151 291.63C29.46 292.72 46.0202 301.7 62.0406 310.341C73.6053 316.594 85.5726 323.066 98.0065 326.379C128.647 334.563 153.204 324.96 169.005 298.606C174.028 290.239 177.514 283.639 176.699 274.723C175.538 261.907 170.881 250.922 165.949 239.342C163.497 233.575 160.963 227.607 158.895 221.391C156.05 212.841 155.62 204.648 155.162 195.97C155.016 193.224 154.869 190.294 154.622 187.42C154.201 182.285 152.573 177.085 150.963 172.059C149.659 168.177 148.596 164.218 147.779 160.205C145.263 146.382 152.179 121.849 161.75 110.69C173.827 96.5839 191.32 90.4964 213.736 92.5927C236.518 94.7256 257.213 104.649 267.524 110.379C282.849 118.902 309.977 131.434 319.392 119.661C319.967 118.96 320.387 118.144 320.623 117.269C320.86 116.393 320.908 115.477 320.764 114.581C319.968 108.265 312.081 100.85 307.553 97.4261C304.021 94.7805 300.233 92.1442 296.573 89.5993C278.677 77.1681 260.178 64.3065 256.564 40.7988C254.304 26.079 255.877 14.4167 260.443 2.5255H263.407C258.705 14.3618 257.003 25.8502 259.281 40.3777C262.749 62.6863 280.718 75.1999 298.175 87.3108C301.834 89.8648 305.668 92.5195 309.236 95.1925C310.581 96.2086 322.393 105.262 323.527 114.196C323.716 115.457 323.639 116.744 323.302 117.973C322.965 119.203 322.375 120.349 321.569 121.337C316.537 127.635 307.104 128.797 293.518 124.788C285.549 122.435 276.372 118.38 266.225 112.741C256.079 107.102 235.804 97.3712 213.516 95.2932C192.043 93.2793 175.336 99.0555 163.863 112.439C154.897 122.902 148.163 146.748 150.514 159.674C151.314 163.575 152.35 167.424 153.616 171.199C155.235 176.371 156.91 181.717 157.358 187.155C157.605 190.075 157.76 192.986 157.907 195.796C158.346 204.282 158.767 212.273 161.503 220.512C163.534 226.618 166.077 232.531 168.474 238.244C173.269 249.54 178.237 261.22 179.453 274.457C180.368 284.179 176.498 291.475 171.384 299.997C158.694 321.152 140.633 331.972 118.437 331.972C111.299 331.913 104.2 330.919 97.3203 329.016C84.5662 325.62 72.4617 319.065 60.7231 312.74C44.968 304.217 28.7006 295.402 10.8412 294.358C7.48721 294.185 4.12555 294.228 0.777005 294.486L0.74957 291.759Z" fill="#221F1A" fill-opacity="0.1"/>
<path d="M0.74957 246.281C15.1571 251.104 29.1169 257.175 42.4703 264.424C47.2086 267.091 51.763 270.073 56.1027 273.35C60.7963 276.727 65.6454 280.224 70.8239 282.815C87.2377 291.054 117.01 291.054 130.788 278.805C149.526 262.136 144.064 241.64 138.785 221.812C136.772 214.269 133.396 204.886 129.809 194.945C117.494 160.745 102.16 118.178 118.995 92.9131C137.742 64.7826 179.069 66.3113 211.494 77.1223C214.074 77.9828 217.277 79.4291 220.643 80.967C231.119 85.6997 245.438 92.1991 253.343 86.2672C255.713 84.4913 257.003 82.6056 257.296 80.5734C257.863 76.5273 254.487 72.0601 251.23 67.7576C249.949 66.0733 248.741 64.4713 247.744 62.8693C246.408 60.7364 244.999 58.5852 243.535 56.3059C234.157 41.8149 223.516 25.4016 225.465 7.78911C225.67 5.9994 226.01 4.22766 226.481 2.48889L229.326 2.48889C228.793 4.32773 228.413 6.20774 228.192 8.10951C226.362 24.715 236.71 40.689 245.841 54.7954C247.323 57.084 248.723 59.2443 250.068 61.3955C250.983 62.8968 252.181 64.4439 253.416 66.0916C257.021 70.8517 260.736 75.7766 260.013 80.9579C259.619 83.7041 257.927 86.2581 254.99 88.4642C245.841 95.3664 231.202 88.7663 219.527 83.4661C216.206 81.9648 213.077 80.5459 210.634 79.7312C179.17 69.2406 139.169 67.5929 121.282 94.4418C105.216 118.554 120.285 160.397 132.399 194.011C135.994 204.007 139.398 213.454 141.438 221.107C146.928 241.731 152.619 263.07 132.609 280.856C125.656 287.044 114.658 290.733 101.666 291.246C100.66 291.246 99.6533 291.31 98.6469 291.31C87.9423 291.31 77.2742 289.104 69.5979 285.268C64.2182 282.577 59.2776 279.016 54.5016 275.574C50.2581 272.373 45.8079 269.456 41.1803 266.841C28.2262 259.82 14.701 253.91 0.74957 249.174V246.281Z" fill="#221F1A" fill-opacity="0.1"/>
<path d="M0.74957 2.48889H0.969052C0.969052 6.15053 3.0368 9.72063 7.05334 13.2358C25.4526 29.3104 50.3295 26.6008 74.4104 23.9736C86.1672 22.692 98.3175 21.3646 109.287 22.3624C118.922 23.2779 127.165 27.7084 135.143 32.02C143.122 36.3316 150.468 40.3228 159.243 41.2931C170.707 42.5747 183.031 41.5952 192.18 38.6934C204.669 34.7296 211.65 27.5162 212.931 17.2453C213.553 12.2929 212.601 7.48703 211.412 2.48889H214.23C215.373 7.38633 216.307 12.4119 215.657 17.5932C213.013 38.9314 188.731 44.5978 169.435 44.5978C165.929 44.5977 162.426 44.4083 158.941 44.0302C149.636 42.9958 141.603 38.6476 133.835 34.4367C125.747 30.061 118.107 25.9234 109.04 25.0995C98.3449 24.1292 86.8625 25.3741 74.7123 26.7015C50.0092 29.3928 24.5193 32.1939 5.24179 15.2955C3.52407 13.8312 2.01288 12.1406 0.749478 10.2699L0.74957 2.48889Z" fill="#221F1A" fill-opacity="0.1"/>
<path d="M117.988 2.48889C119.599 3.01982 121.255 3.56907 122.957 4.15493C137.147 8.95168 153.232 14.3984 165.958 6.77301C167.85 5.69869 169.496 4.23923 170.789 2.48889H174.064C172.491 5.29234 170.161 7.59563 167.34 9.13477C162.444 11.9988 156.852 13.453 151.182 13.3365C141.52 13.3365 131.41 9.91286 122.078 6.7547C119.141 5.7569 116.36 4.81403 113.688 4.00847C111.407 3.34607 109.084 2.83839 106.735 2.48889L117.988 2.48889Z" fill="#221F1A" fill-opacity="0.1"/>
<path d="M0.749478 68.3984C0.85925 68.7646 0.987362 69.1399 1.09716 69.5152C4.55557 81.6353 4.03405 95.1467 0.749478 108.539V68.3984Z" fill="#221F1A" fill-opacity="0.1"/>
<path d="M0.74957 233.355L2.15857 233.731C8.56305 235.488 14.3271 238.848 19.8624 242.088C22.6072 243.672 25.352 245.32 28.2066 246.729C44.5655 254.913 82.8187 264.754 97.1373 250.391C129.846 217.702 109.516 166.869 94.6761 129.731C93.6057 126.985 92.2424 124.357 90.806 121.492C87.9697 115.899 85.042 110.114 84.2734 103.98C82.8827 92.849 91.9679 86.5876 99.9827 81.0128C109.251 74.6049 117.257 69.1124 111.493 57.5325C109.965 54.4659 107.549 51.5823 105.207 48.7812C104.475 47.8658 103.743 47.0327 103.048 46.1631C99.6259 41.879 93.3129 42.8402 87.7501 43.6823C86.7803 43.8288 85.8471 43.9753 84.9504 44.0851C72.7727 45.6139 44.2453 51.0514 42.2873 68.6822C40.8417 81.6536 46.9351 91.1647 53.3762 101.225C56.0091 105.194 58.4339 109.298 60.6408 113.519C62.6902 117.666 64.6939 121.492 66.6244 125.154C79.4975 149.513 87.9972 165.606 70.0462 197.032C65.7735 204.52 56.5785 217.684 43.0284 221.748C31.8663 225.098 16.1935 223.139 0.740384 217.171V214.15C15.9557 220.201 31.5644 222.334 42.2416 219.13C54.8767 215.34 63.596 202.808 67.6674 195.677C84.8681 165.56 77.0912 150.822 64.1999 126.445C62.2511 122.783 60.2382 118.938 58.1705 114.81C56.0184 110.668 53.6485 106.644 51.0706 102.754C44.6661 92.6843 38.0237 82.3584 39.57 68.4259C41.7384 48.8544 71.7938 43.0141 84.6119 41.4121C85.5268 41.3023 86.4418 41.1558 87.3567 41.0185C93.3403 40.1031 100.797 38.968 105.216 44.4971C105.893 45.3484 106.607 46.1997 107.33 47.0694C109.891 49.8969 112.117 53.0117 113.963 56.3516C120.797 70.0187 111.017 76.7836 101.566 83.3196C93.4776 88.9219 85.8288 94.2038 87.0182 103.687C87.7227 109.345 90.5407 114.91 93.2763 120.293C94.6761 123.039 96.1217 125.923 97.2471 128.724C112.371 166.558 133.085 218.361 99.0769 252.368C93.1848 258.273 83.8708 260.488 73.6236 260.488C56.9536 260.488 37.8225 254.611 26.9622 249.192C24.0528 247.736 21.2074 246.07 18.4626 244.459C13.0828 241.301 7.48346 238.051 1.41748 236.385L0.731259 236.193L0.74957 233.355Z" fill="#221F1A" fill-opacity="0.1"/>
<path d="M0.749447 430.086C4.28106 430.864 7.80355 431.615 11.2711 432.347C27.7856 435.853 43.376 439.167 53.8153 444.394C61.6467 448.305 68.6661 453.667 74.5018 460.194H70.714C65.4772 454.744 59.3472 450.23 52.5893 446.847C42.4611 441.785 27.0353 438.508 10.7039 435.039C7.41928 434.343 4.08892 433.629 0.749447 432.896V430.086Z" fill="#221F1A" fill-opacity="0.1"/>
<path d="M176.26 450.399C179.417 434.617 195.218 430.086 209.198 426.095C219.664 423.092 229.555 420.264 232.135 413.224C234.276 407.411 231.476 398.816 223.571 386.952C219.956 381.377 214.897 376.887 208.932 373.962C201.101 370.044 194.165 364.241 187.743 356.213C185.73 353.704 184.312 350.519 182.939 347.443C179.673 340.12 176.535 333.126 165.748 333.126C164.126 333.136 162.508 333.27 160.908 333.529C152.673 334.792 148.391 338.71 143.844 342.857C136.937 349.164 129.791 355.672 109.013 352.221C87.8232 348.688 65.0964 338.545 44.968 329.602L41.4181 328.018C37.1865 326.032 33.0744 323.801 29.1031 321.335C22.5248 317.427 15.7177 313.371 8.05978 311.852C5.5986 311.357 3.13742 310.991 0.740323 310.744V307.998C3.35702 308.263 5.99203 308.648 8.6362 309.179C16.7241 310.79 23.7325 314.964 30.5121 318.992C34.3914 321.404 38.4087 323.587 42.5434 325.528L46.1025 327.112C66.0205 335.991 88.6101 346.061 109.461 349.53C128.904 352.78 135.262 346.985 141.987 340.843C146.635 336.604 151.438 332.229 160.478 330.828C177.367 328.219 181.658 337.849 185.437 346.344C186.575 349.241 188.065 351.987 189.874 354.519C196.05 362.227 202.683 367.793 210.149 371.527C216.522 374.678 221.934 379.479 225.822 385.432C234.367 398.248 237.185 407.402 234.688 414.176C231.623 422.516 221.083 425.537 209.93 428.731C196.096 432.695 181.786 436.796 178.959 450.939C178.352 453.994 177.945 457.086 177.742 460.194H174.998C175.204 456.905 175.626 453.633 176.26 450.399Z" fill="#221F1A" fill-opacity="0.1"/>
<path d="M0.749631 405.443C3.61337 406.661 6.44052 407.887 9.22189 409.105C26.9898 416.822 43.7696 424.109 63.5412 428.072C74.1086 430.187 86.4144 432.283 88.4638 432.082C95.4173 427.276 104.933 410.716 106.762 403.292C110.706 387.52 95.5454 376.443 83.3585 367.545C81.2999 366.035 79.3512 364.616 77.5579 363.215C70.7966 357.961 63.6693 357.064 56.1211 356.112C51.3659 355.667 46.6672 354.747 42.0953 353.366C36.3978 351.296 30.8442 348.849 25.471 346.042C18.8378 342.765 11.985 339.378 5.2145 337.685C3.75976 337.318 2.25927 337.044 0.740475 336.815V334.069C2.47039 334.309 4.18664 334.639 5.88238 335.057C12.9365 336.824 19.9265 340.275 26.6879 343.616C31.9487 346.364 37.3862 348.758 42.9645 350.784C47.3666 352.114 51.8905 353 56.4688 353.43C64.0536 354.391 71.8853 355.38 79.2414 361.101C80.998 362.465 82.9011 363.847 84.978 365.376C97.787 374.759 113.817 386.43 109.425 404.006C107.412 412.08 97.6131 429.317 89.8088 434.526C89.6441 434.636 89.3788 434.81 88.1436 434.81C85.719 434.81 79.525 434.114 63.0014 430.809C42.937 426.791 26.0291 419.449 8.10568 411.668L0.722195 408.482L0.749631 405.443Z" fill="#221F1A" fill-opacity="0.1"/>
<path d="M0.749539 385.854C4.07071 387.126 7.35531 388.444 10.6125 389.744C24.2174 395.236 38.2982 400.866 53.2298 402.221C63.4313 403.136 69.5705 401.946 70.0828 398.926C71.1716 392.518 51.8483 378.063 40.4483 375.207C29.5424 372.461 17.9685 369.367 7.20892 365.065C5.5895 364.415 3.36624 363.609 0.749539 362.721V359.856C4.13476 360.982 6.78808 361.934 8.22451 362.511C18.8377 366.758 30.3017 369.834 41.1162 372.58C51.9306 375.326 74.319 390.385 72.7819 399.42C71.9493 404.354 65.2337 405.352 59.5612 405.352C56.8896 405.352 54.4558 405.132 52.9828 404.995C37.6486 403.603 23.3849 397.873 9.58773 392.335C6.66912 391.163 3.72305 389.982 0.749539 388.829V385.854Z" fill="#221F1A" fill-opacity="0.1"/>
<path d="M31.7016 460.194H31.8572C33.306 459.851 34.8166 459.866 36.258 460.24L31.7016 460.194Z" fill="#221F1A" fill-opacity="0.1"/>
<path d="M0.749539 452.267C3.77176 454.054 6.14395 456.761 7.51999 459.993C7.54547 460.058 7.56686 460.126 7.58404 460.194H4.60138C3.67938 458.397 2.36248 456.832 0.749539 455.617V452.267Z" fill="#221F1A" fill-opacity="0.1"/>
<path d="M114.933 424.374C122.078 419.019 126.506 413.801 130.221 406.359C133.46 399.878 135.18 392.966 136.845 386.284C138.968 377.734 141.173 368.891 146.562 360.799C148.812 357.421 152.344 355.471 157.065 354.995C165.62 354.153 175.107 358.446 176.69 360.03C179.636 362.977 182.381 365.385 184.806 367.509C191.979 373.807 197.157 378.356 200.021 389.817C202.272 398.807 191.311 405.242 179.71 412.053C169.773 417.893 159.499 423.953 158.017 431.349C157.202 435.158 158.117 443.717 159.032 453.585C159.243 455.718 159.462 457.933 159.673 460.194H156.928C156.727 458.024 156.516 455.901 156.315 453.85C155.281 443.332 154.485 435.02 155.299 430.809C157.028 422.177 167.843 415.833 178.301 409.682C188.996 403.411 199.088 397.479 197.34 390.458C194.687 379.83 190.021 375.738 182.976 369.55C180.524 367.399 177.742 364.973 174.742 361.943C173.717 360.918 166.278 357.613 159.298 357.613C158.63 357.613 157.971 357.613 157.321 357.705C153.469 358.089 150.606 359.636 148.831 362.282C143.707 369.971 141.667 378.192 139.498 386.897C137.797 393.726 136.049 400.784 132.673 407.54C128.748 415.394 124.082 420.895 116.579 426.525C108.665 432.457 110.065 447.525 112.243 460.148H109.498C107.22 446.957 105.921 431.139 114.933 424.374Z" fill="#221F1A" fill-opacity="0.1"/>
<path d="M189.033 304.409C200.863 296.519 218.905 307.156 236.353 317.372C246.179 323.148 255.466 328.595 262.41 329.858C280.818 333.208 297.534 332.275 316.949 329.858C320.975 329.354 325.568 327.597 330.417 325.739C338.971 322.461 347.8 319.084 355.568 321.674C364.278 324.576 366.666 341.813 368.578 355.654C369.493 361.952 370.28 367.912 371.497 370.411C372.009 370.996 374.946 372.553 377.773 374.072C391.159 381.203 419.009 396.042 428.79 422.397C432.111 431.34 435.075 442.453 428.47 449.053C420.235 457.292 403.3 449.237 393.181 444.431C391.534 443.643 390.107 442.966 388.945 442.472C367.389 433.226 337.37 424.365 316.821 434.645C306.519 439.799 296.125 449.969 288.385 460.212H284.917C292.996 449.063 304.213 437.885 315.595 432.192C322.53 428.722 330.435 427.312 338.706 427.312C356.09 427.312 375.065 433.528 390.024 439.945C391.232 440.458 392.678 441.153 394.361 441.95C403.831 446.445 419.677 453.969 426.53 447.113C432.019 441.62 429.275 431.551 426.219 423.358C416.795 397.946 389.594 383.455 376.483 376.48C371.287 373.733 369.612 372.818 369.063 371.683C367.636 368.818 366.813 362.886 365.861 356.02C364.141 343.617 361.79 326.627 354.699 324.265C347.874 321.985 339.502 325.18 331.405 328.293C326.382 330.215 321.652 332.027 317.297 332.577C297.616 335.03 280.699 335.973 261.916 332.577C254.496 331.231 245.008 325.656 234.962 319.761C219.024 310.396 200.954 299.778 190.561 306.707C181.988 312.428 188.347 324.704 192.555 332.824C192.994 333.666 193.406 334.462 193.772 335.195C199.207 346.07 215.227 365.989 226.993 371.216L228.631 371.939C239.958 376.937 258.906 385.304 260.772 398.395C263.261 415.787 247.451 428.191 230.717 441.291C222.977 447.342 215.163 453.484 209.161 460.212H205.501C211.842 452.569 220.543 445.758 229.015 439.158C245.109 426.571 260.306 414.68 258.046 398.825C256.39 387.236 237.606 378.942 227.515 374.493L225.868 373.761C213.379 368.204 197.057 347.956 191.311 336.458L190.112 334.124C185.739 325.629 178.42 311.495 189.033 304.409Z" fill="#221F1A" fill-opacity="0.1"/>
<path d="M249.802 451.379C253.636 446.005 257.039 440.055 260.333 434.297C262.382 430.718 264.505 426.974 266.738 423.495C270.672 417.197 272.428 409.947 274.121 402.926C276.006 395.182 277.945 387.172 282.813 380.352C289.556 370.896 298.531 366.621 307.205 362.41C312.466 359.874 317.919 357.247 322.951 353.475C324.579 352.249 326.373 349.869 328.267 347.351C333.024 341.017 338.953 333.135 347.288 337.282C351.606 339.442 354.232 342.097 355.312 345.402C357.142 350.894 354.04 356.862 351.341 362.108C349.237 366.181 347.251 370.044 348.358 372.269C350.307 376.168 356.172 378.008 361.35 379.592C363.749 380.265 366.092 381.122 368.359 382.155C372.988 384.471 413.492 405.306 409.357 423.147C409.223 423.925 408.889 424.655 408.387 425.264C407.884 425.872 407.231 426.339 406.493 426.617C400.894 428.686 389.228 420.603 376.749 411.412C374.545 409.688 372.252 408.084 369.877 406.606C352.805 398.074 327.882 392.975 313.509 401.965C286.692 418.735 280.333 430.617 270.708 448.596C268.787 452.184 266.738 456.011 264.386 460.139H261.221C263.892 455.507 266.17 451.26 268.293 447.323C277.772 429.61 284.615 416.813 312.054 399.649C318.102 395.877 325.357 394.422 332.841 394.422C347.087 394.422 362.119 399.685 371.103 404.171C373.642 405.704 376.086 407.388 378.423 409.215C386.282 415.009 400.912 425.784 405.587 424.054C405.897 423.93 406.168 423.724 406.369 423.458C406.571 423.192 406.696 422.875 406.731 422.543C409.704 409.727 382.156 392.124 367.178 384.627C365.038 383.668 362.83 382.866 360.573 382.228C354.882 380.443 348.422 378.42 345.934 373.477C344.195 370.008 346.492 365.55 348.926 360.826C351.359 356.103 354.168 350.665 352.723 346.235C351.89 343.671 349.712 341.539 346.089 339.726C340.252 336.797 335.943 341.712 330.481 348.963C328.468 351.645 326.565 354.18 324.625 355.636C319.383 359.572 313.811 362.254 308.422 364.845C299.675 369.056 291.413 373.029 285.073 381.908C280.498 388.316 278.723 395.703 276.838 403.539C275.091 410.771 273.279 418.241 269.107 424.914C266.939 428.383 264.834 432.063 262.803 435.624C259.473 441.437 256.033 447.452 252.117 452.935C250.197 455.483 248.084 457.88 245.795 460.102L245.74 460.157H241.916C242.547 459.489 243.196 458.83 243.828 458.18C245.986 456.065 247.983 453.792 249.802 451.379Z" fill="#221F1A" fill-opacity="0.1"/>
<path d="M383.903 457.246C387.708 457.672 391.427 458.666 394.937 460.194H385.404C384.827 460.102 384.251 460.02 383.684 459.983C378.338 459.589 372.969 459.659 367.636 460.194H351.423C362.027 457.503 372.989 456.508 383.903 457.246Z" fill="#221F1A" fill-opacity="0.1"/>
<path d="M393.355 312.996C396.246 311.44 398.972 309.966 401.406 308.501C406.521 305.308 411.412 301.77 416.045 297.91C427.372 288.893 438.085 280.371 458.214 281.689V284.435C439 283.135 429.156 290.98 417.765 300.061C413.033 303.994 408.041 307.603 402.824 310.863C400.326 312.355 397.572 313.838 394.654 315.44C387.828 319.102 380.765 322.928 376.52 327.176C375.706 327.99 375.87 331.295 375.953 332.888C375.953 333.483 376.008 334.023 376.008 334.453C376.008 345.887 379.036 355.92 393.812 367.756C396.557 369.953 399.896 371.216 403.428 372.543C407.261 373.999 411.232 375.5 414.471 378.329C438.726 399.539 464.518 430.718 452.212 460.194H449.211C461.974 431.908 436.521 401.26 412.614 380.37C409.759 377.862 406.209 376.516 402.412 375.088C398.835 373.733 395.093 372.342 392.055 369.87C380.747 360.817 373.217 351.333 373.217 334.426C373.217 334.032 373.217 333.51 373.162 332.998C373.025 330.252 372.86 326.883 374.534 325.208C379.109 320.676 386.346 316.777 393.355 312.996Z" fill="#221F1A" fill-opacity="0.1"/>
<path d="M458.214 386.439V389.524C457.604 389.89 457.039 390.326 456.53 390.824C455.853 391.511 455.615 393.058 456 395.172C456.462 397.603 457.205 399.971 458.214 402.23V408.537C455.853 404.134 453.895 399.338 453.292 395.612C452.788 392.509 453.228 390.248 454.591 388.884C455.642 387.858 456.869 387.03 458.214 386.439Z" fill="#221F1A" fill-opacity="0.1"/>
<path d="M427.921 324.787C429.75 321.692 431.635 318.489 435.331 316.273C440.748 313.024 448.79 311.184 458.205 310.982V313.728C449.915 313.93 442.029 315.44 436.731 318.617C433.639 320.447 432.01 323.194 430.281 326.178C429.319 327.902 428.233 329.554 427.033 331.121C420.153 339.726 417.701 346.683 419.714 351.809C423.575 361.421 442.367 364.241 458.141 366.337V369.083C441.553 366.877 421.617 363.948 417.143 352.807C414.654 346.61 417.143 338.948 424.819 329.373C425.961 327.92 426.998 326.387 427.921 324.787Z" fill="#221F1A" fill-opacity="0.1"/>
<path d="M221.247 133.887C223.15 133.182 224.907 132.386 226.627 131.617C230.781 129.74 234.706 127.955 240.003 127.497C253.59 126.261 270.196 128.843 287.735 131.571C318.184 136.313 349.676 141.201 372.421 128.202C389.054 118.691 397.216 101.994 405.111 85.8553C412.797 70.156 420.043 55.3264 434.389 46.7032C441.059 42.6937 449.449 41.2107 458.177 41.4487V44.195C450.629 44.0027 442.422 45.1104 435.752 49.065C422.083 57.3037 415.002 71.7488 407.509 87.0728C399.43 103.55 391.04 120.659 373.711 130.591C350.124 144.075 316.72 138.83 287.241 134.253C269.858 131.507 253.389 128.989 240.177 130.198C235.337 130.637 231.613 132.312 227.679 134.079C225.932 134.866 224.12 135.681 222.144 136.423C203.168 143.544 192.583 150.401 186.736 159.363C180.259 169.295 179.124 182.495 183.077 202.176C185.144 212.493 189.225 220.631 193.543 229.245C196.505 234.885 199.135 240.692 201.421 246.638C202.842 250.804 204.042 255.042 205.017 259.335C207.194 268.178 209.445 277.313 215.355 284.051C232.583 303.76 258.284 314.982 289.675 316.52C316.409 317.82 346.4 311.806 371.945 300.043C381.36 295.741 390.326 289.928 398.972 284.27C410.638 276.673 422.632 268.818 436.256 264.296C442.66 262.154 450.089 261.477 458.214 262.246V264.992C450.345 264.223 443.218 264.855 437.097 266.896C423.84 271.317 411.955 279.071 400.5 286.568C391.744 292.262 382.732 298.166 373.126 302.597C349.219 313.538 323.273 319.309 296.985 319.532C294.484 319.532 292.011 319.471 289.565 319.349C257.414 317.784 231.01 306.231 213.315 285.946C206.965 278.696 204.632 269.221 202.382 260.067C201.431 255.87 200.258 251.727 198.868 247.654C196.621 241.796 194.033 236.074 191.119 230.518C186.91 222.114 182.546 213.436 180.414 202.753C176.324 182.312 177.587 168.48 184.486 157.898C190.67 148.405 201.65 141.228 221.247 133.887Z" fill="#221F1A" fill-opacity="0.1"/>
<path d="M262.684 152.616C274.514 149.659 286.381 151.536 297.863 153.349C301.294 153.889 304.835 154.447 308.294 154.868C311.194 155.216 314.113 155.582 317.04 155.948C340.6 158.905 364.955 161.962 388.039 156.717C406.63 152.515 428.717 136.725 433.511 117.62C434.773 112.567 434.609 106.635 434.426 100.227C434.051 86.7524 433.621 71.4742 449.394 65.5515C452.226 64.5463 455.209 64.0354 458.214 64.0411V66.7873C455.532 66.7834 452.87 67.2449 450.345 68.1513C436.411 73.3874 436.777 86.3954 437.161 100.191C437.335 106.425 437.509 112.86 436.155 118.288C433.154 130.289 424.471 139.343 417.71 144.835C409.1 151.847 398.496 157.147 388.643 159.39C365.092 164.745 340.49 161.66 316.702 158.676C313.774 158.301 310.855 157.944 307.973 157.596C304.46 157.175 300.892 156.607 297.433 156.058C286.226 154.291 274.633 152.461 263.352 155.28C251.705 158.191 239.683 165.771 231.193 175.556C221.87 186.285 217.633 198.442 219.299 209.838C221.851 227.753 231.952 243.416 249.327 256.378C280.434 279.565 326.181 287.319 355.367 282.998C368.551 281.067 380.857 274.842 392.769 268.873C397.243 266.612 401.918 264.296 406.493 262.2C413.675 258.969 420.08 253.046 426.868 246.803C436.256 238.042 445.99 229.108 458.214 227.497V230.298C446.924 231.982 437.692 240.496 428.698 248.734C422.056 254.867 415.176 261.211 407.591 264.626C403.016 266.667 398.442 268.992 394.004 271.244C381.9 277.359 369.393 283.685 355.733 285.708C325.988 290.111 279.318 282.211 247.643 258.575C229.921 245.347 219.17 228.623 216.535 210.214C214.806 198.039 219.28 185.086 229.116 173.744C237.963 163.601 250.525 155.692 262.684 152.616Z" fill="#221F1A" fill-opacity="0.1"/>
<path d="M329.932 184.161C335.742 181.836 341.826 179.584 347.69 177.415C359.402 173.066 371.57 168.572 382.275 163.235C385.678 161.532 390.143 161.706 394.462 161.88C396.9 162.068 399.351 162.022 401.781 161.743C408.076 160.69 415.789 156.406 421.809 152.799C432.422 146.391 445.304 131.031 447.592 117.272C448.095 114.279 448.36 111.084 448.653 107.706C449.485 97.6916 450.437 86.4961 458.214 80.134V83.9604C452.916 89.8099 452.13 98.9914 451.37 107.953C451.077 111.386 450.794 114.627 450.281 117.73C447.857 132.267 434.343 148.479 423.2 155.161C416.978 158.896 408.972 163.336 402.211 164.462C399.591 164.775 396.947 164.833 394.315 164.636C390.344 164.48 386.236 164.315 383.464 165.697C372.668 171.098 360.454 175.62 348.642 179.996C342.786 182.166 336.748 184.408 330.947 186.724C319.675 191.237 300.315 207.202 303.499 221.629C305.695 231.534 314.168 238.427 320.883 242.455C329.095 247.254 338.12 250.497 347.508 252.021C372.11 255.81 410.912 235.058 439.238 219.917C445.039 216.814 450.51 213.894 455.149 211.569C456.183 211.047 457.207 210.543 458.214 210.049V213.116L456.384 214.031C451.809 216.338 446.32 219.258 440.547 222.343C414.252 236.404 379.054 255.224 353.72 255.224C351.506 255.233 349.294 255.071 347.105 254.739C330.856 252.24 305.137 241.521 300.855 222.224C297.26 206.067 317.553 189.114 329.932 184.161Z" fill="#221F1A" fill-opacity="0.1"/>
<path d="M390.454 176.417L392.284 175.932L397.975 174.412C414.169 170.11 436.347 164.224 447.381 154.786C451.443 151.234 455.341 145.11 458.214 138.775V144.918C455.588 149.669 452.45 153.98 449.065 156.818C437.582 166.659 415.057 172.645 398.606 177.012C396.603 177.543 394.7 178.046 392.934 178.531L391.104 179.017C381.424 181.598 373.061 183.832 375.212 195.659C376.126 200.446 379.027 204.639 383.73 207.788C390.82 212.539 401.635 214.599 410.034 212.795C423.328 210.003 436.256 199.403 448.708 189.141C451.91 186.514 455.112 183.914 458.214 181.461V184.958C455.652 186.999 453.063 189.123 450.446 191.265C437.719 201.728 424.554 212.548 410.665 215.523C408.325 216.017 405.939 216.259 403.547 216.246C396.016 216.275 388.635 214.147 382.275 210.113C376.941 206.543 373.592 201.728 372.586 196.19C369.96 181.909 380.848 178.971 390.454 176.417Z" fill="#221F1A" fill-opacity="0.1"/>
</g>
</svg>
