<svg width="98" height="104" viewBox="0 0 98 104" fill="none" xmlns="http://www.w3.org/2000/svg">
<path d="M96.4757 70.1049C93.0483 66.8332 88.847 72.8527 79.1655 76.5308C71.3153 79.519 69.7029 79.6689 65.608 80.3427C62.4863 80.8543 54.1344 82.2245 50.2264 81.5609C54.0518 79.2775 57.4956 76.0046 60.5171 72.6706C65.4892 67.2766 67.3752 66.1349 67.6456 63.2957C67.9214 60.6404 66.308 58.167 63.3055 57.5023C56.499 55.9204 51.5046 63.0109 47.5858 65.8412C44.9414 67.7584 41.188 67.3088 38.6316 67.5361V67.5329C32.6897 67.8911 28.9858 70.9289 23.3887 72.1074C23.1746 71.1519 22.9615 70.196 22.7047 69.2465C22.0395 66.7743 19.6109 65.0327 17.0218 65.1807C10.9186 65.4513 11.8631 65.9732 6.92107 66.1746C4.0407 66.2945 1.5529 66.3973 0.487362 67.6763C0.0963546 68.1467 -0.0640986 68.7215 0.0231381 69.34C1.29291 78.3721 0.607456 84.8281 1.69777 91.4109C1.80682 92.0636 2.42994 92.506 3.07331 92.397C3.72602 92.2879 4.16688 91.6726 4.05939 91.0214C3.10654 85.2727 3.59471 77.6579 2.41124 69.1453C3.46566 68.4844 8.51292 68.6774 10.652 68.2636C12.4637 67.9131 14.6431 67.6809 17.1278 67.5703C18.5983 67.5329 20.0253 68.4941 20.396 69.8712C22.9742 79.4018 23.3169 89.2845 21.3977 98.5253C17.193 98.2938 13.0621 97.8842 8.8356 97.6857C8.24831 97.6436 7.61584 98.1639 7.58469 98.8244C7.55353 99.4834 8.06293 100.044 8.72344 100.075C8.74515 100.077 8.76667 100.078 8.78838 100.079L10.7073 101.898C12.363 103.467 13.8336 103.292 23.4206 103.279C24.546 103.278 25.4427 102.507 25.5008 101.447C25.6354 98.9981 25.7415 96.4873 25.8863 94.0609C37.8403 100.128 50.7045 102.492 62.587 100.782C74.6388 99.0476 85.639 93.1365 93.9226 83.9436C95.2242 82.4991 96.4812 80.9382 97.1657 78.9537C97.5993 77.6972 97.9364 75.7575 97.4877 74.2019C97.9639 72.4819 97.543 71.1255 96.4757 70.1049ZM35.6562 70.3822C40.3515 69.2026 43.9904 70.7849 48.5984 68.0283C52.1928 65.9064 54.6374 61.4993 59.4095 59.9714C59.5691 59.9714 63.2664 58.9106 64.7091 61.0011C64.7465 61.0541 64.8462 61.174 64.8914 61.2208C66.0047 64.3894 64.8617 64.4277 58.802 71.0006C58.7241 71.0723 58.6805 71.1283 58.6945 71.1283H58.6976C57.7767 71.8325 53.7306 77.1153 47.8693 80.1963C47.7614 80.2533 47.6795 80.3365 47.5972 80.4185C46.5111 80.3317 45.8978 81.6043 46.6075 82.4021C49.1062 85.2077 57.9265 84.03 65.9959 82.7028C67.9151 82.2324 69.4128 82.8005 80.016 78.7678C87.4483 75.9444 95.256 68.9841 95.2996 72.8918C95.3227 75.2361 91.258 78.7829 89.57 80.4331C85.3628 84.4389 80.9001 87.4884 75.8365 90.0073C59.1453 98.1776 43.0945 94.4132 24.9506 89.0286C25.1457 84.2014 24.7726 79.3048 23.866 74.4507C27.9354 73.5961 32.212 71.3383 35.6562 70.3822Z" fill="#221F1A"/>
<path d="M15.529 75.5429C18.5745 76.2903 20.074 72.6223 17.8969 70.8181C17.629 70.5954 17.2925 70.5035 16.9684 70.5533C16.3422 70.2433 15.6319 70.167 15.0103 70.3633C12.5528 71.1223 12.6138 74.831 15.529 75.5429ZM16.0992 72.6922V72.6953C16.1008 72.6922 16.0992 72.6922 16.0992 72.6922Z" fill="#221F1A"/>
<path d="M41.0538 36.4737C41.5729 36.4737 42.0843 36.3492 42.5566 36.136L47.3319 40.9251L47.2663 40.9305C46.6073 40.9851 46.1182 41.5614 46.1727 42.2204C46.2284 42.8972 46.8321 43.374 47.4625 43.314L50.4629 43.0663C51.1094 43.0133 51.5969 42.4541 51.5596 41.806L51.3913 38.8774C51.3524 38.2153 50.7729 37.7121 50.1279 37.7511C49.4674 37.79 48.9643 38.3555 49.0017 39.0144L49.0136 39.2232L44.2613 34.4573C44.7625 33.4297 44.7597 32.2125 44.2353 31.1885L50.0639 25.1621L50.0672 25.2918C50.0843 25.943 50.6171 26.4586 51.2636 26.4586H51.2932C51.9537 26.4415 52.4771 25.8931 52.46 25.2326L52.3836 22.2229C52.3665 21.5733 51.8368 21.0562 51.1872 21.0562H48.2539C47.5934 21.0562 47.0575 21.592 47.0575 22.2525C47.0575 22.913 47.5934 23.4489 48.2539 23.4489H48.392L42.5086 29.5317C41.797 29.2326 40.9903 29.1723 40.1861 29.4075C38.6143 29.8639 37.5409 31.2582 37.516 32.8783C37.4877 34.7103 39.0041 36.4737 41.0538 36.4737Z" fill="#221F1A"/>
<path d="M47 8.41561C44.7682 8.04447 42.4002 7.94126 40.0941 8.18233C33.8446 8.41912 28.2745 10.9957 23.5383 15.8498C21.4119 18.0307 19.7279 20.5528 18.5346 23.3475C17.4924 25.8182 16.8678 28.429 16.6793 31.1069C16.2415 37.1652 18.0205 42.8994 21.8262 47.6881C22.5898 48.6512 23.4573 49.5465 24.3764 50.3959C26.1224 53.0103 28.7669 55.1359 31.6467 56.5031C46.0211 63.3273 63.6399 54.4716 66.6832 37.999C68.0611 30.5406 65.9931 22.5575 61.2965 16.5742C57.6647 11.9477 52.8306 9.38456 47 8.41561ZM19.0608 34.062H22.4509C23.1114 34.062 23.6473 33.5261 23.6473 32.8656C23.6473 32.2051 23.1114 31.6692 22.4509 31.6692H19.0553C19.0625 31.5378 19.0563 31.4085 19.0658 31.2767C19.2372 28.8605 19.7995 26.5051 20.7373 24.2822C21.71 22.0043 23.0641 19.9373 24.7326 18.1032L26.2737 19.643C26.7392 20.1085 27.4963 20.1123 27.9655 19.643C28.4329 19.1757 28.4329 18.4186 27.9655 17.9513L26.4249 16.4118C30.3758 12.81 34.8973 10.8532 39.8967 10.5985V13.4539C39.8967 14.1144 40.4326 14.6503 41.0931 14.6503C41.7536 14.6503 42.2895 14.1144 42.2895 13.4539V10.6553C43.018 10.7266 43.7107 10.817 44.3582 10.9505C48.609 11.7668 52.6025 13.8426 55.7534 16.7471L54.9684 17.5322C54.501 17.9996 54.501 18.7567 54.9684 19.224C55.4359 19.6915 56.1928 19.6914 56.6602 19.224L57.4205 18.4638C58.5822 19.7836 59.5883 21.2252 60.3848 22.7695C61.8068 25.4996 62.5905 28.5626 62.7698 31.6692H60.5126C59.8521 31.6692 59.3162 32.2051 59.3162 32.8656C59.3162 33.5261 59.8521 34.062 60.5126 34.062H62.7967C62.6265 37.9811 61.4861 41.8526 59.4003 45.099C58.7075 46.1657 57.8863 47.1658 56.9948 48.1099L55.8283 46.9435C55.3609 46.4761 54.6039 46.4761 54.1365 46.9435C53.6692 47.4108 53.6692 48.1679 54.1365 48.6352L55.2629 49.7615C51.3325 53.1246 46.8966 54.7451 42.2895 54.9042V52.983C42.2895 51.4006 39.8967 51.3996 39.8967 52.983V54.8619C34.7336 54.4589 29.9586 52.181 26.3362 48.962L29.9097 46.3702C30.444 45.9823 30.5639 45.233 30.176 44.6987C29.785 44.1643 29.0388 44.046 28.5045 44.4323L24.7284 47.1709C24.6903 47.1985 24.6706 47.2394 24.6368 47.2706C24.3172 46.9187 23.9932 46.5696 23.7003 46.2004C20.865 42.6315 19.3 38.4776 19.0608 34.062Z" fill="#221F1A"/>
<path d="M11.9686 23.6855C12.6123 23.8947 13.2769 23.5418 13.4812 22.9269C17.2542 11.5892 28.6573 2.96526 40.5947 2.4247C52.1983 1.91297 64.0396 9.07261 69.0612 19.5788L68.1132 20.1727C66.8922 20.9371 67.0442 22.7457 68.3609 23.3085C69.7213 23.8888 71.6734 25.109 72.5747 25.5923C73.1972 25.9283 73.9887 25.6456 74.2509 24.9769C74.9066 23.3193 74.6817 21.1754 74.874 19.3221C75.0253 17.8461 73.4247 16.8474 72.1713 17.6304L71.1015 18.3006C65.5608 6.92421 53.2142 -0.578731 40.4857 0.0350422C27.3893 0.628563 15.3506 9.73078 11.21 22.1729C11.0012 22.7991 11.3408 23.4768 11.9686 23.6855Z" fill="#221F1A"/>
<path d="M69.8574 30.024C69.5178 30.7717 69.5069 31.5974 69.8279 32.2906C70.4864 33.7231 72.6652 32.7273 71.9994 31.2874C71.9776 31.2391 71.9807 31.1347 72.0368 31.0101C72.3851 30.2352 73.8642 30.7196 73.9887 33.2549C74.1274 36.0978 72.6584 38.9611 70.3357 40.3818C69.8092 40.7027 69.6129 41.371 69.8824 41.9256C70.1412 42.4569 70.7667 42.7435 71.3779 42.5238C73.4232 41.7604 75.64 41.4987 77.7898 41.7635C78.4285 41.8383 79.0438 41.3788 79.1248 40.7245C79.2058 40.0687 78.7416 39.4705 78.0857 39.3895C76.9594 39.2508 75.8191 39.2306 74.6897 39.3365C75.8534 37.5201 76.4843 35.3221 76.3784 33.138C76.1144 27.7608 71.2038 27.0346 69.8574 30.024Z" fill="#221F1A"/>
<path d="M81.1596 37.0358C82.263 36.5657 83.6606 36.0509 85.1152 35.8328C85.0129 37.1778 84.8612 38.5188 84.6288 39.8461C84.3528 41.4053 86.712 41.8179 86.9842 40.2605C87.5761 36.8816 87.7709 33.4295 87.5637 30.0008C87.5232 29.3418 86.9452 28.8371 86.2956 28.8792C85.6367 28.9197 85.1351 29.4867 85.174 30.1472C85.2401 31.2295 85.2477 32.3143 85.2288 33.3987C83.9989 33.5335 82.8251 33.848 81.7842 34.2193L81.4462 28.7359C81.3436 27.1248 78.9606 27.3216 79.0565 28.8823L79.4958 36.0077C79.549 36.8351 80.4012 37.3564 81.1596 37.0358Z" fill="#221F1A"/>
</svg>
