<svg width="376" height="367" viewBox="0 0 376 367" fill="none" xmlns="http://www.w3.org/2000/svg">
<mask id="mask0_1_9511" style="mask-type:alpha" maskUnits="userSpaceOnUse" x="0" y="0" width="376" height="367">
<path d="M81.4443 314.142L76.0744 366.947L375.897 366.947V41.1697L335.622 26.8498L306.087 10.7399L265.813 0L225.538 0L188.843 21.4798L170.049 45.6446L166.469 76.0744L188.843 141.409L199.583 187.948L188.843 226.433L166.469 239.858L122.614 244.333L59.9645 226.433H23.2698H5.36995L0 239.858L23.2698 256.863L81.4443 314.142Z" fill="white"/>
</mask>
<g mask="url(#mask0_1_9511)">
<path d="M84.66 -46.384C68.8896 -46.384 64.1584 -36.5672 58.7087 -17.7526C58.3683 -16.4524 58.2875 -15.0979 58.4707 -13.7665C58.654 -12.435 59.0978 -11.1528 59.7767 -9.99309C60.4904 -8.53682 61.7493 -7.42084 63.2801 -6.88726C69.8677 -5.23949 76.625 -5.11966 83.1628 -4.99983C92.1459 -4.84004 100.65 -4.69024 108.994 -1.00522C111.761 0.373652 114.429 1.94195 116.979 3.68846C124.605 8.59184 133.239 14.1443 141.024 11.5478C146.264 9.8002 149.159 7.24367 149.638 3.94812C150.746 -3.69157 138.1 -12.5297 129.735 -18.3818C128.248 -19.3804 126.961 -20.3191 125.962 -21.0681C122.679 -23.6879 119.563 -26.5096 116.63 -29.5167C109.473 -36.5073 101.349 -44.4965 91.7966 -45.8447C89.4335 -46.1931 87.0486 -46.3733 84.66 -46.384ZM64.0187 -9.79334C63.3003 -10.1577 62.7242 -10.7517 62.3818 -11.4811C61.4263 -13.1255 61.1471 -15.0772 61.6033 -16.9237C67.6719 -37.9653 71.8241 -45.6649 91.4273 -42.8887C100.011 -41.6703 107.397 -34.4101 114.584 -27.3896C117.608 -24.2872 120.825 -21.3787 124.216 -18.6813C125.214 -17.9024 126.561 -16.9936 128.069 -15.935C134.886 -11.1715 147.562 -2.30345 146.723 3.50871C146.414 5.59589 144.198 7.33355 140.126 8.69171C133.698 10.8388 125.703 5.69575 118.646 1.16187C115.964 -0.677822 113.152 -2.31996 110.232 -3.75151C101.329 -7.74612 92.1359 -7.87592 83.2825 -8.03571C76.8746 -8.10561 70.277 -8.26541 64.0187 -9.79334Z" fill="#221F1A" fill-opacity="0.1"/>
<path d="M350.062 149.611C345.756 149.636 341.566 151.012 338.084 153.546C325.109 162.704 319.679 184.794 318.631 195.2C317.183 209.71 322.763 221.335 328.153 232.559C331.067 238.631 334.072 244.903 335.998 251.634C337.615 257.286 337.775 264.516 337.994 272.166C338.404 289.842 338.873 309.875 358.216 316.326C362.508 317.764 364.205 316.916 365.892 315.677C366.102 315.528 366.311 315.368 366.541 315.218C366.64 315.157 366.734 315.087 366.82 315.008L368.697 313.091C368.765 313.028 368.825 312.958 368.876 312.881C371.342 309.216 370.284 301.956 369.046 298.231C363.836 282.602 358.516 263.927 358.516 243.954C358.516 234.447 362.838 227.087 367.419 219.287C374.795 206.714 383.16 192.464 372.929 166.858C369.375 157.97 363.417 152.248 355.711 150.321C353.864 149.853 351.967 149.614 350.062 149.611ZM361.909 314.089C360.943 314.032 359.991 313.83 359.085 313.49C341.737 307.698 341.318 289.603 340.909 272.096C340.729 264.247 340.56 256.837 338.833 250.805C336.837 243.814 333.772 237.443 330.848 231.271C325.398 219.907 320.248 209.181 321.615 195.5C322.773 183.955 328.602 163.912 339.801 156.003C341.956 154.434 344.435 153.37 347.056 152.89C349.677 152.409 352.372 152.524 354.943 153.227C363.457 155.354 367.918 162.424 370.104 167.977C379.796 192.214 372.17 205.206 364.794 217.769C360.213 225.569 355.482 233.628 355.482 243.954C355.482 264.357 360.881 283.321 366.162 299.18C367.299 302.585 367.998 308.557 366.421 311.093L364.764 312.781C364.535 312.931 364.315 313.091 364.095 313.251C363.494 313.788 362.716 314.086 361.909 314.089Z" fill="#221F1A" fill-opacity="0.1"/>
<path d="M80.1086 87.1158C79.4841 87.1136 78.8603 87.157 78.2421 87.2457C73.5709 87.9148 70.2571 91.0605 68.4205 96.603C66.584 102.146 69.8379 107.458 72.9919 112.581C74.9882 115.797 76.8347 118.843 77.3039 121.679C81.4561 146.645 66.9633 162.924 34.2147 170.204L32.8573 170.503C28.0064 171.572 22.9958 172.67 18.6739 175.167C18.3636 175.349 18.0784 175.57 17.8255 175.826C17.254 176.377 16.8596 177.086 16.6928 177.863C16.5259 178.639 16.5942 179.448 16.8888 180.185C17.1834 180.922 17.691 181.555 18.3467 182.003C19.0025 182.45 19.7766 182.692 20.5703 182.697C27.9166 182.887 34.2347 183.426 39.8142 183.895C58.2696 185.443 71.5946 186.562 99.7817 174.029C118.447 165.73 124.735 150.97 119.525 127.571C117.925 120.283 114.98 113.357 110.841 107.149C106.798 101.327 91.7567 87.1158 80.1086 87.1158ZM56.3432 181.858C51.103 181.858 45.8928 181.419 40.0737 180.929C34.4543 180.45 28.0962 179.931 20.6502 179.721C20.441 179.734 20.233 179.681 20.0557 179.569C19.8783 179.457 19.7407 179.292 19.6623 179.098C19.5839 178.903 19.5686 178.689 19.6188 178.485C19.6689 178.282 19.7818 178.099 19.9415 177.963C20.0111 177.895 20.0881 177.835 20.1711 177.783C24.0937 175.517 28.8748 174.468 33.4961 173.449L34.8635 173.15C69.4486 165.46 84.7698 147.984 80.2583 121.22C79.6894 117.804 77.5833 114.379 75.5471 111.054C72.6127 106.29 69.8479 101.786 71.2552 97.5717C72.7324 93.1377 75.1579 90.7409 78.6713 90.2316C88.5927 88.8036 104.193 102.845 108.376 108.886C112.277 114.788 115.064 121.354 116.6 128.26C121.501 150.321 115.941 163.613 98.564 171.332C79.6594 179.721 67.9115 181.858 56.3432 181.858Z" fill="#221F1A" fill-opacity="0.1"/>
<path d="M36.0712 352.807C33.9352 349.202 31.7193 345.467 31.7193 340.823C31.7193 337.178 33.2465 333.913 34.7137 330.747C35.9415 328.425 36.8449 325.945 37.3987 323.377C38.5465 316.386 34.4043 310.394 30.7911 306.53C19.7518 294.895 -3.05541 286.167 -18.0173 287.845C-25.5532 288.694 -30.5139 291.22 -33.1789 295.554C-38.3891 304.013 -33.8776 318.074 -29.2462 330.587C-28.5476 332.465 -27.8688 334.522 -27.1502 336.699C-24.6449 344.259 -21.8102 352.837 -17.1689 357.591C-16.6699 358.09 -16.071 358.669 -15.3923 359.318C-13.9649 360.707 -12.2382 362.374 -10.5314 364.232H-14.6137C-15.6118 363.233 -16.61 362.294 -17.4184 361.475C-18.1072 360.806 -18.726 360.207 -19.235 359.698C-24.4253 354.445 -27.3798 345.517 -29.9849 337.638C-30.6935 335.481 -31.3623 333.453 -32.041 331.646C-36.9218 318.454 -41.6629 303.594 -35.6742 293.987C-32.5301 288.883 -26.691 285.818 -18.2868 284.869C-16.9246 284.718 -15.555 284.645 -14.1845 284.649C1.36629 284.649 22.3968 293.278 33.0269 304.472C38.9258 310.684 41.481 317.385 40.413 323.856C39.817 326.697 38.833 329.443 37.4885 332.015C36.0911 335.011 34.7636 337.837 34.7636 340.823C34.7636 344.648 36.67 347.814 38.6962 351.279C40.8821 354.974 43.2976 359.079 43.1179 364.262H40.1235C40.2733 359.928 38.1872 356.452 36.0712 352.807Z" fill="#221F1A" fill-opacity="0.1"/>
<path d="M-72.4851 352.637C-68.9318 350.041 -64.2605 349.452 -58.6111 350.88C-53.8401 352.088 -48.5101 357.531 -42.4614 364.232H-46.5238C-51.3647 358.969 -55.8363 354.675 -59.3398 353.786C-64.1607 352.568 -67.8737 352.987 -70.7184 355.054C-73.3535 356.992 -75.0702 360.237 -76.238 364.232H-79.3821C-78.0646 359.338 -75.9685 355.184 -72.4851 352.637Z" fill="#221F1A" fill-opacity="0.1"/>
<path d="M66.1348 342.192C65.2165 336.1 63.7792 328.21 60.7648 321.22C55.5419 309.383 48.7575 298.299 40.5927 288.264C36.6002 283.361 31.0806 279.077 25.7106 274.922C24.2434 273.794 22.8061 272.685 21.4387 271.577C16.5879 267.643 11.0178 264.692 5.03944 262.889C-27.6891 252.992 -42.7309 279.486 -57.2736 305.112C-68.4027 324.705 -78.913 343.26 -96.7395 345.447C-105.723 346.566 -114.636 345.517 -123.509 343.55V340.474C-114.696 342.471 -105.842 343.57 -97.1088 342.471C-80.7695 340.474 -70.6186 322.558 -59.8787 303.634C-47.5518 281.913 -33.8176 257.696 -8.2057 257.696C-3.41113 257.743 1.35057 258.494 5.92777 259.923C12.2758 261.829 18.1894 264.961 23.3351 269.14C24.6926 270.229 26.1199 271.327 27.5672 272.456C33.0768 276.71 38.7661 281.104 42.9483 286.277C51.288 296.545 58.2167 307.884 63.5496 319.991C66.7037 327.342 68.1809 335.481 69.1192 341.752C70.3862 349.186 70.4671 356.773 69.3587 364.232H66.3643C67.4223 358.11 67.4623 350.89 66.1348 342.192Z" fill="#221F1A" fill-opacity="0.1"/>
<path d="M375.554 48.6578C371.828 48.9415 368.087 48.9882 364.355 48.7976C344.233 47.6092 326.167 37.8124 308.69 28.3851C296.073 21.5643 283.018 14.5038 269.453 10.8887C236.026 1.96078 209.236 12.4366 191.999 41.1878C186.519 50.3155 182.716 57.5158 183.604 67.2427C184.872 81.2238 189.952 93.2076 195.332 105.841C198.007 112.132 200.772 118.643 203.028 125.424C206.132 134.752 206.601 143.689 207.1 153.157C207.26 156.153 207.42 159.348 207.689 162.484C208.148 168.087 209.925 173.759 211.682 179.241C213.104 183.477 214.264 187.796 215.155 192.174C217.9 207.254 210.354 234.018 199.914 246.191C186.738 261.58 167.654 268.221 143.2 265.934C118.347 263.608 95.7692 252.782 84.5203 246.531C67.8017 237.233 38.2072 223.562 27.9365 236.404C27.309 237.169 26.851 238.059 26.5929 239.015C26.3348 239.97 26.2824 240.97 26.4393 241.947C27.3076 248.838 35.9115 256.927 40.8522 260.662C44.705 263.548 48.8372 266.424 52.8297 269.2C72.3531 282.762 92.5352 296.793 96.4778 322.438C98.9432 338.497 97.2264 351.219 92.2458 364.192H89.0118C94.1422 351.279 95.9987 338.746 93.5134 322.898C89.7305 298.56 70.1273 284.909 51.083 271.697C47.0905 268.91 42.9084 266.014 39.0157 263.098C37.5484 261.99 24.6626 252.113 23.4249 242.366C23.2192 240.991 23.3029 239.587 23.6707 238.246C24.0385 236.904 24.6823 235.655 25.5609 234.577C31.0506 227.706 41.3413 226.438 56.1635 230.812C64.8572 233.378 74.8684 237.802 85.9376 243.954C97.0068 250.106 119.125 260.721 143.44 262.988C166.866 265.185 185.091 258.884 197.608 244.284C207.39 232.869 214.736 206.854 212.171 192.753C211.298 188.498 210.168 184.299 208.787 180.18C207.02 174.538 205.194 168.706 204.705 162.774C204.435 159.588 204.266 156.412 204.106 153.346C203.627 144.089 203.168 135.371 200.183 126.383C197.967 119.722 195.193 113.271 192.577 107.039C187.347 94.7156 181.927 81.9728 180.6 67.5323C179.602 56.9266 183.824 48.9673 189.403 39.6699C203.247 16.591 222.95 4.78698 247.165 4.78698C254.952 4.85133 262.697 5.93574 270.202 8.01261C284.116 11.7176 297.321 18.868 310.127 25.7686C327.315 35.0661 345.061 44.6831 364.545 45.8216C368.204 46.0103 371.871 45.9635 375.524 45.6818L375.554 48.6578Z" fill="#221F1A" fill-opacity="0.1"/>
<path d="M375.554 98.2708C359.836 93.0092 344.607 86.3864 330.039 78.4775C324.87 75.5679 319.902 72.315 315.167 68.7406C310.047 65.0556 304.757 61.2408 299.108 58.4146C281.201 49.4267 248.722 49.4267 233.69 62.7887C213.249 80.9741 219.207 103.334 224.967 124.965C227.163 133.194 230.846 143.43 234.758 154.275C248.193 191.585 264.922 238.022 246.556 265.585C226.105 296.273 181.019 294.606 145.646 282.812C142.831 281.873 139.337 280.295 135.664 278.617C124.236 273.454 108.615 266.364 99.9912 272.835C97.4061 274.773 95.9987 276.83 95.6793 279.047C95.0605 283.461 98.7436 288.334 102.297 293.028C103.694 294.865 105.012 296.613 106.1 298.361C107.557 300.688 109.094 303.034 110.691 305.521C120.922 321.33 132.53 339.236 130.404 358.45C130.18 360.402 129.81 362.335 129.296 364.232H126.192C126.774 362.226 127.188 360.175 127.43 358.1C129.426 339.984 118.137 322.558 108.176 307.169C106.559 304.672 105.032 302.315 103.565 299.969C102.566 298.331 101.259 296.643 99.9114 294.845C95.9788 289.652 91.9264 284.28 92.7149 278.627C93.1441 275.631 94.9906 272.845 98.1946 270.438C108.176 262.909 124.146 270.109 136.882 275.891C140.505 277.529 143.919 279.077 146.584 279.966C180.909 291.41 224.547 293.208 244.061 263.917C261.588 237.613 245.149 191.964 231.934 155.294C228.011 144.389 224.298 134.082 222.072 125.734C216.083 103.234 209.875 79.9555 231.704 60.5517C239.29 53.8008 251.287 49.7762 265.461 49.217C266.559 49.217 267.657 49.1471 268.754 49.1471C280.433 49.1471 292.071 51.5538 300.445 55.7382C306.314 58.6742 311.704 62.559 316.914 66.3139C321.544 69.8061 326.398 72.9887 331.447 75.8411C345.579 83.5005 360.334 89.9482 375.554 95.115V98.2708Z" fill="#221F1A" fill-opacity="0.1"/>
<path d="M375.554 364.232H375.315C375.315 360.237 373.059 356.342 368.677 352.508C348.605 334.971 321.466 337.927 295.195 340.793C282.369 342.192 269.114 343.64 257.146 342.551C246.636 341.552 237.643 336.719 228.939 332.015C220.236 327.312 212.221 322.957 202.649 321.899C190.142 320.501 176.697 321.569 166.716 324.735C153.092 329.059 145.476 336.929 144.079 348.133C143.4 353.536 144.438 358.779 145.735 364.232H142.661C141.414 358.889 140.395 353.406 141.104 347.754C143.989 324.475 170.479 318.294 191.53 318.294C195.354 318.294 199.176 318.501 202.978 318.913C213.129 320.041 221.893 324.785 230.367 329.379C239.19 334.152 247.524 338.666 257.416 339.565C269.084 340.624 281.61 339.265 294.866 337.817C321.815 334.881 349.623 331.826 370.653 350.261C372.527 351.858 374.176 353.702 375.554 355.743L375.554 364.232Z" fill="#221F1A" fill-opacity="0.1"/>
<path d="M247.654 364.232C245.897 363.653 244.091 363.053 242.234 362.414C226.753 357.181 209.206 351.239 195.322 359.558C193.258 360.73 191.463 362.322 190.052 364.232H186.479C188.195 361.173 190.738 358.661 193.815 356.982C199.156 353.857 205.256 352.271 211.442 352.398C221.982 352.398 233.012 356.133 243.193 359.578C246.397 360.667 249.431 361.695 252.345 362.574C254.834 363.297 257.368 363.85 259.931 364.232H247.654Z" fill="#221F1A" fill-opacity="0.1"/>
<path d="M375.554 292.329C375.434 291.929 375.295 291.52 375.175 291.11C371.402 277.888 371.971 263.148 375.554 248.538V292.329Z" fill="#221F1A" fill-opacity="0.1"/>
<path d="M375.554 112.372L374.017 111.962C367.03 110.045 360.742 106.38 354.703 102.845C351.709 101.117 348.714 99.3194 345.6 97.7814C327.754 88.8535 286.022 78.118 270.401 93.7868C234.718 129.449 256.897 184.904 273.086 225.419C274.254 228.415 275.741 231.281 277.308 234.407C280.403 240.509 283.597 246.82 284.435 253.511C285.952 265.655 276.041 272.486 267.297 278.567C257.186 285.558 248.453 291.55 254.741 304.183C256.408 307.528 259.043 310.674 261.598 313.73C262.396 314.729 263.195 315.637 263.953 316.586C267.686 321.26 274.574 320.211 280.642 319.292C281.7 319.133 282.718 318.973 283.696 318.853C296.981 317.185 328.103 311.253 330.239 292.019C331.816 277.868 325.169 267.492 318.142 256.517C315.269 252.187 312.624 247.71 310.217 243.105C307.981 238.581 305.795 234.407 303.689 230.412C289.645 203.838 280.373 186.282 299.956 151.998C304.617 143.829 314.648 129.469 329.431 125.035C341.608 121.38 358.706 123.517 375.564 130.028V133.323C358.965 126.722 341.937 124.396 330.289 127.891C316.505 132.025 306.993 145.697 302.551 153.476C283.786 186.332 292.27 202.41 306.334 229.004C308.46 232.999 310.656 237.193 312.912 241.697C315.259 246.215 317.845 250.605 320.657 254.849C327.644 265.835 334.89 277.099 333.204 292.299C330.838 313.65 298.049 320.021 284.066 321.769C283.068 321.889 282.069 322.049 281.071 322.199C274.544 323.197 266.409 324.435 261.588 318.404C260.849 317.475 260.071 316.546 259.282 315.597C256.488 312.513 254.059 309.115 252.046 305.471C244.59 290.561 255.26 283.181 265.57 276.051C274.394 269.939 282.738 264.177 281.441 253.831C280.672 247.659 277.598 241.587 274.613 235.715C273.086 232.719 271.509 229.574 270.282 226.518C253.783 185.243 231.185 128.73 268.285 91.6297C274.713 85.1884 284.874 82.7717 296.053 82.7717C314.239 82.7717 335.11 89.183 346.958 95.0951C350.132 96.6829 353.236 98.5005 356.23 100.258C362.099 103.703 368.208 107.249 374.825 109.066L375.574 109.276L375.554 112.372Z" fill="#221F1A" fill-opacity="0.1"/>
<path d="M375.554 -102.249C371.701 -103.097 367.859 -103.916 364.076 -104.715C346.059 -108.54 329.051 -112.155 317.663 -117.857C309.119 -122.125 301.462 -127.973 295.095 -135.094H299.227C304.94 -129.148 311.628 -124.224 319 -120.534C330.05 -115.011 346.878 -111.436 364.695 -107.651C368.278 -106.892 371.911 -106.113 375.554 -105.314V-102.249Z" fill="#221F1A" fill-opacity="0.1"/>
<path d="M184.083 -124.409C180.64 -107.192 163.402 -102.249 148.151 -97.8944C136.732 -94.6188 125.943 -91.533 123.128 -83.8534C120.792 -77.5119 123.847 -68.1346 132.47 -55.1921C136.414 -49.1097 141.934 -44.2121 148.44 -41.0212C156.984 -36.7469 164.55 -30.4155 171.557 -21.6573C173.753 -18.921 175.3 -15.4457 176.797 -12.0902C180.36 -4.10101 183.784 3.52867 195.552 3.52867C197.321 3.5179 199.086 3.37099 200.832 3.08926C209.815 1.71112 214.486 -2.56311 219.447 -7.087C226.983 -13.9677 234.778 -21.0681 257.446 -17.3032C280.562 -13.4484 305.356 -2.38334 327.315 7.37349L331.187 9.10117C335.804 11.2672 340.29 13.7014 344.622 16.3913C351.799 20.6556 359.225 25.0796 367.579 26.7373C370.264 27.2766 372.949 27.6761 375.564 27.9457V30.9417C372.709 30.6521 369.835 30.2326 366.95 29.6534C358.127 27.8958 350.481 23.3419 343.085 18.9479C338.853 16.3164 334.47 13.9355 329.96 11.8175L326.077 10.0898C304.348 0.402897 279.704 -10.5823 256.957 -14.3672C235.746 -17.9124 228.81 -11.5909 221.473 -4.88996C216.403 -0.2662 211.163 4.50736 201.301 6.0353C182.876 8.88145 178.195 -1.62438 174.072 -10.8919C172.831 -14.0521 171.205 -17.0473 169.231 -19.8098C162.494 -28.2185 155.258 -34.2903 147.113 -38.3648C140.161 -41.8014 134.257 -47.0397 130.015 -53.5343C120.692 -67.5154 117.618 -77.502 120.343 -84.892C123.687 -93.9897 135.185 -97.2852 147.352 -100.771C162.444 -105.095 178.055 -109.569 181.139 -124.998C181.802 -128.331 182.245 -131.703 182.467 -135.094H185.461C185.236 -131.506 184.776 -127.936 184.083 -124.409Z" fill="#221F1A" fill-opacity="0.1"/>
<path d="M375.554 -75.3648C372.43 -76.693 369.346 -78.0312 366.311 -79.3594C346.928 -87.7781 328.622 -95.7273 307.052 -100.052C295.524 -102.358 282.099 -104.645 279.864 -104.426C272.278 -99.1827 261.897 -81.1171 259.901 -73.018C255.599 -55.8112 272.138 -43.7275 285.433 -34.0206C287.679 -32.3729 289.805 -30.825 291.761 -29.297C299.137 -23.5648 306.913 -22.5861 315.147 -21.5475C320.335 -21.0623 325.461 -20.0586 330.449 -18.5515C336.664 -16.2933 342.723 -13.6244 348.585 -10.5623C355.821 -6.98712 363.297 -3.29213 370.683 -1.44463C372.27 -1.04517 373.907 -0.745559 375.564 -0.495896V2.50006C373.677 2.23783 371.804 1.87785 369.954 1.42153C362.259 -0.505869 354.633 -4.27079 347.257 -7.91587C341.518 -10.9131 335.586 -13.5253 329.5 -15.7353C324.698 -17.1858 319.763 -18.1526 314.768 -18.6214C306.494 -19.67 297.95 -20.7486 289.925 -26.9901C288.008 -28.4781 285.932 -29.9861 283.666 -31.6538C269.693 -41.89 252.205 -54.6228 256.996 -73.7969C259.192 -82.6051 269.882 -101.41 278.396 -107.092C278.576 -107.212 278.865 -107.402 280.213 -107.402C282.858 -107.402 289.615 -106.643 307.641 -103.037C329.53 -98.6534 347.976 -90.6442 367.529 -82.1557L375.584 -78.6804L375.554 -75.3648Z" fill="#221F1A" fill-opacity="0.1"/>
<path d="M375.554 -53.9937C371.931 -55.3818 368.348 -56.8199 364.794 -58.238C349.952 -64.2299 334.591 -70.3716 318.302 -71.8496C307.172 -72.8482 300.475 -71.55 299.916 -68.2544C298.728 -61.2639 319.809 -45.4952 332.245 -42.3794C344.143 -39.3834 356.769 -36.0079 368.507 -31.3143C370.274 -30.6052 372.699 -29.7264 375.554 -28.7577V-25.632C371.861 -26.8603 368.966 -27.8989 367.399 -28.5281C355.821 -33.1618 343.315 -36.5173 331.517 -39.5132C319.719 -42.5092 295.295 -58.937 296.972 -68.7937C297.88 -74.1764 305.206 -75.265 311.394 -75.265C314.309 -75.265 316.964 -75.0253 318.571 -74.8755C335.3 -73.3576 350.86 -67.106 365.912 -61.0641C369.096 -59.7859 372.31 -58.4976 375.554 -57.2393V-53.9937Z" fill="#221F1A" fill-opacity="0.1"/>
<path d="M341.787 -135.094H341.618C340.037 -134.72 338.389 -134.737 336.817 -135.144L341.787 -135.094Z" fill="#221F1A" fill-opacity="0.1"/>
<path d="M375.554 -126.446C372.257 -128.396 369.669 -131.349 368.168 -134.874C368.14 -134.946 368.117 -135.02 368.098 -135.094H371.352C372.358 -133.134 373.794 -131.426 375.554 -130.101V-126.446Z" fill="#221F1A" fill-opacity="0.1"/>
<path d="M250.988 -96.0169C243.193 -90.1748 238.362 -84.4825 234.309 -76.3635C230.776 -69.293 228.899 -61.7532 227.083 -54.4631C224.767 -45.1356 222.362 -35.4887 216.483 -26.6606C214.027 -22.9756 210.174 -20.8484 205.024 -20.3291C195.692 -19.4103 185.341 -24.094 183.614 -25.8217C180.4 -29.0374 177.406 -31.6638 174.761 -33.9807C166.936 -40.8514 161.286 -45.8147 158.162 -58.3178C155.707 -68.1246 167.664 -75.1451 180.321 -82.5751C191.16 -88.9465 202.369 -95.5576 203.986 -103.627C204.874 -107.781 203.876 -117.118 202.878 -127.884C202.649 -130.211 202.409 -132.628 202.179 -135.094H205.174C205.393 -132.727 205.623 -130.411 205.843 -128.174C206.97 -116.699 207.839 -107.631 206.951 -103.037C205.064 -93.6202 193.266 -86.6995 181.858 -79.9886C170.19 -73.1478 159.18 -66.6766 161.087 -59.0169C163.981 -47.4226 169.072 -42.9586 176.757 -36.2077C179.432 -33.8609 182.466 -31.2144 185.74 -27.9089C186.858 -26.7904 194.973 -23.1853 202.589 -23.1853C203.317 -23.1853 204.036 -23.1853 204.745 -23.2851C208.947 -23.7046 212.071 -25.3923 214.007 -28.2784C219.597 -36.6671 221.823 -45.635 224.188 -55.1321C226.045 -62.5821 227.951 -70.2817 231.634 -77.6518C235.916 -86.2202 241.007 -92.2221 249.191 -98.3638C257.825 -104.835 256.298 -121.273 253.922 -135.044H256.917C259.402 -120.654 260.819 -103.397 250.988 -96.0169Z" fill="#221F1A" fill-opacity="0.1"/>
<path d="M170.15 34.8564C157.244 43.4648 137.561 31.8604 118.526 20.7155C107.807 14.414 97.6755 8.472 90.0998 7.09387C70.0174 3.4388 51.7817 4.45742 30.6014 7.09387C26.2097 7.64312 21.1991 9.56054 15.909 11.5878C6.57652 15.163 -3.05539 18.848 -11.5295 16.0218C-21.0317 12.8561 -23.6368 -5.94852 -25.7228 -21.0481C-26.721 -27.9189 -27.5794 -34.4201 -28.9069 -37.1464C-29.4658 -37.7856 -32.6698 -39.4833 -35.754 -41.141C-50.3566 -48.9205 -80.7396 -65.1087 -91.4096 -93.8599C-95.0328 -103.617 -98.2667 -115.74 -91.0602 -122.941C-82.0771 -131.928 -63.6017 -123.14 -52.5625 -117.897C-50.7658 -117.039 -49.2088 -116.3 -47.9412 -115.76C-24.4253 -105.674 8.32324 -96.007 30.7412 -107.222C41.9801 -112.844 53.3188 -123.939 61.7629 -135.114H65.5458C56.7324 -122.951 44.4954 -110.757 32.0787 -104.545C24.5129 -100.761 15.889 -99.2226 6.86598 -99.2226C-12.0984 -99.2226 -32.7996 -106.003 -49.1189 -113.004C-50.4365 -113.563 -52.0135 -114.322 -53.8501 -115.191C-64.1807 -120.094 -81.4682 -128.303 -88.9442 -120.823C-94.9329 -114.832 -91.9386 -103.846 -88.6048 -94.9085C-78.3241 -67.1859 -48.6498 -51.3772 -34.3467 -43.7675C-28.6773 -40.7715 -26.8507 -39.7729 -26.2519 -38.5345C-24.6948 -35.4088 -23.7965 -28.9375 -22.7584 -21.4476C-20.8819 -7.91589 -18.3167 10.6191 -10.5813 13.1956C-3.13524 15.6823 5.99762 12.197 14.831 8.80155C20.3108 6.70438 25.4711 4.72706 30.2222 4.12787C51.6919 1.45148 70.1472 0.422869 90.6388 4.12787C98.7336 5.59589 109.084 11.6777 120.044 18.109C137.431 28.3252 157.144 39.9096 168.483 32.3498C177.835 26.1082 170.898 12.7163 166.307 3.85824C165.828 2.93948 165.378 2.07063 164.979 1.27171C159.05 -10.5923 141.573 -32.3229 128.737 -38.0252L126.951 -38.8142C114.594 -44.2668 93.9226 -53.3945 91.8864 -67.6752C89.1715 -86.6496 106.419 -100.181 124.675 -114.472C133.119 -121.073 141.643 -127.774 148.191 -135.114H152.183C145.266 -126.775 135.774 -119.345 126.531 -112.145C108.974 -98.4137 92.3954 -85.4412 94.8608 -68.1446C96.6674 -55.5016 117.159 -46.4539 128.168 -41.6004L129.965 -40.8015C143.589 -34.7397 161.396 -12.6495 167.664 -0.106407L168.972 2.44014C173.743 11.7076 181.728 27.1268 170.15 34.8564Z" fill="#221F1A" fill-opacity="0.1"/>
<path d="M103.854 -125.477C99.6719 -119.615 95.9589 -113.124 92.3656 -106.842C90.1298 -102.938 87.8141 -98.8531 85.3787 -95.0582C81.0868 -88.1875 79.1704 -80.2782 77.3238 -72.6185C75.2677 -64.1699 73.1517 -55.4317 67.8416 -47.9918C60.4854 -37.6757 50.6938 -33.012 41.2316 -28.4182C35.4923 -25.6519 29.5435 -22.7858 24.0538 -18.6714C22.2771 -17.3332 20.3208 -14.7367 18.2547 -11.9904C13.0644 -5.07972 6.59658 3.51868 -2.49635 -1.00522C-7.20751 -3.36204 -10.0721 -6.25812 -11.2499 -9.86326C-13.2462 -15.8552 -9.86253 -22.3664 -6.91805 -28.0887C-4.62236 -32.5327 -2.45643 -36.747 -3.66416 -39.1737C-5.79017 -43.428 -12.1882 -45.4352 -17.8376 -47.1629C-20.4541 -47.8971 -23.0102 -48.832 -25.4832 -49.9591C-30.5337 -52.4857 -74.7208 -75.215 -70.2093 -94.6788C-70.064 -95.5276 -69.6992 -96.3236 -69.1511 -96.9876C-68.603 -97.6516 -67.8907 -98.1605 -67.0851 -98.4637C-60.9766 -100.721 -48.2505 -91.9025 -34.636 -81.876C-32.2326 -79.996 -29.7303 -78.2458 -27.1401 -76.6331C-8.51505 -67.3257 18.6739 -61.7632 34.3545 -71.57C63.6096 -89.8653 70.5466 -102.828 81.0468 -122.441C83.1429 -126.356 85.3787 -130.53 87.9439 -135.034H91.3974C88.4829 -129.981 85.9976 -125.347 83.6819 -121.053C73.3413 -101.729 65.8753 -87.7681 35.9415 -69.0433C29.3439 -64.9289 21.4287 -63.3411 13.2641 -63.3411C-2.27676 -63.3411 -18.676 -69.0833 -28.4776 -73.9767C-31.2469 -75.6494 -33.9133 -77.4869 -36.4626 -79.4793C-45.0365 -85.8007 -60.9965 -97.5549 -66.097 -95.6674C-66.4354 -95.5328 -66.7305 -95.308 -66.9504 -95.0176C-67.1704 -94.7271 -67.3067 -94.382 -67.3446 -94.0196C-70.5885 -80.0385 -40.535 -60.8345 -24.1956 -52.6555C-21.8603 -51.6091 -19.4517 -50.7346 -16.9891 -50.039C-10.7808 -48.0916 -3.73403 -45.8846 -1.01912 -40.4919C0.877317 -36.707 -1.62798 -31.8436 -4.283 -26.6905C-6.93802 -21.5375 -10.0023 -15.6055 -8.42522 -10.772C-7.51693 -7.97581 -5.14138 -5.64893 -1.1888 -3.6716C5.17924 -0.475915 9.88042 -5.83867 15.8392 -13.748C18.0351 -16.674 20.1112 -19.4403 22.2272 -21.0282C27.9465 -25.3224 34.0251 -28.2484 39.9041 -31.0746C49.4462 -35.6684 58.4592 -40.0026 65.3763 -49.6895C70.3669 -56.6801 72.3033 -64.7392 74.3594 -73.2876C76.2658 -81.177 78.2421 -89.326 82.7936 -96.6061C85.1591 -100.391 87.4548 -104.406 89.6707 -108.29C93.3038 -114.632 97.0568 -121.193 101.329 -127.175C103.423 -129.955 105.729 -132.57 108.226 -134.994L108.286 -135.054H112.458C111.769 -134.325 111.061 -133.606 110.372 -132.897C108.017 -130.59 105.839 -128.11 103.854 -125.477Z" fill="#221F1A" fill-opacity="0.1"/>
<path d="M-42.4414 -131.879C-46.5918 -132.343 -50.6493 -133.427 -54.4788 -135.094H-44.0783C-43.4495 -134.994 -42.8207 -134.904 -42.2019 -134.864C-36.3705 -134.434 -30.5128 -134.511 -24.6947 -135.094H-7.00791C-18.5755 -132.159 -30.5346 -131.073 -42.4414 -131.879Z" fill="#221F1A" fill-opacity="0.1"/>
<path d="M-52.7521 25.489C-55.9062 27.1867 -58.8806 28.7946 -61.5356 30.3924C-67.1155 33.8758 -72.4512 37.7363 -77.5056 41.9468C-89.8624 51.7835 -101.55 61.081 -123.509 59.6429V56.647C-102.549 58.0651 -91.8088 49.5066 -79.3821 39.6C-74.2199 35.3099 -68.7744 31.3729 -63.0827 27.8159C-60.3578 26.1881 -57.3534 24.5703 -54.1694 22.8226C-46.7234 18.828 -39.0179 14.6537 -34.3866 10.0199C-33.4982 9.13111 -33.6779 5.52598 -33.7677 3.78833C-33.7677 3.13921 -33.8276 2.54998 -33.8276 2.08061C-33.8276 -10.3925 -37.1314 -21.3377 -53.2511 -34.2503C-56.2455 -36.6471 -59.8887 -38.0252 -63.7415 -39.4733C-67.9236 -41.0611 -72.2555 -42.6989 -75.7888 -45.7848C-102.249 -68.9235 -130.386 -102.938 -116.962 -135.094H-113.688C-127.612 -104.236 -99.8437 -70.801 -73.7626 -48.0117C-70.6485 -45.2754 -66.7758 -43.8074 -62.6335 -42.2495C-58.7309 -40.7715 -54.6485 -39.2536 -51.3347 -36.5572C-38.9979 -26.6805 -30.7833 -16.3345 -30.7833 2.1106C-30.7833 2.54002 -30.7833 3.10925 -30.7234 3.6685C-30.5737 6.66445 -30.3941 10.3395 -32.2206 12.167C-37.2113 17.1103 -45.1064 21.3646 -52.7521 25.489Z" fill="#221F1A" fill-opacity="0.1"/>
<path d="M-123.509 -54.6328V-57.9983C-122.844 -58.3972 -122.227 -58.8732 -121.673 -59.4164C-120.934 -60.1653 -120.675 -61.8531 -121.094 -64.16C-121.598 -66.8114 -122.409 -69.3952 -123.509 -71.8596V-78.7403C-120.934 -73.9368 -118.798 -68.7038 -118.139 -64.6393C-117.59 -61.2539 -118.069 -58.7872 -119.557 -57.2992C-120.703 -56.1799 -122.042 -55.2767 -123.509 -54.6328Z" fill="#221F1A" fill-opacity="0.1"/>
<path d="M-90.4613 12.6264C-92.4575 16.0018 -94.5137 19.4971 -98.5461 21.9139C-104.455 25.4591 -113.229 27.4664 -123.499 27.6861V24.6901C-114.456 24.4704 -105.852 22.8226 -100.073 19.3573C-96.6996 17.36 -94.9229 14.364 -93.0365 11.1084C-91.9864 9.22802 -90.8022 7.42579 -89.4931 5.71572C-81.9872 -3.67161 -79.3122 -11.2614 -81.5081 -16.8538C-85.7202 -27.3397 -106.222 -30.4155 -123.429 -32.7024V-35.6984C-105.333 -33.2916 -83.5842 -30.0959 -78.7034 -17.9423C-75.9885 -11.1815 -78.7034 -2.82275 -87.0776 7.62315C-88.3237 9.20779 -89.4545 10.8798 -90.4613 12.6264Z" fill="#221F1A" fill-opacity="0.1"/>
<path d="M135.006 220.885C132.929 221.654 131.013 222.523 129.137 223.362C124.605 225.409 120.323 227.357 114.544 227.856C99.7217 229.204 81.6057 226.388 62.4716 223.412C29.254 218.239 -5.10153 212.906 -29.915 227.087C-48.0609 237.463 -56.9642 255.678 -65.578 273.285C-73.9623 290.411 -81.8674 306.59 -97.5181 315.997C-104.794 320.371 -113.947 321.989 -123.469 321.729V318.733C-115.235 318.943 -106.282 317.735 -99.0053 313.42C-84.0933 304.432 -76.3678 288.674 -68.1931 271.956C-59.3796 253.981 -50.2268 235.316 -31.3223 224.48C-5.5906 209.77 30.851 215.493 63.0106 220.486C81.975 223.482 99.9413 226.228 114.354 224.91C119.634 224.43 123.697 222.603 127.989 220.676C129.895 219.817 131.871 218.928 134.027 218.119C154.728 210.349 166.277 202.87 172.655 193.093C179.722 182.257 180.959 167.857 176.647 146.386C174.392 135.131 169.94 126.253 165.229 116.856C161.998 110.704 159.128 104.368 156.635 97.8813C155.085 93.3364 153.776 88.7129 152.712 84.03C150.337 74.383 147.881 64.4165 141.433 57.0664C122.639 35.5654 94.6013 23.322 60.3556 21.6442C31.1904 20.2261 -1.52823 26.7873 -29.3959 39.62C-39.6666 44.3136 -49.4483 50.655 -58.8806 56.8267C-71.6067 65.1155 -84.6921 73.684 -99.5542 78.6173C-106.541 80.9542 -114.646 81.6931 -123.509 80.8543V77.8583C-114.925 78.6972 -107.15 78.0081 -100.473 75.7811C-86.0097 70.9577 -73.044 62.4991 -60.5475 54.3201C-50.9954 48.1085 -41.1638 41.6672 -30.6835 36.8337C-4.60282 24.8973 23.7018 18.6018 52.3806 18.3587C55.1088 18.3587 57.8071 18.4252 60.4754 18.5584C95.5496 20.2661 124.356 32.8691 143.659 54.9992C150.586 62.9085 153.131 73.2446 155.587 83.2311C156.624 87.8097 157.903 92.33 159.42 96.7728C161.872 103.164 164.695 109.406 167.874 115.468C172.465 124.635 177.226 134.102 179.552 145.757C184.014 168.057 182.636 183.146 175.11 194.691C168.363 205.047 156.385 212.876 135.006 220.885Z" fill="#221F1A" fill-opacity="0.1"/>
<path d="M89.8004 200.453C76.8946 203.678 63.9489 201.631 51.4224 199.654C47.6794 199.065 43.8167 198.456 40.0437 197.996C36.8797 197.617 33.6957 197.217 30.5017 196.818C4.7999 193.592 -21.7702 190.257 -46.953 195.979C-67.2349 200.563 -91.3297 217.789 -96.5599 238.631C-97.9373 244.144 -97.7576 250.615 -97.558 257.606C-97.1488 272.306 -96.6796 288.973 -113.887 295.435C-116.977 296.531 -120.231 297.089 -123.509 297.082V294.086C-120.584 294.091 -117.679 293.587 -114.925 292.598C-99.7239 286.886 -100.123 272.695 -100.542 257.646C-100.732 250.845 -100.922 243.824 -99.4444 237.902C-96.1706 224.81 -86.6984 214.933 -79.3222 208.941C-69.9298 201.292 -58.3616 195.51 -47.6117 193.063C-21.92 187.221 4.91967 190.586 30.871 193.842C34.065 194.251 37.249 194.641 40.3931 195.02C44.2259 195.48 48.1186 196.099 51.8915 196.698C64.1186 198.625 76.7648 200.623 89.0717 197.547C101.778 194.371 114.893 186.102 124.156 175.427C134.327 163.722 138.948 150.46 137.132 138.027C134.347 118.484 123.327 101.397 104.373 87.2556C70.4367 61.9598 20.5304 53.5012 -11.3099 58.2149C-25.6929 60.322 -39.1177 67.1128 -52.1133 73.6241C-56.9941 76.0907 -62.0946 78.6173 -67.0852 80.9042C-74.9205 84.4295 -81.9074 90.8907 -89.3135 97.7015C-99.5542 107.259 -110.174 117.005 -123.509 118.763V115.707C-111.192 113.87 -101.121 104.582 -91.3097 95.5944C-84.0633 88.9034 -76.5574 81.9828 -68.2829 78.2578C-63.2923 76.0308 -58.3017 73.4942 -53.4608 71.0375C-40.2555 64.3666 -26.6111 57.4658 -11.7091 55.2588C20.74 50.4553 71.6544 59.0737 106.21 84.8589C125.543 99.2894 137.271 117.535 140.146 137.618C142.032 150.9 137.151 165.031 126.422 177.404C116.77 188.469 103.065 197.097 89.8004 200.453Z" fill="#221F1A" fill-opacity="0.1"/>
<path d="M16.4381 166.039C10.1 168.576 3.46241 171.033 -2.93559 173.399C-15.7116 178.143 -28.9867 183.046 -40.6648 188.868C-44.3778 190.726 -49.2487 190.536 -53.9598 190.346C-56.6202 190.141 -59.2941 190.191 -61.9448 190.496C-68.8119 191.645 -77.2261 196.318 -83.7938 200.253C-95.3721 207.244 -109.426 224.001 -111.921 239.011C-112.47 242.276 -112.759 245.762 -113.079 249.447C-113.987 260.372 -115.025 272.585 -123.509 279.526V275.352C-117.73 268.97 -116.872 258.954 -116.043 249.177C-115.724 245.432 -115.414 241.897 -114.856 238.511C-112.21 222.653 -97.4682 204.967 -85.311 197.677C-78.5237 193.602 -69.7901 188.759 -62.414 187.53C-59.5556 187.189 -56.6708 187.125 -53.8001 187.341C-49.4683 187.51 -44.9867 187.69 -41.9623 186.182C-30.1844 180.29 -16.8595 175.357 -3.97364 170.583C2.41437 168.216 9.00201 165.77 15.3301 163.243C27.6271 158.32 48.7474 140.903 45.2739 125.164C42.8784 114.359 33.6358 106.839 26.3095 102.445C17.3512 97.2096 7.50475 93.6718 -2.73596 92.0092C-29.5756 87.8748 -71.9061 110.514 -102.808 127.032C-109.136 130.417 -115.105 133.603 -120.166 136.14C-121.293 136.709 -122.411 137.258 -123.509 137.797V134.452L-121.513 133.453C-116.522 130.937 -110.534 127.751 -104.235 124.386C-75.5493 109.046 -37.1514 88.514 -9.51324 88.514C-7.09773 88.5042 -4.68506 88.6812 -2.29678 89.0432C15.4299 91.7696 43.4873 103.464 48.1585 124.515C52.0812 142.142 29.9427 160.637 16.4381 166.039Z" fill="#221F1A" fill-opacity="0.1"/>
<path d="M-49.588 174.488L-51.5843 175.017L-57.7926 176.675C-75.4595 181.369 -99.6541 187.79 -111.691 198.086C-116.123 201.961 -120.375 208.642 -123.509 215.552V208.852C-120.645 203.669 -117.221 198.965 -113.528 195.869C-101.002 185.134 -76.4276 178.602 -58.4813 173.839C-56.2954 173.26 -54.2193 172.71 -52.2929 172.181L-50.2967 171.652C-39.7365 168.836 -30.6136 166.399 -32.9592 153.496C-33.9574 148.273 -37.1214 143.699 -42.2518 140.264C-49.9873 135.081 -61.7851 132.834 -70.9479 134.801C-85.4507 137.847 -99.5542 149.412 -113.139 160.607C-116.632 163.473 -120.126 166.309 -123.509 168.985V165.17C-120.715 162.943 -117.89 160.627 -115.035 158.29C-101.151 146.875 -86.7882 135.071 -71.6366 131.825C-69.0836 131.287 -66.4804 131.022 -63.8712 131.037C-55.656 131.005 -47.6035 133.327 -40.6648 137.728C-34.8457 141.622 -31.1926 146.875 -30.0946 152.917C-27.23 168.496 -39.1077 171.702 -49.588 174.488Z" fill="#221F1A" fill-opacity="0.1"/>
</g>
</svg>
