<svg width="96" height="116" viewBox="0 0 96 116" fill="none" xmlns="http://www.w3.org/2000/svg">
<path d="M54.9024 96.4103C55.1361 98.7728 49.6981 99.1583 31.7337 98.1262C12.7181 97.0214 8.56362 96.0857 9.26656 93.3253C10.28 89.5411 54.426 92.5992 54.9024 96.4103Z" fill="#221F1A"/>
<path d="M66.5355 13.1118C73.6371 12.9177 74.5835 14.1102 79.6423 29.5731C84.8841 45.5387 85.2733 48.6417 82.3627 49.8718C77.076 52.0806 74.3328 48.2976 66.8646 28.8732C61.3628 14.5392 61.294 13.255 66.5355 13.1118Z" fill="#221F1A"/>
<path d="M27.942 38.6005C33.0465 38.3934 34.9341 39.3571 41.119 45.2459C59.3991 62.7842 73.8479 73.8618 63.9039 74.0658C59.8459 74.1767 56.1113 71.2668 34.0467 51.4629C21.9012 40.4577 21.1147 38.9224 27.942 38.6005Z" fill="#221F1A"/>
</svg>
