<svg width="109" height="76" viewBox="0 0 109 76" fill="none" xmlns="http://www.w3.org/2000/svg">
<path d="M32.5445 22.1397L32.5775 22.0758C32.5916 21.9338 32.4804 21.836 32.2438 21.7823C31.9574 21.5537 31.6765 21.1941 31.391 20.7047C31.1691 20.3444 30.9973 19.9555 30.8805 19.5487C30.8592 19.468 30.8499 19.3846 30.8527 19.3011C30.8549 19.2307 30.89 19.1867 30.9472 19.1602C31.02 19.1226 31.0984 19.0969 31.1793 19.084L31.3928 19.02C31.6787 18.8877 31.8822 18.8248 32.0143 18.8401C32.1563 18.8542 32.2697 18.9719 32.3524 19.1732C32.4959 19.5582 32.7856 19.9067 33.2007 20.2111C33.6148 20.5057 34.1068 20.6912 34.656 20.76C35.1446 20.8255 35.6024 20.7943 36.0105 20.6784C36.4175 20.5525 36.633 20.3278 36.6756 19.9922C36.6924 19.6695 36.6218 19.3484 36.4711 19.0625C36.46 18.9635 36.4104 18.8788 36.3509 18.7953C36.0168 18.4806 35.7129 18.1353 35.4432 17.7639C35.2308 17.6574 35.0138 17.5113 34.7837 17.3365L34.351 17.0541C33.9407 16.7716 33.5668 16.4397 33.2375 16.0659C32.8454 15.6085 32.5897 15.206 32.4595 14.8496C32.1797 14.4999 32.0857 14.0192 32.1665 13.3985C32.2506 12.7172 32.502 12.0975 32.9021 11.5513C33.3367 10.9474 33.8402 10.3963 34.4026 9.90918C34.9016 9.39768 35.4653 8.9536 36.0794 8.58822L36.7183 8.11555C36.7425 8.0627 36.76 8.04068 36.7909 8.04725L36.8591 8.02958C36.9064 8.00423 37.0725 7.96556 37.3453 7.89487C37.617 7.81429 37.9195 7.65004 38.245 7.42306C39.191 7.09645 40.0117 6.9042 40.7137 6.81551C41.4355 6.72459 42.0253 6.70863 42.493 6.76651C43.0565 6.87382 43.5487 7.14955 43.9782 7.58271C44.4199 8.03455 44.6426 8.50091 44.6497 9.01149C44.6653 9.15013 44.6588 9.27118 44.6478 9.35262C44.5779 9.89188 44.2715 10.4677 43.7581 11.0767C43.2239 11.678 42.7093 12.0966 42.1703 12.2974C41.9636 12.3682 41.7439 12.3928 41.5267 12.3696C41.306 12.3494 41.0997 12.2518 40.9443 12.0939C40.882 12.0229 40.8377 11.9379 40.8152 11.8462C40.7927 11.7545 40.7927 11.6587 40.815 11.5669C40.8402 11.4133 40.9032 11.2684 40.9984 11.1453C41.1215 10.9911 41.3843 10.7411 41.768 10.4073C42.3561 9.74982 42.6725 9.26315 42.7063 8.9385C42.7436 8.73379 42.6257 8.57654 42.3758 8.49425C41.9339 8.42846 41.4841 8.43818 41.0455 8.52301C40.3203 8.58422 39.9573 8.65499 39.9551 8.72541C39.9574 8.74522 39.9398 8.76724 39.9145 8.81018C39.9178 8.83989 39.8881 8.84322 39.8551 8.81684C39.7935 8.80369 39.3524 8.98348 38.5142 9.37821C37.6959 9.77072 37.2703 9.99891 37.2285 10.0738C37.2055 10.1365 37.1439 10.2136 37.0219 10.2874C36.9284 10.3481 36.8129 10.3911 36.6776 10.4363C36.3916 10.5686 36.1211 10.7494 35.8671 10.9884C35.6253 11.2461 35.2988 11.6437 34.8988 12.1898C34.6833 12.4145 34.5009 12.6656 34.3504 12.9331C34.2109 13.2095 34.1187 13.4604 34.0947 13.6937C34.0729 13.8566 34.0785 13.9964 34.1017 14.1141C34.1272 14.3418 34.2529 14.5684 34.4776 14.7839C34.7122 14.9982 35.1648 15.3686 35.8354 15.8951C36.516 16.4204 37.1173 16.9547 37.6515 17.5165C38.1835 18.0585 38.5008 18.4741 38.5935 18.7645C38.7743 19.1253 38.8353 19.5797 38.7654 20.119C38.7107 20.5262 38.5956 20.9301 38.4352 21.289C38.2638 21.5489 38.0583 21.7724 37.8307 21.9784C37.5954 22.2053 37.3941 22.288 37.24 22.2552C37.0915 22.2718 36.9562 22.3171 36.8506 22.359C36.7373 22.4218 36.6405 22.4527 36.5635 22.4814C36.3809 22.552 35.9144 22.5942 35.1727 22.5971C34.5736 22.6263 33.9731 22.5996 33.379 22.5174L32.5445 22.1397Z" fill="#E35523"/>
<path fill-rule="evenodd" clip-rule="evenodd" d="M41.091 21.6434C41.0601 21.5466 40.9456 21.419 40.766 21.2486C40.5854 21.0683 40.4951 20.9782 40.4918 20.9485C40.4442 20.7488 40.3754 20.5549 40.2865 20.3699C40.1808 20.2313 40.3202 19.8648 40.6739 19.2636C41.0376 18.6613 41.5112 17.9666 42.0816 17.1506C42.1838 17.079 42.3091 16.9446 42.4762 16.7354C42.6554 16.5449 42.7532 16.4336 42.8005 16.4083C42.8137 16.3466 42.8389 16.3037 42.8851 16.2684C42.939 16.2123 42.9973 16.1957 43.0578 16.199L43.2721 15.8741C43.3589 15.7541 43.669 15.4787 44.243 15.0534C44.817 14.6281 45.2668 14.3471 45.5725 14.2126C45.8761 14.0582 46.1809 14.004 46.5066 14.0477C46.8533 14.0991 47.1296 14.2386 47.3565 14.4739L47.8721 15.0478L48.5253 15.7767L49.2391 16.5992L48.724 17.6395C48.5351 18.0116 48.4254 18.3749 48.374 18.7216C48.3052 19.2707 48.396 19.812 48.6242 20.3279C48.6827 20.4918 48.7588 20.6337 48.87 20.7315C48.9823 20.8392 49.142 20.9216 49.339 20.9798C49.6505 21.0752 49.7915 21.2599 49.7499 21.5153C49.7062 21.841 49.6118 22.0722 49.4865 22.2066C49.3692 22.3403 49.209 22.4292 49.0334 22.4579L48.5503 22.4418C48.1233 22.3894 47.7545 22.2302 47.434 21.9653C47.0718 21.6301 46.8087 21.2017 46.6736 20.727C46.5372 20.4073 46.4486 20.0692 46.4108 19.7237C46.2325 19.9042 46.0398 20.07 45.8346 20.2194C44.1456 21.5217 42.8389 22.1193 41.9024 21.9936C41.6034 21.959 41.3213 21.8372 41.091 21.6434ZM42.5211 19.9991C42.7489 20.0638 43.2373 19.8587 43.9775 19.3947C44.1732 19.2706 44.366 19.142 44.5559 19.0091C45.2466 18.6389 45.8703 18.1555 46.401 17.579L46.9924 16.861C46.9344 16.6144 46.83 16.381 46.6847 16.1735C46.58 16.0449 46.471 15.9668 46.3599 15.9592C46.0737 15.9111 45.6778 16.136 45.1676 16.5942C44.6663 17.0414 44.043 17.743 43.299 18.7087C43.0956 18.9521 42.933 19.201 42.7836 19.4784L42.5211 19.9991Z" fill="#E35523"/>
<path d="M51.1936 20.7823C51.3551 21.6867 51.5041 22.2115 51.6495 22.3456C51.7663 22.4929 51.916 22.5764 52.0987 22.596C52.496 22.6518 52.9404 22.5017 53.4496 22.1238C53.6551 21.9002 53.875 21.7151 54.0994 21.5697L54.5118 21.3129C54.6789 21.1939 55.0021 20.8569 55.5056 20.3392C55.9832 19.8742 56.4129 19.3625 56.7883 18.8117C56.9169 18.6168 57.0312 18.4737 57.1401 18.3712C57.4083 18.0805 57.5676 17.8019 57.6058 17.5169C57.6205 17.4352 57.6153 17.3512 57.5907 17.272C57.5661 17.1927 57.5228 17.1205 57.4645 17.0615C57.3698 16.9317 57.2124 16.8691 57.0022 16.8726C56.8438 16.8904 56.5974 17.0183 56.2631 17.2563C55.9387 17.4932 55.6737 17.7234 55.4758 17.9261L54.7283 18.6816C54.1972 19.2729 53.6342 19.8347 53.0419 20.3646C52.9583 20.4241 52.9088 20.4297 52.8834 20.3824C52.8555 20.3034 52.8395 20.2207 52.8359 20.137C52.8225 20.0182 52.8103 19.9093 52.7805 19.8224C52.7738 19.3514 52.7712 18.8805 52.7726 18.4095C52.7325 16.7094 52.56 15.7962 52.2616 15.6392C52.1256 15.6086 51.9859 15.5973 51.8467 15.6054C51.6453 15.5979 51.5254 15.6013 51.4605 15.6487C51.3065 15.7061 51.1526 15.8537 51.0065 16.0706C50.8689 16.2561 50.7794 16.4728 50.7463 16.7014C50.7342 16.7729 50.7343 16.8631 50.7476 16.982C50.8593 17.531 50.918 17.9656 50.9315 18.2649C50.9476 19.0351 51.042 19.8768 51.1936 20.7823Z" fill="#E35523"/>
<path fill-rule="evenodd" clip-rule="evenodd" d="M59.6503 24.5878C58.8161 24.4808 58.1875 24.1502 57.7369 23.6191C57.2973 23.0968 57.1294 22.4037 57.2442 21.5486C57.2868 21.2129 57.3656 20.8431 57.4511 20.4425C57.5333 20.1024 57.732 19.6389 58.0594 19.0708C58.3956 18.4917 58.8352 17.9411 59.3387 17.4234C60.0012 16.7481 60.8695 16.3121 61.8069 16.1843C62.0038 16.1522 62.2239 16.1475 62.4682 16.1803C62.97 16.2235 63.4509 16.4018 63.8596 16.6962C64.2109 16.9677 64.4334 17.2536 64.5459 17.5418C64.6694 17.8388 64.7082 18.0951 64.6897 18.2877L64.67 18.4704C64.6394 18.6443 64.5021 18.9404 64.2307 19.3819C63.9682 19.8124 63.5812 20.2067 63.0786 20.5538C62.597 20.9086 62.0018 21.0555 61.2942 21.0045C60.9475 20.9531 60.6085 20.8808 60.286 20.7766C59.9723 20.6613 59.7753 20.6032 59.6938 20.5922C59.4792 20.5561 59.3263 20.6234 59.2528 20.772C59.1693 20.9218 59.0991 21.1903 59.051 21.5667C59.0459 21.9684 59.11 22.272 59.2708 22.4545C59.4317 22.637 59.6959 22.7578 60.0415 22.7993C60.2153 22.83 60.4233 22.8067 60.6653 22.7294C60.9172 22.651 61.212 22.5077 61.5694 22.2972C61.7564 22.176 61.9082 22.0988 62.0226 22.0459C62.1422 21.9993 62.2719 21.9848 62.3989 22.0037C62.532 22.0289 62.6741 22.1333 62.8173 22.3378C62.9694 22.5314 63.04 22.714 63.0379 22.8746C62.9863 23.0408 62.783 23.2842 62.4565 23.5915C62.12 23.9 61.6977 24.1578 61.2006 24.374C60.7034 24.5901 60.1797 24.6589 59.6503 24.5878ZM61.1101 19.4509C61.3852 19.4903 61.5745 19.4791 61.6801 19.4372C61.8352 19.3897 62.0782 19.2321 62.4114 18.9842C62.7523 18.7154 62.9414 18.5237 62.9699 18.4203C62.9832 18.3491 62.9769 18.2757 62.9516 18.2079C62.9263 18.14 62.8831 18.0804 62.8265 18.0353C62.6945 17.9077 62.528 17.8218 62.3476 17.7881L62.1021 17.7454C61.9194 17.7258 61.6225 17.8493 61.2211 18.1149C60.8285 18.3695 60.4832 18.6889 60.1634 19.0556C60.1722 19.1349 60.2714 19.214 60.4618 19.303C60.6599 19.371 60.8757 19.417 61.1101 19.4509Z" fill="#E35523"/>
<path d="M74.9499 27.0736C75.0313 27.0845 75.0907 27.0779 75.1479 27.0514C75.2227 27.0029 75.3303 26.8004 75.4797 26.4327C75.5905 26.1696 75.7212 25.9043 75.8519 25.6389C76.1971 24.7358 76.5901 23.8517 77.0291 22.9903C77.1905 22.5697 77.3791 22.1601 77.5935 21.7639C77.8648 21.2321 78.0867 20.7962 78.2261 20.4296L79.3056 18.1629C79.79 17.2062 80.1141 16.6084 80.2756 16.3496C80.4283 16.1019 80.5085 15.9224 80.5172 15.8212C80.5325 15.7794 80.527 15.7298 80.5005 15.6727C80.507 15.5516 80.366 15.3669 80.0885 15.1272C79.8087 14.8678 79.6325 14.7271 79.5401 14.7074C79.2683 14.7299 79.0016 14.7936 78.7491 14.8963C78.287 15.0684 77.7877 15.2648 77.2531 15.5052L75.9872 16.1985C75.2855 16.5579 74.9181 16.7695 74.8643 16.8257C74.74 16.8797 74.5981 16.9558 74.4584 17.0516C73.6838 17.4114 72.9249 17.8042 72.1839 18.229C72.0685 18.3623 72.0742 18.5923 72.1912 18.9201C72.318 19.2468 72.458 19.5118 72.6409 19.7119C72.6959 19.7559 72.7499 19.79 72.8104 19.7932L72.9689 19.7754C73.047 19.7567 73.1317 19.7071 73.2537 19.6332L73.5089 19.4943L73.9235 19.2574C74.116 19.1856 74.4471 19.0082 74.8892 18.7481C75.3126 18.5001 75.6063 18.3468 75.7779 18.2674C76.4016 17.8973 77.0581 17.5854 77.739 17.3358L77.4566 17.7685C76.9194 18.7963 76.4179 19.8424 75.9531 20.9049C75.3678 22.2139 75.0119 22.8854 74.8865 22.9296C74.5796 23.5841 74.2997 24.2511 74.0477 24.9287C73.8864 25.3679 73.7844 25.7102 73.7593 25.9336C73.7315 26.0592 73.7358 26.1898 73.7717 26.3133C73.9019 26.5656 74.1156 26.7649 74.3764 26.8772C74.6098 26.9914 74.7969 27.0506 74.9499 27.0736ZM84.2635 28.1355C84.203 28.1323 84.1149 28.0619 84.0015 27.9443C83.8667 27.7926 83.7674 27.6128 83.7109 27.4179C83.6544 27.2231 83.642 27.018 83.6747 26.8178L83.6647 26.7287L83.8413 26.1574C84.075 25.3792 84.4318 24.5371 84.903 23.642C85.0447 23.3855 85.1183 23.2368 85.1161 23.217L84.5164 23.2341C83.7341 23.3218 83.196 23.352 82.8912 23.316C82.6618 23.2939 82.4435 23.2071 82.2615 23.0657C82.0879 22.9037 81.9498 22.7075 81.856 22.4894C81.714 22.2867 81.6074 22.0613 81.5407 21.8229C81.4226 21.4852 81.3718 21.2101 81.4101 21.0153C81.4111 20.9684 81.4231 20.9224 81.4452 20.881L81.4561 20.7996C81.4925 20.755 81.5208 20.7043 81.5396 20.6499L81.6726 20.4946C81.8725 20.1313 82.0417 19.8516 82.1802 19.6556C82.356 19.4354 82.4406 19.2955 82.4428 19.2251C82.5955 18.9774 83.0934 18.4102 83.9542 17.5016C84.8161 16.6028 85.3767 16.0587 85.6363 15.8692C85.9646 15.7789 86.2987 15.7113 86.6363 15.6669C86.7794 15.6909 86.9083 15.857 87.0329 16.1639C87.1664 16.4597 87.2304 16.6732 87.2129 16.7854C86.9171 17.145 86.5925 17.4798 86.2422 17.7866C85.5518 18.5157 84.9022 19.2503 84.312 19.9782C83.9259 20.3889 83.616 20.865 83.3967 21.3843C83.3904 21.4164 83.3908 21.4495 83.3978 21.4815C83.4048 21.5135 83.4184 21.5437 83.4376 21.5702C83.4915 21.6043 83.5851 21.6339 83.738 21.6569C84.5468 21.6264 85.1245 21.5917 85.4479 21.5254C85.8033 21.4755 86.0321 21.3697 86.1761 21.2232C86.3311 21.0855 86.5125 20.8245 86.73 20.4392L87.0639 19.8403C87.4704 19.173 87.8485 18.6093 88.2067 18.138C88.5749 17.6656 88.8871 17.3197 89.1213 17.0829C89.3543 16.8362 89.5017 16.7194 89.5424 16.7249C89.6139 16.7369 89.8045 16.9161 90.1041 17.2636C90.4224 17.5989 90.5646 17.7935 90.5712 17.8529C90.5406 18.0268 90.4791 18.1942 90.3846 18.3351C90.0431 18.8162 89.6917 19.2901 89.3307 19.7567C88.0892 21.5709 86.9786 23.4713 86.0073 25.4434C85.6614 26.2041 85.4803 26.6455 85.4562 26.7886C85.4421 26.9294 85.4614 27.0715 85.5127 27.2034C85.4734 27.4785 85.3184 27.7065 85.0402 27.9081C84.7609 28.0998 84.5079 28.1683 84.2635 28.1355Z" fill="#E35523"/>
<path fill-rule="evenodd" clip-rule="evenodd" d="M92.8046 22.4865C92.9015 22.5459 93.016 22.5832 93.1689 22.6061C93.432 22.6268 93.7587 22.5902 94.1515 22.5161C94.5432 22.4321 94.882 22.3239 95.1669 22.1817C95.531 22.0306 95.8499 21.8344 96.1248 21.6031C96.4206 21.3794 96.7669 21.0699 97.1352 20.6877C97.7893 20.0288 98.2328 19.1903 98.4094 18.2788L98.4442 17.8739C98.4494 17.5624 98.3534 17.2423 98.1473 16.9245C97.9697 16.6281 97.7214 16.3804 97.4247 16.2033C97.3615 16.1008 97.2836 16.0082 97.1934 15.9284C97.1346 15.8775 97.0608 15.847 96.9831 15.8417C96.8133 15.8374 96.6434 15.8497 96.4759 15.8785C95.8586 15.9176 95.2789 16.1129 94.7081 16.4777C94.3606 16.6871 93.7978 17.3016 93.0296 18.3202C92.8109 18.5927 92.6153 18.8829 92.445 19.1879C92.278 19.4874 92.2 19.6866 92.21 19.7757C92.2267 19.9243 92.1948 19.998 92.1233 19.986C92.1008 20.0168 92.0733 20.0436 92.0419 20.0653C92.0145 20.0884 92.02 20.1379 92.0674 20.2028L92.0543 20.3547C92.0621 20.424 92.0313 20.5077 92.0006 20.5913C91.9227 20.7906 91.9394 21.0293 92.0321 21.3197C92.1358 21.619 92.2968 21.8917 92.5182 22.1677C92.6339 22.3051 92.7264 22.4151 92.8046 22.4865ZM95.9392 19.6787C95.7809 19.8769 95.5742 20.0906 95.3093 20.3208C94.7397 20.7857 94.303 21.0051 93.9982 20.9691C93.744 20.9374 93.6327 20.7493 93.6753 20.4137C93.6982 20.2607 93.7674 20.0725 93.8849 19.8688C94.2332 19.3083 94.5376 18.8932 94.7849 18.5948C95.0334 18.3062 95.3071 18.065 95.6085 17.8908C95.8394 17.7146 96.0616 17.6395 96.285 17.6646C96.3874 17.6832 96.471 17.714 96.547 17.7656C96.6241 17.8272 96.6319 17.9867 96.6025 18.2607C96.5653 18.4654 96.5181 18.6713 96.4292 18.8617C96.2853 19.1887 96.1162 19.4683 95.9392 19.6787Z" fill="#E35523"/>
<path d="M89.0941 30.2617C89.2329 30.4266 89.4267 30.5452 89.6633 30.5989C89.7931 30.5944 89.9559 30.526 90.1605 30.3828C90.3672 30.2594 90.5365 30.0699 90.6705 29.8343C90.8222 29.5767 91.286 29.0635 92.0644 28.3144L95.0978 25.4979C95.6355 25.1067 95.918 24.8545 95.9333 24.7224C95.9627 24.6984 95.9899 24.6719 96.0147 24.6431C96.0499 24.599 96.0796 24.5957 96.1115 24.6122C96.1896 24.5934 96.2556 24.5559 96.2996 24.5009L96.3897 24.4106C96.5978 24.2127 96.8225 24.0332 97.0615 23.874L98.1667 23.0884C98.347 22.9078 98.5328 22.7766 98.6824 22.6797C98.7077 22.6367 99.0826 22.314 99.8083 21.7213C100.544 21.1274 101.134 20.6702 101.559 20.3419L101.905 20.1226L102.24 19.8846C102.706 19.5716 102.983 19.3601 103.103 19.2665C103.231 19.1618 103.346 19.0186 103.447 18.8469C103.526 18.7363 103.573 18.606 103.582 18.4705C103.592 18.3349 103.564 18.1994 103.501 18.0788C103.447 17.9342 103.375 17.7974 103.285 17.6718C103.22 17.5816 103.159 17.488 103.103 17.3914C103.054 17.3508 102.996 17.3229 102.934 17.3101C102.874 17.3028 102.812 17.3096 102.755 17.3301C102.703 17.308 102.647 17.2939 102.59 17.2884C102.458 17.2731 102.364 17.3239 102.308 17.4505C102.213 17.5914 101.216 18.4451 99.306 20.0128C98.1935 20.9674 97.0447 21.8788 95.8621 22.745C95.8306 22.7984 95.7878 22.8442 95.7368 22.8794C95.6708 22.9169 95.6445 22.9499 95.6379 22.9807C95.602 23.0392 95.5572 23.0916 95.5049 23.136C95.44 23.1834 95.3773 23.2506 95.3246 23.3167C95.2207 23.3299 95.1218 23.3686 95.0364 23.4292C94.944 23.4997 94.8649 23.5988 94.8067 23.7056C94.7677 23.7868 94.7149 23.8605 94.6506 23.9236C94.5769 23.982 94.5186 23.9986 94.4581 23.9953L94.4174 23.9899L92.1876 25.9243C91.1563 26.832 90.5549 27.3706 90.4032 27.538C90.345 27.6448 90.1471 27.8475 89.8172 28.1251C89.2808 28.7066 88.9852 29.201 88.9328 29.628C88.9127 29.739 88.9167 29.853 88.9445 29.9624C88.9724 30.0717 89.0234 30.1738 89.0941 30.2617Z" fill="#E35523"/>
<path fill-rule="evenodd" clip-rule="evenodd" d="M94.9035 30.9946C94.9916 31.065 95.117 31.1111 95.2601 31.1351C95.5231 31.1558 95.8499 31.1192 96.2504 31.0242C96.9799 30.8822 97.6661 30.5718 98.2544 30.1177C98.5392 29.8853 98.8669 29.5879 99.2252 29.2068C99.878 28.5507 100.322 27.7159 100.501 26.8078C100.53 26.624 100.534 26.4832 100.535 26.4028C100.548 26.0705 100.452 25.7504 100.246 25.4326C100.069 25.1362 99.8203 24.8884 99.5236 24.7114C99.4604 24.6089 99.3825 24.5163 99.2923 24.4365C99.2345 24.3817 99.1601 24.3477 99.0809 24.3399C98.9077 24.3388 98.7349 24.3548 98.5649 24.3877C97.9674 24.4245 97.3888 24.6298 96.8004 25.0166C96.5826 25.1312 96.299 25.3736 95.9813 25.7601C95.4554 26.3693 94.9749 27.0163 94.5438 27.696C94.3768 27.9954 94.2989 28.1947 94.3089 28.2838C94.3255 28.4323 94.2838 28.5072 94.2122 28.4952C94.1926 28.5247 94.1685 28.5511 94.1408 28.5734C94.1034 28.5976 94.1189 28.646 94.1563 28.712L94.1433 28.8639C94.151 28.9332 94.1302 29.0157 94.0896 29.1005C94.0105 29.2898 94.0383 29.5374 94.1211 29.8289C94.2783 30.2778 94.5476 30.6791 94.9035 30.9946ZM98.0171 28.1791C97.8512 28.3982 97.6555 28.6207 97.3982 28.83C96.8386 29.2938 96.4019 29.5132 96.0971 29.4771C95.8318 29.4367 95.7315 29.2574 95.7741 28.9217C95.796 28.7589 95.8662 28.5805 95.9838 28.3768C96.3321 27.8164 96.6255 27.3925 96.853 27.0963C97.1014 26.8077 97.3752 26.5665 97.6765 26.3923C97.9074 26.2161 98.1296 26.141 98.3531 26.1661C98.4653 26.1836 98.56 26.2231 98.6459 26.2737C98.702 26.3275 98.711 26.497 98.664 26.793C98.6389 27.0165 98.5906 27.2124 98.528 27.3698C98.3633 27.6891 98.1941 27.9687 98.0171 28.1791Z" fill="#E35523"/>
<path d="M16.1343 48.3595C13.3924 49.6791 11.1148 50.7509 8.23271 50.965C7.17855 51.041 6.89005 52.6515 7.40609 53.2716C7.91156 53.8429 8.39061 54.4241 8.89193 55.0045C10.5824 56.9847 12.2687 58.9739 14.1602 60.7064C14.9431 61.4378 15.9809 59.9622 15.3293 59.1595C14.7238 58.3998 14.096 57.6409 13.4682 56.882C12.7615 56.0321 12.0548 55.1822 11.3606 54.3052C28.1058 61.703 50.087 50.2802 59.0966 29.5385C59.1796 29.3573 59.2 29.1694 59.1452 29.0018C59.128 28.9219 59.093 28.8469 59.043 28.7822C58.993 28.7176 58.9291 28.6649 58.8561 28.6282C58.7806 28.5969 58.699 28.5829 58.6174 28.5872C58.5357 28.5915 58.4561 28.6141 58.3843 28.6532C58.2192 28.7362 58.0871 28.8727 58.0096 29.0405C48.1897 48.2491 29.9074 57.651 13.5966 52.5347C14.7979 52.0657 15.9381 51.3715 16.9865 50.4708C17.2121 50.2892 17.3812 50.0159 17.4604 49.7234C17.5396 49.4308 17.529 49.1191 17.4267 48.864C17.3805 48.744 17.3105 48.6347 17.2207 48.5427C17.131 48.4507 17.0234 48.3779 16.9046 48.3288C16.7808 48.2814 16.6487 48.2597 16.5163 48.2649C16.3838 48.2702 16.2539 48.3024 16.1343 48.3595Z" fill="#E35523"/>
</svg>
