<svg width="387" height="384" viewBox="0 0 387 384" fill="none" xmlns="http://www.w3.org/2000/svg">
<mask id="mask0_1_9192" style="mask-type:alpha" maskUnits="userSpaceOnUse" x="0" y="0" width="387" height="384">
<path d="M94.4883 25.7783L0 69.0017V383.628H32.1662L77.4 339.399L118.613 285.119L170.883 251.947L236.221 263.004H365.891L387 174.547L356.844 105.189L328.699 38.8458L265.371 0.648438H182.945L94.4883 25.7783Z" fill="#0A102F"/>
</mask>
<g mask="url(#mask0_1_9192)">
<path d="M251.168 -71.7314C232.064 -71.7314 226.333 -59.8365 219.731 -37.0389C219.319 -35.4635 219.221 -33.8222 219.443 -32.2089C219.665 -30.5956 220.202 -29.042 221.025 -27.6367C221.889 -25.8722 223.414 -24.52 225.269 -23.8734C233.249 -21.8768 241.434 -21.7317 249.354 -21.5865C260.236 -21.3928 270.538 -21.2113 280.646 -16.7462C283.997 -15.0754 287.229 -13.1751 290.319 -11.0589C299.556 -5.11749 310.015 1.61044 319.446 -1.53574C325.794 -3.65332 329.3 -6.75107 329.881 -10.7443C331.223 -20.0013 315.903 -30.7103 305.771 -37.8013C303.97 -39.0113 302.41 -40.1488 301.201 -41.0563C297.224 -44.2307 293.448 -47.6497 289.896 -51.2934C281.226 -59.7639 271.384 -69.4443 259.813 -71.0779C256.95 -71.5001 254.061 -71.7185 251.168 -71.7314ZM226.163 -27.3947C225.293 -27.8362 224.595 -28.5559 224.18 -29.4397C223.023 -31.4323 222.685 -33.7971 223.237 -36.0346C230.589 -61.5305 235.619 -70.8601 259.366 -67.4962C269.764 -66.0199 278.711 -57.2227 287.417 -48.716C291.081 -44.9569 294.978 -41.4326 299.085 -38.1642C300.294 -37.2204 301.926 -36.1193 303.752 -34.8366C312.01 -29.0646 327.366 -18.3192 326.35 -11.2767C325.975 -8.74768 323.291 -6.64218 318.358 -4.99649C310.571 -2.39487 300.886 -8.62668 292.338 -14.1204C289.089 -16.3495 285.682 -18.3393 282.145 -20.0739C271.36 -24.9141 260.224 -25.0714 249.499 -25.265C241.737 -25.3497 233.745 -25.5433 226.163 -27.3947Z" fill="#221F1A" fill-opacity="0.1"/>
<path d="M572.67 165.755C567.454 165.785 562.379 167.452 558.16 170.523C542.442 181.619 535.864 208.386 534.595 220.994C532.842 238.577 539.601 252.662 546.13 266.263C549.66 273.62 553.3 281.219 555.633 289.375C557.592 296.224 557.786 304.985 558.052 314.254C558.547 335.672 559.116 359.946 582.548 367.763C587.747 369.505 589.803 368.477 591.846 366.976C592.1 366.795 592.354 366.601 592.632 366.42C592.753 366.346 592.866 366.261 592.971 366.165L595.244 363.842C595.326 363.766 595.399 363.681 595.461 363.588C598.448 359.147 597.166 350.35 595.667 345.836C589.355 326.899 582.911 304.271 582.911 280.07C582.911 268.55 588.146 259.632 593.696 250.181C602.631 234.946 612.764 217.679 600.37 186.653C596.066 175.883 588.848 168.95 579.513 166.614C577.276 166.047 574.977 165.759 572.67 165.755ZM587.022 365.052C585.851 364.983 584.698 364.738 583.6 364.326C562.586 357.308 562.078 335.382 561.582 314.169C561.365 304.658 561.159 295.679 559.067 288.371C556.649 279.9 552.937 272.18 549.394 264.702C542.793 250.931 536.554 237.935 538.21 221.357C539.613 207.369 546.674 183.083 560.24 173.5C562.85 171.599 565.854 170.31 569.028 169.728C572.203 169.145 575.468 169.285 578.582 170.136C588.896 172.713 594.301 181.28 596.949 188.008C608.689 217.376 599.451 233.119 590.516 248.342C584.966 257.792 579.235 267.558 579.235 280.07C579.235 304.791 585.776 327.77 592.173 346.986C593.551 351.112 594.397 358.349 592.487 361.422L590.48 363.467C590.202 363.649 589.936 363.842 589.67 364.036C588.941 364.687 587.999 365.048 587.022 365.052Z" fill="#221F1A" fill-opacity="0.1"/>
<path d="M245.654 90.0296C244.898 90.0269 244.142 90.0795 243.393 90.1869C237.735 90.9977 233.72 94.8093 231.496 101.525C229.271 108.241 233.213 114.678 237.033 120.886C239.452 124.783 241.688 128.473 242.257 131.91C247.287 162.161 229.73 181.885 190.06 190.707L188.415 191.07C182.539 192.364 176.469 193.695 171.234 196.721C170.858 196.941 170.512 197.209 170.206 197.519C169.514 198.187 169.036 199.046 168.834 199.987C168.632 200.928 168.714 201.907 169.071 202.801C169.428 203.694 170.043 204.461 170.837 205.003C171.632 205.545 172.57 205.838 173.531 205.845C182.43 206.074 190.084 206.728 196.843 207.297C219.199 209.172 235.341 210.527 269.486 195.341C292.096 185.286 299.714 167.401 293.402 139.049C291.464 130.217 287.897 121.825 282.883 114.303C277.986 107.249 259.765 90.0296 245.654 90.0296ZM216.865 204.828C210.518 204.828 204.206 204.296 197.157 203.703C190.35 203.122 182.648 202.493 173.628 202.239C173.374 202.254 173.122 202.19 172.908 202.054C172.693 201.919 172.526 201.719 172.431 201.484C172.336 201.248 172.318 200.988 172.378 200.742C172.439 200.495 172.576 200.273 172.769 200.109C172.853 200.026 172.947 199.953 173.047 199.891C177.799 197.144 183.591 195.874 189.189 194.639L190.845 194.276C232.741 184.959 251.301 163.783 245.836 131.353C245.146 127.215 242.595 123.064 240.129 119.035C236.574 113.263 233.225 107.805 234.93 102.699C236.719 97.3263 239.657 94.4221 243.913 93.805C255.932 92.0746 274.83 109.088 279.896 116.409C284.622 123.559 287.999 131.516 289.859 139.884C295.796 166.614 289.061 182.72 268.011 192.074C245.11 202.239 230.879 204.828 216.865 204.828Z" fill="#221F1A" fill-opacity="0.1"/>
<path d="M192.308 411.966C189.721 407.598 187.037 403.072 187.037 397.446C187.037 393.029 188.887 389.072 190.664 385.236C192.151 382.422 193.246 379.417 193.916 376.306C195.307 367.835 190.289 360.575 185.912 355.892C172.539 341.795 144.911 331.219 126.787 333.252C117.658 334.28 111.649 337.342 108.42 342.594C102.109 352.843 107.574 369.88 113.184 385.042C114.031 387.317 114.853 389.81 115.723 392.448C118.758 401.608 122.192 412.003 127.814 417.762C128.419 418.368 129.145 419.069 129.967 419.856C131.696 421.538 133.787 423.559 135.855 425.809H130.91C129.701 424.599 128.492 423.462 127.512 422.47C126.678 421.659 125.928 420.933 125.312 420.316C119.024 413.951 115.445 403.133 112.29 393.585C111.431 390.972 110.621 388.515 109.799 386.325C103.886 370.34 98.143 352.335 105.398 340.694C109.206 334.51 116.28 330.795 126.46 329.646C128.11 329.463 129.77 329.375 131.43 329.38C150.268 329.38 175.744 339.835 188.621 353.399C195.766 360.926 198.862 369.045 197.568 376.887C196.846 380.329 195.654 383.656 194.025 386.773C192.333 390.403 190.724 393.827 190.724 397.446C190.724 402.08 193.034 405.916 195.488 410.115C198.136 414.592 201.062 419.565 200.845 425.846H197.217C197.399 420.594 194.872 416.383 192.308 411.966Z" fill="#221F1A" fill-opacity="0.1"/>
<path d="M60.8057 411.761C65.1101 408.614 70.7687 407.901 77.6123 409.631C83.3918 411.095 89.8485 417.69 97.1757 425.809H92.2546C86.3904 419.432 80.9736 414.229 76.7296 413.152C70.8897 411.676 66.3918 412.184 62.9458 414.689C59.7538 417.036 57.6741 420.969 56.2594 425.809H52.4507C54.0468 419.88 56.5859 414.846 60.8057 411.761Z" fill="#221F1A" fill-opacity="0.1"/>
<path d="M228.727 399.103C227.614 391.722 225.873 382.163 222.222 373.692C215.895 359.349 207.676 345.919 197.786 333.76C192.949 327.819 186.263 322.628 179.758 317.594C177.98 316.226 176.239 314.883 174.583 313.54C168.707 308.773 161.959 305.198 154.717 303.012C115.071 291.021 96.8493 323.124 79.2326 354.174C65.751 377.915 53.0191 400.398 31.4244 403.048C20.5424 404.403 9.74507 403.133 -1.00391 400.749V397.022C9.67252 399.442 20.3973 400.773 30.977 399.442C50.7701 397.022 63.0668 375.314 76.0768 352.383C91.0093 326.064 107.647 296.72 138.672 296.72C144.48 296.778 150.249 297.687 155.793 299.419C163.483 301.729 170.647 305.523 176.88 310.587C178.525 311.906 180.254 313.237 182.007 314.605C188.681 319.76 195.573 325.084 200.639 331.352C210.742 343.794 219.135 357.533 225.595 372.204C229.416 381.11 231.205 390.972 232.342 398.571C233.877 407.578 233.975 416.772 232.632 425.809H229.005C230.286 418.392 230.335 409.643 228.727 399.103Z" fill="#221F1A" fill-opacity="0.1"/>
<path d="M603.55 43.4301C599.036 43.774 594.505 43.8306 589.984 43.5996C565.609 42.1596 543.724 30.2889 522.552 18.8659C507.269 10.6012 491.454 2.04605 475.022 -2.33438C434.529 -13.1523 402.077 -0.458771 381.195 34.3789C374.557 45.4388 369.951 54.1634 371.027 65.9494C372.562 82.8902 378.717 97.411 385.234 112.718C388.474 120.342 391.823 128.231 394.556 136.448C398.316 147.749 398.885 158.58 399.489 170.051C399.683 173.681 399.876 177.553 400.203 181.353C400.759 188.141 402.911 195.014 405.039 201.658C406.762 206.79 408.167 212.023 409.247 217.328C412.572 235.6 403.431 268.03 390.784 282.78C374.823 301.427 351.705 309.474 322.082 306.703C291.975 303.884 264.625 290.767 250.999 283.192C230.746 271.926 194.896 255.36 182.454 270.922C181.694 271.849 181.139 272.927 180.827 274.085C180.514 275.242 180.451 276.453 180.64 277.637C181.692 285.987 192.115 295.788 198.1 300.314C202.767 303.811 207.773 307.296 212.609 310.66C236.259 327.093 260.708 344.094 265.484 375.168C268.47 394.626 266.391 410.042 260.357 425.761H256.44C262.654 410.115 264.903 394.929 261.893 375.725C257.31 346.236 233.563 329.694 210.493 313.685C205.657 310.309 200.591 306.8 195.875 303.267C194.098 301.923 178.488 289.956 176.989 278.146C176.74 276.479 176.841 274.778 177.287 273.153C177.732 271.528 178.512 270.013 179.576 268.707C186.227 260.382 198.693 258.845 216.648 264.145C227.179 267.255 239.306 272.616 252.715 280.07C266.124 287.524 292.918 300.387 322.372 303.133C350.75 305.796 372.828 298.16 387.991 280.469C399.84 266.638 408.739 235.116 405.631 218.03C404.574 212.873 403.205 207.786 401.533 202.795C399.392 195.958 397.18 188.892 396.587 181.704C396.261 177.844 396.055 173.996 395.862 170.281C395.281 159.064 394.725 148.5 391.11 137.609C388.426 129.538 385.064 121.721 381.897 114.17C375.561 99.2381 368.995 83.7978 367.387 66.3003C366.178 53.4494 371.293 43.8053 378.052 32.5396C394.822 4.57507 418.69 -9.72781 448.023 -9.72781C457.455 -9.64987 466.837 -8.33588 475.929 -5.81937C492.784 -1.33002 508.781 7.33401 524.293 15.6955C545.114 26.9612 566.612 38.6141 590.214 39.9936C594.646 40.2222 599.089 40.1656 603.514 39.8242L603.55 43.4301Z" fill="#221F1A" fill-opacity="0.1"/>
<path d="M603.55 103.546C584.51 97.1706 566.062 89.1457 548.415 79.5625C542.153 76.037 536.135 72.0955 530.399 67.7644C524.197 63.2993 517.788 58.6769 510.945 55.2524C489.253 44.3619 449.909 44.3619 431.7 60.5525C406.937 82.5877 414.156 109.681 421.132 135.891C423.792 145.862 428.254 158.265 432.994 171.406C449.268 216.614 469.533 272.882 447.285 306.28C422.511 343.465 367.895 341.444 325.044 327.153C321.635 326.016 317.403 324.104 312.953 322.071C299.109 315.815 280.186 307.223 269.74 315.065C266.608 317.412 264.903 319.905 264.516 322.591C263.767 327.94 268.228 333.845 272.533 339.532C274.226 341.759 275.822 343.876 277.139 345.994C278.905 348.813 280.767 351.657 282.701 354.67C295.095 373.825 309.157 395.522 306.581 418.803C306.31 421.169 305.861 423.511 305.239 425.809H301.479C302.184 423.379 302.685 420.894 302.978 418.38C305.396 396.429 291.721 375.314 279.654 356.667C277.696 353.641 275.846 350.786 274.068 347.942C272.859 345.957 271.275 343.912 269.643 341.734C264.879 335.442 259.97 328.932 260.925 322.083C261.445 318.453 263.682 315.077 267.563 312.16C279.654 303.037 299 311.761 314.428 318.767C318.817 320.752 322.953 322.628 326.181 323.704C367.762 337.572 420.624 339.75 444.262 304.259C465.494 272.386 445.58 217.074 429.572 172.64C424.82 159.427 420.322 146.939 417.626 136.823C410.371 109.56 402.85 81.3535 429.294 57.842C438.483 49.662 453.016 44.7854 470.186 44.1078C471.516 44.1078 472.846 44.0231 474.176 44.0231C488.322 44.0231 502.421 46.9393 512.565 52.0095C519.675 55.567 526.204 60.2742 532.515 64.824C538.123 69.0555 544.004 72.9119 550.12 76.368C567.239 85.6489 585.113 93.4615 603.55 99.7222V103.546Z" fill="#221F1A" fill-opacity="0.1"/>
<path d="M603.55 425.809H603.26C603.26 420.969 600.528 416.25 595.22 411.603C570.905 390.355 538.029 393.936 506.205 397.409C490.668 399.103 474.611 400.858 460.114 399.539C447.382 398.329 436.488 392.472 425.945 386.773C415.401 381.073 405.692 375.798 394.097 374.515C378.947 372.821 362.66 374.116 350.569 377.951C334.064 383.191 324.839 392.726 323.146 406.303C322.324 412.85 323.581 419.202 325.153 425.809H321.429C319.918 419.336 318.685 412.692 319.543 405.843C323.037 377.637 355.127 370.147 380.627 370.147C385.26 370.147 389.89 370.397 394.496 370.897C406.792 372.264 417.408 378.012 427.674 383.578C438.362 389.362 448.458 394.832 460.44 395.921C474.575 397.204 489.749 395.558 505.806 393.803C538.452 390.246 572.138 386.543 597.614 408.881C599.884 410.816 601.881 413.051 603.551 415.524L603.55 425.809Z" fill="#221F1A" fill-opacity="0.1"/>
<path d="M448.615 425.809C446.487 425.108 444.299 424.382 442.05 423.607C423.297 417.266 402.04 410.067 385.222 420.146C382.721 421.566 380.547 423.496 378.838 425.809H374.509C376.588 422.104 379.668 419.059 383.396 417.024C389.866 413.238 397.256 411.316 404.749 411.47C417.517 411.47 430.878 415.996 443.211 420.171C447.092 421.489 450.768 422.736 454.298 423.801C457.313 424.676 460.383 425.347 463.487 425.809H448.615Z" fill="#221F1A" fill-opacity="0.1"/>
<path d="M603.551 338.685C603.405 338.201 603.236 337.705 603.091 337.209C598.521 321.188 599.21 303.327 603.551 285.624V338.685Z" fill="#221F1A" fill-opacity="0.1"/>
<path d="M603.55 120.632L601.688 120.136C593.225 117.813 585.607 113.372 578.292 109.088C574.665 106.995 571.037 104.817 567.265 102.953C545.646 92.1351 495.093 79.127 476.171 98.1128C432.945 141.324 459.812 208.519 479.423 257.611C480.838 261.241 482.64 264.714 484.538 268.501C488.286 275.895 492.155 283.543 493.171 291.65C495.009 306.364 483.002 314.641 472.411 322.01C460.162 330.481 449.583 337.741 457.2 353.048C459.219 357.102 462.411 360.914 465.507 364.617C466.474 365.827 467.441 366.928 468.36 368.077C472.882 373.74 481.225 372.47 488.576 371.357C489.858 371.163 491.091 370.969 492.276 370.824C508.369 368.803 546.069 361.616 548.657 338.31C550.567 321.163 542.515 308.591 534.003 295.292C530.523 290.045 527.319 284.621 524.402 279.041C521.694 273.56 519.046 268.501 516.495 263.661C499.482 231.462 488.25 210.189 511.973 168.647C517.619 158.749 529.771 141.348 547.678 135.976C562.429 131.547 583.141 134.136 603.563 142.026V146.019C583.455 138.021 562.828 135.201 548.717 139.436C532.02 144.446 520.497 161.012 515.116 170.438C492.385 210.249 502.662 229.731 519.699 261.955C522.274 266.795 524.934 271.878 527.667 277.335C530.511 282.809 533.643 288.129 537.049 293.271C545.513 306.582 554.291 320.232 552.248 338.649C549.382 364.52 509.663 372.24 492.724 374.358C491.514 374.503 490.305 374.696 489.096 374.878C481.189 376.088 471.334 377.588 465.494 370.28C464.6 369.154 463.657 368.029 462.701 366.879C459.316 363.142 456.374 359.024 453.935 354.609C444.903 336.543 457.829 327.601 470.319 318.961C481.007 311.555 491.115 304.573 489.544 292.037C488.613 284.559 484.889 277.202 481.273 270.087C479.423 266.456 477.513 262.645 476.026 258.942C456.039 208.93 428.665 140.453 473.608 95.4991C481.394 87.6942 493.703 84.7658 507.245 84.7658C529.275 84.7658 554.557 92.5344 568.909 99.698C572.754 101.622 576.515 103.824 580.142 105.954C587.252 110.129 594.651 114.424 602.668 116.627L603.575 116.881L603.55 120.632Z" fill="#221F1A" fill-opacity="0.1"/>
<path d="M603.551 -139.422C598.883 -140.451 594.228 -141.443 589.646 -142.411C567.821 -147.046 547.218 -151.426 533.422 -158.335C523.073 -163.506 513.796 -170.593 506.084 -179.221H511.09C518.011 -172.016 526.112 -166.05 535.042 -161.578C548.427 -154.887 568.813 -150.555 590.396 -145.969C594.736 -145.049 599.137 -144.105 603.551 -143.137V-139.422Z" fill="#221F1A" fill-opacity="0.1"/>
<path d="M371.607 -166.273C367.436 -145.412 346.555 -139.422 328.079 -134.146C314.247 -130.177 301.177 -126.438 297.767 -117.133C294.938 -109.449 298.638 -98.0865 309.084 -82.4041C313.862 -75.0342 320.548 -69.0998 328.43 -65.2333C338.78 -60.0543 347.945 -52.3825 356.433 -41.7703C359.093 -38.4547 360.967 -34.2437 362.781 -30.1779C367.097 -20.4974 371.245 -11.2525 385.5 -11.2525C387.642 -11.2656 389.781 -11.4436 391.896 -11.7849C402.778 -13.4548 408.437 -18.6339 414.446 -24.1155C423.575 -32.4528 433.018 -41.0563 460.477 -36.4944C488.48 -31.8235 518.514 -18.4161 545.114 -6.59378L549.806 -4.50037C555.398 -1.87582 560.832 1.0737 566.08 4.33307C574.774 9.50003 583.77 14.8606 593.89 16.8693C597.142 17.5227 600.395 18.0068 603.563 18.3335V21.9637C600.105 21.6128 596.622 21.1045 593.128 20.4027C582.44 18.273 573.178 12.7551 564.218 7.43082C559.092 4.24228 553.783 1.35736 548.318 -1.20901L543.615 -3.3024C517.293 -15.04 487.44 -28.3506 459.884 -32.9368C434.191 -37.2325 425.787 -29.5728 416.9 -21.4533C410.758 -15.8507 404.41 -10.0667 392.464 -8.21524C370.144 -4.76657 364.474 -17.4964 359.48 -28.7258C357.976 -32.555 356.006 -36.1843 353.616 -39.5316C345.454 -49.7203 336.688 -57.0775 326.822 -62.0146C318.4 -66.1787 311.248 -72.5259 306.11 -80.3954C294.817 -97.3362 291.093 -109.437 294.394 -118.391C298.444 -129.415 312.373 -133.408 327.112 -137.631C345.394 -142.871 364.304 -148.292 368.04 -166.987C368.843 -171.026 369.381 -175.112 369.648 -179.221H373.276C373.003 -174.873 372.446 -170.548 371.607 -166.273Z" fill="#221F1A" fill-opacity="0.1"/>
<path d="M603.55 -106.847C599.766 -108.457 596.03 -110.078 592.354 -111.688C568.873 -121.888 546.698 -131.52 520.569 -136.76C506.604 -139.555 490.341 -142.326 487.633 -142.06C478.444 -135.707 465.869 -113.817 463.451 -104.004C458.24 -83.1543 478.275 -68.5126 494.38 -56.7508C497.1 -54.7542 499.676 -52.8786 502.046 -51.0272C510.981 -44.0815 520.4 -42.8956 530.375 -41.6371C536.659 -41.0492 542.869 -39.8331 548.911 -38.007C556.44 -35.2707 563.779 -32.0368 570.88 -28.3264C579.646 -23.9944 588.702 -19.5172 597.65 -17.2786C599.572 -16.7946 601.555 -16.4316 603.562 -16.1291V-12.4989C601.276 -12.8166 599.008 -13.2528 596.767 -13.8057C587.445 -16.1411 578.207 -20.7031 569.272 -25.1198C562.32 -28.7515 555.134 -31.9167 547.762 -34.5946C541.944 -36.3521 535.966 -37.5236 529.916 -38.0916C519.892 -39.3622 509.542 -40.6691 499.821 -48.232C497.499 -50.035 494.984 -51.8622 492.24 -53.883C475.312 -66.2861 454.129 -81.7144 459.932 -104.948C462.592 -115.62 475.542 -138.406 485.856 -145.291C486.073 -145.436 486.424 -145.666 488.056 -145.666C491.26 -145.666 499.446 -144.746 521.283 -140.378C547.798 -135.066 570.143 -125.361 593.829 -115.076L603.587 -110.865L603.55 -106.847Z" fill="#221F1A" fill-opacity="0.1"/>
<path d="M603.55 -80.952C599.161 -82.634 594.821 -84.3765 590.516 -86.0948C572.537 -93.3552 553.929 -100.797 534.196 -102.588C520.714 -103.798 512.601 -102.225 511.924 -98.2317C510.485 -89.7613 536.022 -70.6544 551.087 -66.879C565.5 -63.2488 580.795 -59.1588 595.014 -53.4715C597.154 -52.6124 600.092 -51.5475 603.55 -50.3738V-46.5863C599.077 -48.0747 595.57 -49.3331 593.672 -50.0955C579.646 -55.7102 564.496 -59.776 550.205 -63.4062C535.913 -67.0363 506.326 -86.9418 508.357 -98.8851C509.458 -105.407 518.333 -106.726 525.829 -106.726C529.36 -106.726 532.576 -106.436 534.522 -106.254C554.787 -104.415 573.637 -96.8401 591.87 -89.5192C595.728 -87.9704 599.621 -86.4094 603.55 -84.8847V-80.952Z" fill="#221F1A" fill-opacity="0.1"/>
<path d="M562.646 -179.221H562.441C560.526 -178.767 558.53 -178.788 556.625 -179.282L562.646 -179.221Z" fill="#221F1A" fill-opacity="0.1"/>
<path d="M603.55 -168.742C599.557 -171.105 596.422 -174.683 594.603 -178.955C594.569 -179.042 594.541 -179.131 594.518 -179.221H598.46C599.679 -176.845 601.419 -174.777 603.55 -173.171V-168.742Z" fill="#221F1A" fill-opacity="0.1"/>
<path d="M452.654 -131.871C443.211 -124.793 437.359 -117.895 432.45 -108.057C428.169 -99.4902 425.896 -90.3542 423.696 -81.5208C420.89 -70.2188 417.977 -58.5296 410.855 -47.8327C407.88 -43.3676 403.213 -40.7901 396.974 -40.1609C385.669 -39.0476 373.131 -44.7228 371.039 -46.8162C367.146 -50.7126 363.518 -53.8951 360.314 -56.7024C350.835 -65.0276 343.991 -71.0416 340.207 -86.1916C337.232 -98.0744 351.717 -106.581 367.049 -115.584C380.18 -123.304 393.758 -131.315 395.717 -141.092C396.793 -146.126 395.584 -157.44 394.375 -170.484C394.097 -173.304 393.806 -176.232 393.528 -179.221H397.156C397.422 -176.353 397.7 -173.546 397.966 -170.835C399.332 -156.932 400.384 -145.944 399.308 -140.378C397.023 -128.967 382.731 -120.582 368.911 -112.45C354.776 -104.161 341.44 -96.3198 343.749 -87.0386C347.256 -72.9898 353.422 -67.5809 362.732 -59.4008C365.973 -56.5572 369.648 -53.3506 373.614 -49.3452C374.969 -47.99 384.799 -43.6216 394.024 -43.6216C394.907 -43.6216 395.777 -43.6216 396.636 -43.7426C401.726 -44.2509 405.511 -46.2959 407.856 -49.793C414.627 -59.9575 417.324 -70.8238 420.189 -82.3315C422.438 -91.3585 424.748 -100.688 429.209 -109.618C434.396 -120.001 440.563 -127.273 450.477 -134.715C460.936 -142.556 459.086 -162.474 456.209 -179.161H459.836C462.847 -161.724 464.563 -140.814 452.654 -131.871Z" fill="#221F1A" fill-opacity="0.1"/>
<path d="M354.728 26.7071C339.094 37.1378 315.251 23.0769 292.193 9.57263C279.207 1.93713 266.935 -5.2627 257.757 -6.93259C233.43 -11.3614 211.34 -10.1271 185.682 -6.93259C180.362 -6.26706 174.293 -3.94373 167.884 -1.4873C156.579 2.8447 144.911 7.30984 134.646 3.88535C123.135 0.049469 119.979 -22.736 117.452 -41.0321C116.243 -49.3573 115.203 -57.2348 113.595 -60.5383C112.918 -61.3127 109.037 -63.3698 105.301 -65.3786C87.6116 -74.8049 50.8064 -94.42 37.881 -129.258C33.4919 -141.08 29.5744 -155.77 38.3042 -164.495C49.1862 -175.385 71.5668 -164.737 84.9395 -158.384C87.1159 -157.343 89.0021 -156.448 90.5377 -155.794C119.024 -143.573 158.695 -131.859 185.852 -145.448C199.466 -152.261 213.202 -165.705 223.431 -179.245H228.013C217.337 -164.507 202.513 -149.732 187.472 -142.205C178.307 -137.619 167.86 -135.756 156.93 -135.756C133.957 -135.756 108.88 -143.972 89.1109 -152.455C87.5149 -153.132 85.6045 -154.052 83.3797 -155.105C70.8655 -161.046 49.9237 -170.993 40.8675 -161.929C33.6128 -154.669 37.2402 -141.358 41.2786 -130.528C53.7324 -96.937 89.6792 -77.7816 107.006 -68.561C113.873 -64.9308 116.086 -63.7208 116.812 -62.2203C118.698 -58.4328 119.786 -50.5916 121.043 -41.5161C123.317 -25.1198 126.424 -2.6611 135.795 0.460876C144.815 3.47391 155.878 -0.749176 166.579 -4.8634C173.217 -7.40451 179.468 -9.80045 185.223 -10.5265C211.231 -13.7694 233.587 -15.0158 258.41 -10.5265C268.216 -8.74768 280.755 -1.37842 294.031 6.41437C315.093 18.7933 338.973 32.83 352.709 23.6699C364.038 16.107 355.635 -0.119934 350.073 -10.8532C349.492 -11.9664 348.948 -13.0192 348.465 -13.9873C341.283 -28.3628 320.111 -54.6937 304.562 -61.6031L302.398 -62.5591C287.429 -69.166 262.388 -80.226 259.922 -97.5298C256.633 -120.521 277.526 -136.917 299.641 -154.233C309.87 -162.232 320.196 -170.351 328.128 -179.245H332.964C324.585 -169.141 313.086 -160.138 301.89 -151.414C280.622 -134.776 260.538 -119.057 263.525 -98.0986C265.713 -82.7792 290.536 -71.8161 303.873 -65.9352L306.049 -64.9671C322.554 -57.622 344.124 -30.8555 351.717 -15.6571L353.301 -12.5715C359.081 -1.3421 368.754 17.3412 354.728 26.7071Z" fill="#221F1A" fill-opacity="0.1"/>
<path d="M274.419 -167.568C269.353 -160.465 264.855 -152.6 260.502 -144.988C257.794 -140.257 254.989 -135.308 252.038 -130.71C246.839 -122.385 244.518 -112.801 242.281 -103.52C239.79 -93.2825 237.227 -82.6945 230.794 -73.6796C221.883 -61.1796 210.022 -55.5286 198.56 -49.9623C191.607 -46.6105 184.401 -43.1376 177.751 -38.1522C175.599 -36.5307 173.229 -33.3846 170.726 -30.0569C164.439 -21.6833 156.603 -11.2646 145.589 -16.7462C139.882 -19.602 136.411 -23.1111 134.985 -27.4794C132.566 -34.7398 136.665 -42.6294 140.232 -49.563C143.013 -54.9478 145.637 -60.0543 144.174 -62.9947C141.598 -68.1496 133.848 -70.5818 127.005 -72.6752C123.835 -73.5648 120.738 -74.6976 117.743 -76.0634C111.625 -79.1248 58.0974 -106.666 63.5626 -130.25C63.7385 -131.278 64.1805 -132.243 64.8444 -133.047C65.5084 -133.852 66.3712 -134.469 67.3471 -134.836C74.7468 -137.571 90.163 -126.886 106.655 -114.737C109.567 -112.459 112.598 -110.338 115.736 -108.384C138.298 -97.1063 171.234 -90.3663 190.229 -102.249C225.668 -124.417 234.071 -140.124 246.791 -163.89C249.33 -168.633 252.038 -173.691 255.146 -179.148H259.329C255.799 -173.026 252.788 -167.411 249.983 -162.208C237.457 -138.793 228.412 -121.876 192.151 -99.1876C184.159 -94.2021 174.571 -92.2782 164.68 -92.2782C145.855 -92.2782 125.989 -99.236 114.115 -105.165C110.761 -107.192 107.531 -109.419 104.443 -111.833C94.0563 -119.492 74.7226 -133.735 68.5441 -131.448C68.1342 -131.285 67.7766 -131.012 67.5102 -130.66C67.2438 -130.309 67.0787 -129.89 67.0327 -129.451C63.1031 -112.51 99.5094 -89.241 119.302 -79.3306C122.131 -78.0627 125.049 -77.0031 128.032 -76.1602C135.553 -73.8005 144.089 -71.1263 147.378 -64.592C149.675 -60.0059 146.64 -54.1129 143.424 -47.869C140.208 -41.6251 136.496 -34.4373 138.406 -28.5806C139.507 -25.1924 142.384 -22.373 147.172 -19.9771C154.887 -16.1049 160.581 -22.6029 167.8 -32.1866C170.46 -35.732 172.975 -39.0839 175.538 -41.0079C182.466 -46.2112 189.83 -49.7567 196.951 -53.1811C208.511 -58.7474 219.429 -63.9991 227.808 -75.7367C233.853 -84.2071 236.199 -93.9723 238.69 -104.33C240.999 -113.89 243.393 -123.764 248.907 -132.585C251.772 -137.171 254.553 -142.036 257.238 -146.743C261.639 -154.427 266.185 -162.377 271.36 -169.625C273.897 -172.994 276.69 -176.162 279.715 -179.1L279.787 -179.173H284.842C284.007 -178.289 283.149 -177.418 282.315 -176.559C279.462 -173.763 276.823 -170.758 274.419 -167.568Z" fill="#221F1A" fill-opacity="0.1"/>
<path d="M97.1999 -175.325C92.1722 -175.888 87.257 -177.201 82.6181 -179.221H95.217C95.9787 -179.1 96.7405 -178.991 97.4901 -178.943C104.554 -178.421 111.65 -178.514 118.698 -179.221H140.123C126.111 -175.664 111.624 -174.349 97.1999 -175.325Z" fill="#221F1A" fill-opacity="0.1"/>
<path d="M84.7098 15.3567C80.889 17.4138 77.2859 19.362 74.0697 21.2981C67.3103 25.519 60.8467 30.1967 54.7239 35.2985C39.7551 47.2176 25.5965 58.4833 -1.00391 56.7408V53.1106C24.3874 54.8289 37.3974 44.4587 52.4508 32.4549C58.7042 27.2566 65.3007 22.4862 72.1955 18.1762C75.4964 16.2038 79.1358 14.2435 82.9929 12.1259C92.0128 7.28561 101.347 2.22757 106.957 -3.38712C108.034 -4.46408 107.816 -8.8324 107.707 -10.9379C107.707 -11.7244 107.635 -12.4384 107.635 -13.0071C107.635 -28.1208 103.632 -41.383 84.1053 -57.0291C80.4779 -59.9333 76.0647 -61.6031 71.3975 -63.3577C66.3314 -65.2817 61.0838 -67.2662 56.8036 -71.0053C24.7501 -99.0424 -9.33467 -140.257 6.92785 -179.221H10.8937C-5.97334 -141.83 27.6641 -101.317 59.2581 -73.7037C63.0305 -70.3882 67.7218 -68.6094 72.7396 -66.7217C77.4673 -64.9308 82.4125 -63.0915 86.4267 -59.8243C101.371 -47.8568 111.322 -35.3206 111.322 -12.9708C111.322 -12.4505 111.322 -11.7607 111.395 -11.0831C111.576 -7.45291 111.794 -2.99991 109.581 -0.785492C103.536 5.20432 93.9716 10.3592 84.7098 15.3567Z" fill="#221F1A" fill-opacity="0.1"/>
<path d="M-1.00391 -81.7264V-85.8044C-0.197542 -86.2878 0.54918 -86.8646 1.22085 -87.5226C2.11559 -88.4302 2.42996 -90.4752 1.92214 -93.2704C1.31094 -96.4832 0.329013 -99.614 -1.00391 -102.6V-110.937C2.11559 -105.117 4.70309 -98.7762 5.5011 -93.8513C6.16611 -89.7492 5.58574 -86.7603 3.78416 -84.9573C2.39517 -83.6011 0.773198 -82.5066 -1.00391 -81.7264Z" fill="#221F1A" fill-opacity="0.1"/>
<path d="M39.0297 -0.228851C36.6115 3.86118 34.1207 8.09637 29.2359 11.0247C22.078 15.3204 11.4499 17.7527 -0.991803 18.0189V14.3887C9.96272 14.1225 20.3852 12.1259 27.386 7.92697C31.4728 5.50684 33.625 1.87665 35.9102 -2.06815C37.1823 -4.34665 38.6168 -6.5304 40.2025 -8.60248C49.295 -19.9771 52.5354 -29.1735 49.8754 -35.9499C44.773 -48.6555 19.9379 -52.3825 -0.907166 -55.1535V-58.7837C21.014 -55.8675 47.3605 -51.9953 53.273 -37.2688C56.5618 -29.0767 53.273 -18.9485 43.1286 -6.29126C41.6192 -4.37115 40.2494 -2.34515 39.0297 -0.228851Z" fill="#221F1A" fill-opacity="0.1"/>
<path d="M312.155 252.117C309.64 253.049 307.319 254.102 305.046 255.118C299.556 257.599 294.369 259.958 287.369 260.563C269.413 262.197 247.468 258.785 224.289 255.179C184.05 248.911 142.433 242.449 112.374 259.632C90.3926 272.204 79.6074 294.276 69.1728 315.609C59.0163 336.362 49.4401 355.965 30.4813 367.363C21.6669 372.664 10.5794 374.624 -0.955542 374.309V370.679C9.0196 370.933 19.8653 369.469 28.6797 364.242C46.7438 353.351 56.1023 334.256 66.0049 314C76.6813 292.219 87.7689 269.603 110.669 256.473C141.84 238.649 185.985 245.583 224.942 251.633C247.915 255.263 269.679 258.591 287.139 256.994C293.535 256.413 298.456 254.199 303.655 251.863C305.965 250.822 308.359 249.746 310.97 248.765C336.047 239.351 350.037 230.288 357.763 218.441C366.323 205.312 367.823 187.863 362.599 161.847C359.867 148.209 354.474 137.452 348.767 126.065C344.853 118.611 341.377 110.934 338.357 103.074C336.479 97.567 334.893 91.9647 333.605 86.2905C330.727 74.6013 327.753 62.5249 319.942 53.6189C297.174 27.5663 263.211 12.7309 221.726 10.698C186.396 8.97971 146.761 16.9298 113.003 32.4791C100.561 38.1664 88.712 45.8503 77.2859 53.3284C61.8697 63.3719 46.0183 73.7543 28.0147 79.732C19.5509 82.5635 9.73298 83.459 -1.00391 82.4425V78.8123C9.39443 79.8288 18.8134 78.9938 26.9023 76.2954C44.4223 70.4508 60.1286 60.2016 75.2667 50.2912C86.8378 42.7646 98.7476 34.9597 111.443 29.103C143.037 14.6398 177.324 7.01154 212.065 6.71689C215.37 6.71689 218.639 6.79755 221.871 6.95889C264.359 9.02808 299.254 24.2991 322.638 51.114C331.029 60.6977 334.113 73.2218 337.087 85.3224C338.343 90.8704 339.893 96.3476 341.73 101.731C344.7 109.475 348.12 117.038 351.971 124.383C357.533 135.492 363.301 146.963 366.118 161.084C371.522 188.105 369.854 206.389 360.737 220.377C352.564 232.926 338.054 242.413 312.155 252.117Z" fill="#221F1A" fill-opacity="0.1"/>
<path d="M257.395 227.359C241.761 231.268 226.079 228.787 210.904 226.391C206.37 225.677 201.691 224.939 197.121 224.383C193.288 223.923 189.431 223.439 185.562 222.955C154.427 219.046 122.241 215.005 91.7347 221.938C67.1656 227.493 37.9778 248.366 31.642 273.62C29.9735 280.3 30.1911 288.141 30.4329 296.611C30.9287 314.423 31.4969 334.619 10.6519 342.448C6.90957 343.777 2.96695 344.452 -1.00391 344.445V340.815C2.5403 340.82 6.05855 340.21 9.39443 339.012C27.8092 332.09 27.3255 314.895 26.8177 296.66C26.588 288.419 26.3582 279.912 28.1477 272.737C32.1136 256.873 43.588 244.905 52.5233 237.645C63.901 228.376 77.9146 221.37 90.9367 218.405C122.059 211.326 154.572 215.404 186.009 219.349C189.878 219.845 193.735 220.317 197.544 220.777C202.187 221.333 206.902 222.084 211.473 222.81C226.284 225.145 241.604 227.565 256.512 223.838C271.904 219.99 287.792 209.971 299.012 197.035C311.333 182.853 316.931 166.784 314.731 151.719C311.357 128.038 298.009 107.333 275.048 90.199C233.938 59.5482 173.483 49.299 134.912 55.0104C117.489 57.5637 101.226 65.7921 85.4836 73.6817C79.5711 76.6705 73.3925 79.732 67.347 82.503C57.8555 86.7745 49.3917 94.6036 40.4202 102.856C28.0147 114.436 15.1498 126.247 -1.00391 128.376V124.674C13.9165 122.447 26.1164 111.194 38.0019 100.303C46.7801 92.1956 55.8726 83.8099 65.8961 79.2964C71.9416 76.5979 77.9872 73.5244 83.8513 70.5476C99.8479 62.4644 116.376 54.1029 134.428 51.4286C173.736 45.6082 235.413 56.0511 277.272 87.2949C300.693 104.78 314.9 126.888 318.382 151.222C320.667 167.316 314.755 184.439 301.757 199.431C290.065 212.839 273.464 223.294 257.395 227.359Z" fill="#221F1A" fill-opacity="0.1"/>
<path d="M168.525 185.661C160.847 188.734 152.807 191.711 145.056 194.579C129.58 200.327 113.499 206.268 99.3521 213.323C94.8542 215.573 88.9538 215.344 83.2468 215.114C80.0241 214.865 76.785 214.926 73.5739 215.295C65.2552 216.687 55.0625 222.35 47.1065 227.117C33.0809 235.588 16.0566 255.893 13.0338 274.08C12.3688 278.037 12.0182 282.26 11.6313 286.725C10.531 299.963 9.27352 314.762 -1.00391 323.172V318.114C5.99683 310.382 7.03667 298.245 8.04023 286.398C8.42714 281.861 8.80197 277.577 9.47907 273.475C12.6832 254.259 30.5417 232.829 45.2687 223.995C53.4906 219.058 64.0703 213.19 73.0056 211.701C76.4682 211.287 79.9628 211.21 83.4402 211.471C88.6878 211.677 94.1167 211.895 97.7803 210.068C112.048 202.928 128.189 196.951 143.799 191.166C151.537 188.299 159.517 185.334 167.183 182.273C182.079 176.307 207.664 155.203 203.456 136.133C200.555 123.04 189.358 113.928 180.483 108.604C169.631 102.26 157.704 97.9734 145.298 95.9589C112.785 90.9492 61.507 118.381 24.073 138.396C16.4073 142.498 9.17679 146.358 3.04661 149.431C1.68032 150.121 0.326113 150.787 -1.00391 151.44V147.386L1.41431 146.176C7.45986 143.127 14.7145 139.267 22.344 135.189C57.0938 116.603 103.608 91.7237 137.088 91.7237C140.014 91.7119 142.937 91.9263 145.83 92.365C167.304 95.6685 201.292 109.838 206.951 135.346C211.702 156.704 184.884 179.114 168.525 185.661Z" fill="#221F1A" fill-opacity="0.1"/>
<path d="M88.5427 195.898L86.1245 196.539L78.6038 198.548C57.2026 204.235 27.8938 212.016 13.3119 224.492C7.9435 229.187 2.7927 237.282 -1.00391 245.656V237.536C2.46624 231.256 6.61348 225.556 11.0872 221.805C26.2615 208.797 56.0298 200.883 77.7695 195.111C80.4175 194.409 82.9324 193.744 85.266 193.103L87.6842 192.461C100.477 189.049 111.528 186.096 108.686 170.462C107.477 164.134 103.644 158.592 97.4296 154.429C88.059 148.149 73.7674 145.426 62.6678 147.81C45.0994 151.501 28.0147 165.513 11.5587 179.078C7.32685 182.551 3.09497 185.987 -1.00391 189.23V184.608C2.3816 181.91 5.80338 179.102 9.26143 176.271C26.0801 162.44 43.4792 148.137 61.8335 144.204C64.9262 143.551 68.0797 143.231 71.2403 143.248C81.192 143.21 90.9467 146.023 99.3521 151.355C106.401 156.075 110.827 162.44 112.157 169.76C115.627 188.637 101.238 192.522 88.5427 195.898Z" fill="#221F1A" fill-opacity="0.1"/>
</g>
</svg>
