<svg width="160" height="24" viewBox="0 0 160 24" fill="none" xmlns="http://www.w3.org/2000/svg">
<path fill-rule="evenodd" clip-rule="evenodd" d="M3.80579 6.20569C5.68031 4.33118 8.7195 4.33118 10.594 6.20569L11.9999 7.61158L13.4058 6.20569C15.2803 4.33118 18.3195 4.33118 20.194 6.20569C22.0685 8.08021 22.0685 11.1194 20.194 12.9939L11.9999 21.188L3.80579 12.9939C1.93127 11.1194 1.93127 8.08021 3.80579 6.20569Z" fill="#E35523"/>
<path fill-rule="evenodd" clip-rule="evenodd" d="M37.8058 6.20569C39.6803 4.33118 42.7195 4.33118 44.594 6.20569L45.9999 7.61158L47.4058 6.20569C49.2803 4.33118 52.3195 4.33118 54.194 6.20569C56.0685 8.08021 56.0685 11.1194 54.194 12.9939L45.9999 21.188L37.8058 12.9939C35.9313 11.1194 35.9313 8.08021 37.8058 6.20569Z" fill="#E35523"/>
<path fill-rule="evenodd" clip-rule="evenodd" d="M71.8058 6.20569C73.6803 4.33118 76.7195 4.33118 78.594 6.20569L79.9999 7.61158L81.4058 6.20569C83.2803 4.33118 86.3195 4.33118 88.194 6.20569C90.0685 8.08021 90.0685 11.1194 88.194 12.9939L79.9999 21.188L71.8058 12.9939C69.9313 11.1194 69.9313 8.08021 71.8058 6.20569Z" fill="#E35523"/>
<path fill-rule="evenodd" clip-rule="evenodd" d="M105.806 6.20569C107.68 4.33118 110.719 4.33118 112.594 6.20569L114 7.61158L115.406 6.20569C117.28 4.33118 120.319 4.33118 122.194 6.20569C124.069 8.08021 124.069 11.1194 122.194 12.9939L114 21.188L105.806 12.9939C103.931 11.1194 103.931 8.08021 105.806 6.20569Z" fill="#E35523"/>
<path fill-rule="evenodd" clip-rule="evenodd" d="M139.806 6.20569C141.68 4.33118 144.719 4.33118 146.594 6.20569L148 7.61158L149.406 6.20569C151.28 4.33118 154.319 4.33118 156.194 6.20569C158.069 8.08021 158.069 11.1194 156.194 12.9939L148 21.188L139.806 12.9939C137.931 11.1194 137.931 8.08021 139.806 6.20569Z" fill="#E35523"/>
</svg>
