<svg width="167" height="24" viewBox="0 0 167 24" fill="none" xmlns="http://www.w3.org/2000/svg">
<path d="M25.2474 9.1713H15.6018L12.6325 0L9.64568 9.1713L0 9.15373L7.80088 14.8287L4.81405 24L12.6149 18.325L20.4158 24L17.4466 14.8287L25.2474 9.1713Z" fill="#00B67A"/>
<path d="M18.1155 16.9018L17.4478 14.8286L12.6338 18.325L18.1155 16.9018Z" fill="#005128"/>
<path d="M60.4945 9.1713H50.8488L47.8796 0L44.8927 9.1713L35.2471 9.15373L43.0479 14.8287L40.0611 24L47.862 18.325L55.6629 24L52.6936 14.8287L60.4945 9.1713Z" fill="#00B67A"/>
<path d="M53.3596 16.9018L52.692 14.8286L47.8779 18.325L53.3596 16.9018Z" fill="#005128"/>
<path d="M95.7416 9.1713H86.0959L83.1266 0L80.1398 9.1713L70.4941 9.15373L78.295 14.8287L75.3082 24L83.1091 18.325L90.9099 24L87.9407 14.8287L95.7416 9.1713Z" fill="#00B67A"/>
<path d="M88.6067 16.9018L87.9391 14.8286L83.125 18.325L88.6067 16.9018Z" fill="#005128"/>
<path d="M130.989 9.1713H121.343L118.374 0L115.387 9.1713L105.741 9.15373L113.542 14.8287L110.555 24L118.356 18.325L126.157 24L123.188 14.8287L130.989 9.1713Z" fill="#00B67A"/>
<path d="M123.857 16.9018L123.189 14.8286L118.375 18.325L123.857 16.9018Z" fill="#005128"/>
<path d="M166.236 9.1713H156.59L153.621 0L150.634 9.1713L140.988 9.15373L148.789 14.8287L145.802 24L153.603 18.325L161.404 24L158.435 14.8287L166.236 9.1713Z" fill="#00B67A"/>
<path d="M159.101 16.9018L158.433 14.8286L153.619 18.325L159.101 16.9018Z" fill="#005128"/>
</svg>
