<svg width="339" height="227" viewBox="0 0 339 227" fill="none" xmlns="http://www.w3.org/2000/svg">
<mask id="mask0_1_9202" style="mask-type:alpha" maskUnits="userSpaceOnUse" x="4" y="0" width="335" height="219">
<path d="M74.6657 15.2791L86.125 0H338.866V219L273.93 195.445L200.718 170.616L154.244 176.346L102.041 195.445L86.125 182.076L51.1105 133.692L4 94.2209V56.6599L74.6657 15.2791Z" fill="#0A102F"/>
</mask>
<g mask="url(#mask0_1_9202)">
<path d="M-34.7579 113.065C-54.8754 113.065 -60.9106 125.581 -67.8626 149.569C-68.2967 151.227 -68.3999 152.954 -68.1661 154.652C-67.9323 156.349 -67.3662 157.984 -66.5002 159.463C-65.5897 161.319 -63.9839 162.742 -62.0311 163.422C-53.6276 165.523 -45.0076 165.676 -36.6678 165.829C-25.2085 166.033 -14.3603 166.224 -3.71593 170.922C-0.186934 172.68 3.2165 174.679 6.47012 176.906C16.1978 183.158 27.2114 190.237 37.1428 186.927C43.8274 184.699 47.5199 181.439 48.131 177.237C49.5444 167.497 33.4122 156.229 22.7423 148.767C20.8452 147.494 19.2027 146.297 17.9294 145.342C13.7415 142.002 9.76552 138.404 6.02447 134.57C-3.10477 125.658 -13.4691 115.472 -25.6541 113.753C-28.6686 113.308 -31.7109 113.079 -34.7579 113.065ZM-61.0888 159.717C-62.0053 159.253 -62.7402 158.495 -63.177 157.565C-64.3958 155.469 -64.752 152.98 -64.1701 150.626C-56.4287 123.799 -51.132 113.982 -26.1252 117.522C-15.1752 119.075 -5.75315 128.331 3.41429 137.282C7.27258 141.238 11.3764 144.946 15.7012 148.385C16.9745 149.378 18.6934 150.537 20.616 151.887C29.3123 157.96 45.4827 169.267 44.4131 176.677C44.0184 179.338 41.1918 181.554 35.9969 183.285C27.7972 186.023 17.5984 179.465 8.59645 173.685C5.17518 171.339 1.58786 169.246 -2.1371 167.42C-13.4945 162.327 -25.2212 162.162 -36.515 161.958C-44.6893 161.869 -53.1055 161.665 -61.0888 159.717Z" fill="#F4B905" fill-opacity="0.2"/>
<path d="M303.801 362.954C298.308 362.985 292.964 364.74 288.522 367.971C271.969 379.647 265.043 407.811 263.706 421.078C261.86 439.579 268.977 454.4 275.853 468.711C279.571 476.452 283.403 484.448 285.861 493.03C287.923 500.237 288.127 509.455 288.407 519.208C288.929 541.745 289.528 567.286 314.203 575.512C319.678 577.345 321.843 576.263 323.995 574.684C324.262 574.493 324.529 574.289 324.822 574.098C324.949 574.021 325.068 573.931 325.179 573.831L327.572 571.386C327.659 571.306 327.736 571.217 327.802 571.119C330.947 566.446 329.597 557.19 328.018 552.44C321.372 532.514 314.585 508.704 314.585 483.239C314.585 471.117 320.098 461.734 325.943 451.789C335.352 435.759 346.022 417.59 332.971 384.943C328.438 373.611 320.837 366.316 311.007 363.858C308.651 363.262 306.231 362.958 303.801 362.954ZM318.914 572.66C317.682 572.587 316.467 572.329 315.311 571.896C293.182 564.511 292.647 541.439 292.125 519.119C291.896 509.111 291.679 499.664 289.477 491.973C286.93 483.061 283.021 474.937 279.291 467.068C272.339 452.579 265.769 438.904 267.513 421.46C268.99 406.742 276.426 381.187 290.712 371.103C293.46 369.103 296.623 367.747 299.966 367.134C303.31 366.521 306.748 366.668 310.027 367.564C320.888 370.276 326.579 379.29 329.368 386.369C341.731 417.271 332.003 433.836 322.594 449.854C316.75 459.798 310.714 470.073 310.714 483.239C310.714 509.251 317.603 533.431 324.338 553.65C325.79 557.992 326.681 565.606 324.669 568.84L322.556 570.992C322.263 571.183 321.983 571.386 321.703 571.59C320.935 572.275 319.943 572.655 318.914 572.66Z" fill="#F4B905" fill-opacity="0.2"/>
<path d="M-40.5639 283.274C-41.3605 283.271 -42.1563 283.326 -42.9448 283.44C-48.9037 284.293 -53.1309 288.303 -55.4737 295.37C-57.8165 302.436 -53.6657 309.21 -49.6422 315.742C-47.0957 319.842 -44.7401 323.725 -44.1417 327.341C-38.845 359.173 -57.3326 379.927 -99.1082 389.209L-100.84 389.591C-107.028 390.953 -113.42 392.354 -118.933 395.537C-119.329 395.769 -119.692 396.051 -120.015 396.377C-120.744 397.08 -121.247 397.984 -121.46 398.974C-121.673 399.964 -121.586 400.995 -121.21 401.935C-120.834 402.875 -120.187 403.682 -119.35 404.252C-118.514 404.823 -117.526 405.131 -116.514 405.137C-107.142 405.379 -99.0827 406.067 -91.9652 406.665C-68.4227 408.639 -51.4247 410.065 -15.468 394.085C8.34191 383.505 16.3634 364.686 9.71702 334.854C7.6765 325.561 3.91974 316.73 -1.36032 308.815C-6.51701 301.392 -25.705 283.274 -40.5639 283.274ZM-70.8801 404.068C-77.5647 404.068 -84.2111 403.508 -91.6342 402.884C-98.8026 402.272 -106.913 401.61 -116.412 401.343C-116.679 401.36 -116.944 401.292 -117.17 401.149C-117.396 401.007 -117.572 400.797 -117.672 400.549C-117.772 400.301 -117.791 400.027 -117.727 399.768C-117.664 399.508 -117.519 399.275 -117.316 399.102C-117.227 399.015 -117.129 398.938 -117.023 398.873C-112.019 395.983 -105.92 394.646 -100.025 393.347L-98.2805 392.965C-54.1622 383.161 -34.6178 360.879 -40.3729 326.756C-41.0986 322.401 -43.7852 318.034 -46.3826 313.794C-50.126 307.72 -53.6529 301.978 -51.8576 296.605C-49.9732 290.952 -46.8792 287.896 -42.3974 287.247C-29.7412 285.426 -9.84019 303.328 -4.50524 311.031C0.471252 318.555 4.02715 326.927 5.98637 335.732C12.2381 363.858 5.14603 380.805 -17.0214 390.648C-41.1368 401.343 -56.123 404.068 -70.8801 404.068Z" fill="#F4B905" fill-opacity="0.2"/>
<path d="M-96.74 622.024C-99.4648 617.427 -102.291 612.665 -102.291 606.745C-102.291 602.097 -100.343 597.934 -98.4716 593.897C-96.9054 590.937 -95.753 587.775 -95.0466 584.501C-93.5823 575.588 -98.8664 567.949 -103.476 563.021C-117.558 548.188 -146.652 537.059 -165.738 539.198C-175.351 540.281 -181.679 543.502 -185.079 549.028C-191.725 559.812 -185.97 577.74 -180.062 593.694C-179.171 596.087 -178.305 598.71 -177.388 601.486C-174.192 611.125 -170.576 622.062 -164.655 628.123C-164.019 628.759 -163.255 629.498 -162.389 630.325C-160.568 632.095 -158.366 634.221 -156.188 636.59H-161.396C-162.669 635.316 -163.942 634.12 -164.974 633.076C-165.852 632.222 -166.642 631.459 -167.291 630.809C-173.912 624.112 -177.681 612.729 -181.004 602.683C-181.908 599.933 -182.761 597.348 -183.627 595.043C-189.853 578.224 -195.901 559.278 -188.262 547.029C-184.251 540.523 -176.802 536.614 -166.082 535.404C-164.344 535.212 -162.597 535.119 -160.848 535.124C-141.011 535.124 -114.184 546.125 -100.623 560.398C-93.0985 568.318 -89.839 576.861 -91.2014 585.112C-91.9616 588.734 -93.2169 592.235 -94.932 595.515C-96.7146 599.334 -98.408 602.938 -98.408 606.745C-98.408 611.621 -95.9761 615.657 -93.3914 620.076C-90.6029 624.787 -87.5216 630.02 -87.7508 636.628H-91.5706C-91.3796 631.102 -94.0407 626.671 -96.74 622.024Z" fill="#F4B905" fill-opacity="0.2"/>
<path d="M-235.219 621.807C-230.687 618.497 -224.728 617.746 -217.521 619.566C-211.435 621.107 -204.636 628.046 -196.92 636.59H-202.102C-208.277 629.88 -213.981 624.405 -218.451 623.271C-224.6 621.718 -229.337 622.253 -232.966 624.889C-236.327 627.359 -238.517 631.497 -240.007 636.59H-244.018C-242.337 630.351 -239.663 625.054 -235.219 621.807Z" fill="#F4B905" fill-opacity="0.2"/>
<path d="M-58.3895 608.489C-59.5609 600.722 -61.3944 590.663 -65.2396 581.751C-71.9023 566.658 -80.5567 552.527 -90.9721 539.733C-96.0651 533.481 -103.106 528.019 -109.956 522.722C-111.828 521.284 -113.662 519.87 -115.406 518.457C-121.594 513.441 -128.699 509.679 -136.325 507.38C-178.076 494.762 -197.264 528.541 -215.815 561.213C-230.012 586.194 -243.419 609.851 -266.159 612.64C-277.619 614.066 -288.989 612.729 -300.308 610.221V606.299C-289.065 608.845 -277.771 610.246 -266.63 608.845C-245.787 606.299 -232.838 583.457 -219.138 559.329C-203.413 531.635 -185.893 500.759 -153.222 500.759C-147.105 500.82 -141.031 501.776 -135.192 503.598C-127.094 506.029 -119.551 510.021 -112.987 515.35C-111.255 516.738 -109.434 518.139 -107.588 519.578C-100.56 525.002 -93.3022 530.604 -87.9672 537.199C-77.3287 550.291 -68.4902 564.748 -61.6872 580.185C-57.6637 589.556 -55.7793 599.933 -54.5825 607.929C-52.9661 617.406 -52.863 627.08 -54.2769 636.59H-58.0967C-56.747 628.785 -56.6961 619.579 -58.3895 608.489Z" fill="#F4B905" fill-opacity="0.2"/>
<path d="M336.32 234.241C331.566 234.603 326.795 234.662 322.034 234.419C296.365 232.904 273.319 220.413 251.024 208.394C234.93 199.697 218.276 190.696 200.973 186.086C158.331 174.703 124.157 188.06 102.168 224.717C95.1779 236.354 90.3268 245.535 91.46 257.936C93.077 275.762 99.5579 291.041 106.421 307.148C109.833 315.169 113.36 323.471 116.238 332.116C120.197 344.008 120.796 355.404 121.432 367.474C121.636 371.294 121.84 375.369 122.184 379.367C122.769 386.51 125.036 393.742 127.277 400.732C129.091 406.132 130.571 411.638 131.708 417.22C135.209 436.447 125.583 470.57 112.265 486.091C95.458 505.712 71.1133 514.179 39.9186 511.263C8.2145 508.296 -20.5865 494.494 -34.9361 486.524C-56.2631 474.67 -94.0152 457.239 -107.117 473.613C-107.917 474.589 -108.502 475.723 -108.831 476.941C-109.16 478.159 -109.227 479.434 -109.027 480.68C-107.919 489.465 -96.9437 499.778 -90.6411 504.54C-85.7263 508.22 -80.455 511.887 -75.362 515.427C-50.4571 532.718 -24.7119 550.607 -19.6825 583.304C-16.5376 603.778 -18.7276 619.999 -25.0811 636.539H-29.2065C-22.6619 620.076 -20.2937 604.096 -23.4641 583.89C-28.2897 552.86 -53.2965 535.455 -77.5902 518.61C-82.6832 515.057 -88.0182 511.365 -92.9839 507.647C-94.8555 506.234 -111.293 493.641 -112.872 481.214C-113.135 479.46 -113.028 477.671 -112.559 475.961C-112.089 474.251 -111.268 472.657 -110.147 471.283C-103.144 462.523 -90.0172 460.906 -71.1093 466.483C-60.0193 469.755 -47.2485 475.396 -33.1281 483.239C-19.0077 491.082 9.20767 504.617 40.2242 507.507C70.1075 510.308 93.3571 502.274 109.324 483.659C121.802 469.106 131.173 435.937 127.901 417.959C126.787 412.533 125.346 407.18 123.584 401.929C121.331 394.735 119 387.299 118.377 379.736C118.033 375.674 117.816 371.625 117.613 367.716C117.002 355.913 116.416 344.798 112.609 333.338C109.782 324.846 106.242 316.621 102.907 308.675C96.2347 292.963 89.3209 276.717 87.6275 258.305C86.3542 244.783 91.7401 234.636 98.8576 222.782C116.518 193.357 141.652 178.307 172.541 178.307C182.474 178.389 192.354 179.771 201.928 182.419C219.677 187.143 236.522 196.26 252.858 205.058C274.783 216.912 297.422 229.173 322.276 230.625C326.943 230.865 331.622 230.806 336.282 230.447L336.32 234.241Z" fill="#F4B905" fill-opacity="0.2"/>
<path d="M336.32 297.496C316.27 290.788 296.843 282.344 278.259 272.26C271.665 268.551 265.327 264.403 259.288 259.846C252.756 255.148 246.008 250.284 238.801 246.681C215.959 235.221 174.527 235.221 155.352 252.257C129.276 275.443 136.877 303.952 144.224 331.53C147.025 342.022 151.723 355.073 156.714 368.9C173.852 416.469 195.192 475.676 171.764 510.818C145.675 549.945 88.1623 547.818 43.0381 532.781C39.4475 531.584 34.9911 529.573 30.3055 527.434C15.7268 520.851 -4.19971 511.811 -15.2006 520.061C-18.4984 522.531 -20.2937 525.154 -20.7011 527.981C-21.4905 533.609 -16.7922 539.822 -12.2594 545.807C-10.4769 548.149 -8.79617 550.378 -7.40832 552.606C-5.54937 555.572 -3.58855 558.565 -1.55134 561.735C11.4995 581.891 26.3075 604.72 23.5955 629.218C23.3098 631.707 22.8374 634.171 22.1821 636.59H18.2223C18.9644 634.032 19.4925 631.417 19.8012 628.772C22.3477 605.675 7.94714 583.457 -4.75995 563.836C-6.82262 560.653 -8.7707 557.648 -10.6424 554.656C-11.9156 552.568 -13.5836 550.416 -15.3025 548.124C-20.3191 541.503 -25.4885 534.653 -24.4827 527.446C-23.9352 523.626 -21.5797 520.074 -17.4925 517.006C-4.75995 507.405 15.6121 516.585 31.8589 523.958C36.4808 526.046 40.8354 528.019 44.235 529.152C88.0222 543.744 143.689 546.036 168.581 508.691C190.939 475.154 169.969 416.953 153.111 370.199C148.107 356.295 143.371 343.155 140.531 332.511C132.892 303.824 124.972 274.145 152.818 249.405C162.495 240.798 177.799 235.667 195.88 234.954C197.28 234.954 198.681 234.865 200.081 234.865C214.979 234.865 229.825 237.933 240.507 243.268C247.994 247.012 254.87 251.965 261.516 256.752C267.422 261.204 273.615 265.262 280.055 268.899C298.082 278.664 316.904 286.885 336.32 293.473V297.496Z" fill="#F4B905" fill-opacity="0.2"/>
<path d="M336.32 636.59H336.014C336.014 631.497 333.137 626.531 327.547 621.642C301.942 599.283 267.322 603.052 233.81 606.706C217.449 608.489 200.54 610.335 185.274 608.947C171.866 607.674 160.394 601.512 149.291 595.515C138.189 589.517 127.964 583.966 115.754 582.616C99.7999 580.834 82.6492 582.196 69.9166 586.232C52.5367 591.746 42.8217 601.779 41.0392 616.065C40.1733 622.953 41.4975 629.638 43.1528 636.59H39.2312C37.6396 629.778 36.3408 622.788 37.2448 615.581C40.9246 585.901 74.7168 578.02 101.57 578.02C106.448 578.02 111.324 578.284 116.174 578.809C129.123 580.248 140.302 586.296 151.112 592.153C162.368 598.239 172.999 603.994 185.617 605.14C200.502 606.49 216.481 604.758 233.39 602.912C267.768 599.169 303.241 595.273 330.068 618.777C332.459 620.814 334.562 623.165 336.32 625.767L336.32 636.59Z" fill="#F4B905" fill-opacity="0.2"/>
<path d="M173.165 636.59C170.924 635.851 168.619 635.087 166.251 634.272C146.503 627.601 124.119 620.025 106.408 630.631C103.775 632.125 101.485 634.155 99.6853 636.59H95.127C97.316 632.69 100.559 629.487 104.485 627.346C111.299 623.362 119.08 621.34 126.971 621.502C140.417 621.502 154.486 626.264 167.473 630.656C171.561 632.044 175.431 633.356 179.149 634.476C182.324 635.397 185.556 636.104 188.826 636.59H173.165Z" fill="#F4B905" fill-opacity="0.2"/>
<path d="M336.32 544.915C336.167 544.406 335.989 543.884 335.836 543.362C331.023 526.504 331.749 507.711 336.32 489.083V544.915Z" fill="#F4B905" fill-opacity="0.2"/>
<path d="M336.32 315.475L334.359 314.953C325.446 312.508 317.425 307.835 309.721 303.328C305.902 301.125 302.082 298.833 298.109 296.872C275.344 285.489 222.109 271.802 202.182 291.779C156.663 337.247 184.955 407.951 205.607 459.607C207.097 463.427 208.994 467.081 210.993 471.066C214.94 478.846 219.015 486.893 220.084 495.424C222.02 510.907 209.376 519.616 198.222 527.37C185.324 536.283 174.183 543.922 182.205 560.029C184.331 564.294 187.693 568.305 190.952 572.201C191.971 573.474 192.989 574.633 193.957 575.843C198.719 581.802 207.505 580.465 215.246 579.293C216.596 579.09 217.894 578.886 219.142 578.733C236.089 576.607 275.789 569.044 278.514 544.521C280.526 526.479 272.046 513.249 263.082 499.256C259.418 493.736 256.044 488.028 252.972 482.157C250.12 476.389 247.332 471.066 244.645 465.973C226.731 432.092 214.902 409.708 239.883 365.997C245.83 355.582 258.626 337.273 277.483 331.619C293.016 326.959 314.827 329.684 336.333 337.986V342.188C315.158 333.771 293.437 330.805 278.578 335.261C260.994 340.532 248.86 357.963 243.194 367.882C219.257 409.772 230.079 430.271 248.02 464.178C250.732 469.271 253.533 474.619 256.41 480.361C259.405 486.121 262.703 491.719 266.291 497.13C275.204 511.136 284.447 525.498 282.296 544.877C279.278 572.099 237.451 580.223 219.613 582.451C218.34 582.604 217.067 582.807 215.793 582.998C207.466 584.272 197.089 585.85 190.939 578.16C189.997 576.976 189.004 575.792 187.998 574.582C184.433 570.649 181.335 566.317 178.767 561.671C169.256 542.662 182.867 533.252 196.02 524.161C207.275 516.369 217.92 509.022 216.265 495.831C215.284 487.963 211.362 480.221 207.555 472.734C205.607 468.915 203.596 464.904 202.03 461.008C180.983 408.384 152.156 336.331 199.483 289.029C207.683 280.817 220.645 277.735 234.905 277.735C258.104 277.735 284.727 285.91 299.841 293.447C303.89 295.472 307.85 297.789 311.67 300.03C319.156 304.423 326.949 308.943 335.39 311.26L336.345 311.528L336.32 315.475Z" fill="#F4B905" fill-opacity="0.2"/>
<path d="M336.32 41.8392C331.405 40.757 326.503 39.7129 321.678 38.6943C298.695 33.8177 276.999 29.2085 262.471 21.9382C251.573 16.4977 241.804 9.04059 233.683 -0.038179H238.954C246.242 7.54265 254.773 13.8212 264.177 18.5259C278.272 25.567 299.739 30.1253 322.467 34.9509C327.038 35.9186 331.673 36.9117 336.32 37.9303V41.8392Z" fill="#F4B905" fill-opacity="0.2"/>
<path d="M92.0713 13.5857C87.6785 35.5366 65.6894 41.8392 46.2341 47.3906C31.668 51.5669 17.9041 55.5012 14.3135 65.2926C11.3341 73.3777 15.2303 85.3336 26.2312 101.835C31.2621 109.59 38.303 115.834 46.6033 119.903C57.5024 125.352 67.1536 133.424 76.0919 144.591C78.8931 148.08 80.8666 152.511 82.7765 156.789C87.322 166.975 91.6893 176.702 106.701 176.702C108.957 176.689 111.209 176.501 113.437 176.142C124.896 174.385 130.855 168.936 137.183 163.168C146.796 154.395 156.74 145.342 185.656 150.142C215.144 155.057 246.772 169.165 274.783 181.605L279.724 183.807C285.613 186.569 291.335 189.672 296.862 193.102C306.016 198.539 315.489 204.179 326.147 206.293C329.572 206.98 332.997 207.49 336.333 207.834V211.653C332.691 211.284 329.024 210.749 325.344 210.011C314.089 207.77 304.336 201.964 294.901 196.362C289.502 193.006 283.912 189.971 278.158 187.27L273.205 185.068C245.486 172.717 214.049 158.711 185.032 153.886C157.975 149.366 149.126 157.425 139.767 165.969C133.299 171.864 126.615 177.95 114.035 179.898C90.5306 183.527 84.5591 170.132 79.3005 158.317C77.7167 154.287 75.6427 150.469 73.1252 146.946C64.5307 136.226 55.2996 128.484 44.9099 123.289C36.0416 118.908 28.5099 112.229 23.099 103.949C11.2068 86.1231 7.28513 73.3905 10.7611 63.9684C15.0265 52.369 29.6945 48.1673 45.2154 43.7236C64.4671 38.2104 84.3808 32.5062 88.3152 12.8344C89.1607 8.58523 89.7264 4.28513 90.0086 -0.038179H93.8283C93.5413 4.53665 92.9544 9.08772 92.0713 13.5857Z" fill="#F4B905" fill-opacity="0.2"/>
<path d="M336.32 76.1152C332.334 74.4218 328.4 72.7157 324.529 71.0222C299.803 60.2887 276.451 50.1536 248.936 44.6404C234.23 41.6991 217.105 38.7834 214.253 39.0635C204.576 45.7481 191.334 68.7813 188.788 79.1074C183.3 101.046 204.398 116.452 221.357 128.828C224.222 130.929 226.934 132.902 229.43 134.851C238.839 142.159 248.758 143.407 259.262 144.731C265.88 145.35 272.419 146.629 278.781 148.551C286.71 151.43 294.439 154.833 301.916 158.737C311.147 163.295 320.684 168.006 330.106 170.362C332.131 170.871 334.219 171.253 336.332 171.571V175.391C333.925 175.057 331.537 174.598 329.177 174.016C319.36 171.559 309.632 166.758 300.223 162.111C292.902 158.29 285.335 154.959 277.572 152.141C271.445 150.292 265.15 149.059 258.778 148.462C248.223 147.125 237.324 145.75 227.087 137.792C224.642 135.895 221.994 133.972 219.104 131.846C201.278 118.795 178.971 102.561 185.082 78.1143C187.884 66.8842 201.52 42.9088 212.381 35.6639C212.61 35.5111 212.979 35.2692 214.698 35.2692C218.072 35.2692 226.692 36.2369 249.687 40.8333C277.61 46.4229 301.14 56.6345 326.083 67.4571L336.358 71.888L336.32 76.1152Z" fill="#F4B905" fill-opacity="0.2"/>
<path d="M336.32 103.363C331.698 101.593 327.127 99.7596 322.594 97.9516C303.661 90.312 284.065 82.4815 263.286 80.5971C249.089 79.3238 240.546 80.9791 239.833 85.1808C238.317 94.0936 265.208 114.198 281.073 118.171C296.25 121.991 312.357 126.294 327.331 132.279C329.584 133.183 332.678 134.303 336.32 135.538V139.523C331.609 137.957 327.916 136.633 325.917 135.831C311.148 129.923 295.194 125.645 280.144 121.825C265.094 118.005 233.937 97.0603 236.076 84.4933C237.235 77.6304 246.581 76.2426 254.475 76.2426C258.193 76.2426 261.58 76.5481 263.63 76.7391C284.969 78.6745 304.819 86.6451 324.02 94.3483C328.082 95.978 332.182 97.6205 336.32 99.2248V103.363Z" fill="#F4B905" fill-opacity="0.2"/>
<path d="M293.246 -0.038179H293.029C291.013 0.439226 288.911 0.417388 286.905 -0.101826L293.246 -0.038179Z" fill="#F4B905" fill-opacity="0.2"/>
<path d="M336.32 10.9882C332.114 8.50199 328.813 4.73676 326.898 0.241939C326.862 0.150492 326.833 0.0569397 326.809 -0.038179H330.959C332.243 2.46151 334.075 4.63807 336.32 6.3281V10.9882Z" fill="#F4B905" fill-opacity="0.2"/>
<path d="M177.418 49.7843C167.473 57.2329 161.311 64.4904 156.141 74.842C151.634 83.8566 149.24 93.4697 146.923 102.764C143.969 114.657 140.901 126.956 133.401 138.212C130.269 142.91 125.354 145.622 118.784 146.284C106.879 147.456 93.6755 141.484 91.4728 139.281C87.3729 135.182 83.5531 131.833 80.179 128.879C70.1967 120.119 62.9901 113.791 59.0048 97.8497C55.8726 85.3464 71.1262 76.3954 87.271 66.9223C101.099 58.799 115.397 50.37 117.46 40.0821C118.593 34.7854 117.32 22.8804 116.047 9.15473C115.754 6.18804 115.448 3.10676 115.155 -0.038179H118.975C119.255 2.97944 119.548 5.93338 119.828 8.78547C121.267 23.4152 122.375 34.9764 121.241 40.8333C118.835 52.8401 103.785 61.6638 89.2319 70.2201C74.3475 78.9419 60.3035 87.1926 62.7354 96.9584C66.4279 111.741 72.9214 117.432 82.7255 126.04C86.1378 129.032 90.0085 132.406 94.1848 136.62C95.6109 138.046 105.962 142.643 115.677 142.643C116.607 142.643 117.524 142.643 118.428 142.516C123.788 141.981 127.773 139.829 130.243 136.149C137.374 125.454 140.213 114.02 143.231 101.911C145.599 92.4129 148.031 82.5961 152.729 73.1995C158.191 62.2749 164.685 54.6227 175.126 46.7922C186.139 38.5415 184.191 17.5837 181.161 0.0254683H184.981C188.151 18.3731 189.959 40.375 177.418 49.7843Z" fill="#F4B905" fill-opacity="0.2"/>
<path d="M74.2964 216.644C57.8332 227.62 32.7247 212.825 8.44367 198.615C-5.2311 190.581 -18.1547 183.005 -27.8187 181.248C-53.4366 176.588 -76.699 177.887 -103.717 181.248C-109.32 181.948 -115.712 184.393 -122.46 186.978C-134.365 191.536 -146.652 196.234 -157.462 192.631C-169.583 188.595 -172.906 164.619 -175.567 145.368C-176.841 136.608 -177.936 128.319 -179.629 124.843C-180.342 124.028 -184.429 121.863 -188.363 119.75C-206.991 109.831 -245.749 89.1916 -259.36 52.5346C-263.982 40.0949 -268.108 24.6375 -258.915 15.4574C-247.455 3.99806 -223.887 15.2027 -209.805 21.8873C-207.513 22.9823 -205.527 23.9245 -203.91 24.612C-173.912 37.4719 -132.137 49.7971 -103.539 35.4984C-89.2023 28.33 -74.7381 14.1841 -63.9664 -0.0636301H-59.1408C-70.3836 15.4446 -85.9937 30.9911 -101.833 38.9107C-111.484 43.7364 -122.485 45.6972 -133.995 45.6972C-158.187 45.6972 -184.595 37.0518 -205.412 28.1262C-207.093 27.4132 -209.105 26.4455 -211.448 25.3378C-224.626 19.0861 -246.679 8.61997 -256.215 18.1567C-263.855 25.7962 -260.035 39.802 -255.782 51.1976C-242.668 86.5432 -204.814 106.699 -186.568 116.401C-179.336 120.221 -177.006 121.494 -176.242 123.073C-174.256 127.058 -173.11 135.309 -171.786 144.858C-169.392 162.111 -166.12 185.743 -156.252 189.028C-146.753 192.198 -135.103 187.754 -123.835 183.425C-116.845 180.751 -110.262 178.23 -104.201 177.466C-76.8135 174.054 -53.271 172.743 -27.1311 177.466C-16.805 179.338 -3.60135 187.092 10.379 195.292C32.5591 208.317 57.7059 223.087 72.1701 213.449C84.1005 205.491 75.2514 188.416 69.3944 177.123C68.7832 175.951 68.2103 174.843 67.701 173.825C60.1378 158.699 37.8431 130.993 21.4691 123.722L19.1899 122.716C3.42702 115.764 -22.9421 104.127 -25.5395 85.9193C-29.0028 61.7275 -7.00094 44.4748 16.2869 26.2545C27.0587 17.8383 37.9323 9.2948 46.2848 -0.0636301H51.3778C42.5542 10.5681 30.4455 20.0411 18.6552 29.2213C-3.7414 46.7285 -24.8902 63.2681 -21.7452 85.3209C-19.4406 101.44 6.69929 112.976 20.7433 119.164L23.0352 120.183C40.4151 127.911 63.13 156.076 71.126 172.068L72.794 175.315C78.8802 187.13 89.0662 206.789 74.2964 216.644Z" fill="#F4B905" fill-opacity="0.2"/>
<path d="M-10.2731 12.2233C-15.608 19.6973 -20.3445 27.9735 -24.9283 35.9822C-27.7804 40.9607 -30.7343 46.1683 -33.8411 51.0066C-39.3161 59.7666 -41.7607 69.8508 -44.1162 79.6167C-46.7391 90.3884 -49.4384 101.529 -56.2121 111.015C-65.596 124.168 -78.0867 130.114 -90.1571 135.971C-97.4784 139.498 -105.067 143.152 -112.07 148.398C-114.336 150.104 -116.832 153.415 -119.468 156.916C-126.088 165.727 -134.339 176.69 -145.938 170.922C-151.948 167.917 -155.603 164.225 -157.105 159.628C-159.651 151.989 -155.335 143.687 -151.579 136.391C-148.651 130.725 -145.888 125.352 -147.428 122.258C-150.14 116.834 -158.302 114.275 -165.508 112.072C-168.846 111.136 -172.107 109.944 -175.262 108.507C-181.704 105.286 -238.071 76.3062 -232.316 51.4905C-232.131 50.4083 -231.665 49.3934 -230.966 48.5468C-230.267 47.7002 -229.359 47.0514 -228.331 46.6648C-220.539 43.7873 -204.305 55.0301 -186.937 67.8136C-183.871 70.2107 -180.679 72.442 -177.375 74.4982C-153.616 86.365 -118.933 93.457 -98.9299 80.9536C-61.6108 57.6276 -52.7616 41.1007 -39.367 16.094C-36.6931 11.1028 -33.841 5.7806 -30.5688 0.0382133H-26.1633C-29.8812 6.48089 -33.0516 12.3888 -36.0056 17.8638C-49.1965 42.5013 -58.7205 60.3014 -96.9054 84.175C-105.322 89.4208 -115.419 91.4453 -125.834 91.4453C-145.658 91.4453 -166.578 84.124 -179.081 77.8851C-182.614 75.7524 -186.015 73.4097 -189.267 70.8694C-200.205 62.8097 -220.564 47.8235 -227.07 50.23C-227.502 50.4017 -227.879 50.6882 -228.159 51.0585C-228.44 51.4288 -228.614 51.8688 -228.662 52.3308C-232.8 70.1564 -194.462 94.6411 -173.619 105.069C-170.64 106.403 -167.568 107.518 -164.426 108.405C-156.507 110.888 -147.517 113.702 -144.054 120.577C-141.635 125.403 -144.831 131.604 -148.218 138.174C-151.604 144.744 -155.513 152.307 -153.502 158.469C-152.343 162.035 -149.313 165.001 -144.271 167.522C-136.147 171.597 -130.15 164.759 -122.549 154.675C-119.748 150.945 -117.099 147.418 -114.4 145.393C-107.104 139.918 -99.3501 136.187 -91.8506 132.584C-79.6783 126.727 -68.1808 121.201 -59.3571 108.851C-52.9908 99.9379 -50.5207 89.6627 -47.8978 78.7636C-45.4659 68.7049 -42.9448 58.3151 -37.1388 49.0331C-34.1212 44.2075 -31.1927 39.089 -28.366 34.136C-23.7314 26.0508 -18.944 17.6855 -13.4944 10.0587C-10.8229 6.51383 -7.88142 3.18072 -4.69623 0.0891544L-4.61983 0.0127622H0.702387C-0.17616 0.942239 -1.08017 1.85899 -1.95871 2.763C-4.96235 5.70454 -7.74159 8.8668 -10.2731 12.2233Z" fill="#F4B905" fill-opacity="0.2"/>
<path d="M-196.894 4.06171C-202.189 3.46945 -207.365 2.08749 -212.25 -0.038179H-198.982C-198.18 0.0891466 -197.378 0.203754 -196.589 0.254684C-189.15 0.803326 -181.678 0.705329 -174.256 -0.038179H-151.694C-166.45 3.70464 -181.705 5.08839 -196.894 4.06171Z" fill="#F4B905" fill-opacity="0.2"/>
<path d="M-210.047 204.701C-214.07 206.866 -217.865 208.916 -221.252 210.953C-228.37 215.394 -235.176 220.316 -241.624 225.685C-257.387 238.226 -272.296 250.08 -300.308 248.247V244.427C-273.57 246.235 -259.87 235.323 -244.017 222.692C-237.432 217.223 -230.486 212.203 -223.225 207.668C-219.749 205.593 -215.917 203.53 -211.855 201.302C-202.357 196.209 -192.527 190.887 -186.619 184.979C-185.486 183.845 -185.715 179.249 -185.83 177.034C-185.83 176.206 -185.906 175.455 -185.906 174.856C-185.906 158.953 -190.121 144.998 -210.684 128.535C-214.503 125.479 -219.151 123.722 -224.066 121.876C-229.4 119.852 -234.926 117.763 -239.434 113.829C-273.188 84.3277 -309.081 40.9607 -291.956 -0.038179H-287.779C-305.541 39.3054 -270.119 81.934 -236.849 110.99C-232.876 114.478 -227.936 116.35 -222.652 118.336C-217.674 120.221 -212.466 122.156 -208.239 125.594C-192.502 138.186 -182.023 151.377 -182.023 174.894C-182.023 175.442 -182.023 176.168 -181.946 176.881C-181.755 180.701 -181.526 185.386 -183.856 187.716C-190.222 194.019 -200.294 199.443 -210.047 204.701Z" fill="#F4B905" fill-opacity="0.2"/>
<path d="M-300.308 102.548V98.2572C-299.459 97.7485 -298.673 97.1416 -297.965 96.4491C-297.023 95.4942 -296.692 93.3424 -297.227 90.4012C-297.87 87.0207 -298.904 83.7263 -300.308 80.5844V71.8116C-297.023 77.936 -294.298 84.6079 -293.458 89.79C-292.758 94.1063 -293.369 97.2513 -295.266 99.1484C-296.729 100.576 -298.437 101.727 -300.308 102.548Z" fill="#F4B905" fill-opacity="0.2"/>
<path d="M-258.151 188.302C-260.697 192.605 -263.32 197.062 -268.464 200.143C-276.002 204.663 -287.194 207.222 -300.295 207.503V203.683C-288.76 203.403 -277.784 201.302 -270.412 196.884C-266.108 194.337 -263.842 190.517 -261.436 186.366C-260.096 183.969 -258.585 181.671 -256.916 179.491C-247.341 167.522 -243.928 157.846 -246.729 150.715C-252.103 137.346 -278.255 133.424 -300.206 130.509V126.689C-277.122 129.758 -249.378 133.832 -243.152 149.327C-239.688 157.947 -243.152 168.605 -253.834 181.923C-255.424 183.943 -256.866 186.075 -258.151 188.302Z" fill="#F4B905" fill-opacity="0.2"/>
<path d="M29.4652 453.827C26.8168 454.807 24.3721 455.915 21.9784 456.984C16.1978 459.594 10.7356 462.077 3.36341 462.714C-15.5444 464.433 -38.654 460.842 -63.0623 457.048C-105.436 450.452 -149.262 443.653 -180.915 461.734C-204.063 474.963 -215.42 498.187 -226.408 520.634C-237.104 542.471 -247.188 563.097 -267.153 575.091C-276.435 580.668 -288.11 582.731 -300.257 582.4V578.58C-289.753 578.848 -278.332 577.307 -269.05 571.806C-250.027 560.347 -240.172 540.255 -229.744 518.941C-218.501 496.022 -206.826 472.225 -182.71 458.41C-149.886 439.655 -103.399 446.951 -62.3748 453.317C-38.1829 457.137 -15.2643 460.639 3.12149 458.958C9.85701 458.347 15.0392 456.017 20.5142 453.559C22.9461 452.464 25.4671 451.331 28.2173 450.3C54.6247 440.394 69.3563 430.857 77.4924 418.392C86.507 404.577 88.0859 386.217 82.5854 358.842C79.7078 344.492 74.0291 333.173 68.0193 321.192C63.8976 313.348 60.2371 305.27 57.0566 297C55.0794 291.205 53.4091 285.31 52.0527 279.34C49.0224 267.04 45.8902 254.333 37.6649 244.962C13.6895 217.549 -22.0762 201.938 -65.7616 199.799C-102.966 197.991 -144.704 206.357 -180.253 222.718C-193.355 228.702 -205.833 236.787 -217.865 244.656C-234.099 255.224 -250.791 266.149 -269.75 272.439C-278.663 275.418 -289.002 276.36 -300.308 275.291V271.471C-289.358 272.54 -279.439 271.662 -270.921 268.823C-252.472 262.673 -235.932 251.888 -219.991 241.46C-207.806 233.541 -195.264 225.328 -181.895 219.166C-148.626 203.947 -112.519 195.92 -75.935 195.61C-72.4547 195.61 -69.0127 195.695 -65.6089 195.865C-20.8666 198.042 15.8795 214.111 40.5043 242.326C49.3407 252.41 52.5875 265.588 55.7197 278.321C57.0425 284.159 58.6745 289.922 60.609 295.586C63.7369 303.735 67.3379 311.693 71.3935 319.422C77.2504 331.11 83.3239 343.181 86.2906 358.04C91.982 386.471 90.2249 405.71 80.6246 420.429C72.0174 433.633 56.7383 443.615 29.4652 453.827Z" fill="#F4B905" fill-opacity="0.2"/>
<path d="M-28.2006 427.776C-44.6638 431.888 -61.1779 429.278 -77.1573 426.757C-81.932 426.006 -86.8595 425.229 -91.6724 424.644C-95.7086 424.16 -99.7703 423.65 -103.845 423.141C-136.631 419.029 -170.525 414.776 -202.649 422.072C-228.522 427.916 -259.258 449.88 -265.93 476.452C-267.687 483.481 -267.458 491.731 -267.203 500.644C-266.681 519.387 -266.083 540.637 -288.034 548.875C-291.975 550.273 -296.127 550.984 -300.308 550.976V547.156C-296.576 547.162 -292.871 546.52 -289.358 545.259C-269.966 537.976 -270.476 519.883 -271.01 500.695C-271.252 492.024 -271.494 483.073 -269.61 475.523C-265.434 458.83 -253.35 446.238 -243.941 438.598C-231.96 428.845 -217.203 421.473 -203.49 418.354C-170.716 410.905 -136.478 415.196 -103.374 419.347C-99.2992 419.869 -95.2375 420.365 -91.2268 420.849C-86.3375 421.435 -81.3718 422.224 -76.5589 422.988C-60.9615 425.446 -44.8293 427.992 -29.1301 424.071C-12.9215 420.022 3.80905 409.479 15.6249 395.868C28.5993 380.945 34.4945 364.037 32.1772 348.185C28.6248 323.267 14.5681 301.482 -9.61107 283.452C-52.9018 251.201 -116.565 240.416 -157.181 246.426C-175.529 249.113 -192.654 257.771 -209.232 266.072C-215.458 269.217 -221.965 272.439 -228.331 275.354C-238.326 279.849 -247.239 288.087 -256.686 296.77C-269.75 308.956 -283.297 321.383 -300.308 323.623V319.727C-284.596 317.384 -271.749 305.543 -259.233 294.084C-249.989 285.553 -240.414 276.729 -229.859 271.98C-223.493 269.141 -217.126 265.907 -210.951 262.775C-194.106 254.269 -176.7 245.471 -157.691 242.657C-116.297 236.533 -51.3484 247.521 -7.26829 280.396C17.3947 298.795 32.3554 322.057 36.0224 347.663C38.4289 364.597 32.2026 382.613 18.5151 398.389C6.20276 412.497 -11.279 423.498 -28.2006 427.776Z" fill="#F4B905" fill-opacity="0.2"/>
<path d="M-121.785 383.899C-129.87 387.133 -138.337 390.266 -146.499 393.283C-162.796 399.331 -179.731 405.583 -194.628 413.006C-199.364 415.374 -205.578 415.132 -211.588 414.89C-214.981 414.629 -218.392 414.693 -221.774 415.081C-230.534 416.546 -241.267 422.505 -249.645 427.521C-264.415 436.434 -282.342 457.799 -285.526 476.936C-286.226 481.1 -286.595 485.543 -287.003 490.242C-288.161 504.171 -289.485 519.743 -300.308 528.592V523.27C-292.936 515.134 -291.841 502.363 -290.784 489.898C-290.377 485.123 -289.982 480.616 -289.269 476.3C-285.895 456.08 -267.089 433.531 -251.581 424.236C-242.922 419.041 -231.781 412.866 -222.372 411.3C-218.726 410.864 -215.046 410.783 -211.384 411.058C-205.858 411.274 -200.141 411.504 -196.283 409.581C-181.259 402.069 -164.261 395.779 -147.823 389.693C-139.674 386.675 -131.271 383.556 -123.198 380.334C-107.512 374.057 -80.5696 351.852 -85.0005 331.785C-88.0564 318.008 -99.8467 308.421 -109.192 302.818C-120.62 296.143 -133.181 291.633 -146.244 289.513C-180.482 284.242 -234.481 313.106 -273.901 334.166C-281.973 338.482 -289.587 342.544 -296.043 345.778C-297.481 346.504 -298.908 347.204 -300.308 347.892V343.626L-297.762 342.353C-291.395 339.144 -283.756 335.083 -275.722 330.792C-239.128 311.235 -190.146 285.057 -154.89 285.057C-151.808 285.044 -148.731 285.27 -145.684 285.731C-123.071 289.207 -87.2797 304.117 -81.3208 330.957C-76.3169 353.43 -104.558 377.011 -121.785 383.899Z" fill="#F4B905" fill-opacity="0.2"/>
<path d="M-206.011 394.671L-208.557 395.346L-216.477 397.46C-239.014 403.444 -269.877 411.631 -285.233 424.758C-290.886 429.698 -296.31 438.216 -300.308 447.027V438.484C-296.654 431.876 -292.287 425.879 -287.576 421.932C-271.596 408.244 -240.249 399.917 -217.355 393.844C-214.567 393.105 -211.919 392.405 -209.461 391.73L-206.915 391.055C-193.444 387.465 -181.806 384.358 -184.798 367.907C-186.072 361.248 -190.108 355.417 -196.652 351.037C-206.52 344.428 -221.57 341.564 -233.258 344.072C-251.759 347.955 -269.75 362.7 -287.079 376.973C-291.535 380.627 -295.992 384.243 -300.308 387.655V382.792C-296.743 379.952 -293.14 376.998 -289.498 374.019C-271.787 359.466 -253.465 344.416 -234.137 340.278C-230.88 339.591 -227.559 339.254 -224.231 339.272C-213.751 339.232 -203.479 342.192 -194.628 347.803C-187.205 352.768 -182.545 359.466 -181.144 367.169C-177.49 387.032 -192.642 391.119 -206.011 394.671Z" fill="#F4B905" fill-opacity="0.2"/>
</g>
</svg>
