<svg width="380" height="371" viewBox="0 0 380 371" fill="none" xmlns="http://www.w3.org/2000/svg">
<mask id="mask0_1_9205" style="mask-type:alpha" maskUnits="userSpaceOnUse" x="0" y="0" width="380" height="372">
<path d="M297.761 318.04L303.183 371.36L0.435692 371.36L0.435692 42.4043L41.1033 27.9447L70.9262 11.6777L111.594 0.833008L152.261 0.833008L189.314 22.5224L208.292 46.923L211.907 77.6496L189.314 143.621L178.469 190.615L189.314 229.475L211.907 243.031L256.19 247.55L319.45 229.475H356.503H374.578L380 243.031L356.503 260.202L297.761 318.04Z" fill="white"/>
</mask>
<g mask="url(#mask0_1_9205)">
<path d="M294.514 -46.0038C310.438 -46.0038 315.215 -36.0912 320.718 -17.0931C321.062 -15.7802 321.143 -14.4125 320.958 -13.068C320.773 -11.7236 320.325 -10.4288 319.64 -9.25782C318.919 -7.78736 317.648 -6.66047 316.102 -6.12168C309.45 -4.45783 302.627 -4.33686 296.025 -4.21586C286.955 -4.05451 278.368 -3.90324 269.942 -0.18226C267.148 1.21004 264.454 2.79366 261.879 4.55721C254.179 9.50841 245.461 15.1151 237.6 12.4933C232.308 10.7286 229.385 8.14712 228.902 4.81939C227.783 -2.89481 240.553 -11.8191 248.998 -17.7283C250.5 -18.7367 251.8 -19.6846 252.808 -20.4409C256.123 -23.0863 259.27 -25.9355 262.232 -28.9719C269.458 -36.0307 277.662 -44.0979 287.307 -45.4592C289.694 -45.811 292.102 -45.993 294.514 -46.0038ZM315.356 -9.05613C316.082 -9.42399 316.663 -10.0238 317.009 -10.7603C317.974 -12.4208 318.256 -14.3915 317.795 -16.2561C311.667 -37.503 307.475 -45.2777 287.68 -42.4744C279.013 -41.2441 271.554 -33.9131 264.298 -26.824C261.244 -23.6914 257.995 -20.7545 254.572 -18.0308C253.564 -17.2443 252.203 -16.3267 250.682 -15.2578C243.798 -10.4477 230.998 -1.49317 231.845 4.37569C232.157 6.48324 234.394 8.23784 238.507 9.60927C244.997 11.7773 253.07 6.5841 260.196 2.00597C262.904 0.148337 265.744 -1.50984 268.692 -2.95536C277.682 -6.98893 286.965 -7.12 295.904 -7.28135C302.375 -7.35194 309.037 -7.51328 315.356 -9.05613Z" fill="#F4B905" fill-opacity="0.2"/>
<path d="M26.5225 151.904C30.8703 151.929 35.1006 153.318 38.6168 155.877C51.7191 165.124 57.2019 187.43 58.2601 197.937C59.7215 212.589 54.0876 224.327 48.6451 235.661C45.7021 241.792 42.6685 248.125 40.7233 254.922C39.0905 260.629 38.9293 267.93 38.7075 275.654C38.2943 293.503 37.8206 313.731 18.2882 320.245C13.9544 321.698 12.241 320.84 10.5377 319.59C10.3261 319.439 10.1144 319.277 9.88263 319.126C9.7821 319.065 9.68762 318.994 9.60043 318.914L7.70563 316.978C7.63708 316.915 7.5762 316.844 7.52423 316.766C5.03479 313.066 6.10312 305.735 7.35287 301.973C12.6139 286.192 17.9859 267.335 17.9859 247.167C17.9859 237.567 13.6218 230.135 8.9957 222.26C1.54758 209.564 -6.89832 195.174 3.43228 169.319C7.02029 160.344 13.0372 154.566 20.818 152.62C22.6828 152.147 24.5988 151.907 26.5225 151.904ZM14.5591 317.987C15.5348 317.929 16.4963 317.725 17.4114 317.382C34.9281 311.533 35.3513 293.261 35.7646 275.584C35.946 267.658 36.1173 260.175 37.861 254.085C39.8767 247.026 42.9708 240.592 45.9239 234.36C51.4268 222.885 56.6274 212.055 55.2466 198.24C54.0775 186.583 48.1916 166.344 36.8833 158.358C34.7078 156.774 32.2042 155.7 29.5577 155.214C26.9112 154.729 24.1895 154.845 21.594 155.554C12.9969 157.702 8.49176 164.842 6.28455 170.448C-3.50183 194.922 4.19827 208.041 11.6464 220.727C16.2725 228.602 21.0497 236.74 21.0497 247.167C21.0497 267.769 15.5972 286.918 10.2656 302.931C9.11664 306.37 8.41113 312.4 10.0036 314.961L11.6766 316.666C11.9084 316.817 12.1302 316.978 12.3519 317.14C12.9596 317.682 13.7447 317.983 14.5591 317.987Z" fill="#F4B905" fill-opacity="0.2"/>
<path d="M299.109 88.7986C299.74 88.7963 300.37 88.8401 300.994 88.9297C305.711 89.6053 309.057 92.7817 310.912 98.3783C312.766 103.975 309.48 109.34 306.295 114.513C304.28 117.76 302.415 120.835 301.942 123.699C297.749 148.909 312.383 165.346 345.451 172.697L346.822 173C351.72 174.079 356.779 175.188 361.143 177.709C361.457 177.892 361.745 178.116 362 178.374C362.577 178.931 362.975 179.647 363.144 180.431C363.312 181.215 363.243 182.031 362.946 182.776C362.649 183.52 362.136 184.159 361.474 184.611C360.812 185.063 360.03 185.307 359.229 185.312C351.811 185.504 345.431 186.048 339.797 186.522C321.161 188.085 307.706 189.215 279.244 176.559C260.397 168.179 254.048 153.275 259.309 129.649C260.924 122.289 263.898 115.295 268.077 109.027C272.159 103.148 287.348 88.7986 299.109 88.7986ZM323.107 184.465C328.398 184.465 333.659 184.021 339.535 183.527C345.209 183.043 351.629 182.519 359.148 182.307C359.359 182.32 359.569 182.267 359.748 182.154C359.927 182.041 360.066 181.874 360.145 181.678C360.225 181.481 360.24 181.265 360.189 181.06C360.139 180.854 360.025 180.669 359.863 180.532C359.793 180.463 359.716 180.402 359.632 180.351C355.671 178.062 350.843 177.003 346.177 175.974L344.796 175.672C309.873 167.907 294.403 150.26 298.958 123.235C299.533 119.787 301.659 116.328 303.715 112.97C306.678 108.16 309.47 103.612 308.049 99.3565C306.558 94.8792 304.108 92.459 300.561 91.9447C290.543 90.5027 274.79 104.681 270.567 110.782C266.627 116.74 263.813 123.371 262.262 130.344C257.313 152.62 262.927 166.042 280.474 173.837C299.563 182.307 311.426 184.465 323.107 184.465Z" fill="#F4B905" fill-opacity="0.2"/>
<path d="M343.576 357.082C345.733 353.442 347.971 349.67 347.971 344.981C347.971 341.301 346.429 338.003 344.947 334.807C343.707 332.462 342.795 329.958 342.236 327.365C341.077 320.306 345.26 314.256 348.908 310.353C360.055 298.605 383.085 289.792 398.193 291.486C405.802 292.343 410.811 294.894 413.502 299.271C418.763 307.812 414.208 322.01 409.531 334.645C408.826 336.541 408.14 338.618 407.415 340.817C404.885 348.45 402.023 357.112 397.336 361.912C396.832 362.417 396.227 363.001 395.542 363.657C394.101 365.059 392.357 366.743 390.634 368.618H394.756C395.764 367.61 396.772 366.662 397.588 365.835C398.283 365.159 398.908 364.554 399.422 364.04C404.663 358.736 407.646 349.721 410.277 341.765C410.993 339.586 411.668 337.539 412.353 335.714C417.282 322.393 422.069 307.388 416.022 297.688C412.847 292.535 406.951 289.439 398.465 288.481C397.089 288.329 395.706 288.255 394.322 288.259C378.62 288.259 357.384 296.972 346.65 308.276C340.694 314.548 338.114 321.314 339.192 327.849C339.794 330.718 340.788 333.49 342.145 336.087C343.556 339.113 344.897 341.966 344.897 344.981C344.897 348.844 342.972 352.04 340.926 355.539C338.719 359.27 336.28 363.415 336.461 368.648H339.485C339.333 364.272 341.44 360.763 343.576 357.082Z" fill="#F4B905" fill-opacity="0.2"/>
<path d="M453.192 356.911C449.604 354.289 444.887 353.694 439.183 355.136C434.365 356.356 428.983 361.852 422.875 368.618H426.977C431.865 363.304 436.381 358.968 439.918 358.07C444.786 356.84 448.536 357.264 451.408 359.351C454.069 361.307 455.802 364.585 456.981 368.618H460.156C458.826 363.677 456.709 359.482 453.192 356.911Z" fill="#F4B905" fill-opacity="0.2"/>
<path d="M313.22 346.363C314.147 340.212 315.598 332.245 318.642 325.187C323.916 313.234 330.766 302.042 339.011 291.91C343.042 286.958 348.616 282.632 354.038 278.437C355.52 277.298 356.971 276.179 358.352 275.059C363.25 271.087 368.874 268.107 374.911 266.286C407.959 256.293 423.147 283.046 437.832 308.921C449.07 328.706 459.682 347.442 477.683 349.65C486.754 350.78 495.754 349.721 504.714 347.734V344.628C495.814 346.645 486.875 347.754 478.056 346.645C461.557 344.628 451.307 326.538 440.462 307.429C428.015 285.496 414.147 261.043 388.285 261.043C383.444 261.091 378.636 261.849 374.014 263.291C367.604 265.216 361.633 268.378 356.437 272.599C355.066 273.698 353.625 274.807 352.163 275.947C346.6 280.242 340.855 284.679 336.632 289.903C328.211 300.271 321.215 311.721 315.83 323.946C312.645 331.368 311.153 339.586 310.206 345.919C308.927 353.425 308.845 361.087 309.964 368.618H312.988C311.919 362.437 311.879 355.146 313.22 346.363Z" fill="#F4B905" fill-opacity="0.2"/>
<path d="M0.781494 49.9653C4.5441 50.2518 8.32114 50.2989 12.0897 50.1064C32.4083 48.9065 50.6506 39.0141 68.2983 29.4948C81.0377 22.6075 94.2206 15.4781 107.918 11.8277C141.671 2.81267 168.722 13.3907 186.128 42.4224C191.661 51.6392 195.501 58.9097 194.604 68.7315C193.324 82.849 188.194 94.9498 182.762 107.706C180.06 114.059 177.269 120.634 174.991 127.481C171.856 136.899 171.383 145.924 170.879 155.484C170.718 158.509 170.556 161.736 170.284 164.902C169.821 170.559 168.027 176.287 166.253 181.823C164.817 186.1 163.645 190.461 162.745 194.882C159.974 210.109 167.593 237.134 178.135 249.426C191.439 264.965 210.71 271.671 235.402 269.362C260.498 267.012 283.296 256.081 294.655 249.769C311.536 240.381 341.42 226.576 351.791 239.544C352.424 240.316 352.887 241.215 353.147 242.179C353.408 243.144 353.461 244.153 353.302 245.14C352.426 252.098 343.738 260.266 338.749 264.038C334.858 266.952 330.686 269.856 326.654 272.659C306.941 286.353 286.562 300.521 282.58 326.417C280.091 342.632 281.825 355.479 286.854 368.578H290.119C284.939 355.539 283.064 342.884 285.574 326.881C289.394 302.306 309.188 288.521 328.418 275.18C332.45 272.367 336.673 269.443 340.603 266.498C342.085 265.379 355.096 255.406 356.346 245.564C356.554 244.175 356.469 242.758 356.098 241.403C355.727 240.049 355.076 238.787 354.189 237.698C348.646 230.76 338.255 229.48 323.288 233.897C314.51 236.488 304.401 240.955 293.224 247.167C282.046 253.379 259.712 264.098 235.16 266.387C211.506 268.606 193.102 262.243 180.464 247.5C170.587 235.974 163.169 209.705 165.759 195.467C166.64 191.169 167.781 186.93 169.176 182.771C170.959 177.073 172.804 171.184 173.298 165.195C173.57 161.978 173.741 158.771 173.902 155.675C174.386 146.327 174.85 137.524 177.863 128.449C180.101 121.723 182.903 115.208 185.543 108.916C190.824 96.4724 196.297 83.6053 197.638 69.0239C198.645 58.3147 194.382 50.2779 188.748 40.8897C174.769 17.5857 154.874 5.66643 130.423 5.66643C122.56 5.73141 114.74 6.82641 107.162 8.92354C93.112 12.6647 79.7779 19.8848 66.847 26.8528C49.4916 36.241 31.5717 45.9518 11.8982 47.1014C8.20352 47.2919 4.5004 47.2448 0.811706 46.9602L0.781494 49.9653Z" fill="#F4B905" fill-opacity="0.2"/>
<path d="M0.781494 100.062C16.6525 94.7494 32.0303 88.062 46.7401 80.0759C51.9597 77.138 56.9767 73.8533 61.7573 70.2441C66.9276 66.5231 72.2693 62.671 77.9738 59.8172C96.0549 50.7417 128.851 50.7417 144.029 64.234C164.67 82.5969 158.653 105.175 152.838 127.017C150.621 135.326 146.902 145.662 142.951 156.613C129.385 194.287 112.493 241.177 131.038 269.009C151.689 299.997 197.214 298.313 232.933 286.404C235.775 285.456 239.303 283.863 243.012 282.168C254.552 276.955 270.325 269.795 279.033 276.33C281.643 278.286 283.064 280.363 283.387 282.602C284.012 287.059 280.293 291.98 276.705 296.72C275.294 298.575 273.963 300.34 272.865 302.104C271.393 304.454 269.841 306.824 268.228 309.335C257.898 325.298 246.176 343.378 248.323 362.78C248.549 364.751 248.923 366.703 249.442 368.618H252.576C251.989 366.593 251.571 364.522 251.327 362.427C249.311 344.134 260.71 326.538 270.768 310.998C272.401 308.477 273.943 306.098 275.425 303.728C276.432 302.074 277.753 300.37 279.113 298.555C283.084 293.311 287.176 287.886 286.38 282.179C285.947 279.153 284.082 276.34 280.847 273.91C270.768 266.306 254.642 273.577 241.782 279.416C238.124 281.069 234.677 282.632 231.986 283.53C197.325 295.086 153.261 296.901 133.558 267.325C115.859 240.764 132.459 194.67 145.803 157.642C149.764 146.63 153.513 136.223 155.761 127.793C161.808 105.074 168.077 81.5684 146.035 61.9752C138.375 55.1585 126.261 51.0947 111.949 50.53C110.84 50.53 109.732 50.4593 108.623 50.4593C96.831 50.4593 85.0793 52.8896 76.6233 57.1148C70.697 60.0795 65.2546 64.0021 59.9935 67.7937C55.3189 71.3199 50.4167 74.5336 45.319 77.4138C31.0492 85.1479 16.15 91.6585 0.781494 96.8758V100.062Z" fill="#F4B905" fill-opacity="0.2"/>
<path d="M0.781494 368.618H1.02325C1.02325 364.585 3.30106 360.652 7.72559 356.78C27.9937 339.072 55.3976 342.057 81.9246 344.951C94.8757 346.363 108.26 347.825 120.344 346.726C130.957 345.718 140.038 340.837 148.827 336.087C157.615 331.338 165.708 326.941 175.374 325.872C188.002 324.461 201.578 325.54 211.657 328.736C225.414 333.103 233.104 341.049 234.515 352.363C235.201 357.818 234.152 363.112 232.842 368.618H235.946C237.206 363.223 238.234 357.687 237.519 351.98C234.606 328.474 207.857 322.232 186.601 322.232C182.74 322.232 178.881 322.441 175.041 322.857C164.791 323.997 155.942 328.787 147.385 333.425C138.476 338.245 130.06 342.803 120.072 343.711C108.29 344.78 95.6416 343.408 82.2572 341.946C55.0448 338.981 26.9657 335.896 5.73001 354.511C3.83783 356.124 2.17313 357.986 0.781402 360.047L0.781494 368.618Z" fill="#F4B905" fill-opacity="0.2"/>
<path d="M129.929 368.618C131.703 368.033 133.527 367.428 135.402 366.783C151.034 361.499 168.752 355.499 182.772 363.899C184.856 365.082 186.669 366.69 188.093 368.618H191.701C189.968 365.53 187.401 362.993 184.293 361.297C178.9 358.142 172.741 356.54 166.495 356.669C155.851 356.669 144.715 360.44 134.434 363.919C131.199 365.018 128.135 366.057 125.192 366.944C122.68 367.674 120.12 368.233 117.532 368.618H129.929Z" fill="#F4B905" fill-opacity="0.2"/>
<path d="M0.781402 296.014C0.902343 295.61 1.04343 295.197 1.16437 294.783C4.97412 281.432 4.39963 266.548 0.781402 251.796V296.014Z" fill="#F4B905" fill-opacity="0.2"/>
<path d="M0.781494 114.301L2.33359 113.887C9.38864 111.951 15.7382 108.251 21.8358 104.681C24.8594 102.936 27.883 101.121 31.0275 99.5682C49.0481 90.5532 91.1869 79.7129 106.96 95.5346C142.991 131.544 120.596 187.541 104.249 228.451C103.07 231.476 101.568 234.371 99.9856 237.527C96.8612 243.688 93.6361 250.061 92.7895 256.817C91.2575 269.079 101.266 275.977 110.094 282.118C120.304 289.177 129.123 295.227 122.773 307.983C121.09 311.361 118.43 314.538 115.849 317.624C115.043 318.632 114.237 319.55 113.471 320.508C109.701 325.227 102.747 324.168 96.6193 323.24C95.551 323.079 94.523 322.918 93.5353 322.797C80.1206 321.113 48.6954 315.123 46.5385 295.701C44.9461 281.412 51.6585 270.935 58.7538 259.853C61.6542 255.48 64.3253 250.96 66.7563 246.31C69.0139 241.742 71.2212 237.527 73.3477 233.493C87.5284 206.66 96.8914 188.932 77.1172 154.314C72.4104 146.065 62.2814 131.565 47.3549 127.087C35.059 123.397 17.7942 125.555 0.771392 132.129V135.457C17.5322 128.792 34.7264 126.442 46.4882 129.971C60.4068 134.146 70.0117 147.951 74.4967 155.806C93.4446 188.983 84.8777 205.218 70.6769 232.071C68.5301 236.105 66.3129 240.34 64.0351 244.888C61.6644 249.45 59.0538 253.883 56.214 258.169C49.159 269.261 41.8419 280.636 43.5452 295.983C45.9338 317.543 79.0422 323.977 93.1624 325.741C94.1702 325.862 95.1781 326.024 96.186 326.175C102.777 327.183 110.991 328.434 115.859 322.343C116.605 321.405 117.391 320.467 118.188 319.509C121.01 316.395 123.462 312.963 125.495 309.284C133.023 294.229 122.249 286.777 111.838 279.577C102.929 273.405 94.5028 267.587 95.8131 257.14C96.5891 250.908 99.6933 244.777 102.707 238.848C104.249 235.823 105.841 232.646 107.081 229.56C123.741 187.883 146.559 130.818 109.097 93.3565C102.606 86.8523 92.346 84.412 81.0579 84.412C62.6946 84.412 41.6201 90.8859 29.6568 96.8556C26.4518 98.459 23.3173 100.294 20.2937 102.069C14.3675 105.548 8.19937 109.128 1.51724 110.963L0.761322 111.175L0.781494 114.301Z" fill="#F4B905" fill-opacity="0.2"/>
<path d="M0.781372 -102.413C4.67172 -103.271 8.552 -104.097 12.3718 -104.904C30.5637 -108.766 47.7378 -112.417 59.2375 -118.175C67.8644 -122.483 75.5969 -128.389 82.0253 -135.579H77.8528C72.084 -129.576 65.3314 -124.603 57.887 -120.877C46.7299 -115.301 29.7373 -111.691 11.7469 -107.869C8.12869 -107.102 4.46005 -106.316 0.781372 -105.509V-102.413Z" fill="#F4B905" fill-opacity="0.2"/>
<path d="M194.12 -124.79C197.597 -107.405 215.003 -102.413 230.403 -98.0168C241.933 -94.7092 252.828 -91.5933 255.67 -83.8387C258.029 -77.4354 254.945 -67.9666 246.237 -54.8978C242.255 -48.7561 236.681 -43.8107 230.111 -40.5886C221.484 -36.2727 213.844 -29.8795 206.769 -21.0359C204.552 -18.2729 202.989 -14.7636 201.477 -11.3754C197.879 -3.30827 194.422 4.39587 182.54 4.39587C180.754 4.38497 178.971 4.23666 177.208 3.95217C168.137 2.56057 163.421 -1.75535 158.411 -6.3234C150.802 -13.2712 142.931 -20.4409 120.042 -16.6393C96.6999 -12.7468 71.6645 -1.57383 49.4915 8.27819L45.581 10.0227C40.9196 12.2099 36.3898 14.6678 32.0151 17.384C24.7686 21.6898 17.2701 26.157 8.83426 27.831C6.12311 28.3755 3.4119 28.7789 0.771301 29.0511V32.0763C3.65381 31.7839 6.55649 31.3603 9.46921 30.7755C18.3787 29.0007 26.0989 24.4024 33.5672 19.9655C37.8405 17.3083 42.266 14.9042 46.8207 12.7655L50.7413 11.021C72.6825 1.23958 97.5667 -9.85276 120.536 -13.6746C141.953 -17.2544 148.958 -10.8713 156.365 -4.1049C161.485 0.563956 166.777 5.38409 176.734 6.92693C195.34 9.80086 200.066 -0.807473 204.229 -10.1654C205.483 -13.3564 207.124 -16.3809 209.117 -19.1703C215.92 -27.661 223.227 -33.7921 231.451 -37.9063C238.471 -41.3765 244.433 -46.6659 248.716 -53.2238C258.13 -67.3414 261.234 -77.4254 258.482 -84.8875C255.106 -94.0739 243.495 -97.4016 231.21 -100.921C215.971 -105.287 200.208 -109.805 197.093 -125.385C196.424 -128.75 195.976 -132.156 195.753 -135.579H192.729C192.956 -131.956 193.421 -128.352 194.12 -124.79Z" fill="#F4B905" fill-opacity="0.2"/>
<path d="M0.781585 -75.2674C3.93619 -76.6086 7.05051 -77.9598 10.1144 -79.301C29.6871 -87.8017 48.1714 -95.8286 69.9514 -100.195C81.5922 -102.524 95.1479 -104.834 97.4056 -104.612C105.065 -99.3176 115.547 -81.0757 117.563 -72.8976C121.907 -55.523 105.206 -43.3214 91.7817 -33.5198C89.514 -31.856 87.3672 -30.2929 85.3918 -28.7501C77.9437 -22.9619 70.0924 -21.9737 61.7776 -20.9249C56.5393 -20.435 51.3633 -19.4216 46.327 -17.8998C40.0508 -15.6195 33.933 -12.9245 28.0141 -9.83259C20.7071 -6.22254 13.1582 -2.49149 5.69995 -0.625955C4.09744 -0.222604 2.44455 0.079917 0.771484 0.332023V3.3572C2.67709 3.09243 4.56772 2.72893 6.43567 2.26815C14.2063 0.321952 21.9064 -3.47971 29.3546 -7.16035C35.1497 -10.1868 41.1396 -12.8245 47.2845 -15.0561C52.1338 -16.5207 57.1172 -17.497 62.1605 -17.9703C70.5157 -19.0292 79.1431 -20.1182 87.2463 -26.4207C89.1814 -27.9232 91.2777 -29.4459 93.5656 -31.1299C107.676 -41.466 125.333 -54.323 120.496 -73.6842C118.278 -82.5782 107.484 -101.566 98.8871 -107.304C98.7057 -107.425 98.4134 -107.617 97.0528 -107.617C94.382 -107.617 87.5587 -106.85 69.3567 -103.21C47.2542 -98.7831 28.6289 -90.6958 8.88483 -82.1245L0.751342 -78.6153L0.781585 -75.2674Z" fill="#F4B905" fill-opacity="0.2"/>
<path d="M0.781463 -53.6877C4.44 -55.0894 8.05823 -56.5415 11.6462 -57.9734C26.6332 -64.0238 42.1442 -70.2254 58.5926 -71.7178C69.8303 -72.7262 76.593 -71.4153 77.1574 -68.0876C78.3568 -61.0288 57.0707 -45.1063 44.5127 -41.9601C32.499 -38.9349 19.7494 -35.5265 7.89697 -30.787C6.11307 -30.0711 3.66394 -29.1837 0.781463 -28.2055V-25.0493C4.51056 -26.2896 7.43338 -27.3384 9.01572 -27.9736C20.7069 -32.6526 33.3355 -36.0408 45.2484 -39.066C57.1614 -42.0912 81.8239 -58.6793 80.1306 -68.6321C79.2135 -74.0674 71.8158 -75.1665 65.567 -75.1665C62.624 -75.1665 59.9431 -74.9245 58.3205 -74.7733C41.4286 -73.2405 25.716 -66.928 10.5174 -60.8272C7.30234 -59.5364 4.05701 -58.2356 0.781463 -56.965V-53.6877Z" fill="#F4B905" fill-opacity="0.2"/>
<path d="M34.8776 -135.579H35.0489C36.6449 -135.201 38.309 -135.219 39.8968 -135.63L34.8776 -135.579Z" fill="#F4B905" fill-opacity="0.2"/>
<path d="M0.781463 -126.847C4.11066 -128.816 6.72382 -131.798 8.23965 -135.358C8.2677 -135.43 8.29126 -135.504 8.31021 -135.579H5.02457C4.00891 -133.6 2.55826 -131.876 0.781463 -130.538V-126.847Z" fill="#F4B905" fill-opacity="0.2"/>
<path d="M126.563 -96.121C134.434 -90.2219 139.312 -84.474 143.404 -76.2758C146.972 -69.1363 148.867 -61.523 150.701 -54.1617C153.04 -44.7433 155.468 -35.0022 161.405 -26.088C163.884 -22.367 167.775 -20.2191 172.975 -19.6947C182.399 -18.767 192.85 -23.4963 194.594 -25.2409C197.839 -28.4879 200.863 -31.14 203.534 -33.4795C211.435 -40.4172 217.14 -45.429 220.294 -58.0541C222.774 -67.9565 210.7 -75.0455 197.92 -82.548C186.974 -88.9815 175.656 -95.6571 174.023 -103.805C173.126 -108 174.134 -117.428 175.142 -128.299C175.374 -130.648 175.616 -133.089 175.848 -135.579H172.824C172.602 -133.19 172.37 -130.85 172.149 -128.591C171.01 -117.005 170.133 -107.849 171.03 -103.21C172.935 -93.7008 184.848 -86.7127 196.368 -79.9363C208.15 -73.0288 219.266 -66.4943 217.341 -58.76C214.419 -47.0525 209.278 -42.545 201.518 -35.7282C198.817 -33.3585 195.753 -30.6862 192.447 -27.3484C191.318 -26.219 183.124 -22.5787 175.434 -22.5787C174.699 -22.5787 173.973 -22.5787 173.257 -22.6796C169.014 -23.1031 165.86 -24.8073 163.904 -27.7215C158.26 -36.1921 156.013 -45.2474 153.624 -54.8373C151.749 -62.3599 149.824 -70.1346 146.105 -77.5766C141.782 -86.2286 136.642 -92.2891 128.377 -98.4907C119.659 -105.025 121.201 -121.623 123.6 -135.529H120.576C118.067 -120.998 116.635 -103.573 126.563 -96.121Z" fill="#F4B905" fill-opacity="0.2"/>
<path d="M208.19 36.0292C221.222 44.7216 241.097 33.004 260.317 21.7503C271.141 15.3874 281.371 9.38741 289.021 7.99584C309.299 4.30511 327.713 5.33367 349.1 7.99584C353.534 8.55047 358.594 10.4866 363.935 12.5336C373.359 16.1437 383.085 19.8646 391.642 17.0109C401.236 13.8143 403.867 -5.17381 405.973 -20.4207C406.981 -27.3585 407.848 -33.9232 409.188 -36.6761C409.753 -37.3215 412.988 -39.0357 416.102 -40.7097C430.847 -48.5651 461.527 -64.9111 472.301 -93.9428C475.96 -103.795 479.225 -116.037 471.948 -123.307C462.877 -132.383 444.222 -123.509 433.075 -118.215C431.261 -117.348 429.688 -116.602 428.408 -116.057C404.663 -105.872 371.595 -96.1109 348.958 -107.435C337.61 -113.112 326.161 -124.316 317.634 -135.6H313.814C322.714 -123.317 335.07 -111.005 347.608 -104.733C355.248 -100.911 363.956 -99.3579 373.067 -99.3579C392.216 -99.3579 413.119 -106.205 429.598 -113.274C430.928 -113.839 432.521 -114.605 434.375 -115.482C444.806 -120.433 462.263 -128.722 469.812 -121.17C475.859 -115.119 472.835 -104.027 469.469 -95.0017C459.088 -67.0086 429.124 -51.0457 414.681 -43.3617C408.957 -40.3366 407.112 -39.3282 406.508 -38.0777C404.935 -34.9215 404.028 -28.3871 402.98 -20.8241C401.085 -7.16035 398.495 11.5555 390.684 14.1571C383.165 16.668 373.943 13.1487 365.024 9.72018C359.491 7.60256 354.28 5.60595 349.483 5.00091C327.803 2.29839 309.168 1.25976 288.477 5.00091C280.303 6.48324 269.851 12.6244 258.785 19.1184C241.228 29.4343 221.322 41.1317 209.873 33.4982C200.429 27.1957 207.434 13.6731 212.07 4.72866C212.554 3.80093 213.008 2.92361 213.411 2.11687C219.397 -9.86286 237.045 -31.8055 250.006 -37.5635L251.81 -38.3601C264.288 -43.8659 285.161 -53.0827 287.217 -67.5027C289.958 -86.6622 272.542 -100.326 254.108 -114.756C245.582 -121.422 236.975 -128.188 230.363 -135.6H226.332C233.316 -127.18 242.901 -119.677 252.234 -112.407C269.962 -98.5411 286.703 -85.4421 284.213 -67.9767C282.389 -55.2104 261.698 -46.0743 250.581 -41.1735L248.767 -40.3668C235.009 -34.2458 217.029 -11.9401 210.7 0.725303L209.379 3.29671C204.562 12.6546 196.499 28.2242 208.19 36.0292Z" fill="#F4B905" fill-opacity="0.2"/>
<path d="M275.132 -125.869C279.355 -119.949 283.105 -113.395 286.733 -107.052C288.99 -103.109 291.329 -98.9848 293.788 -95.1529C298.122 -88.2152 300.057 -80.2287 301.921 -72.4943C303.998 -63.9633 306.134 -55.1398 311.496 -47.6273C318.924 -37.2105 328.811 -32.5013 338.366 -27.8627C344.161 -25.0694 350.168 -22.1754 355.711 -18.0208C357.505 -16.6695 359.48 -14.0477 361.567 -11.2746C366.808 -4.29652 373.339 4.38576 382.52 -0.18226C387.277 -2.56208 390.17 -5.48643 391.359 -9.12672C393.375 -15.1771 389.958 -21.7518 386.985 -27.5299C384.667 -32.0173 382.48 -36.2727 383.699 -38.7232C385.846 -43.0189 392.307 -45.0458 398.011 -46.7903C400.653 -47.5317 403.234 -48.4756 405.731 -49.6138C410.831 -52.165 455.449 -75.1161 450.894 -94.7697C450.747 -95.6268 450.379 -96.4306 449.825 -97.1011C449.272 -97.7715 448.553 -98.2854 447.739 -98.5916C441.571 -100.871 428.721 -91.9664 414.974 -81.8421C412.547 -79.9437 410.02 -78.1765 407.404 -76.548C388.598 -67.1498 361.143 -61.5331 345.31 -71.4355C315.769 -89.9093 308.765 -102.998 298.162 -122.803C296.045 -126.756 293.788 -130.971 291.198 -135.519H287.71C290.653 -130.417 293.163 -125.738 295.501 -121.401C305.943 -101.889 313.482 -87.7916 343.707 -68.8842C350.369 -64.7296 358.362 -63.1263 366.606 -63.1263C382.299 -63.1263 398.858 -68.9246 408.755 -73.8657C411.551 -75.5547 414.244 -77.4102 416.818 -79.422C425.475 -85.8051 441.591 -97.6739 446.741 -95.768C447.083 -95.6321 447.381 -95.4052 447.603 -95.1119C447.825 -94.8186 447.963 -94.4701 448.001 -94.1042C451.277 -79.9867 420.93 -60.5952 404.431 -52.3365C402.073 -51.2799 399.641 -50.3969 397.154 -49.6945C390.886 -47.7281 383.77 -45.4995 381.029 -40.0542C379.114 -36.2324 381.643 -31.3215 384.324 -26.1182C387.005 -20.9149 390.099 -14.925 388.507 -10.0444C387.59 -7.22086 385.191 -4.87129 381.2 -2.87467C374.77 0.352195 370.023 -5.06287 364.006 -13.0494C361.789 -16.004 359.692 -18.7972 357.555 -20.4006C351.78 -24.7367 345.643 -27.6913 339.706 -30.545C330.071 -35.1837 320.97 -39.5601 313.985 -49.3415C308.946 -56.4003 306.991 -64.538 304.915 -73.1699C302.99 -81.1362 300.994 -89.3647 296.398 -96.7159C294.01 -100.538 291.692 -104.592 289.454 -108.514C285.785 -114.917 281.996 -121.543 277.682 -127.583C275.568 -130.39 273.239 -133.03 270.718 -135.479L270.657 -135.539H266.444C267.14 -134.803 267.855 -134.077 268.551 -133.361C270.928 -131.031 273.128 -128.527 275.132 -125.869Z" fill="#F4B905" fill-opacity="0.2"/>
<path d="M422.855 -132.332C427.046 -132.802 431.143 -133.896 435.01 -135.579H424.508C423.873 -135.479 423.238 -135.388 422.613 -135.348C416.725 -134.913 410.81 -134.991 404.935 -135.579H387.076C398.756 -132.615 410.832 -131.519 422.855 -132.332Z" fill="#F4B905" fill-opacity="0.2"/>
<path d="M433.266 26.5705C436.451 28.2847 439.455 29.9083 442.136 31.5217C447.77 35.0391 453.158 38.9372 458.261 43.1888C470.739 53.1215 482.541 62.5097 504.714 61.0576V58.0324C483.549 59.4643 472.704 50.8224 460.156 40.8191C454.944 36.4871 449.445 32.5118 443.698 28.92C440.946 27.2764 437.913 25.6428 434.697 23.8781C427.179 19.8445 419.398 15.6294 414.722 10.9504C413.825 10.053 414.006 6.41265 414.097 4.65804C414.097 4.00259 414.157 3.40761 414.157 2.93368C414.157 -9.66117 417.493 -20.7132 433.77 -33.7517C436.794 -36.1719 440.473 -37.5635 444.363 -39.0256C448.586 -40.629 452.96 -42.2828 456.528 -45.3987C483.246 -68.7632 511.658 -103.109 498.102 -135.579H494.796C508.856 -104.42 480.817 -70.659 454.482 -47.6474C451.337 -44.8844 447.427 -43.4021 443.244 -41.829C439.303 -40.3366 435.181 -38.8038 431.835 -36.0811C419.378 -26.1081 411.083 -15.6611 411.083 2.96395C411.083 3.39757 411.083 3.97234 411.023 4.53704C410.872 7.56225 410.69 11.2731 412.535 13.1185C417.574 18.11 425.546 22.4058 433.266 26.5705Z" fill="#F4B905" fill-opacity="0.2"/>
<path d="M504.714 -54.3331V-57.7314C504.042 -58.1343 503.419 -58.6149 502.859 -59.1633C502.114 -59.9196 501.852 -61.6238 502.275 -63.9532C502.784 -66.6305 503.603 -69.2395 504.714 -71.7279V-78.6758C502.114 -73.8254 499.957 -68.5414 499.292 -64.4372C498.737 -61.0188 499.221 -58.528 500.723 -57.0255C501.881 -55.8953 503.233 -54.9832 504.714 -54.3331Z" fill="#F4B905" fill-opacity="0.2"/>
<path d="M471.343 13.5824C473.359 16.9907 475.435 20.5201 479.507 22.9604C485.474 26.5402 494.333 28.5671 504.704 28.789V25.7638C495.573 25.5419 486.885 23.8781 481.049 20.3789C477.643 18.3621 475.849 15.3369 473.944 12.0496C472.883 10.1508 471.688 8.33098 470.366 6.60424C462.787 -2.87467 460.086 -10.5385 462.303 -16.1855C466.556 -26.7737 487.258 -29.8795 504.633 -32.1887V-35.2139C486.361 -32.7837 464.399 -29.5568 459.471 -17.2846C456.729 -10.4578 459.471 -2.01753 467.927 8.53029C469.185 10.1304 470.327 11.8187 471.343 13.5824Z" fill="#F4B905" fill-opacity="0.2"/>
<path d="M243.677 223.873C245.773 224.65 247.708 225.527 249.603 226.374C254.179 228.441 258.503 230.408 264.338 230.912C279.305 232.273 297.598 229.429 316.918 226.424C350.46 221.201 385.151 215.816 410.206 230.135C428.529 240.612 437.52 259.006 446.217 276.784C454.683 294.078 462.666 310.414 478.469 319.913C485.816 324.329 495.059 325.963 504.674 325.701V322.676C496.359 322.887 487.318 321.667 479.971 317.311C464.913 308.235 457.112 292.323 448.858 275.442C439.959 257.291 430.716 238.444 411.627 227.503C385.645 212.65 348.848 218.428 316.374 223.47C297.225 226.495 279.083 229.268 264.53 227.937C259.198 227.453 255.096 225.608 250.762 223.661C248.837 222.794 246.842 221.897 244.665 221.08C223.761 213.235 212.1 205.682 205.66 195.809C198.525 184.868 197.275 170.327 201.629 148.647C203.907 137.282 208.402 128.318 213.159 118.829C216.421 112.616 219.319 106.219 221.836 99.6691C223.402 95.0798 224.724 90.4112 225.797 85.6826C228.196 75.9415 230.675 65.8777 237.186 58.456C256.164 36.7452 284.475 24.3823 319.055 22.6882C348.505 21.2562 381.543 27.8814 409.682 40.8393C420.053 45.5788 429.93 51.982 439.455 58.2139C452.305 66.5836 465.518 75.2356 480.525 80.2171C487.58 82.5768 495.764 83.323 504.714 82.4759V79.4507C496.046 80.2978 488.195 79.602 481.452 77.3533C466.848 72.4827 453.756 63.9416 441.138 55.6828C431.492 49.4106 421.565 42.9065 410.982 38.0258C384.647 25.973 356.066 19.6161 327.108 19.3705C324.353 19.3705 321.629 19.4377 318.934 19.5722C283.518 21.2966 254.431 34.0225 234.939 56.3686C227.944 64.3551 225.374 74.7919 222.895 84.8759C221.848 89.4992 220.556 94.0636 219.025 98.5497C216.549 105.003 213.698 111.306 210.488 117.427C205.852 126.684 201.044 136.244 198.696 148.012C194.191 170.529 195.582 185.766 203.181 197.423C209.994 207.88 222.088 215.786 243.677 223.873Z" fill="#F4B905" fill-opacity="0.2"/>
<path d="M289.323 203.241C302.355 206.498 315.427 204.431 328.075 202.435C331.855 201.84 335.755 201.225 339.565 200.761C342.76 200.377 345.975 199.974 349.2 199.571C375.153 196.314 401.982 192.946 427.411 198.724C447.89 203.352 472.22 220.747 477.502 241.792C478.892 247.359 478.711 253.893 478.509 260.952C478.096 275.795 477.622 292.626 494.998 299.15C498.118 300.257 501.404 300.82 504.714 300.814V297.788C501.76 297.793 498.827 297.284 496.046 296.286C480.696 290.518 481.1 276.189 481.523 260.992C481.714 254.125 481.906 247.036 480.414 241.056C477.108 227.836 467.544 217.863 460.096 211.813C450.612 204.088 438.931 198.25 428.076 195.779C402.133 189.88 375.032 193.278 348.827 196.566C345.602 196.979 342.387 197.372 339.212 197.756C335.342 198.22 331.412 198.845 327.602 199.45C315.255 201.396 302.486 203.413 290.059 200.307C277.229 197.1 263.985 188.751 254.632 177.971C244.362 166.153 239.696 152.761 241.53 140.207C244.342 120.472 255.469 103.219 274.608 88.9397C308.876 63.3971 359.269 54.856 391.42 59.6156C405.943 61.7433 419.499 68.6004 432.621 75.1751C437.55 77.6659 442.7 80.2171 447.739 82.5264C455.651 86.086 462.706 92.6103 470.184 99.4875C480.525 109.138 491.249 118.98 504.714 120.755V117.669C492.277 115.813 482.107 106.435 472.2 97.3598C464.883 90.6036 457.304 83.6154 448.949 79.8541C443.909 77.6054 438.87 75.0441 433.982 72.5634C420.648 65.8273 406.87 58.8593 391.823 56.6307C359.057 51.7804 307.646 60.4828 272.754 86.5196C253.231 101.091 241.389 119.514 238.486 139.793C236.582 153.205 241.51 167.474 252.345 179.968C262.091 191.141 275.929 199.853 289.323 203.241Z" fill="#F4B905" fill-opacity="0.2"/>
<path d="M363.401 168.492C369.801 171.053 376.503 173.534 382.964 175.924C395.864 180.714 409.269 185.665 421.061 191.544C424.81 193.42 429.729 193.228 434.486 193.036C437.172 192.829 439.872 192.88 442.549 193.188C449.483 194.347 457.979 199.067 464.611 203.04C476.302 210.098 490.493 227.019 493.013 242.175C493.567 245.473 493.859 248.992 494.182 252.713C495.099 263.745 496.147 276.078 504.714 283.086V278.871C498.878 272.427 498.012 262.313 497.175 252.441C496.853 248.659 496.54 245.09 495.976 241.671C493.305 225.658 478.419 207.799 466.143 200.438C459.289 196.324 450.471 191.433 443.022 190.193C440.136 189.848 437.223 189.784 434.325 190.001C429.95 190.173 425.425 190.354 422.371 188.831C410.479 182.882 397.024 177.9 384.012 173.08C377.562 170.69 370.91 168.22 364.52 165.669C352.103 160.697 330.777 143.111 334.284 127.218C336.703 116.308 346.036 108.714 353.433 104.277C362.479 98.9908 372.422 95.4185 382.762 93.7397C409.864 89.5649 452.607 112.425 483.811 129.104C490.201 132.523 496.228 135.739 501.338 138.301C502.476 138.875 503.605 139.43 504.714 139.975V136.596L502.698 135.588C497.659 133.047 491.612 129.83 485.252 126.432C456.286 110.943 417.513 90.2103 389.606 90.2103C387.167 90.2005 384.73 90.3792 382.319 90.7448C364.419 93.4977 336.088 105.306 331.371 126.563C327.41 144.361 349.765 163.037 363.401 168.492Z" fill="#F4B905" fill-opacity="0.2"/>
<path d="M430.071 177.023L432.087 177.558L438.356 179.231C456.195 183.971 480.626 190.455 492.781 200.851C497.256 204.764 501.549 211.51 504.714 218.488V211.722C501.821 206.488 498.364 201.739 494.635 198.613C481.987 187.773 457.173 181.178 439.051 176.368C436.844 175.783 434.748 175.228 432.803 174.694L430.787 174.159C420.124 171.316 410.912 168.855 413.28 155.827C414.288 150.553 417.483 145.934 422.664 142.465C430.475 137.232 442.388 134.963 451.64 136.949C466.284 140.025 480.525 151.702 494.242 163.006C497.77 165.9 501.297 168.764 504.714 171.467V167.615C501.892 165.366 499.04 163.027 496.157 160.667C482.138 149.141 467.635 137.222 452.335 133.944C449.757 133.4 447.129 133.133 444.494 133.148C436.199 133.116 428.067 135.461 421.061 139.904C415.185 143.837 411.496 149.141 410.388 155.242C407.495 170.973 419.489 174.21 430.071 177.023Z" fill="#F4B905" fill-opacity="0.2"/>
</g>
</svg>
