<svg width="91" height="60" viewBox="0 0 91 60" fill="none" xmlns="http://www.w3.org/2000/svg">
<path d="M70.9412 34.3553L73.5324 34.295C101.915 33.8129 92.4543 -7.88773 62.0829 3.14C39.6659 11.2752 43.8239 48.6972 67.8077 54.8438C78.4136 57.5555 90.2247 55.6272 81.4266 52.6141C73.894 50.0832 67.8077 42.7918 68.2295 36.826C68.35 35.5003 69.495 34.3553 70.9412 34.3553Z" fill="#E35523"/>
<path d="M15.5618 1.63297C-11.7364 12.1184 -0.648425 57.9167 29.6627 59.9053C37.5569 60.4477 39.6058 58.5796 33.64 56.3499C27.855 54.1806 20.5634 43.9362 19.78 37.0062C19.5993 35.6202 20.6838 34.4751 22.0698 34.4751C30.0243 34.4751 33.3387 34.4754 37.9788 28.0877C49.3681 12.2994 34.2426 -5.53807 15.5618 1.63297Z" fill="#E35523"/>
</svg>
