<svg width="60" height="56" viewBox="0 0 60 56" fill="none" xmlns="http://www.w3.org/2000/svg">
<path fill-rule="evenodd" clip-rule="evenodd" d="M33.8017 1.47829C28.3244 2.9765 27.2087 2.99145 23.1559 1.59861C17.8828 -0.210407 17.9916 -0.197898 17.7114 0.894805C17.402 2.05031 15.7958 6.23293 15.3921 7.34451C9.61789 9.88938 9.61148 9.65701 8.82941 12.236C8.50109 13.268 4.0328 22.1945 0.751215 30.8715C-0.0728421 33.0487 0.164035 34.3442 1.64236 36.2569C4.53197 39.8981 8.15317 40.2487 6.18039 36.691C4.41911 33.4994 4.56334 32.5345 7.88285 24.678C8.96006 22.1219 10.3363 18.5966 10.9386 16.8131C13.3185 9.74176 14.3076 13.6054 13.9499 14.1267C13.0586 15.5461 13.2558 17.0908 15.779 20.37C17.3055 22.3434 22.57 30.6474 25.0846 33.0433C28.7947 36.6466 31.9046 34.7326 45.6538 32.4658C48.1696 32.0716 49.9674 31.4954 51.2168 30.7018C54.3413 28.7563 47.9259 43.0063 43.3246 48.2007C40.2571 51.6637 39.8531 51.6282 28.2598 46.5662C16.3838 41.3724 10.4429 39.5196 10.3301 40.4992C10.0545 42.8939 35.8668 55.5038 40.8882 55.4751C43.1195 55.4451 47.177 51.9086 48.5642 49.9176C50.623 46.9782 52.9534 42.0629 55.5113 35.2657C57.3623 30.3944 57.3743 29.1384 55.8516 25.5994C55.3216 24.3583 55.9763 22.7903 58.2278 20.0937C59.0982 19.0469 60.3997 17.3218 57.5421 15.9893C54.6846 14.6568 50.0121 12.7073 49.227 12.3413C48.4187 11.1233 44.9847 6.27247 44.5489 5.07532C44.0903 4.17331 40.8948 -0.45159 33.8017 1.47829ZM43.1872 7.99565C43.9327 9.18434 44.5336 10.1909 44.4897 10.2851C44.4604 10.3479 41.7306 9.15144 38.4334 7.61395C32.0275 4.62683 31.9313 4.5055 34.8051 4.16348C38.9598 3.61594 41.0009 4.56773 43.1872 7.99565ZM50.387 27.5623C49.5501 28.7012 47.9362 28.6368 47.3624 27.4899C46.9372 26.68 46.3678 26.2616 43.8243 25.0755C43.0393 24.7095 29.5659 18.3502 23.1434 15.8906C17.5038 13.7196 19.4138 17.2481 22.127 18.972C24.3985 20.4135 44.2189 28.7384 43.5638 29.1593C43.229 29.3855 34.9657 31.0373 29.3774 32.4455C28.7346 31.6105 16.6882 16.2065 16.0916 15.9282C15.5578 15.6793 20.8624 3.31988 20.9085 3.30312C21.0612 3.22144 39.5396 11.2264 54.5181 18.211C52.8534 23.0927 52.3893 24.826 50.387 27.5623ZM37.2742 15.675C34.3734 16.7308 36.1886 18.4948 43.5009 21.7516C50.0596 24.6571 50.6206 24.7658 50.0382 22.7356C49.5541 20.9043 38.9464 15.0403 37.2742 15.675Z" fill="#0A102F"/>
</svg>
