<svg width="74" height="67" viewBox="0 0 74 67" fill="none" xmlns="http://www.w3.org/2000/svg">
<path fill-rule="evenodd" clip-rule="evenodd" d="M15.2998 16.1541C-2.31849 25.3526 -2.90343 27.3106 5.84627 46.0744C13.5407 62.4748 17.5782 67.5201 21.6155 65.6375C21.8462 65.5299 23.5995 65.274 25.5039 65.0414C35.0617 63.9549 73.3619 42.4908 73.3657 38.1824C73.3821 34.8043 63.5314 11.8728 59.5912 6.03314C55.5767 0.134481 52.0683 -0.663715 45.3343 2.66364C39.5616 5.54276 41.5935 7.5912 47.5148 4.83002C51.9366 2.76811 52.0288 2.86557 60.5326 20.9014C68.6779 38.1682 68.5193 37.7272 66.171 39.618C61.8821 43.0691 34.0542 56.3732 22.1473 62.1595C20.0461 60.5647 20.138 61.3645 11.2056 45.1201C2.67279 29.5319 2.67546 29.437 13.2422 22.6841C20.6404 17.9703 22.0093 17.1916 30.4761 12.9625C38.3278 9.02039 39.5249 8.27491 39.256 7.69815C38.3927 5.94736 27.4118 9.80395 15.2998 16.1541ZM48.5134 8.57736C47.6902 10.2251 46.179 14.8152 41.2305 29.9021C39.5938 34.9251 39.7094 34.8712 35.2705 34.0857C28.507 32.9329 22.8302 32.3032 17.9174 30.8024C10.9338 28.6756 7.01245 28.3977 6.43787 29.9763C6.08902 30.9348 13.7978 32.9107 24.715 36.948L29.469 38.7102C29.4075 38.8793 25.1786 47.0771 24.0826 52.4566C23.3382 56.0804 25.6862 55.5941 26.8633 53.5005C28.0634 51.2556 29.5436 46.3992 31.8933 39.5926L33.8131 39.4932C36.8734 39.33 41.5106 36.3251 42.4878 33.9033C43.1803 32.1761 44.1163 31.2715 44.439 31.9636C44.6721 32.4634 56.4017 36.637 60.3945 37.771C62.6549 38.4021 68.1398 37.7169 61.9151 34.9086C57.3766 32.9056 48.7891 29.7479 45.993 29.2729C45.3318 29.1599 44.8244 28.9752 44.8654 28.8625C48.7553 22.6483 51.6718 13.8454 52.0217 9.37564C52.5307 3.94221 48.934 7.7727 48.5134 8.57736Z" fill="#0A102F"/>
</svg>
