<svg width="50" height="63" viewBox="0 0 50 63" fill="none" xmlns="http://www.w3.org/2000/svg">
<path fill-rule="evenodd" clip-rule="evenodd" d="M33.7786 0.369251C30.9715 1.02772 28.9964 2.79518 25.3226 8.02815C24.283 9.51832 23.2433 10.7313 23.0006 10.7313C22.273 10.7313 20.263 11.9788 19.4659 13.7116C19.05 14.6128 18.2529 15.791 17.6986 16.3802C15.7579 18.91 18.3917 19.0139 13.9557 24.7322C7.23261 33.4653 4.52922 37.7974 4.28657 40.1539C4.00938 43.0651 -0.84222 58.5214 0.128099 61.19C0.786408 63.0613 3.00451 63.4426 6.22748 62.4721C12.0148 60.7393 22.3771 53.1152 24.3526 51.4172C26.8824 49.2336 33.9867 36.6883 34.8531 36.6538C35.8234 36.6189 37.8334 35.6486 38.18 35.3021C39.7743 33.708 44.3142 26.0491 44.7298 24.0736C44.9031 23.242 44.6605 22.4796 44.6605 21.5092C44.6605 20.92 45.5271 19.5686 47.2251 17.4544C50.6214 13.2611 50.6559 13.1572 48.6459 8.99847C45.0418 1.75544 40.19 -1.08628 33.7786 0.369251ZM38.3187 2.10203C41.299 2.82981 44.1409 5.32503 45.8389 8.61736C47.4678 11.8403 47.1558 12.6374 41.8537 19.1181C41.715 19.2566 41.299 18.3556 40.6753 17.4199C38.2839 13.7464 34.3332 11.0778 29.0309 10.5234C26.9864 10.3154 26.5011 11.1124 30.0706 6.26079C31.3184 4.56259 32.046 3.62688 32.6004 3.03772C33.5362 2.10203 35.5462 1.44359 38.3187 2.10203ZM30.2093 12.9839C35.0264 14.5435 36.7244 15.5483 39.5317 20.7813C41.3336 24.143 41.1603 23.7619 39.1157 26.2224C38.3184 27.1927 38.2493 27.1927 38.0067 26.5689C37.1751 24.2469 36.482 22.9994 34.5065 21.0933C30.8676 17.9743 29.8628 18.8061 32.8085 22.2024C36.17 26.1184 36.8631 28.3711 35.5808 31.2821C34.8185 32.9803 34.2639 33.5693 34.0906 32.8416C31.9073 24.7668 27.0903 21.336 21.684 20.8507C19.4314 20.6428 19.1194 20.123 20.3671 18.7367C21.1294 17.9049 22.2384 18.2863 24.9415 18.6328C26.1545 18.8061 26.2239 17.1427 24.8722 16.7961C23.1048 16.3454 22.5156 15.7564 23.867 13.6771C25.1148 11.8403 26.2932 11.7016 30.2093 12.9839ZM26.9515 14.6474C26.2932 15.0633 26.1197 15.9297 28.3723 16.7267C30.5211 17.4892 31.6301 16.9346 31.6301 15.9643C31.6301 15.5831 31.3529 14.9939 30.4172 14.7861C29.1696 14.4741 27.3329 14.4047 26.9515 14.6474ZM23.5553 22.9994C23.9364 23.242 23.9712 23.2766 22.6889 25.1827C19.5353 29.8613 18.2529 31.6632 17.3172 32.7377C16.7973 33.3269 15.6192 35.0942 14.6834 36.6538C11.6683 41.7828 9.03478 43.4117 7.89092 40.847C7.47526 39.9461 7.57891 38.9064 8.09875 38.1091C9.58891 35.8219 17.664 23.1033 19.6392 22.5835C21.2681 22.133 22.9661 22.6183 23.5553 22.9994ZM27.6101 25.044C30.1745 27.7125 30.5211 29.4108 28.5111 31.8713C24.7683 36.4805 18.8767 44.4166 16.5201 46.1148C14.9261 47.2584 14.1636 43.9313 14.6143 41.8522C15.2033 39.0449 17.5598 35.2675 22.7582 28.4405C25.7386 24.455 26.2584 23.658 27.6101 25.044ZM31.1796 33.6041C31.2836 34.3663 31.6995 35.406 30.8676 36.5498C30.2784 37.3814 28.3723 40.535 26.8476 43.0649C24.2139 47.5008 20.7482 50.4466 20.4711 49.6844C20.1245 48.7486 22.0997 44.3127 23.9364 41.7828C28.5456 35.5795 30.7289 30.5544 31.1796 33.6041ZM11.9109 44.6938C12.0148 47.4317 13.6437 48.6099 16.3469 47.8822C18.0797 47.4317 18.0797 47.3969 17.3865 49.0258C17.0748 49.7535 16.9015 50.7932 16.9706 51.3478C17.1439 52.4569 16.7628 52.5953 14.0945 54.2936C13.7131 54.536 13.2278 54.432 12.9854 54.0509C11.5992 51.9368 9.65828 50.8625 7.47499 50.516C5.29171 50.1694 5.43044 50.5508 6.08875 47.0852L6.6434 44.1394C7.09388 44.1394 8.75732 44.5205 10.3168 43.8274C10.9754 43.5502 11.6685 43.273 11.6685 43.273C11.6685 43.273 11.9109 43.9313 11.9109 44.6938Z" fill="#0A102F"/>
</svg>
