<svg width="98" height="96" viewBox="0 0 98 96" fill="none" xmlns="http://www.w3.org/2000/svg">
<path d="M40.4723 71.5173C40.4495 78.4595 40.4322 85.4725 40.4322 92.6972C40.4322 92.7334 40.4494 92.7636 40.4527 92.7987C40.4301 93.2917 40.7148 93.761 41.2062 93.9261C52.9217 97.8535 79.6026 95.1027 91.9261 93.8744C93.1915 93.5301 97.2503 94.831 97.3166 87.8052C97.5159 66.6493 97.5007 45.8088 97.7 24.6532C97.1122 23.8431 95.015 21.3187 93.8825 21.4351C79.9664 22.9059 70.0344 22.8974 57.5436 22.5337C57.4658 16.3444 57.4036 9.28115 57.3258 3.0945C57.3214 2.74887 57.1724 2.42724 56.8989 2.21528C55.2942 0.973389 54.3691 -0.109812 53.4525 0.00892774C34.4516 1.96221 22.772 1.23876 2.03834 0.604179C1.10697 0.602316 0.178724 0.898759 0.178724 1.83752C0.178724 24.9065 0 46.2608 0 69.3272C0 69.363 0.0170785 69.3929 0.0203095 69.428C0.00203089 69.9206 0.290149 70.3877 0.782101 70.5487C10.4471 73.7143 26.5309 72.6699 40.4723 71.5173ZM2.26941 68.6056C2.27251 49.5071 2.39324 32.1014 2.43419 12.7426C2.91986 13.0077 52.2856 12.8891 52.582 12.8261C52.5619 15.9988 52.5319 19.187 52.4955 22.376C49.8543 22.2892 45.9452 22.1552 42.472 22.0466C41.5288 22.0614 40.6109 22.344 40.6109 23.2829C40.6109 38.6259 40.5388 52.321 40.4798 69.2408C27.9242 70.2826 11.4323 71.3325 2.26941 68.6056ZM42.7016 91.9919C42.7047 72.295 42.8251 54.5006 42.8665 34.4716C43.1591 34.6314 92.4484 34.8008 93.0106 34.3815C92.8896 54.158 92.565 72.9526 92.5527 91.5325C80.6387 92.7408 54.1395 95.4748 42.7016 91.9919ZM93.0501 23.7984C93.0479 26.6997 93.0384 29.6372 93.0223 32.6024C92.4574 32.169 43.1471 32.3522 42.8711 32.5008C42.8757 29.8041 42.8782 27.0782 42.8788 24.3305C62.727 24.9459 74.4176 25.6942 93.0501 23.7984ZM52.6173 2.36889C52.6155 5.10662 52.6062 7.87241 52.5918 10.6522C52.34 10.5961 2.89047 10.5286 2.43899 10.7719C2.44361 8.16929 2.44591 5.53866 2.44656 2.88771C22.2463 3.4877 33.973 4.21272 52.6173 2.36889Z" fill="#0A102F"/>
<path d="M25.6768 19.5297C25.172 18.7185 24.0858 18.8902 23.7108 19.602L15.4784 35.2337C15.1867 35.7891 15.3994 36.4745 15.9533 36.7669C16.506 37.0565 17.1929 36.8472 17.4858 36.2913L20.0154 31.4879C20.0269 31.4872 20.0384 31.4875 20.0499 31.4864C28.8482 30.6873 28.5283 30.8859 29.0013 30.598C29.7667 32.2479 30.4877 33.863 31.1345 35.3726C31.3812 35.9486 32.0481 36.216 32.6241 35.9693C33.2002 35.7226 33.4668 35.055 33.2201 34.4804C31.2859 29.9636 28.8768 24.6565 25.6768 19.5297ZM21.2694 29.1069L24.7832 22.435C25.9794 24.4749 27.0442 26.5265 28.0227 28.5338L21.2694 29.1069Z" fill="#0A102F"/>
<path d="M63.0746 67.7401C66.8763 68.081 70.1051 67.367 72.2164 64.224C73.9541 61.6376 73.6949 58.0499 71.5997 55.6925C71.0784 55.1076 70.4581 54.6091 69.7727 54.2043C70.6752 53.6405 71.439 52.9514 71.9778 52.1608C73.771 49.4933 73.6085 46.0296 71.5797 43.7372C69.5874 41.5046 65.7985 40.4367 62.7769 41.176C62.6063 41.0733 62.4179 40.9987 62.2049 40.9987C62.2012 40.9987 62.1975 40.9987 62.1945 40.9987C61.5675 41.0046 61.0646 41.5172 61.0705 42.1434L61.3031 66.8369C61.3111 67.6806 62.2529 68.3144 63.0746 67.7401ZM70.3331 62.9596C69.3646 64.4034 67.7781 65.8 63.5594 65.4964L63.4653 55.499C65.7264 54.8328 68.4305 55.5455 69.904 57.2006C71.3227 58.7958 71.5029 61.2181 70.3331 62.9596ZM69.8841 45.2438C71.2252 46.7607 71.3124 49.0841 70.099 50.8891C68.1299 53.777 65.5626 52.7375 63.4435 53.1863L63.351 43.3668C65.55 42.8402 68.4678 43.6559 69.8841 45.2438Z" fill="#0A102F"/>
<path d="M28.5333 46.7828H7.30137C6.6751 46.7828 6.16699 47.2909 6.16699 47.9172C6.16699 48.5435 6.6751 49.0516 7.30137 49.0516H28.5333C29.1596 49.0516 29.6677 48.5435 29.6677 47.9172C29.6677 47.2909 29.1596 46.7828 28.5333 46.7828Z" fill="#0A102F"/>
<path d="M22.9346 55.9451H8.35313C7.72686 55.9451 7.21875 56.4532 7.21875 57.0794C7.21875 57.7057 7.72686 58.2138 8.35313 58.2138H22.9346C23.5609 58.2138 24.069 57.7057 24.069 57.0794C24.069 56.4532 23.5609 55.9451 22.9346 55.9451Z" fill="#0A102F"/>
<path d="M73.091 74.5708H52.0621C51.4358 74.5708 50.9277 75.0789 50.9277 75.7052C50.9277 76.3315 51.4358 76.8396 52.0621 76.8396H73.091C73.7172 76.8396 74.2253 76.3315 74.2253 75.7052C74.2253 75.0789 73.7172 74.5708 73.091 74.5708Z" fill="#0A102F"/>
<path d="M65.4305 83.1318H51.4613C50.835 83.1318 50.3269 83.6399 50.3269 84.2661C50.3269 84.8924 50.835 85.4005 51.4613 85.4005H65.4305C66.0568 85.4005 66.5649 84.8924 66.5649 84.2661C66.5649 83.6399 66.0568 83.1318 65.4305 83.1318Z" fill="#0A102F"/>
<path d="M6.93732 8.49751C8.59798 7.92837 8.42447 5.67689 6.71576 5.32479C6.25876 4.84952 5.49659 4.86068 5.05481 5.35138C3.7482 6.79961 5.03304 9.1508 6.93732 8.49751Z" fill="#0A102F"/>
<path d="M15.5278 7.95987C15.7405 7.39268 15.6238 6.73391 15.2228 6.24057C14.3329 5.14175 12.6935 5.44324 12.2295 6.75606C12.0168 7.35575 12.1276 8.01599 12.519 8.47979C13.3539 9.46873 15.0634 9.1908 15.5278 7.95987Z" fill="#0A102F"/>
<path d="M20.0562 8.80332C21.4243 9.67987 23.2528 8.16228 22.6344 6.6483C22.4841 6.27932 22.2036 6.08042 21.8486 5.96885C21.1375 5.09845 19.6702 5.66634 19.3524 6.88315C19.1544 7.6394 19.4373 8.4119 20.0562 8.80332Z" fill="#0A102F"/>
<path d="M48.1589 27.6196C47.1911 27.3717 46.3091 28.4126 46.574 29.5191C46.9655 31.161 49.1218 31.2135 49.6168 29.6195C49.9519 28.5386 49.1431 27.4349 48.1589 27.6196Z" fill="#0A102F"/>
<path d="M54.9421 30.7598C55.5372 30.9189 56.2 30.7273 56.6555 30.2251C57.5686 29.2198 57.1121 27.5679 55.6762 27.7008C55.2648 27.3921 54.6792 27.3936 54.2678 27.7407C53.2252 28.6143 53.6235 30.4114 54.9421 30.7598Z" fill="#0A102F"/>
<path d="M63.6744 30.262C64.0968 29.5294 63.9144 28.5767 63.2815 28.0405C62.9799 27.3529 62.1231 27.15 61.5474 27.5944C60.9492 28.0568 60.738 28.8765 61.0201 29.6328C61.4525 30.7889 63.0687 31.3184 63.6744 30.262Z" fill="#0A102F"/>
</svg>
