<svg width="98" height="95" viewBox="0 0 98 95" fill="none" xmlns="http://www.w3.org/2000/svg">
<path d="M0.247353 33.4147C0.305972 33.8406 0.595683 34.1767 0.972224 34.3165C1.27696 34.7428 1.78594 35.3066 2.83505 36.1414C4.29918 36.019 6.19828 36.0097 7.79585 36.0538C8.34509 37.3366 8.84051 38.3276 9.59897 39.9625C8.74693 41.0745 6.45282 44.0431 6.21092 44.3854C5.90178 44.8572 5.95315 45.5137 6.41691 45.8943C8.14532 48.2096 10.4191 50.3696 11.7152 51.2505C12.1095 51.4766 12.4489 51.5402 12.885 51.297C13.4212 51.5179 13.9765 51.7075 14.5984 51.8198C16.2238 50.3078 17.9463 48.8288 19.3376 47.6366C20.4491 48.4118 21.5063 48.9618 22.5299 49.3239C22.6087 51.5429 22.9077 53.7499 23.4476 55.8954C23.6201 56.5772 24.4213 57.0094 25.1313 56.56C27.7279 56.3196 30.3292 55.9155 32.8664 55.3502C33.2973 55.2535 33.6326 54.9405 33.7545 54.3332C34.131 52.4694 34.304 50.5665 34.3159 48.6701L35.6006 48.196C34.8879 62.0884 34.9242 76.6108 35.2316 83.2146C35.4695 88.3201 35.5484 93.6744 40.6049 94.6058C41.0717 94.7659 41.5639 94.8718 42.0844 94.8718H93.1042C95.638 94.8718 97.7 92.8098 97.7 90.276V39.2561C97.7 36.7223 95.638 34.6603 93.1042 34.6603H47.7929C48.0927 33.9562 48.3422 33.2403 48.5534 32.5123L54.3477 31.8261C54.9902 31.7497 55.5374 31.1057 55.2516 30.3283C54.5624 23.3798 54.598 22.7048 54.4403 22.5945C54.2502 22.2004 53.884 21.8948 53.4229 21.8827L47.8765 21.7427L44.6966 16.9243L49.6009 11.9041C50.1534 11.3386 49.9809 10.3491 49.1715 10.0631C47.1546 7.89988 44.7892 6.00948 43.3579 4.38902C42.8934 3.86202 42.0184 3.96012 41.6286 4.35092L36.7633 9.18926C36.29 9.04524 38.4775 9.7122 32.1352 7.77871C31.3911 5.85836 30.9578 3.78835 30.8733 1.71815C31.1873 0.95783 30.6257 0.181694 29.8607 0.165455L22.0041 0.00131977C21.5328 -0.021945 21.1274 0.264743 20.9505 0.673617C20.5503 1.2494 20.809 1.146 20.4935 7.2962C18.7985 8.29226 17.8055 8.97184 16.0815 9.99198L11.1141 6.10402C10.495 4.96862 9.22866 5.85591 9.37887 5.81055C7.61122 7.41426 5.57165 9.95265 4.14851 12.6618C3.97512 12.9919 4.00003 13.3608 4.15254 13.6722C4.18203 13.8638 4.24917 14.0481 4.37941 14.2082C4.35745 14.5656 4.21094 16.9376 4.20072 17.1693C5.20264 17.9689 5.53625 18.2156 8.31171 20.6562C8.26686 20.7468 7.38053 22.5441 6.93973 23.4416L0.988894 24.4121C0.021168 24.5695 0.0126537 25.7167 0.0641651 25.5655C0.00482996 29.5124 -0.1053 30.8368 0.247353 33.4147ZM37.5545 34.2119L36.6254 35.8386C33.6504 39.621 28.168 40.9415 23.5561 38.9777C23.5546 38.9777 23.5532 38.9777 23.5517 38.9762C19.0438 37.0784 16.1465 31.9199 16.8104 26.9767C17.0741 25.0126 17.8101 23.4521 18.9398 21.8621C24.5711 14.0022 35.361 16.7394 38.1861 24.1615C39.5681 27.7813 39.3996 30.3357 37.5545 34.2119ZM95.449 39.2561V90.276C95.449 91.5685 94.3968 92.6208 93.1042 92.6208H42.0844C40.7918 92.6208 39.7396 91.5685 39.7396 90.276V39.2561C39.7396 37.9636 40.7918 36.9113 42.0844 36.9113H93.1042C94.3968 36.9113 95.449 37.9636 95.449 39.2561ZM21.8398 9.11488C22.3215 9.00277 22.6961 8.59903 22.7149 8.08061L22.936 2.27284L28.6641 2.39246C28.8257 4.73066 29.3549 7.06447 30.2622 9.20025C30.4439 9.62964 30.8601 9.8861 31.2983 9.8861C31.3036 9.8861 31.3088 9.88299 31.3142 9.8828C36.9177 11.5926 36.8463 11.6839 37.3683 11.4725C38.0361 11.3414 37.7159 11.2986 42.4516 6.7067C44.0985 8.37611 45.0833 9.08248 47.1402 11.2019L42.7849 15.6602C42.7131 15.6884 42.6379 15.7023 42.5709 15.7466C42.0521 16.0881 41.9085 16.7871 42.2514 17.3059C46.2369 23.172 45.9388 23.2725 46.645 23.5343C46.8448 23.795 47.1427 23.9765 47.4965 23.9857L52.4 24.1093L52.9321 29.7258L48.1497 30.2926C48.0983 30.2721 48.0561 30.2373 48.0006 30.2243C47.3968 30.0836 46.7901 30.4588 46.6479 31.064C46.3589 32.298 45.8945 33.4986 45.3206 34.6603C42.8762 34.8224 41.2363 34.1896 39.3701 35.5675L39.5476 35.2553C41.6872 30.7694 41.888 27.5453 40.2891 23.3599C36.8993 14.4506 24.0398 11.1168 17.0962 20.5403C10.5841 29.4759 17.0418 42.127 27.9936 42.127C31.247 42.127 34.4257 40.9601 36.8395 38.839C36.0215 40.9506 35.8406 43.4825 35.7268 45.7498L32.884 46.8005C32.4416 46.9639 32.1664 47.3761 32.1521 47.8196C31.9331 48.5195 32.3143 49.5013 31.6353 53.2923C29.5779 53.7233 27.4873 54.05 25.3921 54.2608C25.0349 52.5742 24.8276 50.8552 24.7737 49.1259C25.1845 48.439 24.7808 47.6163 24.0602 47.4527C22.5786 47.1171 20.9504 46.1865 19.0819 44.6052C18.5834 44.1825 17.7317 44.2268 17.3643 44.9769C15.7911 46.3964 14.1023 47.6926 12.3421 48.8669C10.948 47.7146 9.68525 46.4175 8.57046 44.9939L11.8233 40.7627C12.1337 40.3584 12.1114 39.8183 11.8265 39.4254C10.5491 36.659 10.0246 35.6635 9.36394 33.9261C9.35725 33.3667 8.95241 32.882 8.38086 32.8197L2.3715 32.1536C2.18153 30.2461 2.27041 28.9185 2.30454 26.4785L7.25536 25.671C7.37242 25.7104 7.48975 25.753 7.60855 25.753C8.00771 25.753 8.38572 25.5369 8.58896 25.1687C8.7063 25.0296 8.79441 24.8708 8.83388 24.6898C9.82461 22.6672 10.6845 20.9518 11.4657 19.3474C11.7022 18.8615 11.5429 18.3065 11.1362 17.9859L11.1521 17.9683C10.6103 17.4604 8.26541 15.1566 6.45978 13.1593C7.47473 11.3468 8.71701 9.69247 10.1624 8.21726C15.4778 12.2725 15.4349 12.5826 16.126 12.5826C16.4616 12.5826 16.7914 12.4346 17.0141 12.1503C17.0463 12.1093 17.0558 12.0598 17.0813 12.0158C18.8443 10.9809 20.1711 10.0837 21.8398 9.11488Z" fill="#0A102F"/>
<path d="M81.455 68.9647C81.455 68.3433 80.9509 67.8392 80.3295 67.8392H74.9599C74.3386 67.8392 73.8344 68.3433 73.8344 68.9647V73.2088H45.2221C44.6007 73.2088 44.0966 73.7129 44.0966 74.3343C44.0966 74.9557 44.6007 75.4598 45.2221 75.4598H73.8344V78.8773C73.8344 79.4987 74.3386 80.0028 74.9599 80.0028H80.3295C80.9509 80.0028 81.455 79.4987 81.455 78.8773V75.4598H84.7348C85.3562 75.4598 85.8603 74.9557 85.8603 74.3343C85.8603 73.7129 85.3562 73.2088 84.7348 73.2088H81.455V68.9647Z" fill="#0A102F"/>
<path d="M43.9839 52.8824H47.4014V56.7132C47.4014 57.3345 47.9056 57.8387 48.5269 57.8387H53.8951C54.5164 57.8387 55.0206 57.3345 55.0206 56.7132V52.8824H83.4966C84.118 52.8824 84.6221 52.3782 84.6221 51.7569C84.6221 51.1355 84.118 50.6314 83.4966 50.6314H55.0206V46.8006C55.0206 46.1792 54.5164 45.675 53.8951 45.675H48.5269C47.9056 45.675 47.4014 46.1792 47.4014 46.8006V50.6314H43.9839C43.3625 50.6314 42.8584 51.1355 42.8584 51.7569C42.8584 52.3782 43.3625 52.8824 43.9839 52.8824Z" fill="#0A102F"/>
<path d="M62.949 10.5719C62.3408 10.5324 61.781 10.9691 61.7238 11.589C61.4424 14.6167 60.6423 17.5477 59.3482 20.2999C59.0845 20.8627 59.3248 21.5339 59.8875 21.7977C60.0429 21.8709 60.2056 21.9046 60.3653 21.9046C60.7888 21.9046 61.1933 21.6658 61.3853 21.2584C62.7907 18.2687 63.6583 15.0871 63.966 11.7971C64.0232 11.1787 63.5689 10.6306 62.949 10.5719Z" fill="#0A102F"/>
<path d="M64.9095 25.2093C65.2099 25.2093 65.5103 25.0892 65.7316 24.8517L71.5145 18.6571C71.9395 18.2028 71.9146 17.4906 71.4603 17.067C71.0074 16.6406 70.2937 16.6655 69.8702 17.1212L64.0874 23.3159C63.6624 23.7702 63.6873 24.4824 64.1416 24.906C64.3585 25.1097 64.634 25.2093 64.9095 25.2093Z" fill="#0A102F"/>
<path d="M68.2217 31.0112C68.3712 31.0112 68.5207 30.9819 68.6657 30.9203L74.4457 28.4363C75.0172 28.1901 75.281 27.5292 75.0363 26.9576C74.7901 26.3846 74.1247 26.1267 73.5576 26.367L67.7777 28.8511C67.2061 29.0973 66.9423 29.7582 67.1871 30.3298C67.3702 30.7562 67.7864 31.0112 68.2217 31.0112Z" fill="#0A102F"/>
</svg>
