<svg width="98" height="97" viewBox="0 0 98 97" fill="none" xmlns="http://www.w3.org/2000/svg">
<path d="M27.0905 29.8528H55.2172C55.8478 29.8528 56.3594 29.3412 56.3594 28.7106C56.3594 28.08 55.8478 27.5684 55.2172 27.5684H27.0905C26.4599 27.5684 25.9482 28.08 25.9482 28.7106C25.9482 29.3412 26.4599 29.8528 27.0905 29.8528Z" fill="#0A102F"/>
<path d="M27.0905 36.2177H39.7279C40.3585 36.2177 40.8701 35.7061 40.8701 35.0755C40.8701 34.4449 40.3585 33.9332 39.7279 33.9332H27.0905C26.4599 33.9332 25.9482 34.4449 25.9482 35.0755C25.9482 35.7061 26.4599 36.2177 27.0905 36.2177Z" fill="#0A102F"/>
<path d="M12.0039 27.3951C9.84211 28.9709 8.49761 32.0771 10.6527 35.1728C13.309 38.9921 20.2488 38.4332 21.1097 32.7449C21.3485 31.1668 20.9707 29.5866 20.0724 28.4102C17.8519 25.4988 14.333 25.6959 12.0039 27.3951ZM18.8506 32.4028C18.3081 35.9902 14.0321 36.031 12.5281 33.8685C11.1546 31.8964 12.1124 30.1429 13.3491 29.2416C14.8919 28.1172 16.9611 28.0979 18.2564 29.7956C18.7807 30.4827 18.9978 31.4338 18.8506 32.4028Z" fill="#0A102F"/>
<path d="M27.0905 46.9491H55.2172C55.8478 46.9491 56.3594 46.4375 56.3594 45.8069C56.3594 45.1763 55.8478 44.6647 55.2172 44.6647H27.0905C26.4599 44.6647 25.9482 45.1763 25.9482 45.8069C25.9482 46.4375 26.4599 46.9491 27.0905 46.9491Z" fill="#0A102F"/>
<path d="M27.0905 53.3147H39.7279C40.3585 53.3147 40.8701 52.8031 40.8701 52.1725C40.8701 51.5419 40.3585 51.0303 39.7279 51.0303H27.0905C26.4599 51.0303 25.9482 51.5419 25.9482 52.1725C25.9482 52.8031 26.4599 53.3147 27.0905 53.3147Z" fill="#0A102F"/>
<path d="M10.6528 52.2699C13.3149 56.0976 20.2502 55.5194 21.1099 49.8426C21.3486 48.2639 20.9708 46.6837 20.0725 45.5065C15.675 39.7361 6.38029 46.1309 10.6528 52.2699ZM17.495 51.8401C15.9914 52.9093 13.5729 52.4676 12.5282 50.9655C9.96902 47.2895 15.6314 43.4497 18.2565 46.8911C19.3616 48.3426 18.9866 50.7773 17.495 51.8401Z" fill="#0A102F"/>
<path d="M27.0905 64.0462H55.2172C55.8478 64.0462 56.3594 63.5346 56.3594 62.904C56.3594 62.2733 55.8478 61.7617 55.2172 61.7617H27.0905C26.4599 61.7617 25.9482 62.2733 25.9482 62.904C25.9482 63.5346 26.4599 64.0462 27.0905 64.0462Z" fill="#0A102F"/>
<path d="M39.7279 68.1265H27.0905C26.4599 68.1265 25.9482 68.6381 25.9482 69.2687C25.9482 69.8993 26.4599 70.4109 27.0905 70.4109H39.7279C40.3585 70.4109 40.8701 69.8993 40.8701 69.2687C40.8701 68.6381 40.3585 68.1265 39.7279 68.1265Z" fill="#0A102F"/>
<path d="M10.6528 69.3669C11.7309 70.9172 13.6182 71.8098 15.5333 71.8098C20.6014 71.8098 22.6415 65.9701 20.0724 62.6035C15.682 56.8409 6.37611 63.222 10.6528 69.3669ZM17.495 68.9371C15.9988 70.0011 13.5771 69.5707 12.5282 68.0626C9.96899 64.3865 15.6314 60.5468 18.2565 63.9882C19.3615 65.4396 18.9865 67.8744 17.495 68.9371Z" fill="#0A102F"/>
<path d="M95.7013 56.1822C95.0507 55.4422 94.3992 54.7008 93.9054 54.1513C93.3038 53.4813 92.2613 53.427 91.5823 54.0278C91.4137 54.1769 71.4344 70.7761 71.2731 70.9087C71.3493 20.5411 71.6974 23.5498 71.198 22.7177C71.1974 22.712 71.1999 22.7069 71.1991 22.7012C70.1863 15.1533 64.1658 8.07235 57.1949 6.22961C56.9176 6.15767 56.6425 6.20433 56.4041 6.32127C54.3283 5.63603 53.1526 6.17179 5.18396 5.53282C4.99507 5.52065 4.80572 5.59018 4.62948 5.68889C4.63431 5.61704 4.6371 5.55699 4.6371 5.51451C3.11255 6.7207 1.75299 7.70909 0.49094 9.30048C0.261527 9.58975 0.140778 9.95925 0.138826 10.3285C-0.0133416 38.9377 -0.191815 68.1207 0.511018 95.969C0.523846 96.478 0.942236 96.8798 1.45135 96.8777L67.6166 96.602C68.5206 96.5982 69.3383 96.0835 69.766 95.2869C70.4508 94.0112 71.0079 92.6142 71.2091 91.9938C71.1955 91.9948 71.1819 91.995 71.1684 91.996C71.2231 91.5769 71.193 89.3231 71.2263 84.5872C79.5471 77.1166 88.0254 69.6147 96.5774 62.4854C97.4707 61.7408 97.4587 60.8627 97.4666 60.1197C97.5925 59.8812 97.6712 59.6181 97.6928 59.3463C97.795 58.0649 96.7919 57.5884 95.7013 56.1822ZM92.6279 56.1509C92.7472 56.2853 95.2543 59.1291 95.2819 59.1604C83.3272 68.9133 75.1553 76.105 65.5631 85.3262C60.2125 80.3229 58.3254 79.2506 53.1614 73.5595C54.5909 72.2304 55.7061 71.1463 57.0767 69.8726C64.1097 77.1783 64.5552 78.7112 65.6568 78.7353C66.2286 78.7531 66.2294 78.7509 69.4062 75.6536C72.355 72.781 90.1214 58.3527 92.6279 56.1509ZM68.7406 21.9033H60.4989C59.6546 21.9033 59.0137 22.126 58.816 21.8356C58.7617 21.7531 58.7543 21.6661 58.7714 21.2913C58.7789 21.118 58.7863 20.9388 58.7811 20.7589C58.5831 12.3381 59.0648 11.1691 58.6677 9.18233C63.5014 11.3712 67.5991 16.4848 68.7406 21.9033ZM68.9169 90.7101H6.31132V7.8329C52.8265 8.44062 50.0766 7.93583 55.2436 8.39509C57.241 8.57203 56.2643 11.0121 56.4974 20.8183C56.5126 21.3454 56.3146 22.1898 56.919 23.108C57.9988 24.6875 59.7067 24.1878 60.4989 24.1878H69.1668L68.9811 72.885C68.4399 73.403 67.7517 74.0788 66.9032 74.9023C61.7736 69.5234 61.115 67.5963 58.6396 67.584C58.0555 67.5811 57.4843 67.5315 56.8374 67.3843C56.867 67.4166 56.8932 67.4444 56.9226 67.4767C55.8582 67.5707 55.9882 67.8398 51.3335 72.1385C50.572 72.8427 50.517 74.0407 51.2101 74.8074C56.9507 81.1715 58.785 82.0423 64.786 87.7326C65.0068 87.9415 65.2894 88.0457 65.572 88.0457C65.6221 88.0457 65.6696 88.0241 65.7192 88.0176C66.5214 88.2289 67.3781 88.0421 68.0018 87.4803C68.3106 87.2022 68.6242 86.9227 68.9334 86.6444L68.9169 90.7101Z" fill="#0A102F"/>
<path d="M72.7704 0.108716C72.2008 -0.160481 71.5189 0.0878945 71.2519 0.65901L68.8641 5.75741C68.5964 6.32927 68.8425 7.00896 69.4136 7.27667C69.9805 7.54265 70.6641 7.30078 70.9329 6.72712L73.3207 1.62723C73.5884 1.05611 73.3415 0.375683 72.7704 0.108716Z" fill="#0A102F"/>
<path d="M74.8344 10.9844L80.6325 6.53148C81.1323 6.14777 81.2267 5.43015 80.8422 4.92968C80.4593 4.42996 79.7417 4.337 79.2404 4.71998L73.4423 9.17289C72.9426 9.55661 72.8481 10.2742 73.2326 10.7747C73.6156 11.2731 74.3319 11.3698 74.8344 10.9844Z" fill="#0A102F"/>
<path d="M76.6515 14.2275C76.0291 14.133 75.4468 14.5688 75.3569 15.1935C75.2661 15.8181 75.6989 16.3974 76.3229 16.4881L84.0389 17.6095C84.6594 17.7006 85.2426 17.2704 85.3335 16.6436C85.4243 16.0196 84.9922 15.4396 84.3676 15.3489L76.6515 14.2275Z" fill="#0A102F"/>
</svg>
