<svg width="24" height="25" viewBox="0 0 24 25" fill="none" xmlns="http://www.w3.org/2000/svg">
<g opacity="0.8">
<path d="M16 4.58691H18C19.1046 4.58691 20 5.48234 20 6.58691V18.5869C20 19.6915 19.1046 20.5869 18 20.5869H6C4.89543 20.5869 4 19.6915 4 18.5869V6.58691C4 5.48234 4.89543 4.58691 6 4.58691H8M12 3.58691V11.5869M12 11.5869L9 8.58691M12 11.5869L15 8.58691M20 13.5869H17.4142C17.149 13.5869 16.8946 13.6923 16.7071 13.8798L14.2929 16.294C14.1054 16.4816 13.851 16.5869 13.5858 16.5869H10.4142C10.149 16.5869 9.89464 16.4816 9.70711 16.294L7.29289 13.8798C7.10536 13.6923 6.851 13.5869 6.58579 13.5869H4" stroke="#0A102F" stroke-width="1.5" stroke-linecap="round" stroke-linejoin="round"/>
</g>
</svg>
