<svg width="24" height="25" viewBox="0 0 24 25" fill="none" xmlns="http://www.w3.org/2000/svg">
<path d="M10 10.5869H5.23607C3.7493 10.5869 2.78231 12.1515 3.44721 13.4813L6.94721 20.4813C7.286 21.1589 7.97852 21.5869 8.73607 21.5869H12.7538C12.9173 21.5869 13.0802 21.5669 13.2389 21.5272L17 20.5869M10 10.5869V5.58691C10 4.48234 10.8954 3.58691 12 3.58691H12.0955C12.595 3.58691 13 3.99188 13 4.49144C13 5.20574 13.2114 5.90407 13.6077 6.4984L17 11.5869V20.5869M10 10.5869H12M17 20.5869H19C20.1046 20.5869 21 19.6915 21 18.5869V12.5869C21 11.4823 20.1046 10.5869 19 10.5869H16.5" stroke="#0A102F" stroke-width="1.5" stroke-linecap="round" stroke-linejoin="round"/>
</svg>
