<svg width="24" height="25" viewBox="0 0 24 25" fill="none" xmlns="http://www.w3.org/2000/svg">
<g opacity="0.8">
<path d="M8.68387 13.9288C8.88616 13.5251 9 13.0693 9 12.5869C9 12.1045 8.88616 11.6488 8.68387 11.245M8.68387 13.9288C8.19134 14.912 7.17449 15.5869 6 15.5869C4.34315 15.5869 3 14.2438 3 12.5869C3 10.9301 4.34315 9.58691 6 9.58691C7.17449 9.58691 8.19134 10.2618 8.68387 11.245M8.68387 13.9288L15.3161 17.245M8.68387 11.245L15.3161 7.92885M15.3161 7.92885C15.8087 8.912 16.8255 9.58691 18 9.58691C19.6569 9.58691 21 8.24377 21 6.58691C21 4.93006 19.6569 3.58691 18 3.58691C16.3431 3.58691 15 4.93006 15 6.58691C15 7.06928 15.1138 7.52506 15.3161 7.92885ZM15.3161 17.245C15.1138 17.6488 15 18.1045 15 18.5869C15 20.2438 16.3431 21.5869 18 21.5869C19.6569 21.5869 21 20.2438 21 18.5869C21 16.9301 19.6569 15.5869 18 15.5869C16.8255 15.5869 15.8087 16.2618 15.3161 17.245Z" stroke="#0A102F" stroke-width="1.5" stroke-linecap="round" stroke-linejoin="round"/>
</g>
</svg>
