<svg width="20" height="21" viewBox="0 0 20 21" fill="none" xmlns="http://www.w3.org/2000/svg">
<path d="M5 5.58691H3C1.89543 5.58691 1 6.48234 1 7.58691V13.5869C1 14.6915 1.89543 15.5869 3 15.5869H5V19.5869L9 15.5869H13C13.5523 15.5869 14.0523 15.3631 14.4142 15.0011M14.4142 15.0011L11 11.5869H7C5.89543 11.5869 5 10.6915 5 9.58691V3.58691C5 2.48234 5.89543 1.58691 7 1.58691H17C18.1046 1.58691 19 2.48234 19 3.58691V9.58691C19 10.6915 18.1046 11.5869 17 11.5869H15V15.5869L14.4142 15.0011Z" stroke="#0A102F" stroke-width="1.5" stroke-linecap="round" stroke-linejoin="round"/>
</svg>
