<svg width="533" height="521" viewBox="0 0 533 521" fill="none" xmlns="http://www.w3.org/2000/svg">
<path d="M0 263.655C0 281.625 56.7331 293.048 60.5837 309.863C64.5627 327.191 18.3548 362.103 25.9278 377.763C33.6291 393.679 89.7204 379.303 100.631 393.037C111.669 406.771 85.0996 458.241 98.9619 469.28C112.696 480.19 156.979 442.967 172.895 450.668C188.554 458.241 187.014 516.13 204.47 520.109C221.285 523.959 245.03 471.205 263 471.205C280.97 471.205 304.715 523.959 321.53 520.109C338.858 516.13 337.318 458.241 353.105 450.668C369.021 442.967 413.304 480.19 427.038 469.28C440.772 458.241 414.331 406.771 425.369 393.037C436.28 379.303 492.371 393.807 500.072 377.763C507.645 362.103 461.566 327.191 465.416 309.863C469.267 293.048 526 281.625 526 263.655C526 245.685 469.267 234.261 465.416 217.447C461.437 200.119 507.645 165.206 500.072 149.547C492.371 133.631 436.28 148.007 425.369 134.273C414.331 120.539 440.9 69.0682 427.038 58.0297C413.304 47.1195 369.021 84.3425 353.105 76.6412C337.446 69.0682 338.986 11.18 321.53 7.20099C304.715 3.35033 280.97 56.1044 263 56.1044C245.03 56.1044 221.285 3.35033 204.47 7.20099C187.014 11.18 188.554 69.0682 172.895 76.6412C156.979 84.3425 112.696 47.1195 98.9619 58.0297C85.2279 69.0682 111.669 120.539 100.631 134.273C89.7204 148.007 33.6291 133.503 25.9278 149.547C18.3548 165.206 64.4344 200.119 60.5837 217.447C56.7331 234.261 0 245.685 0 263.655Z" fill="#0A102F"/>
<path d="M7 256.655C7 274.625 63.7331 286.048 67.5837 302.863C71.5627 320.191 25.3548 355.103 32.9278 370.763C40.6291 386.679 96.7204 372.303 107.631 386.037C118.669 399.771 92.0996 451.241 105.962 462.28C119.696 473.19 163.979 435.967 179.895 443.668C195.554 451.241 194.014 509.13 211.47 513.109C228.285 516.959 252.03 464.205 270 464.205C287.97 464.205 311.715 516.959 328.53 513.109C345.858 509.13 344.318 451.241 360.105 443.668C376.021 435.967 420.304 473.19 434.038 462.28C447.772 451.241 421.331 399.771 432.369 386.037C443.28 372.303 499.371 386.807 507.072 370.763C514.645 355.103 468.566 320.191 472.416 302.863C476.267 286.048 533 274.625 533 256.655C533 238.685 476.267 227.261 472.416 210.447C468.437 193.119 514.645 158.206 507.072 142.547C499.371 126.631 443.28 141.007 432.369 127.273C421.331 113.539 447.9 62.0682 434.038 51.0297C420.304 40.1195 376.021 77.3425 360.105 69.6412C344.446 62.0682 345.986 4.18001 328.53 0.200993C311.715 -3.64967 287.97 49.1044 270 49.1044C252.03 49.1044 228.285 -3.64967 211.47 0.200993C194.014 4.18001 195.554 62.0682 179.895 69.6412C163.979 77.3425 119.696 40.1195 105.962 51.0297C92.2279 62.0682 118.669 113.539 107.631 127.273C96.7204 141.007 40.6291 126.503 32.9278 142.547C25.3548 158.206 71.4344 193.119 67.5837 210.447C63.7331 227.261 7 238.685 7 256.655Z" fill="#03CD69"/>
</svg>
