<svg width="533" height="521" viewBox="0 0 533 521" fill="none" xmlns="http://www.w3.org/2000/svg">
<path d="M533 263.655C533 281.625 476.267 293.048 472.416 309.863C468.437 327.191 514.645 362.103 507.072 377.763C499.371 393.679 443.28 379.303 432.369 393.037C421.331 406.771 447.9 458.241 434.038 469.28C420.304 480.19 376.021 442.967 360.105 450.668C344.446 458.241 345.986 516.13 328.53 520.109C311.715 523.959 287.97 471.205 270 471.205C252.03 471.205 228.285 523.959 211.47 520.109C194.142 516.13 195.682 458.241 179.895 450.668C163.979 442.967 119.696 480.19 105.962 469.28C92.2279 458.241 118.669 406.771 107.631 393.037C96.7204 379.303 40.6291 393.807 32.9278 377.763C25.3548 362.103 71.4343 327.191 67.5837 309.863C63.733 293.048 7 281.625 7 263.655C7 245.685 63.733 234.261 67.5837 217.447C71.5627 200.119 25.3548 165.206 32.9278 149.547C40.6291 133.631 96.7204 148.007 107.631 134.273C118.669 120.539 92.0996 69.0682 105.962 58.0297C119.696 47.1195 163.979 84.3425 179.895 76.6412C195.554 69.0682 194.014 11.18 211.47 7.20099C228.285 3.35033 252.03 56.1044 270 56.1044C287.97 56.1044 311.715 3.35033 328.53 7.20099C345.986 11.18 344.446 69.0682 360.105 76.6412C376.021 84.3425 420.304 47.1195 434.038 58.0297C447.772 69.0682 421.331 120.539 432.369 134.273C443.28 148.007 499.371 133.503 507.072 149.547C514.645 165.206 468.566 200.119 472.416 217.447C476.267 234.261 533 245.685 533 263.655Z" fill="#0A102F"/>
<path d="M526 256.655C526 274.625 469.267 286.048 465.416 302.863C461.437 320.191 507.645 355.103 500.072 370.763C492.371 386.679 436.28 372.303 425.369 386.037C414.331 399.771 440.9 451.241 427.038 462.28C413.304 473.19 369.021 435.967 353.105 443.668C337.446 451.241 338.986 509.13 321.53 513.109C304.715 516.959 280.97 464.205 263 464.205C245.03 464.205 221.285 516.959 204.47 513.109C187.142 509.13 188.682 451.241 172.895 443.668C156.979 435.967 112.696 473.19 98.9619 462.28C85.2279 451.241 111.669 399.771 100.631 386.037C89.7204 372.303 33.6291 386.807 25.9278 370.763C18.3548 355.103 64.4343 320.191 60.5837 302.863C56.733 286.048 0 274.625 0 256.655C0 238.685 56.733 227.261 60.5837 210.447C64.5627 193.119 18.3548 158.206 25.9278 142.547C33.6291 126.631 89.7204 141.007 100.631 127.273C111.669 113.539 85.0996 62.0682 98.9619 51.0297C112.696 40.1195 156.979 77.3425 172.895 69.6412C188.554 62.0682 187.014 4.18001 204.47 0.200993C221.285 -3.64967 245.03 49.1044 263 49.1044C280.97 49.1044 304.715 -3.64967 321.53 0.200993C338.986 4.18001 337.446 62.0682 353.105 69.6412C369.021 77.3425 413.304 40.1195 427.038 51.0297C440.772 62.0682 414.331 113.539 425.369 127.273C436.28 141.007 492.371 126.503 500.072 142.547C507.645 158.206 461.566 193.119 465.416 210.447C469.267 227.261 526 238.685 526 256.655Z" fill="#75BBFF"/>
</svg>
