<svg width="292" height="292" viewBox="0 0 292 292" fill="none" xmlns="http://www.w3.org/2000/svg">
<path d="M153.06 0L138.94 0V292H153.06V0Z" fill="#03CD69"/>
<path d="M292 138.94H0L0 153.06H292V138.94Z" fill="#03CD69"/>
<path d="M47.7283 37.7609L37.7441 47.7451L244.217 254.218L254.202 244.234L47.7283 37.7609Z" fill="#03CD69"/>
<path d="M244.217 37.7584L37.7441 244.232L47.7283 254.216L254.202 47.7426L244.217 37.7584Z" fill="#03CD69"/>
<path d="M13.4949 84.423L8.16748 97.4995L278.589 207.671L283.916 194.595L13.4949 84.423Z" fill="#03CD69"/>
<path d="M194.593 8.18659L84.4214 278.608L97.4979 283.935L207.669 13.514L194.593 8.18659Z" fill="#03CD69"/>
<path d="M278.909 84.9147L8.02051 193.948L13.2929 207.047L284.181 98.0137L278.909 84.9147Z" fill="#03CD69"/>
<path d="M97.9535 8.02591L84.8545 13.2969L193.858 284.185L206.957 278.914L97.9535 8.02591Z" fill="#03CD69"/>
</svg>
