<svg width="109" height="191" viewBox="0 0 109 191" fill="none" xmlns="http://www.w3.org/2000/svg">
<path d="M2.65674 179.652L17.9468 179.8" stroke="#0A102F" stroke-width="4.33351" stroke-miterlimit="10" stroke-linecap="round"/>
<path d="M10.3761 172.081L10.2285 187.371" stroke="#0A102F" stroke-width="4.33351" stroke-miterlimit="10" stroke-linecap="round"/>
<path d="M2.88965 155.51L18.1797 155.657" stroke="#0A102F" stroke-width="4.33351" stroke-miterlimit="10" stroke-linecap="round"/>
<path d="M10.609 147.939L10.4614 163.229" stroke="#0A102F" stroke-width="4.33351" stroke-miterlimit="10" stroke-linecap="round"/>
<path d="M3.1228 131.367L18.4128 131.514" stroke="#0A102F" stroke-width="4.33351" stroke-miterlimit="10" stroke-linecap="round"/>
<path d="M10.8414 123.796L10.6938 139.085" stroke="#0A102F" stroke-width="4.33351" stroke-miterlimit="10" stroke-linecap="round"/>
<path d="M3.35645 107.225L18.6465 107.372" stroke="#0A102F" stroke-width="4.33351" stroke-miterlimit="10" stroke-linecap="round"/>
<path d="M11.0751 99.6537L10.9275 114.944" stroke="#0A102F" stroke-width="4.33351" stroke-miterlimit="10" stroke-linecap="round"/>
<path d="M3.58862 83.0815L18.8787 83.2291" stroke="#0A102F" stroke-width="4.33351" stroke-miterlimit="10" stroke-linecap="round"/>
<path d="M11.3072 75.5106L11.1597 90.8005" stroke="#0A102F" stroke-width="4.33351" stroke-miterlimit="10" stroke-linecap="round"/>
<path d="M3.8208 58.9387L19.1108 59.0863" stroke="#0A102F" stroke-width="4.33351" stroke-miterlimit="10" stroke-linecap="round"/>
<path d="M11.5401 51.3678L11.3926 66.6577" stroke="#0A102F" stroke-width="4.33351" stroke-miterlimit="10" stroke-linecap="round"/>
<path d="M4.05469 34.7964L19.3447 34.9439" stroke="#0A102F" stroke-width="4.33351" stroke-miterlimit="10" stroke-linecap="round"/>
<path d="M11.774 27.2252L11.6265 42.5151" stroke="#0A102F" stroke-width="4.33351" stroke-miterlimit="10" stroke-linecap="round"/>
<path d="M4.28687 10.6533L19.5769 10.8009" stroke="#0A102F" stroke-width="4.33351" stroke-miterlimit="10" stroke-linecap="round"/>
<path d="M12.0062 3.08215L11.8586 18.3721" stroke="#0A102F" stroke-width="4.33351" stroke-miterlimit="10" stroke-linecap="round"/>
<path d="M24.4158 179.862L39.7059 180.01" stroke="#0A102F" stroke-width="4.33351" stroke-miterlimit="10" stroke-linecap="round"/>
<path d="M32.1351 172.291L31.9875 187.581" stroke="#0A102F" stroke-width="4.33351" stroke-miterlimit="10" stroke-linecap="round"/>
<path d="M24.6487 155.719L39.9388 155.867" stroke="#0A102F" stroke-width="4.33351" stroke-miterlimit="10" stroke-linecap="round"/>
<path d="M32.3673 148.148L32.2197 163.438" stroke="#0A102F" stroke-width="4.33351" stroke-miterlimit="10" stroke-linecap="round"/>
<path d="M24.8818 131.577L40.172 131.725" stroke="#0A102F" stroke-width="4.33351" stroke-miterlimit="10" stroke-linecap="round"/>
<path d="M32.6004 124.006L32.4529 139.296" stroke="#0A102F" stroke-width="4.33351" stroke-miterlimit="10" stroke-linecap="round"/>
<path d="M25.115 107.434L40.4051 107.582" stroke="#0A102F" stroke-width="4.33351" stroke-miterlimit="10" stroke-linecap="round"/>
<path d="M32.8336 99.8632L32.686 115.153" stroke="#0A102F" stroke-width="4.33351" stroke-miterlimit="10" stroke-linecap="round"/>
<path d="M25.3481 83.292L40.6383 83.4396" stroke="#0A102F" stroke-width="4.33351" stroke-miterlimit="10" stroke-linecap="round"/>
<path d="M33.0675 75.7211L32.9199 91.011" stroke="#0A102F" stroke-width="4.33351" stroke-miterlimit="10" stroke-linecap="round"/>
<path d="M25.5803 59.1487L40.8704 59.2962" stroke="#0A102F" stroke-width="4.33351" stroke-miterlimit="10" stroke-linecap="round"/>
<path d="M33.2997 51.5778L33.1521 66.8677" stroke="#0A102F" stroke-width="4.33351" stroke-miterlimit="10" stroke-linecap="round"/>
<path d="M25.8137 35.0066L41.1038 35.1542" stroke="#0A102F" stroke-width="4.33351" stroke-miterlimit="10" stroke-linecap="round"/>
<path d="M33.5323 27.4349L33.3848 42.7249" stroke="#0A102F" stroke-width="4.33351" stroke-miterlimit="10" stroke-linecap="round"/>
<path d="M26.0469 10.8633L41.337 11.0108" stroke="#0A102F" stroke-width="4.33351" stroke-miterlimit="10" stroke-linecap="round"/>
<path d="M33.7662 3.29211L33.6187 18.582" stroke="#0A102F" stroke-width="4.33351" stroke-miterlimit="10" stroke-linecap="round"/>
<path d="M46.2058 180.073L61.465 180.22" stroke="#0A102F" stroke-width="4.33351" stroke-miterlimit="10" stroke-linecap="round"/>
<path d="M53.9251 172.502L53.7776 187.792" stroke="#0A102F" stroke-width="4.33351" stroke-miterlimit="10" stroke-linecap="round"/>
<path d="M46.438 155.93L61.6971 156.077" stroke="#0A102F" stroke-width="4.33351" stroke-miterlimit="10" stroke-linecap="round"/>
<path d="M54.1573 148.359L54.0098 163.649" stroke="#0A102F" stroke-width="4.33351" stroke-miterlimit="10" stroke-linecap="round"/>
<path d="M46.6726 131.788L61.9317 131.935" stroke="#0A102F" stroke-width="4.33351" stroke-miterlimit="10" stroke-linecap="round"/>
<path d="M54.3912 124.217L54.2437 139.507" stroke="#0A102F" stroke-width="4.33351" stroke-miterlimit="10" stroke-linecap="round"/>
<path d="M46.9043 107.644L62.1634 107.792" stroke="#0A102F" stroke-width="4.33351" stroke-miterlimit="10" stroke-linecap="round"/>
<path d="M54.6227 100.073L54.4751 115.363" stroke="#0A102F" stroke-width="4.33351" stroke-miterlimit="10" stroke-linecap="round"/>
<path d="M47.1387 83.5015L62.3978 83.6487" stroke="#0A102F" stroke-width="4.33351" stroke-miterlimit="10" stroke-linecap="round"/>
<path d="M54.8573 75.9305L54.7097 91.2205" stroke="#0A102F" stroke-width="4.33351" stroke-miterlimit="10" stroke-linecap="round"/>
<path d="M47.3701 59.3591L62.6293 59.5064" stroke="#0A102F" stroke-width="4.33351" stroke-miterlimit="10" stroke-linecap="round"/>
<path d="M55.0895 51.788L54.9419 67.0779" stroke="#0A102F" stroke-width="4.33351" stroke-miterlimit="10" stroke-linecap="round"/>
<path d="M47.603 35.217L62.8622 35.3643" stroke="#0A102F" stroke-width="4.33351" stroke-miterlimit="10" stroke-linecap="round"/>
<path d="M55.3224 27.6454L55.1748 42.9353" stroke="#0A102F" stroke-width="4.33351" stroke-miterlimit="10" stroke-linecap="round"/>
<path d="M47.8372 11.0735L63.0963 11.2207" stroke="#0A102F" stroke-width="4.33351" stroke-miterlimit="10" stroke-linecap="round"/>
<path d="M55.5565 3.50232L55.4089 18.7922" stroke="#0A102F" stroke-width="4.33351" stroke-miterlimit="10" stroke-linecap="round"/>
<path d="M67.9666 180.282L83.2566 180.43" stroke="#0A102F" stroke-width="4.33351" stroke-miterlimit="10" stroke-linecap="round"/>
<path d="M75.6852 172.712L75.5376 188.002" stroke="#0A102F" stroke-width="4.33351" stroke-miterlimit="10" stroke-linecap="round"/>
<path d="M68.199 156.14L83.489 156.287" stroke="#0A102F" stroke-width="4.33351" stroke-miterlimit="10" stroke-linecap="round"/>
<path d="M75.9176 148.569L75.77 163.859" stroke="#0A102F" stroke-width="4.33351" stroke-miterlimit="10" stroke-linecap="round"/>
<path d="M68.4326 131.998L83.7227 132.145" stroke="#0A102F" stroke-width="4.33351" stroke-miterlimit="10" stroke-linecap="round"/>
<path d="M76.1512 124.427L76.0037 139.717" stroke="#0A102F" stroke-width="4.33351" stroke-miterlimit="10" stroke-linecap="round"/>
<path d="M68.6648 107.855L83.9548 108.003" stroke="#0A102F" stroke-width="4.33351" stroke-miterlimit="10" stroke-linecap="round"/>
<path d="M76.3841 100.283L76.2366 115.573" stroke="#0A102F" stroke-width="4.33351" stroke-miterlimit="10" stroke-linecap="round"/>
<path d="M68.8979 83.7114L84.188 83.859" stroke="#0A102F" stroke-width="4.33351" stroke-miterlimit="10" stroke-linecap="round"/>
<path d="M76.6166 76.1405L76.469 91.4304" stroke="#0A102F" stroke-width="4.33351" stroke-miterlimit="10" stroke-linecap="round"/>
<path d="M69.1311 59.5691L84.4211 59.7167" stroke="#0A102F" stroke-width="4.33351" stroke-miterlimit="10" stroke-linecap="round"/>
<path d="M76.8504 51.9979L76.7029 67.2878" stroke="#0A102F" stroke-width="4.33351" stroke-miterlimit="10" stroke-linecap="round"/>
<path d="M69.3643 35.4268L84.6543 35.5743" stroke="#0A102F" stroke-width="4.33351" stroke-miterlimit="10" stroke-linecap="round"/>
<path d="M77.0836 27.8551L76.936 43.145" stroke="#0A102F" stroke-width="4.33351" stroke-miterlimit="10" stroke-linecap="round"/>
<path d="M69.5979 11.2837L84.8879 11.4313" stroke="#0A102F" stroke-width="4.33351" stroke-miterlimit="10" stroke-linecap="round"/>
<path d="M77.3165 3.71277L77.1689 19.0027" stroke="#0A102F" stroke-width="4.33351" stroke-miterlimit="10" stroke-linecap="round"/>
<path d="M89.7554 180.493L105.014 180.64" stroke="#0A102F" stroke-width="4.33351" stroke-miterlimit="10" stroke-linecap="round"/>
<path d="M97.4747 172.922L97.3271 188.212" stroke="#0A102F" stroke-width="4.33351" stroke-miterlimit="10" stroke-linecap="round"/>
<path d="M89.9885 156.35L105.248 156.497" stroke="#0A102F" stroke-width="4.33351" stroke-miterlimit="10" stroke-linecap="round"/>
<path d="M97.7079 148.779L97.5603 164.069" stroke="#0A102F" stroke-width="4.33351" stroke-miterlimit="10" stroke-linecap="round"/>
<path d="M90.2231 132.207L105.482 132.354" stroke="#0A102F" stroke-width="4.33351" stroke-miterlimit="10" stroke-linecap="round"/>
<path d="M97.9417 124.636L97.7942 139.926" stroke="#0A102F" stroke-width="4.33351" stroke-miterlimit="10" stroke-linecap="round"/>
<path d="M90.4543 108.065L105.713 108.212" stroke="#0A102F" stroke-width="4.33351" stroke-miterlimit="10" stroke-linecap="round"/>
<path d="M98.1737 100.494L98.0261 115.783" stroke="#0A102F" stroke-width="4.33351" stroke-miterlimit="10" stroke-linecap="round"/>
<path d="M90.6875 83.9219L105.947 84.0691" stroke="#0A102F" stroke-width="4.33351" stroke-miterlimit="10" stroke-linecap="round"/>
<path d="M98.4068 76.3509L98.2593 91.6409" stroke="#0A102F" stroke-width="4.33351" stroke-miterlimit="10" stroke-linecap="round"/>
<path d="M90.9207 59.7791L106.18 59.9263" stroke="#0A102F" stroke-width="4.33351" stroke-miterlimit="10" stroke-linecap="round"/>
<path d="M98.64 52.2079L98.4924 67.4978" stroke="#0A102F" stroke-width="4.33351" stroke-miterlimit="10" stroke-linecap="round"/>
<path d="M91.1536 35.6365L106.413 35.7837" stroke="#0A102F" stroke-width="4.33351" stroke-miterlimit="10" stroke-linecap="round"/>
<path d="M98.8729 28.0653L98.7253 43.3552" stroke="#0A102F" stroke-width="4.33351" stroke-miterlimit="10" stroke-linecap="round"/>
<path d="M91.3872 11.4932L106.646 11.6404" stroke="#0A102F" stroke-width="4.33351" stroke-miterlimit="10" stroke-linecap="round"/>
<path d="M99.1065 3.92224L98.959 19.2122" stroke="#0A102F" stroke-width="4.33351" stroke-miterlimit="10" stroke-linecap="round"/>
</svg>
