<svg width="51" height="222" viewBox="0 0 51 222" fill="none" xmlns="http://www.w3.org/2000/svg">
<path d="M2.76904 209.639L20.6848 209.812" stroke="#0A102F" stroke-width="5.07768" stroke-miterlimit="10" stroke-linecap="round"/>
<path d="M11.814 200.767L11.6411 218.683" stroke="#0A102F" stroke-width="5.07768" stroke-miterlimit="10" stroke-linecap="round"/>
<path d="M3.04199 181.35L20.9577 181.523" stroke="#0A102F" stroke-width="5.07768" stroke-miterlimit="10" stroke-linecap="round"/>
<path d="M12.087 172.479L11.9141 190.395" stroke="#0A102F" stroke-width="5.07768" stroke-miterlimit="10" stroke-linecap="round"/>
<path d="M3.31543 153.061L21.2311 153.234" stroke="#0A102F" stroke-width="5.07768" stroke-miterlimit="10" stroke-linecap="round"/>
<path d="M12.3589 144.19L12.186 162.106" stroke="#0A102F" stroke-width="5.07768" stroke-miterlimit="10" stroke-linecap="round"/>
<path d="M3.58887 124.774L21.5046 124.947" stroke="#0A102F" stroke-width="5.07768" stroke-miterlimit="10" stroke-linecap="round"/>
<path d="M12.6324 115.903L12.4595 133.818" stroke="#0A102F" stroke-width="5.07768" stroke-miterlimit="10" stroke-linecap="round"/>
<path d="M3.86035 96.4845L21.7761 96.6574" stroke="#0A102F" stroke-width="5.07768" stroke-miterlimit="10" stroke-linecap="round"/>
<path d="M12.9043 87.6135L12.7314 105.529" stroke="#0A102F" stroke-width="5.07768" stroke-miterlimit="10" stroke-linecap="round"/>
<path d="M4.13281 68.1957L22.0485 68.3686" stroke="#0A102F" stroke-width="5.07768" stroke-miterlimit="10" stroke-linecap="round"/>
<path d="M13.1778 59.3247L13.0049 77.2402" stroke="#0A102F" stroke-width="5.07768" stroke-miterlimit="10" stroke-linecap="round"/>
<path d="M4.40674 39.9076L22.3224 40.0805" stroke="#0A102F" stroke-width="5.07768" stroke-miterlimit="10" stroke-linecap="round"/>
<path d="M13.4517 31.0362L13.2788 48.9518" stroke="#0A102F" stroke-width="5.07768" stroke-miterlimit="10" stroke-linecap="round"/>
<path d="M4.6792 11.6187L22.5949 11.7916" stroke="#0A102F" stroke-width="5.07768" stroke-miterlimit="10" stroke-linecap="round"/>
<path d="M13.7242 2.74728L13.5513 20.6628" stroke="#0A102F" stroke-width="5.07768" stroke-miterlimit="10" stroke-linecap="round"/>
<path d="M28.2642 209.885L46.18 210.058" stroke="#0A102F" stroke-width="5.07768" stroke-miterlimit="10" stroke-linecap="round"/>
<path d="M37.3091 201.014L37.1362 218.93" stroke="#0A102F" stroke-width="5.07768" stroke-miterlimit="10" stroke-linecap="round"/>
<path d="M28.5371 181.596L46.4529 181.769" stroke="#0A102F" stroke-width="5.07768" stroke-miterlimit="10" stroke-linecap="round"/>
<path d="M37.5806 172.725L37.4077 190.641" stroke="#0A102F" stroke-width="5.07768" stroke-miterlimit="10" stroke-linecap="round"/>
<path d="M28.8105 153.308L46.7263 153.481" stroke="#0A102F" stroke-width="5.07768" stroke-miterlimit="10" stroke-linecap="round"/>
<path d="M37.8545 144.437L37.6816 162.353" stroke="#0A102F" stroke-width="5.07768" stroke-miterlimit="10" stroke-linecap="round"/>
<path d="M29.0835 125.019L46.9993 125.192" stroke="#0A102F" stroke-width="5.07768" stroke-miterlimit="10" stroke-linecap="round"/>
<path d="M38.127 116.148L37.9541 134.064" stroke="#0A102F" stroke-width="5.07768" stroke-miterlimit="10" stroke-linecap="round"/>
<path d="M29.3564 96.7312L47.2722 96.9041" stroke="#0A102F" stroke-width="5.07768" stroke-miterlimit="10" stroke-linecap="round"/>
<path d="M38.4014 87.8602L38.2285 105.776" stroke="#0A102F" stroke-width="5.07768" stroke-miterlimit="10" stroke-linecap="round"/>
<path d="M29.6289 68.442L47.5447 68.6149" stroke="#0A102F" stroke-width="5.07768" stroke-miterlimit="10" stroke-linecap="round"/>
<path d="M38.6739 59.571L38.501 77.4866" stroke="#0A102F" stroke-width="5.07768" stroke-miterlimit="10" stroke-linecap="round"/>
<path d="M29.9023 40.1541L47.8181 40.327" stroke="#0A102F" stroke-width="5.07768" stroke-miterlimit="10" stroke-linecap="round"/>
<path d="M38.9458 31.2822L38.7729 49.1978" stroke="#0A102F" stroke-width="5.07768" stroke-miterlimit="10" stroke-linecap="round"/>
<path d="M30.1758 11.8647L48.0916 12.0376" stroke="#0A102F" stroke-width="5.07768" stroke-miterlimit="10" stroke-linecap="round"/>
<path d="M39.2208 2.99337L39.0479 20.9089" stroke="#0A102F" stroke-width="5.07768" stroke-miterlimit="10" stroke-linecap="round"/>
</svg>
