<svg width="24" height="24" viewBox="0 0 24 24" fill="none" xmlns="http://www.w3.org/2000/svg">
<path d="M4.80039 4.80005C3.47491 4.80005 2.40039 5.87457 2.40039 7.20005V12C2.40039 13.3255 3.47491 14.4 4.80039 14.4L4.80039 7.20005H16.8004C16.8004 5.87457 15.7259 4.80005 14.4004 4.80005H4.80039Z" fill="#0A102F"/>
<path fill-rule="evenodd" clip-rule="evenodd" d="M7.20039 12C7.20039 10.6746 8.27491 9.60005 9.60039 9.60005H19.2004C20.5259 9.60005 21.6004 10.6746 21.6004 12V16.8C21.6004 18.1255 20.5259 19.2 19.2004 19.2H9.60039C8.27491 19.2 7.20039 18.1255 7.20039 16.8V12ZM14.4004 16.8C15.7259 16.8 16.8004 15.7255 16.8004 14.4C16.8004 13.0746 15.7259 12 14.4004 12C13.0749 12 12.0004 13.0746 12.0004 14.4C12.0004 15.7255 13.0749 16.8 14.4004 16.8Z" fill="#0A102F"/>
</svg>
