<svg width="24" height="24" viewBox="0 0 24 24" fill="none" xmlns="http://www.w3.org/2000/svg">
<path fill-rule="evenodd" clip-rule="evenodd" d="M12.0004 21.5999C17.3023 21.5999 21.6004 17.3018 21.6004 11.9999C21.6004 6.69797 17.3023 2.3999 12.0004 2.3999C6.69846 2.3999 2.40039 6.69797 2.40039 11.9999C2.40039 17.3018 6.69846 21.5999 12.0004 21.5999ZM13.0004 7.1999C13.0004 6.64762 12.5527 6.1999 12.0004 6.1999C11.4481 6.1999 11.0004 6.64762 11.0004 7.1999V11.9999C11.0004 12.2651 11.1057 12.5195 11.2933 12.707L14.6874 16.1011C15.0779 16.4916 15.7111 16.4916 16.1016 16.1011C16.4921 15.7106 16.4921 15.0774 16.1016 14.6869L13.0004 11.5857V7.1999Z" fill="#0A102F"/>
</svg>
