<svg width="60" height="60" viewBox="0 0 60 60" fill="none" xmlns="http://www.w3.org/2000/svg">
<circle cx="30" cy="30" r="30" fill="#03CD69"/>
<path d="M44.3888 26.2952C43.8404 26.0499 43.2261 25.8357 42.4255 25.6641C43.3647 24.6696 43.8796 23.3853 43.8766 22.0282L43.8743 20.9722H40.6852C39.4908 20.9722 38.3875 21.3696 37.5001 22.0387V22.0318C37.5001 20.2763 36.0718 18.848 34.3162 18.848H33.7518V20.9647H34.3162C34.9047 20.9647 35.3834 21.4434 35.3834 22.0318V25.2219C32.7584 25.2558 30.1597 25.4583 28.1881 26.4447C28.0933 25.9991 28.0429 25.5402 28.0429 25.0731C28.0429 22.2895 26.0383 19.9668 23.3971 19.469V16.1839C23.3971 14.4283 21.9689 13 20.2133 13H19.6488V15.1167H20.2133C20.8017 15.1167 21.2805 15.5954 21.2805 16.1839V19.469C18.6394 19.9668 16.6348 22.2896 16.6348 25.0731C16.6348 26.7547 16.0125 28.329 14.8826 29.5056C13.0281 31.4369 12.0053 33.9755 12.0029 36.6515C11.8634 42.1549 16.824 47.0671 22.3389 46.9993C24.8283 46.9687 27.1153 46.1145 28.9014 44.6429C29.0982 44.8998 29.2981 45.144 29.5005 45.3721C30.6726 46.6939 32.4734 47.2511 34.2004 46.8264C35.4254 46.5252 36.0954 46.4619 36.4417 46.4619C36.7626 46.4619 37.3852 46.5265 38.5294 46.8339C40.1493 47.2942 42.1356 46.7845 43.3102 45.4381C44.6834 43.9114 45.9306 41.7167 46.8219 39.2582C47.6639 36.9359 48.1276 34.5892 48.1276 32.6506C48.1277 29.5435 46.8697 27.4052 44.3888 26.2952ZM40.6853 23.0889H41.5791C41.1933 24.2451 39.8993 25.2553 38.5782 25.2157H37.6809C38.1181 23.978 39.2998 23.0889 40.6853 23.0889ZM22.3349 44.8826C18.0019 44.9435 14.0003 41.0318 14.1196 36.6556C14.1215 34.5259 14.9347 32.5073 16.4094 30.9716C17.9197 29.3988 18.7515 27.3039 18.7515 25.0731C18.7515 23.095 20.3608 21.4857 22.3389 21.4857C24.3171 21.4857 25.9263 23.095 25.9263 25.0732C25.9263 27.2982 26.7619 29.3969 28.2791 30.9828C29.7488 32.5191 30.5583 34.5365 30.5583 36.6633C30.5583 41.1954 26.8706 44.8188 22.3349 44.8826ZM44.832 38.5368C44.0313 40.7453 42.9319 42.6935 41.7364 44.0226C41.0746 44.7584 40.0559 45.0522 39.0786 44.7897C37.9809 44.4948 37.0938 44.3453 36.4417 44.3453C35.7679 44.3453 34.8438 44.4886 33.695 44.7711C32.7336 45.0075 31.7332 44.6997 31.0841 43.9677C30.8547 43.7091 30.6275 43.4248 30.4045 43.1191C31.8242 41.3489 32.6749 39.1038 32.6749 36.6634C32.6749 33.9888 31.6569 31.4518 29.8085 29.5197C29.4864 29.183 29.2069 28.8143 28.9693 28.4219C30.7789 27.4256 33.6361 27.3324 36.4417 27.3324C39.4923 27.3324 41.8642 27.4846 43.5243 28.2274C45.2441 28.9968 46.0109 30.3609 46.0109 32.6506C46.011 34.3248 45.5812 36.4702 44.832 38.5368Z" fill="white"/>
<path d="M22.3388 30.9592C19.1936 30.9592 16.6348 33.5181 16.6348 36.6634C16.6348 39.8086 19.1936 42.3674 22.3388 42.3674C25.4841 42.3674 28.0429 39.8085 28.0429 36.6634C28.0429 33.5181 25.4841 30.9592 22.3388 30.9592ZM22.3388 40.2507C20.3607 40.2507 18.7515 38.6414 18.7515 36.6634C18.7515 34.6852 20.3608 33.0759 22.3388 33.0759C24.3169 33.0759 25.9263 34.6852 25.9263 36.6634C25.9263 38.6414 24.3169 40.2507 22.3388 40.2507Z" fill="white"/>
</svg>
