<svg width="60" height="60" viewBox="0 0 60 60" fill="none" xmlns="http://www.w3.org/2000/svg">
<circle cx="30" cy="30" r="30" fill="#03CD69"/>
<path d="M46.1222 19.5104L45.4178 18.8061L46.1222 18.1017C47.2872 16.9366 47.2872 15.0409 46.1221 13.8758C44.9571 12.7108 43.0612 12.7107 41.8962 13.8758L41.1918 14.5802L40.4874 13.8758C39.3224 12.7108 37.4266 12.7107 36.2616 13.8758L35.5572 14.5802L34.8529 13.8759C33.6851 12.7081 31.7949 12.708 30.627 13.8759L27.8097 16.6931C27.4207 17.0821 27.4207 17.7127 27.8097 18.1017L32.74 23.032L23.03 32.7421L18.0997 27.8119C17.7107 27.4228 17.0801 27.4228 16.6911 27.8119L13.8738 30.6291C12.7088 31.7941 12.7088 33.6899 13.8738 34.855L14.5782 35.5593L13.8738 36.2637C12.7088 37.4287 12.7088 39.3245 13.8738 40.4895L14.5782 41.1939L13.8738 41.8983C12.7087 43.0633 12.7087 44.9591 13.8738 46.1241C15.0388 47.2892 16.9346 47.2893 18.0997 46.1241L18.8041 45.4198L19.5084 46.1241C20.6735 47.2893 22.5693 47.2892 23.7343 46.1241L24.4387 45.4198L25.143 46.1241C26.3109 47.292 28.2011 47.292 29.369 46.1241L32.1862 43.3068C32.5752 42.9178 32.5752 42.2872 32.1862 41.8982L27.256 36.968L36.9661 27.2578L41.8963 32.1881C42.2853 32.5771 42.9159 32.5771 43.3049 32.1881L46.1222 29.3708C47.2872 28.2058 47.2872 26.31 46.1222 25.1449L45.4179 24.4406L46.1222 23.7362C47.2872 22.5712 47.2872 20.6754 46.1222 19.5104ZM25.8472 32.7421L27.2558 34.1508L25.8472 35.5594L24.4386 34.1508L25.8472 32.7421ZM16.6911 44.7155C16.3027 45.1039 15.6709 45.1039 15.2825 44.7155C14.894 44.3271 14.894 43.6953 15.2825 43.3069L15.9868 42.6025L17.3955 44.0112L16.6911 44.7155ZM22.3257 44.7155C21.9373 45.1039 21.3054 45.1039 20.9171 44.7155L15.2825 39.0809C14.894 38.6925 14.894 38.0607 15.2825 37.6723L15.9868 36.9679C16.2963 37.2775 22.7211 43.7023 23.03 44.0112L22.3257 44.7155ZM30.0731 42.6026L27.9601 44.7155C27.5708 45.1049 26.9409 45.1049 26.5515 44.7155L15.2824 33.4465C14.894 33.058 14.894 32.4262 15.2824 32.0378L17.3954 29.9248C18.6768 31.2062 29.593 42.1226 30.0731 42.6026ZM43.3048 15.2845C43.6932 14.8961 44.3251 14.8962 44.7134 15.2845C45.1018 15.6729 45.1018 16.3048 44.7134 16.6931L44.009 17.3975L42.6005 15.9888L43.3048 15.2845ZM37.6703 15.2845C38.0587 14.8961 38.6906 14.8962 39.0789 15.2845L44.7135 20.9191C45.1019 21.3075 45.1019 21.9394 44.7135 22.3277L44.0092 23.032C43.6997 22.7225 37.2749 16.2976 36.966 15.9888L37.6703 15.2845ZM28.6645 32.7421L27.2559 31.3334L31.3315 27.2578L32.7401 28.6664L28.6645 32.7421ZM34.1487 27.2579L32.7401 25.8493L34.1487 24.4407L35.5573 25.8493L34.1487 27.2579ZM44.7135 27.9622L42.6006 30.0752C42.4863 29.9609 30.0373 17.512 29.9229 17.3974L32.0358 15.2844C32.4251 14.8952 33.0551 14.8951 33.4444 15.2844L44.7135 26.5535C45.1019 26.9419 45.1019 27.5739 44.7135 27.9622Z" fill="white"/>
</svg>
