<svg width="60" height="60" viewBox="0 0 60 60" fill="none" xmlns="http://www.w3.org/2000/svg">
<path d="M60 30C60 46.5685 46.5685 60 30 60C13.4315 60 0 46.5685 0 30C0 13.4315 13.4315 0 30 0C46.5685 0 60 13.4315 60 30Z" fill="#03CD69"/>
<path d="M34.9644 17.9805C34.9644 15.2342 32.7301 13 29.9839 13C27.2377 13 25.0034 15.2342 25.0034 17.9805C25.0034 20.7267 27.2377 22.9609 29.9839 22.9609C32.7301 22.9609 34.9644 20.7267 34.9644 17.9805ZM29.9839 20.9688C28.3361 20.9688 26.9956 19.6282 26.9956 17.9805C26.9956 16.3327 28.3361 14.9922 29.9839 14.9922C31.6316 14.9922 32.9722 16.3327 32.9722 17.9805C32.9722 19.6282 31.6316 20.9688 29.9839 20.9688Z" fill="white"/>
<path d="M46.9681 39.0312L44.7508 37.2573C42.1417 35.17 40.4247 32.2077 40.0398 29.1299C39.609 25.6843 36.8624 22.9609 33.4101 22.9609H26.558C23.0995 22.9609 20.3583 25.6904 19.9282 29.1299C19.5434 32.2076 17.8263 35.17 15.2172 37.2573L13 39.0312C13 39.0312 15.9758 39.0295 16.0439 39.0282C15.4157 39.8617 15.0427 40.8978 15.0427 42.0195C15.0427 44.7564 17.2618 46.9841 19.9952 46.9993L19.9938 47H39.945C42.6912 47 44.9255 44.7658 44.9255 42.0195C44.9255 40.8983 44.5527 39.8625 43.925 39.0292C43.9929 39.0305 46.9681 39.0312 46.9681 39.0312ZM21.9051 29.3771C22.2256 26.8137 24.1824 24.9531 26.558 24.9531H33.4101C35.7857 24.9531 37.7426 26.8137 38.063 29.3771C38.3826 31.9326 39.481 34.4126 41.1744 36.4986C38.8902 35.6465 36.9188 33.8362 35.7851 31.4212L34.4499 28.5768L32.3676 40.3463C31.5779 40.7624 30.7754 41.1918 29.984 41.6191C29.1176 41.1515 28.3263 40.7293 27.6041 40.3489L25.6894 29.1082L24.3357 31.9382C23.3369 34.0261 21.1719 35.7456 18.7524 36.5492C20.4694 34.4527 21.5829 31.9533 21.9051 29.3771ZM24.6704 34.99L25.388 39.2022C23.6385 38.317 22.448 37.7724 21.6148 37.451C22.7747 36.7936 23.8206 35.9573 24.6704 34.99ZM23.7592 45.0078H20.0231C18.3754 45.0078 17.0348 43.6673 17.0348 42.0195C17.0348 40.374 18.3718 39.0348 20.0165 39.0312C21.0901 39.1141 26.936 42.2454 27.8913 42.756C26.1738 43.6939 24.7512 44.4786 23.7592 45.0078ZM39.945 45.0078H27.9255C29.188 44.3169 38.5572 39.1349 39.9515 39.0312C41.5963 39.0348 42.9333 40.374 42.9333 42.0195C42.9333 43.6673 41.5927 45.0078 39.945 45.0078ZM34.5946 39.194L35.4088 34.5924C36.2693 35.6952 37.3176 36.6459 38.5103 37.3884C37.7105 37.6871 36.5034 38.2286 34.5946 39.194Z" fill="white"/>
</svg>
