<svg width="98" height="94" viewBox="0 0 98 94" fill="none" xmlns="http://www.w3.org/2000/svg">
<path d="M54.9983 45.6922C54.0008 44.4412 53.4732 42.8704 53.513 41.2679C53.5808 38.3798 55.4596 35.8417 58.187 34.9517C58.7278 34.7756 59.0535 34.2245 58.9489 33.6653L57.3987 25.4858C57.2823 24.8721 56.6885 24.4691 56.0755 24.5847C42.7758 27.1005 37.9512 43.9286 48.1509 53.062C48.3843 53.2722 48.6904 53.3679 48.9687 53.3493C49.7883 53.3049 49.5646 53.0107 54.9556 47.1517C55.324 46.7406 55.3417 46.1239 54.9983 45.6922ZM48.8464 50.5872C41.3284 42.6952 45.2104 29.8567 55.3932 27.0632L56.55 33.1643C51.5782 35.4276 49.6936 41.635 52.6672 46.3162L48.8464 50.5872Z" fill="#0A102F"/>
<path d="M60.6628 23.9002C60.0469 24.0019 59.6284 24.584 59.7301 25.2006L60.844 31.984C60.9295 32.5019 61.3598 32.8931 61.8829 32.9292C62.8038 32.9926 63.5583 33.123 64.2479 33.5496C64.4321 33.6638 64.6384 33.7191 64.8432 33.7191C65.6613 33.7191 65.5637 33.3104 70.416 28.7327C70.861 28.298 70.8728 27.5855 70.4411 27.1376C69.6395 26.3036 68.7112 25.6044 67.6841 25.0584C65.5475 23.9187 63.0587 23.509 60.6628 23.9002ZM64.6325 31.2119C64.0593 30.9739 63.4846 30.842 62.9379 30.7632L62.1584 26.0228C64.3595 25.9596 66.386 26.677 67.9788 27.948L64.6325 31.2119Z" fill="#0A102F"/>
<path d="M75.8694 37.0905L68.739 39.734C68.2351 39.9204 67.933 40.4347 68.0141 40.9659C68.6047 44.8714 65.5294 48.6665 61.342 48.6665C60.1764 48.6665 59.0757 48.3806 58.0707 47.8163C57.5963 47.5518 56.9965 47.6615 56.6458 48.08L51.3367 54.4707C50.9389 54.9511 51.0037 55.6628 51.4826 56.0636C61.4546 64.3825 76.8095 58.2219 78.2506 45.2663C78.5335 42.737 78.2123 40.14 77.3238 37.7558C77.1042 37.1701 76.4544 36.8761 75.8694 37.0905ZM76.002 45.0158C74.8123 55.7208 62.5234 61.1485 53.8285 55.0144L57.8173 50.2129C63.8097 52.7868 70.5922 48.2072 70.3363 41.5553L75.5541 39.6213C76.0477 41.3674 76.2024 43.2115 76.002 45.0158Z" fill="#0A102F"/>
<path d="M78.3899 24.5147C77.9036 24.125 77.1919 24.2016 76.7999 24.6878L70.228 32.8593C69.9466 33.2085 69.898 33.6911 70.1042 34.0889C70.5949 35.0349 70.9442 35.4239 71.4466 35.9846C71.7356 36.3087 72.1917 36.4437 72.621 36.3132L82.5084 33.302C83.0963 33.123 83.4337 32.5056 83.2672 31.9133C82.4091 28.8577 80.6619 26.3387 78.3899 24.5147Z" fill="#0A102F"/>
<path d="M86.9521 10.9716C57.6071 9.52741 31.4941 10.571 3.54637 10.537H3.5449C3.23841 10.537 2.94517 10.6607 2.73299 10.881C2.68031 10.9354 2.65323 11.0057 2.6129 11.0683C1.83073 12.0784 -0.0615408 13.1256 0.00153936 15.6227C0.39147 31.0638 0.998284 52.856 1.37081 68.2719C1.40323 69.6136 1.44504 70.9979 2.00267 72.2188C2.43156 73.1576 3.25056 73.975 4.21415 74.262C4.24878 74.3083 4.26932 74.3636 4.31113 74.4045C4.52332 74.6123 4.80771 74.7272 5.10241 74.7272C8.09652 74.7272 24.7065 74.2292 40.3665 73.2882C40.3686 73.3092 40.3605 73.3284 40.3638 73.3495C40.6134 74.927 40.6957 77.8589 40.6754 80.3076C34.9034 81.3915 30.5842 81.8679 25.4296 82.7918C24.8372 82.8982 24.3887 83.4705 24.5289 84.1369C24.5251 84.8599 24.454 85.69 24.4718 86.3789C28.4324 89.0539 33.1831 91.3836 37.5301 93.37C39.0543 94.0665 59.5849 90.8616 70.8056 89.6364C70.7459 88.6276 70.796 87.8779 70.7928 86.9644C71.1604 86.3136 70.8165 85.5576 70.1761 85.341C65.3637 83.7074 60.5115 81.3373 55.5897 79.6665C53.4713 78.9492 51.2577 79.4237 49.0656 79.5703C48.8476 71.7272 48.8845 72.858 48.8769 72.7414C62.3151 71.7996 75.4093 70.5652 88.0558 69.0321C88.6054 68.9658 89.0268 68.5119 89.0504 67.9594C89.7017 53.0768 88.7351 29.4054 88.0263 12.0554C88.0027 11.4704 87.5371 11.0004 86.9521 10.9716ZM46.862 82.3984C46.8679 83.0187 47.3733 83.5183 47.9937 83.5183H48.0055C48.6302 83.5124 49.1312 82.9996 49.1253 82.3748C49.1237 82.2065 49.1197 82.0143 49.1169 81.8334C55.113 81.455 52.0784 80.5914 64.7181 85.702C55.8144 86.5274 46.635 87.7807 37.7601 88.4384C34.9392 86.9683 32.0432 85.7374 29.2814 84.4407C32.7086 83.9003 36.4553 83.3866 40.6177 82.6195C40.6101 82.7819 40.604 82.9635 40.5951 83.1072C40.5572 83.7509 41.0639 84.3081 41.7268 84.3081C42.3191 84.3081 42.8187 83.8454 42.8555 83.2457C43.0074 80.7529 42.9868 75.657 42.6193 73.1473C43.9551 73.0634 45.2982 72.9862 46.6274 72.8966C46.6589 75.5427 46.8367 79.8697 46.862 82.3984ZM86.8283 66.9014C61.4852 69.9368 34.3813 71.7993 6.2326 72.4389C6.15208 34.4344 4.74047 18.1666 4.69277 12.801C29.2739 12.85 56.7233 11.808 85.8072 13.1819C86.4924 29.9594 87.3853 52.3503 86.8283 66.9014Z" fill="#0A102F"/>
<path d="M84.9509 8.71925C85.3738 8.71925 85.7775 8.48275 85.972 8.07753L89.0708 1.62203C89.3405 1.05841 89.1018 0.382801 88.5389 0.11241C87.9745 -0.160192 87.2997 0.0807292 87.0285 0.643614L83.9327 7.09764C83.5685 7.85463 84.1282 8.71925 84.9509 8.71925Z" fill="#0A102F"/>
<path d="M95.9705 5.938C95.6316 5.41564 94.9331 5.26313 94.4041 5.60572L89.2409 8.9624C88.7178 9.30352 88.569 10.0042 88.9094 10.528C89.2479 11.0496 89.9469 11.202 90.4757 10.8603L95.6389 7.50362C96.162 7.1625 96.3109 6.46184 95.9705 5.938Z" fill="#0A102F"/>
<path d="M96.6833 15.5137L91.7794 15.0083C91.1428 14.9486 90.602 15.3965 90.5372 16.0176C90.4738 16.6394 90.9247 17.1957 91.5466 17.2598C96.1685 17.7339 96.4773 17.7711 96.5698 17.7711C97.143 17.7711 97.6337 17.3372 97.6941 16.7551C97.7574 16.1333 97.3051 15.5778 96.6833 15.5137Z" fill="#0A102F"/>
<path d="M20.3744 42.5381C19.7865 41.9701 19.2013 42.3303 14.9416 42.3369C14.3271 42.3524 13.8379 42.8549 13.8379 43.4686V60.0936C13.8379 60.7184 14.3448 61.2253 14.9696 61.2253C16.5681 61.2253 18.0277 61.0366 19.8263 61.0366C20.464 61.0366 20.967 60.5132 20.9579 59.8888C20.5969 42.9537 21.0102 43.148 20.3744 42.5381ZM16.1012 58.9324V44.5722L18.4751 44.5133L18.6784 58.7954C17.6863 58.8301 16.9519 58.8953 16.1012 58.9324Z" fill="#0A102F"/>
<path d="M29.1118 37.9636L24.4908 38.1065C23.8808 38.1249 23.3945 38.6259 23.3945 39.2374V59.9669C23.3945 60.5917 23.9014 61.0986 24.5262 61.0986C26.0919 61.0986 27.5963 60.8643 29.3829 60.8643C30.0157 60.8643 30.5207 60.3471 30.5146 59.7194L30.2788 39.0812C30.2723 38.4136 29.6749 37.9143 29.1118 37.9636ZM25.6579 58.7984V40.3345L28.0288 40.2615L28.238 58.6275C27.2475 58.672 26.5155 58.7489 25.6579 58.7984Z" fill="#0A102F"/>
<path d="M38.9818 34.1265C38.3886 33.5572 38.0859 33.9245 33.5386 33.9828C32.9301 34.0049 32.4482 34.5052 32.4482 35.1137V59.5897C32.4482 60.2144 32.9551 60.7213 33.5799 60.7213C35.21 60.7213 36.6253 60.4443 38.4366 60.4443C39.0607 60.4443 39.5745 59.935 39.5683 59.3023C39.1924 33.6192 39.6337 34.7479 38.9818 34.1265ZM34.7116 58.4138V36.2049L37.081 36.1187L37.2947 58.2119C36.2316 58.2674 35.5713 58.3557 34.7116 58.4138Z" fill="#0A102F"/>
<path d="M82.9367 19.856C82.9367 19.2313 82.4298 18.7244 81.805 18.7244H7.67659C7.05181 18.7244 6.54492 19.2313 6.54492 19.856C6.54492 20.4808 7.05181 20.9877 7.67659 20.9877H81.805C82.4298 20.9877 82.9367 20.4808 82.9367 19.856Z" fill="#0A102F"/>
<path d="M11.4537 18.2758C12.9461 18.2758 14.0605 16.6502 13.4871 15.2661C12.9184 13.8965 10.9977 13.5502 9.97279 14.5971C8.54778 15.2672 9.31963 18.2758 11.4537 18.2758Z" fill="#0A102F"/>
<path d="M20.77 17.6982C22.4435 16.9362 21.9636 14.1114 19.9581 14.0586C18.4561 13.4843 16.9973 16.1303 18.6422 17.4801C19.3612 18.0712 20.2961 18.0409 20.77 17.6982Z" fill="#0A102F"/>
<path d="M28.1039 17.7688C28.4998 17.7688 28.9736 17.6394 29.2562 17.3621C30.709 16.3715 30.0808 14.0529 28.4045 13.7615C27.0881 13.5347 25.8551 14.7384 26.0557 16.0595C26.1485 16.6806 27.0995 17.7688 28.1039 17.7688Z" fill="#0A102F"/>
</svg>
