<svg width="98" height="88" viewBox="0 0 98 88" fill="none" xmlns="http://www.w3.org/2000/svg">
<path d="M97.1557 81.059C96.9059 80.123 89.2419 69.7447 84.6554 62.8352C84.5435 62.667 84.387 62.5566 84.2179 62.474C84.6418 60.2576 83.9687 57.3987 83.0704 55.8708C93.287 41.3993 82.9954 19.5856 64.2707 21.3272C63.8088 19.8215 63.1874 18.1908 62.9235 17.515C60.9516 12.37 55.751 7.20649 49.0302 3.71144C49.0189 3.70529 49.0079 3.7004 48.9966 3.69425C48.9953 3.69354 48.9946 3.6922 48.9932 3.69149C48.9919 3.69087 48.9904 3.69105 48.9892 3.69042C48.1356 3.22807 47.291 2.8212 46.4862 2.4861C39.9492 -0.306517 32.8579 -0.741083 24.8056 1.15534C24.78 1.15961 24.7543 1.16531 24.7287 1.17101C24.359 1.25507 23.9899 1.37191 23.6872 1.48874C23.212 1.64262 22.7966 1.79507 22.3991 1.9575C22.3514 1.97317 22.2759 2.00452 22.2011 2.04014C17.5675 3.81892 13.4151 6.65482 10.1469 10.2254C-8.69799 28.6872 -0.0693647 60.8245 25.9226 67.6297C35.3294 70.0836 44.2916 68.5578 52.3846 62.8946C58.5128 66.9569 66.1408 67.3665 72.239 64.8885C72.425 66.5749 74.1267 67.9408 75.8133 67.7576C77.9303 72.9095 81.7391 77.1996 85.1386 81.6118C86.1964 82.9847 88.2807 85.8784 89.9356 86.4477C90.5862 87.1225 93.607 87.3766 95.4618 86.2035C96.8517 85.3258 97.5855 83.5006 97.6966 82.0801C97.7307 81.6493 97.5042 81.2649 97.1557 81.059ZM81.8414 62.8267C80.2077 65.8762 75.8964 66.165 73.8559 63.304C76.827 62.0425 79.4494 60.146 81.5584 57.7756C82.1841 59.3745 82.4428 61.7037 81.8414 62.8267ZM66.3587 23.4108C78.7253 23.4108 86.8649 35.3395 84.4644 47.2493C81.8074 60.4202 66.973 66.9134 55.3008 60.1452H55.3001C43.6709 53.4253 42.6193 35.8113 54.1702 27.4216C57.7543 24.8171 62.1135 23.4108 66.3587 23.4108ZM62.0768 21.6449C55.5642 22.9196 49.9793 26.9315 46.8313 32.2358C40.5513 40.8925 41.4623 53.2291 49.8261 60.8904C23.5245 75.4296 -4.83262 48.196 5.68144 21.4006C35.745 35.2844 33.9981 34.6183 34.4587 34.6183C34.7237 34.6183 34.9866 34.5215 35.1918 34.3362C35.2122 34.3179 35.2243 34.2938 35.243 34.2742C35.3922 34.2392 35.538 34.1841 35.6669 34.084C43.2814 28.1431 51.8152 22.4129 59.8591 16.1818C60.7524 17.7304 61.5346 19.9399 62.0768 21.6449ZM58.6524 14.3496C51.7111 19.7375 44.7253 24.4723 36.6943 30.5657L48.9716 6.16879C52.366 8.07847 56.1137 10.9412 58.6524 14.3496ZM45.6356 4.50221C46.0896 4.69099 46.5591 4.91139 47.036 5.14738L34.4567 30.1446L25.4204 3.79345C25.3747 3.62648 25.3262 3.46023 25.2807 3.29308C32.8683 1.49862 39.526 1.89223 45.6356 4.50221ZM94.2935 84.3541C93.6277 84.7744 92.0753 85.0135 91.0843 84.666C86.3602 77.5628 83.6785 74.1446 79.1153 67.3342C80.7526 66.9748 82.2503 66.0183 83.25 64.6724C88.0207 71.816 90.392 74.7021 95.1996 81.9447C95.2691 82.0494 95.3703 82.1122 95.4648 82.1842C95.3215 83.0979 94.8545 83.9995 94.2935 84.3541Z" fill="#0A102F"/>
<path d="M67.2883 59.1621C83.3692 57.8512 87.5909 34.5279 71.5663 28.0629C71.5587 28.0595 71.5513 28.0569 71.5437 28.054C71.5429 28.0536 71.5422 28.0533 71.5414 28.0529C71.5411 28.0528 71.5409 28.0528 71.5407 28.0527C71.5335 28.0501 71.5264 28.0469 71.5193 28.0444L71.3533 27.9817C71.3512 27.9802 71.3505 27.9874 71.3448 27.9774C61.6691 24.349 51.6055 30.3403 49.6656 39.8674C47.5242 50.4808 56.2295 60.2602 67.2883 59.1621ZM66.2525 57.0392C66.2488 57.0392 66.2452 57.0392 66.2418 57.0392C61.7641 57.3064 58.4885 55.1169 58.3384 55.0715C58.0062 54.8424 57.1992 54.392 56.0891 53.3747C58.987 48.5983 59.9576 46.9985 59.8651 47.151C63.6061 49.6517 64.0539 50.5528 64.9809 50.2371C66.2582 49.805 65.4352 48.0134 70.0304 38.4454C71.8719 40.6909 73.5596 43.0803 75.0606 45.5666C75.5343 46.3507 76.6457 46.2272 76.9955 45.4498C77.5883 44.1294 78.4333 42.9427 79.4612 41.9343C80.0579 49.5799 74.4636 56.5953 66.2525 57.0392ZM51.8107 40.302C53.5402 31.8104 62.5145 27.2002 69.7347 29.7498C69.885 29.8476 76.9759 31.7672 79.0309 39.4043C77.8128 40.3677 76.7571 41.5178 75.9284 42.8253C74.3262 40.3433 72.5437 37.9681 70.6153 35.7454C70.1031 35.1566 69.1629 35.2767 68.8129 35.9677C66.9464 39.6551 65.3463 43.5078 64.0462 47.4402C60.2689 44.8816 60.1116 44.3258 59.318 44.5051C59.0202 44.5664 58.7609 44.7502 58.6034 45.0095L54.5464 51.71C52.0631 48.5471 50.9872 44.3827 51.8107 40.302Z" fill="#0A102F"/>
<path d="M64.9042 12.3956L67.8436 5.59646C68.0836 5.04079 67.8279 4.39677 67.2736 4.15741C66.7172 3.91661 66.0747 4.17308 65.8346 4.72733L62.8952 11.5265C62.3206 12.8531 64.33 13.7223 64.9042 12.3956Z" fill="#0A102F"/>
<path d="M69.3006 17.005C70.2458 17.005 70.2293 16.292 74.992 10.7601C75.3781 10.2956 75.314 9.60599 74.8488 9.21987C74.3836 8.83374 73.6926 8.89928 73.3079 9.36377L68.4585 15.2126C68.0731 15.6785 68.1379 16.3681 68.6031 16.7528C68.8076 16.9224 69.0548 17.005 69.3006 17.005Z" fill="#0A102F"/>
<path d="M75.0464 20.3333C75.2628 20.3333 74.7788 20.4133 81.6162 18.8458C82.2046 18.7104 82.5722 18.122 82.4361 17.5335C82.3001 16.9451 81.7138 16.5746 81.1232 16.7143L74.8013 18.1733C73.5413 18.4628 73.7481 20.3333 75.0464 20.3333Z" fill="#0A102F"/>
</svg>
