<svg width="22" height="22" viewBox="0 0 22 22" fill="none" xmlns="http://www.w3.org/2000/svg">
<path fill-rule="evenodd" clip-rule="evenodd" d="M6.14722 2.49154C6.9832 2.42483 7.77684 2.09609 8.41515 1.55213C9.90469 0.282752 12.0955 0.282752 13.585 1.55213C14.2234 2.09609 15.017 2.42483 15.853 2.49154C17.8038 2.64722 19.353 4.19636 19.5087 6.14722C19.5754 6.9832 19.9041 7.77684 20.4481 8.41515C21.7174 9.90469 21.7174 12.0955 20.4481 13.585C19.9041 14.2234 19.5754 15.017 19.5087 15.853C19.353 17.8038 17.8038 19.353 15.853 19.5087C15.017 19.5754 14.2234 19.9041 13.585 20.4481C12.0955 21.7174 9.90469 21.7174 8.41515 20.4481C7.77684 19.9041 6.9832 19.5754 6.14722 19.5087C4.19636 19.353 2.64722 17.8038 2.49154 15.853C2.42483 15.017 2.09609 14.2234 1.55213 13.585C0.282752 12.0955 0.282752 9.90469 1.55213 8.41515C2.09609 7.77684 2.42483 6.9832 2.49154 6.14722C2.64722 4.19636 4.19636 2.64722 6.14722 2.49154ZM15.8193 9.31934C16.327 8.81165 16.327 7.98854 15.8193 7.48086C15.3117 6.97318 14.4885 6.97318 13.9809 7.48086L9.7001 11.7616L8.01934 10.0809C7.51165 9.57318 6.68854 9.57318 6.18086 10.0809C5.67318 10.5885 5.67318 11.4117 6.18086 11.9193L8.78086 14.5193C9.28854 15.027 10.1117 15.027 10.6193 14.5193L15.8193 9.31934Z" fill="#A259FF"/>
</svg>
