<svg width="98" height="100" viewBox="0 0 98 100" fill="none" xmlns="http://www.w3.org/2000/svg">
<path d="M87.0178 22.4645C84.365 20.193 80.2506 19.0033 76.281 19.3506C75.5371 19.4139 76.3732 18.9407 47.6434 45.852C41.4318 38.4033 39.7083 35.4208 39.2769 34.2565C40.1405 31.5171 40.6662 27.9188 39.9961 25.0892C38.9128 20.4886 34.9018 16.4156 29.7795 14.7116C25.2409 13.1879 21.1753 12.4312 16.1195 13.6963C15.6318 13.7982 15.1248 13.9386 14.6091 14.1115C14.1834 14.1677 13.8095 14.4707 13.6662 14.8889C13.6496 14.9368 13.6655 14.9868 13.6563 15.0358C13.6553 15.0353 13.6445 15.0225 13.6446 15.0235C13.6446 15.0669 13.6486 15.1019 13.6489 15.1447C13.5863 15.8946 14.0131 19.2077 14.1124 20.4263C14.2225 20.5781 12.8816 19.1371 21.8744 28.9675C19.4446 32.4948 15.4754 35.3691 14.4173 37.4642C11.0396 34.8331 2.64506 28.0713 2.14166 27.8145C1.93919 27.544 1.61701 27.3652 1.2505 27.3593C1.24459 27.3593 1.23868 27.3593 1.23277 27.3593C0.613533 27.3593 0.108098 27.8558 0.097753 28.4765L0.0859299 28.7041C-0.17398 32.8107 0.123478 38.2321 1.42295 42.5536C2.3778 47.8375 3.57213 50.9268 8.41434 53.3227C15.1916 56.7115 19.0798 53.9594 22.393 55.5496C25.5508 56.9082 28.3445 58.9555 30.8524 61.2767L29.376 62.6599C24.2537 67.463 19.3235 72.0844 14.8293 76.2564C14.5903 76.4785 14.4745 76.7787 14.4723 77.0806C14.1301 78.9938 10.5696 93.0846 8.91626 97.6014C8.57268 98.535 9.52133 99.4276 10.4281 99.035C14.1282 97.4504 26.2582 93.3837 29.9317 92.0535C30.1881 91.9609 46.2997 76.7485 46.4341 76.5968C46.5503 76.7394 63.3832 92.3303 65.1334 94.0795C66.9628 95.9463 71.6321 99.2916 74.8282 97.071C74.9254 97.0909 75.0388 97.1156 75.1253 97.0975C75.1637 97.1004 75.2361 97.1034 75.2997 97.1034C75.3396 97.1034 75.3765 97.1019 75.4002 97.1004C76.7273 96.9748 78.6633 95.2959 81.056 93.1116C81.56 92.652 81.9841 92.2648 82.262 92.0402C83.4901 91.0396 85.0168 89.7938 85.5606 87.8814C86.434 84.6389 85.1601 83.5867 83.8108 82.4739C83.53 82.2418 83.2226 81.9891 82.9108 81.6965C80.9201 79.7885 77.8623 77.0013 74.9051 74.3071C68.9842 68.9125 69.242 69.1347 62.7235 62.9488L62.0191 62.1824C68.2255 56.4416 84.091 41.248 90.2854 35.5571C90.5822 35.2841 90.6901 34.7833 90.7214 34.3733C91.7365 29.2105 89.7402 24.6002 87.0178 22.4645ZM72.2674 25.8424L77.3033 30.1034C72.7556 35.059 58.747 48.4195 53.767 52.9792C52.3026 51.3224 50.7211 49.494 49.1072 47.5913C49.2632 47.4451 72.0978 26.003 72.2674 25.8424ZM15.3524 41.0636C15.8181 41.4204 16.5634 41.265 16.95 40.8893C19.9543 37.967 25.6185 31.5408 28.1509 29.1401C28.9614 28.5461 28.8143 27.1658 27.7385 26.9676C24.3006 24.0121 19.4409 18.9058 16.8288 15.8584C21.3127 14.781 24.8404 15.4461 29.0598 16.8648C33.455 18.3265 36.8792 21.7581 37.7867 25.6139C38.5098 28.6014 37.5168 33.448 36.093 36.0714C34.727 38.5882 33.0228 41.2756 30.9662 43.2509C27.8703 46.2209 24.5833 48.7743 20.0417 50.293C16.0426 51.6261 10.035 50.2487 6.63885 47.2161C2.82225 43.844 2.22635 35.8507 2.29388 30.7584C5.84559 33.4771 6.33098 34.0888 15.3524 41.0636ZM32.4837 62.8587C33.695 64.0519 35.5181 65.8493 37.4715 67.7761C32.4231 72.4054 27.5196 76.7775 22.8586 80.8102C21.794 78.3714 19.4628 77.7617 16.8267 77.4976C21.5652 73.0967 27.0256 67.9751 32.4837 62.8587ZM21.2398 92.6799C21.1344 92.2418 20.7775 91.8705 20.29 91.3145C19.2432 90.1297 14.6489 86.6154 14.4974 86.5127C15.1844 83.8993 15.8005 81.4452 16.2162 79.6957C16.9349 79.8287 18.5741 79.8359 19.7624 80.5497C20.4984 80.9915 21.1191 81.9063 20.8856 82.6704C20.6692 83.3761 21.1727 84.0929 21.9039 84.1365C23.3729 84.2222 24.7843 84.8931 25.7789 85.9764C26.8219 87.1138 27.6351 89.101 27.6317 90.4601C25.8161 91.0966 23.4879 91.8992 21.2398 92.6799ZM29.7756 89.1728C29.2314 86.2966 27.4586 83.5874 24.4717 82.4155C31.8241 76.0496 37.03 71.2382 39.0924 69.3733C41.2279 71.4745 43.3477 73.55 44.8188 74.9884C36.3251 83.0149 32.0464 87.0539 29.7756 89.1728ZM81.3487 83.3428C81.7078 83.6813 82.0521 83.965 82.3669 84.2251C83.5743 85.2227 83.8625 85.4592 83.3719 87.2755C83.029 88.4874 81.86 89.4406 80.8344 90.2756C80.5388 90.5135 80.0762 90.9332 79.5264 91.4342C78.5481 92.3284 75.9485 94.7004 75.2775 94.8334C75.2421 94.8304 75.1933 94.8275 75.1342 94.826C74.5726 94.7343 73.5898 93.6407 73.2011 93.2092L72.74 92.6875C72.3942 92.2944 72.069 91.9249 71.7646 91.6219C65.5636 85.5637 71.7268 90.0332 51.9285 71.0986C51.0439 70.256 37.2588 57.1179 37.2517 57.1119C33.8775 54.2877 29.9401 51.6931 25.751 50.1864C27.9515 48.9116 30.0917 47.2363 32.5387 44.8884C34.7624 42.7527 36.697 39.7843 38.1452 37.0303C43.1976 45.4441 62.5017 65.9633 61.1072 64.5328C61.118 64.5437 61.1215 64.5586 61.1327 64.5693L61.5554 64.9713C70.4095 73.3771 78.0817 80.2125 81.3487 83.3428ZM60.4895 60.5053C59.0835 58.9515 57.2751 56.94 55.2724 54.6793C58.8849 51.3736 71.9055 39.0706 79.0373 31.5704L85.4365 36.9849C79.186 42.7738 67.1933 54.3009 60.4895 60.5053ZM88.4528 34.1605C88.0132 34.568 87.5611 34.9972 87.1078 35.4265L73.9363 24.2818C74.2315 24.0062 72.8669 25.28 76.8234 21.5867C80.8769 21.3059 84.5499 22.9109 86.3601 24.9725C87.7917 26.6054 88.5731 28.766 88.6834 30.751C88.8285 32.5314 88.4992 33.8171 88.4528 34.1605Z" fill="#0A102F"/>
<path d="M70.9565 15.229C71.0984 15.7285 71.5536 16.0551 72.0487 16.0551C72.8003 16.0551 73.3448 15.335 73.1408 14.6112L69.7594 2.65666C69.5895 2.05516 68.9658 1.70195 68.3584 1.87338C67.7554 2.04334 67.4052 2.67144 67.5751 3.27441L70.9565 15.229Z" fill="#0A102F"/>
<path d="M82.7441 13.6431C83.2909 13.6431 83.7727 13.247 83.8628 12.6914L85.719 1.32055C85.8195 0.701319 85.3998 0.117556 84.7821 0.0170606C84.1555 -0.0923025 83.5791 0.336283 83.4786 0.954036L81.6224 12.3248C81.5107 13.0131 82.0391 13.6431 82.7441 13.6431Z" fill="#0A102F"/>
<path d="M97.3581 9.8701C96.9118 9.43265 96.1935 9.43856 95.7531 9.88784L89.9761 15.792C89.5371 16.2398 89.546 16.958 89.9938 17.3969C90.4428 17.8369 91.1639 17.8257 91.5988 17.3792L97.3758 11.4751C97.8148 11.0273 97.8059 10.309 97.3581 9.8701Z" fill="#0A102F"/>
</svg>
