<svg width="98" height="100" viewBox="0 0 98 100" fill="none" xmlns="http://www.w3.org/2000/svg">
<path d="M96.912 18.4573L88.4108 15.5878L93.514 10.5521C94.618 9.46389 94.989 7.80939 94.4596 6.33738C93.8428 4.62406 92.8881 3.00048 90.0979 2.72447C88.9592 2.60834 87.7904 3.05703 86.9518 3.9152L82.8414 8.1279C82.5952 5.92602 82.2402 3.71678 81.5947 0.899547C81.4078 0.0924694 80.4648 -0.263128 79.7893 0.217084C74.7562 3.8271 70.1258 5.29795 69.3752 10.1901C69.161 9.92992 68.9454 9.68107 68.7297 9.44956C68.3722 9.06798 67.8051 8.97523 67.3436 9.21579C60.7784 12.6718 60.7784 13.7706 60.7784 14.2396C60.7784 15.5901 66.7137 24.2562 66.8644 24.5026C66.7129 24.6586 60.5209 31.0359 60.9153 30.6298C45.4008 18.6768 26.0771 17.7519 14.3208 27.7328C14.4526 27.5915 14.5677 27.4345 14.7023 27.296C13.8671 27.7563 12.7577 28.2305 11.6408 29.1341C3.75216 35.5167 0.18469 44.5313 0.00926725 54.1799C-0.173037 64.2098 2.31786 74.2174 8.9451 81.7167C15.8748 89.5582 22.8687 95.123 32.4698 97.947C41.7705 100.682 51.5884 101.294 61.1008 95.941C69.4581 91.2379 77.623 81.7078 78.4644 71.978C81.6396 60.0508 76.8084 46.6699 68.297 37.143C70.1406 35.0695 71.9721 32.998 73.8161 30.9244C78.34 33.635 83.8674 35.1878 84.5975 35.1878C84.9519 35.1878 85.2943 35.0242 85.516 34.7354C89.7009 29.3182 89.8968 29.1132 89.7178 28.4107C89.5558 27.7761 89.1074 27.7208 88.5792 27.2999C90.3181 27.2034 92.0737 26.9855 92.5201 26.6876C93.692 25.9063 94.9513 24.1312 97.5122 20.185C97.9264 19.5461 97.6211 18.6963 96.912 18.4573ZM39.3419 52.757C39.1709 54.9234 43.2041 58.6795 45.3551 58.3431C45.657 58.4937 45.9674 58.536 46.3223 58.3842C47.8086 58.5054 50.3209 56.2383 51.6821 55.8638C51.8774 55.6429 52.0751 55.4215 52.2706 55.2006C54.5647 61.9492 50.1883 66.7813 43.2284 64.6056C31.3207 60.8811 29.0546 44.545 39.7691 45.0326C41.3754 45.155 43.1149 45.7774 44.8757 46.8569C39.6773 52.0147 39.3212 51.9292 39.3419 52.757ZM46.748 45.0388C38.7845 40.0282 31.7009 43.6135 30.6607 49.793C29.5588 56.3353 34.7014 63.4771 40.9184 66.2174C50.743 70.5536 58.2817 62.9885 53.9941 53.2585C56.2319 50.7305 58.4833 48.2001 60.7283 45.6708C67.7092 55.0967 68.4011 66.5066 62.175 73.4977C54.6476 81.9603 39.6032 80.9151 28.6446 71.1721C17.7026 61.4215 14.9275 46.6057 22.4595 38.1432C29.5574 30.1707 42.7361 30.335 53.3784 38.4013L50.0687 41.8141L46.748 45.0388ZM92.2788 7.12165C92.3898 7.42857 92.407 7.75302 92.3433 8.05815C91.4685 8.28117 90.452 8.01252 89.8445 7.33657C89.432 6.8792 89.1391 6.27865 89.731 5.03288C91.2441 5.02976 91.8107 5.81817 92.2788 7.12165ZM63.3122 14.3987C64.0859 13.7841 65.8626 12.6681 67.6181 11.6998C68.5114 12.7934 69.4469 14.1566 70.3842 15.1581C71.3144 16.1532 72.9058 14.988 72.2408 13.8015C71.0885 11.7405 71.5711 8.9971 73.3659 7.41952C75.1141 5.88211 77.2735 4.69861 79.7004 3.09021C80.2524 5.78359 80.5201 7.94805 80.7261 10.2958L68.5312 22.7943C66.1443 19.0815 66.5067 20.3463 63.3122 14.3987ZM87.1584 7.02588C87.4916 8.64493 88.8393 9.85163 90.4867 10.2859L70.8487 29.6648C36.4114 65.4796 48.2888 53.127 45.7194 55.7992C45.0529 54.5767 43.8353 53.3084 42.4024 52.488L51.7066 43.452C59.1495 35.8046 82.2171 12.103 87.1584 7.02588ZM71.6586 80.4566C60.3492 94.492 38.0279 91.9464 23.2618 80.0192C5.17567 65.4524 3.20672 44.2463 12.5174 32.8252C22.7222 20.1364 43.1181 19.9867 59.2881 32.3076L55.0054 36.7237C43.3449 27.7455 28.6944 27.6535 20.728 36.6033C12.3485 46.019 15.208 62.3023 27.1047 72.902C33.5221 78.6075 41.2728 81.5184 48.3674 81.5184C67.7088 81.5184 75.2357 60.9201 62.2878 43.9136C63.7767 42.2372 65.2606 40.5615 66.7513 38.8847C77.2827 50.8106 81.2803 68.5713 71.6586 80.4566ZM91.3467 24.6794C90.5639 24.8536 87.1479 25.1899 85.4888 24.9901C84.2175 24.8364 83.6751 26.5749 84.8162 27.168C85.4663 27.5064 86.2314 28.3594 86.979 28.9831C86.1498 30.1237 85.0241 31.5817 84.142 32.7242C81.1181 31.9419 77.9999 30.6603 75.3886 29.1526C86.2691 16.9148 76.7768 27.5634 86.5646 17.4095L94.7537 20.1737C93.1008 22.6871 92.0556 24.1342 91.3467 24.6794Z" fill="#0A102F"/>
<path d="M42.221 16.2441C43.1978 16.2441 43.7508 15.085 43.0987 14.3295L37.0267 7.28764C36.6074 6.80351 35.8759 6.74997 35.3933 7.16699C34.9077 7.58476 34.8534 8.31624 35.2712 8.80037C41.5096 15.8092 41.2601 16.2441 42.221 16.2441Z" fill="#0A102F"/>
<path d="M48.8104 14.1695C49.4498 14.1416 49.946 13.6009 49.9174 12.9614L49.5238 3.93706C49.4951 3.29682 48.8918 2.79308 48.3172 2.83004C47.6777 2.85794 47.1815 3.39863 47.2102 4.03811L47.6038 13.0625C47.632 13.7078 48.1804 14.1981 48.8104 14.1695Z" fill="#0A102F"/>
<path d="M56.6048 11.7066C57.0648 11.7066 57.4992 11.4313 57.6802 10.9788L60.1416 4.82612C60.3799 4.23264 60.0903 3.55847 59.496 3.32093C58.9063 3.08339 58.2292 3.37221 57.9909 3.96644L55.5295 10.1177C55.2239 10.8795 55.7886 11.7066 56.6048 11.7066Z" fill="#0A102F"/>
</svg>
