<svg width="98" height="90" viewBox="0 0 98 90" fill="none" xmlns="http://www.w3.org/2000/svg">
<path d="M10.0536 67.0486C12.0127 68.7398 14.9464 68.3963 17.4965 67.9553C18.5252 67.7774 19.6225 67.5466 20.5787 67.1244C20.2567 69.8566 19.935 72.5887 19.6289 75.3145C19.3859 77.4777 19.5057 79.9435 20.8348 81.6675C21.4739 82.4966 23.9469 83.3443 26.1361 83.5609C83.032 89.19 84.56 90.2654 87.738 89.1844C90.2408 88.3331 92.5518 85.5626 92.5828 82.9149C92.6952 82.3607 95.9019 52.8129 97.6765 36.6664C97.7892 35.635 97.4931 34.6212 96.8418 33.8122C96.1912 33.0033 95.2636 32.4964 94.2315 32.3859H94.2307L75.9502 30.4322L71.1025 3.20008C70.7431 1.08774 68.7291 -0.318712 66.6032 0.0629776L5.66176 11.048C4.64135 11.2329 3.75356 11.8039 3.16342 12.6571C2.90574 13.0292 2.73187 13.4387 2.61804 13.8624C1.36049 15.6129 0.0609471 17.4646 0.00219081 19.5645C-0.118084 23.8579 4.74164 48.0753 7.75239 62.0148C8.14922 63.8519 8.63079 65.8205 10.0536 67.0486ZM90.4033 82.3261C90.3068 83.2043 89.5207 83.8482 88.6336 83.7613C23.7656 77.0808 26.8573 78.0025 26.0485 77.0067C25.2434 76.0128 25.708 77.3261 29.5881 39.3964L94.3435 46.3171L90.4033 82.3261ZM95.4265 36.4203L94.5898 44.0662L29.8288 37.1449L30.6466 29.4934C30.7357 28.6645 31.4386 28.0479 32.2549 28.0479C32.4354 28.0479 29.0241 27.6966 93.9898 34.6374C94.8889 34.7327 95.5233 35.5395 95.4265 36.4203ZM32.6682 25.8067C30.9696 25.6134 29.4103 26.5869 28.7358 28.0741C26.5183 30.543 24.8408 31.2487 24.5816 33.5322C23.5412 42.6995 22.4005 51.9068 21.2944 61.1003L14.9169 62.2952C14.4903 62.3762 14.0585 62.2878 13.7005 62.0403C13.3432 61.7942 13.1037 61.4229 13.0271 60.9926L6.53251 24.9536L70.6191 13.3969L73.6068 30.1818L32.6682 25.8067ZM5.02446 13.9449C5.27054 13.5898 5.63965 13.3518 6.06402 13.2752C70.4792 1.84313 67.1825 1.82263 68.2233 2.55616C69.1515 3.20651 68.749 3.70467 70.2223 11.168L6.13098 22.7256C4.92342 15.1892 4.36594 14.8979 5.02446 13.9449Z" fill="#0A102F"/>
<path d="M67.7991 55.8573C71.141 49.9519 65.2849 43.0258 58.4916 44.7441C54.1038 45.8554 51.6955 50.1368 52.9122 54.176C54.9008 60.7724 64.3791 61.9031 67.7991 55.8573ZM59.0479 46.9367C64.0154 45.6803 68.1593 50.6247 65.8297 54.7433C63.4138 59.0078 56.5093 58.2735 55.0797 53.5218C54.237 50.727 55.9054 47.7355 59.0479 46.9367Z" fill="#0A102F"/>
<path d="M71.9345 71.8774C66.5381 55.4436 44.9866 57.9902 40.5863 73.8917C40.3989 74.5699 40.8691 75.2546 41.5677 75.3195C41.7205 75.3344 71.9715 78.2842 72.1459 78.2842C72.7147 78.2842 73.2039 77.8569 73.2687 77.2793C73.3292 76.7473 73.1626 76.2257 73.0286 75.8058C72.7693 74.9878 72.5707 73.8133 71.9345 71.8774ZM43.176 73.2021C46.8377 62.9415 59.8514 59.1918 67.0505 67.4908C69.1281 69.8885 69.9229 72.7485 70.6975 75.8721L43.176 73.2021Z" fill="#0A102F"/>
<path d="M11.2978 19.1716C12.4979 17.753 11.333 15.8199 9.70342 16.0544C8.94472 15.9337 7.92715 16.7296 7.95363 17.9876C7.97785 19.091 10.1113 20.573 11.2978 19.1716Z" fill="#0A102F"/>
<path d="M18.3278 17.5441C19.5244 16.1277 18.3736 14.2056 16.732 14.4284C15.9636 14.3136 14.9566 15.1098 14.9829 16.3602C15.0218 18.2065 17.1439 18.9446 18.3278 17.5441Z" fill="#0A102F"/>
<path d="M24.3165 16.6282C25.7289 16.6282 26.8062 15.0035 26.0913 13.7209C25.7382 13.0854 24.9832 12.6744 24.2281 12.7823C23.4545 12.6688 22.4528 13.467 22.479 14.7126C22.5013 15.8174 23.3221 16.6282 24.3165 16.6282Z" fill="#0A102F"/>
<path d="M35.7875 35.187C37.3327 34.1633 36.773 31.981 35.1303 31.7463C34.9549 31.6667 34.7538 31.627 34.5519 31.6505C32.8435 31.8156 32.2055 34.1957 33.5919 35.1943C33.9058 35.4227 35.0718 35.6591 35.7875 35.187Z" fill="#0A102F"/>
<path d="M41.8572 35.9518C43.0545 35.9518 44.1377 34.8269 43.8582 33.5868C43.6976 32.8765 43.0941 32.2763 42.3346 32.1619C41.6266 31.8374 40.4367 32.3157 40.1111 33.5279C39.7636 34.8192 40.6542 35.9518 41.8572 35.9518Z" fill="#0A102F"/>
<path d="M50.6465 36.1272C51.9163 35.2878 51.8244 33.5735 50.5875 32.8913C50.3989 32.7882 50.1963 32.7204 49.9915 32.6895C49.2806 32.3623 48.0951 32.8474 47.7694 34.0495C47.5491 34.8599 47.8166 35.6792 48.4517 36.139C49.1033 36.6101 49.972 36.5749 50.6465 36.1272Z" fill="#0A102F"/>
</svg>
