<svg width="98" height="95" viewBox="0 0 98 95" fill="none" xmlns="http://www.w3.org/2000/svg">
<path d="M71.6648 30.7348C68.1347 29.4981 63.8232 29.9861 60.9631 30.8542C51.0202 33.8601 45.3127 44.8178 49.4968 54.8764C49.7335 55.446 50.389 55.7169 50.9592 55.4795C51.5295 55.2421 51.7997 54.588 51.5623 54.0171C49.228 48.4058 50.4279 42.4879 53.8134 38.2508C58.5916 32.33 67.1362 30.7114 72.7951 33.6451C77.2501 35.8897 80.6185 40.2376 81.5871 44.9963C84.213 57.6832 71.2018 68.2981 59.5852 62.5658C59.0295 62.2862 58.3602 62.5178 58.0864 63.0727C57.8125 63.6262 58.0398 64.2977 58.5933 64.5701C71.9503 71.1734 86.779 59.0345 83.7786 44.5463C82.5749 38.6312 78.0563 33.0101 71.6648 30.7348Z" fill="#0A102F"/>
<path d="M97.053 86.5255L88.7329 71.5037C88.0629 70.2947 86.9624 69.4193 85.6347 69.0376C85.2837 68.9362 84.9284 68.878 84.5729 68.8516C83.8737 67.5582 83.0863 66.1165 82.2375 64.885C89.2092 58.2055 91.2288 48.0694 87.5082 39.2487V4.20684C86.7018 3.47135 85.8954 2.73585 85.0891 2.00027C84.907 1.70194 84.6019 1.48618 84.232 1.45733C58.6964 -0.485775 31.0167 -0.485775 1.9634 1.45733C1.40407 1.49374 0.95835 1.94092 0.921935 2.50025C-0.307433 21.455 -0.307433 38.7404 0.922664 55.3427C0.952615 55.7465 1.19741 56.0868 1.5419 56.258C1.87828 57.3752 2.46584 58.4167 3.27225 59.2601C17.317 59.7353 31.1409 60.4626 45.1655 60.9608C51.8818 72.5648 65.9634 75.1033 75.9394 69.9309C76.3449 70.6115 76.6994 71.0554 77.1049 71.736C75.5848 73.8692 76.8235 76.7523 78.1043 79.0373C80.3087 82.9698 82.5747 86.8678 84.9012 90.7295C85.6789 92.0203 86.5012 93.3477 87.75 94.1913C88.611 94.7731 89.7315 95.0474 90.7279 94.8552C92.917 95.0983 94.0736 94.0058 95.0334 93.5594C97.5293 92.1771 98.4353 89.0207 97.053 86.5255ZM82.2424 69.2482C82.0604 69.3237 81.8746 69.3864 81.6997 69.4834C80.5779 70.1327 80.8637 69.8892 80.0319 70.4649C79.5495 69.6833 79.1303 68.9687 78.4323 67.8387C79.1652 67.3852 79.8632 66.8893 80.5348 66.3621C81.1301 67.2534 81.7067 68.2655 82.2424 69.2482ZM37.9131 37.9927C37.9602 37.9551 38.0163 37.9344 38.0579 37.8883C38.369 37.543 38.7698 37.4399 38.9501 37.3421C39.0098 37.3377 39.0695 37.3304 39.13 37.3158C40.4453 37.0158 42.0126 37.9771 42.3519 39.2837C42.6899 40.5917 41.7853 42.1867 40.4904 42.5683C39.1962 42.9543 37.5707 42.0993 37.1468 40.8161C36.8333 39.8664 37.1919 38.7159 37.9131 37.9927ZM85.8671 55.3398C81.7988 66.5411 69.2589 72.0034 58.4029 67.5548C52.7979 65.2942 48.4558 60.7161 46.4887 54.9902C41.8742 41.6566 51.7425 27.328 66.2489 27.328C80.6486 27.328 90.7862 41.8123 85.8671 55.3398ZM3.09227 3.62474C31.3073 1.77778 58.2085 1.77486 83.0799 3.61455C83.5683 13.3362 83.7837 23.2657 83.7514 33.1915C75.3465 23.3332 60.7523 22.446 51.1577 30.7053C48.3975 32.8411 46.1169 35.5972 44.5087 38.6984C44.2422 37.6959 43.6213 36.8376 42.8202 36.1962C45.5168 30.6503 48.536 25.2033 51.8063 19.9872C55.8881 22.1661 59.8852 18.2471 58.8996 14.4414C58.2594 11.971 55.5079 10.293 53.023 10.8524C52.913 10.8771 52.8103 10.9165 52.7171 10.9689C52.6108 10.9762 52.5037 10.998 52.3981 11.0359C49.646 12.0464 48.0833 15.8224 50.0826 18.5172C46.7064 23.8793 43.5949 29.4877 40.8186 35.1971C40.0334 34.9972 38.8581 34.9538 38.3376 35.2489C38.0105 35.2667 37.5796 35.5017 37.2793 35.6806L32.6746 31.5327C34.7705 27.461 30.8625 23.6671 27.2463 24.4876C27.1378 24.5109 27.0366 24.5517 26.9441 24.6027C26.837 24.6085 26.7285 24.6303 26.6229 24.6697C24.0789 25.6056 22.5715 28.8853 23.8956 31.4883C20.9838 34.2641 18.3376 37.3209 15.9938 40.5906C14.3516 39.3468 12.3236 39.3394 11.625 39.7323C11.5187 39.7396 11.4124 39.7615 11.3075 39.7993C8.91065 40.6791 7.51158 43.5778 8.31271 46.0015C9.1153 48.4313 11.9725 49.9176 14.4129 49.1973C17.0995 48.406 18.8254 45.057 17.4838 42.3441C19.8006 39.05 22.4421 35.9779 25.3534 33.1918C27.0689 34.4703 29.4075 34.7058 31.2539 33.2637L35.6742 37.2468C32.5513 42.0323 38.3845 47.0225 42.5199 43.9966C41.5656 47.9856 41.767 51.9312 42.9114 55.752C28.9829 55.6626 13.8776 55.0819 3.08499 54.2226C1.95248 38.3034 1.95466 21.7288 3.09227 3.62474ZM51.5285 16.5346C51.1046 15.2528 51.9021 13.6024 53.1701 13.1363C53.2276 13.1145 53.2823 13.0897 53.3347 13.0606C53.3937 13.0562 53.4527 13.0489 53.5124 13.0344C54.8226 12.7343 56.3943 13.6957 56.7337 15.0037C57.0723 16.3103 56.1678 17.9052 54.8729 18.2869C53.5823 18.6714 51.9531 17.8164 51.5285 16.5346ZM25.7533 30.1698C25.3294 28.888 26.1276 27.2362 27.3949 26.7701C27.4517 26.7482 27.5056 26.7235 27.5566 26.6958C27.6163 26.6914 27.6767 26.6841 27.7372 26.6696C29.0532 26.3797 30.6191 27.3309 30.9584 28.6389C31.2971 29.9455 30.3926 31.5404 29.0969 31.9221C27.8013 32.3052 26.1757 31.453 25.7533 30.1698ZM15.6423 43.7657C15.9802 45.0737 15.0757 46.6701 13.7808 47.0503C12.4888 47.4334 10.8618 46.5813 10.4372 45.2995C10.0133 44.0177 10.8108 42.3644 12.078 41.8998C12.1363 41.8779 12.1909 41.8531 12.2433 41.824C12.3016 41.8196 12.3613 41.8124 12.4203 41.7978C13.7476 41.4957 15.3058 42.4701 15.6423 43.7657ZM93.9497 91.6018L92.7109 92.2878C91.2888 93.0759 89.5042 92.5584 88.7191 91.1415L80.399 76.1182C79.6146 74.7023 80.1281 72.9107 81.5446 72.1271C82.3495 71.7848 83.365 70.7112 85.0164 71.1876C85.7709 71.4046 86.3951 71.9013 86.7753 72.5874L95.0953 87.6093C95.8805 89.0265 95.3663 90.8167 93.9497 91.6018Z" fill="#0A102F"/>
<path d="M91.6669 86.2023C91.4237 85.6328 90.7653 85.372 90.198 85.6138C89.6299 85.8571 89.367 86.5155 89.6102 87.0821C90.041 88.0864 90.3511 88.5494 90.7398 89.4578C90.9828 90.0255 91.6393 90.2891 92.2088 90.0463C92.7769 89.803 93.0398 89.1446 92.7965 88.578C92.3625 87.5663 92.0676 87.1353 91.6669 86.2023Z" fill="#0A102F"/>
<path d="M67.2795 35.9627C66.7355 35.6728 66.056 35.884 65.7683 36.4288C65.4799 36.975 65.6889 37.6523 66.2351 37.9407C69.1804 39.4964 71.4286 42.3528 72.2487 45.5806C72.3776 46.0875 72.8328 46.4239 73.3324 46.4239C74.0616 46.4239 74.5972 45.7366 74.4176 45.03C73.4438 41.1977 70.7753 37.8082 67.2795 35.9627Z" fill="#0A102F"/>
<path d="M73.3232 49.043V49.2294C73.3232 49.847 73.8243 50.3481 74.4419 50.3481C75.9365 50.3481 75.9384 47.9243 74.4419 47.9243C73.8243 47.9243 73.3232 48.4254 73.3232 49.043Z" fill="#0A102F"/>
<path d="M8.13527 10.752H26.4432C27.0608 10.752 27.5619 10.2509 27.5619 9.63332C27.5619 9.01572 27.0608 8.51465 26.4432 8.51465H8.13527C7.51767 8.51465 7.0166 9.01572 7.0166 9.63332C7.0166 10.2509 7.51767 10.752 8.13527 10.752Z" fill="#0A102F"/>
<path d="M23.0973 16.5461H8.88234C8.26474 16.5461 7.76367 17.0472 7.76367 17.6648C7.76367 18.2824 8.26474 18.7835 8.88234 18.7835H23.0973C23.7149 18.7835 24.2159 18.2824 24.2159 17.6648C24.2159 17.0472 23.7149 16.5461 23.0973 16.5461Z" fill="#0A102F"/>
<path d="M17.3108 25.5115H10.7495C10.1319 25.5115 9.63086 26.0125 9.63086 26.6301C9.63086 27.2477 10.1319 27.7488 10.7495 27.7488H17.3108C17.9284 27.7488 18.4294 27.2477 18.4294 26.6301C18.4294 26.0125 17.9284 25.5115 17.3108 25.5115Z" fill="#0A102F"/>
<path d="M65.1021 12.2464H78.0388C78.6564 12.2464 79.1575 11.7453 79.1575 11.1277C79.1575 10.5101 78.6564 10.009 78.0388 10.009H65.1021C64.4845 10.009 63.9834 10.5101 63.9834 11.1277C63.9834 11.7453 64.4845 12.2464 65.1021 12.2464Z" fill="#0A102F"/>
<path d="M72.2118 15.9854H65.8501C65.2325 15.9854 64.7314 16.4864 64.7314 17.104C64.7314 17.7216 65.2325 18.2227 65.8501 18.2227H72.2118C72.8294 18.2227 73.3305 17.7216 73.3305 17.104C73.3305 16.4864 72.8294 15.9854 72.2118 15.9854Z" fill="#0A102F"/>
</svg>
