<svg width="146" height="25" viewBox="0 0 146 25" fill="none" xmlns="http://www.w3.org/2000/svg">
<path d="M25.345 9.6589H15.662L12.6813 0.452156L9.68295 9.6589L0 9.64126L7.83102 15.3381L4.83265 24.5449L12.6637 18.848L20.4947 24.5449L17.514 15.3381L25.345 9.6589Z" fill="#00B67A"/>
<path d="M18.1845 17.4191L17.5143 15.3379L12.6816 18.8477L18.1845 17.4191Z" fill="#005128"/>
<path d="M55.5086 9.6589H45.8256L42.8449 0.452156L39.8465 9.6589L30.1636 9.64126L37.9946 15.3381L34.9962 24.5449L42.8272 18.848L50.6583 24.5449L47.6775 15.3381L55.5086 9.6589Z" fill="#00B67A"/>
<path d="M48.3481 17.4193L47.6779 15.3381L42.8452 18.8479L48.3481 17.4193Z" fill="#005128"/>
<path d="M85.6721 9.6589H75.9892L73.0085 0.452156L70.0101 9.6589L60.3271 9.64126L68.1582 15.3381L65.1598 24.5449L72.9908 18.848L80.8218 24.5449L77.8411 15.3381L85.6721 9.6589Z" fill="#00B67A"/>
<path d="M78.5117 17.4193L77.8414 15.3381L73.0088 18.8479L78.5117 17.4193Z" fill="#005128"/>
<path d="M115.836 9.6589H106.153L103.173 0.452156L100.174 9.6589L90.4912 9.64126L98.3222 15.3381L95.3239 24.5449L103.155 18.848L110.986 24.5449L108.005 15.3381L115.836 9.6589Z" fill="#00B67A"/>
<path d="M108.675 17.4191L108.005 15.3379L103.172 18.8477L108.675 17.4191Z" fill="#005128"/>
<path d="M146 9.6589H136.317L133.336 0.452156L130.338 9.6589L120.655 9.64126L128.486 15.3381L125.487 24.5449L133.318 18.848L141.149 24.5449L138.169 15.3381L146 9.6589Z" fill="#00B67A"/>
<path d="M138.84 17.4191L138.17 15.3379L133.337 18.8477L138.84 17.4191Z" fill="#005128"/>
</svg>
