<svg width="134" height="22" viewBox="0 0 134 22" fill="none" xmlns="http://www.w3.org/2000/svg">
<path d="M23.1435 8.40703H14.3016L11.5798 0L8.84187 8.40703L0 8.39092L7.1508 13.593L4.41288 22L11.5637 16.7979L18.7145 22L15.9927 13.593L23.1435 8.40703Z" fill="#FFC947"/>
<path d="M16.605 15.493L15.993 13.5925L11.5801 16.7975L16.605 15.493Z" fill="#FFC947"/>
<path d="M50.6864 8.40703H41.8446L39.1228 0L36.3848 8.40703L27.543 8.39092L34.6938 13.593L31.9559 22L39.1067 16.7979L46.2575 22L43.5356 13.593L50.6864 8.40703Z" fill="#FFC947"/>
<path d="M44.146 15.493L43.534 13.5925L39.1211 16.7975L44.146 15.493Z" fill="#FFC947"/>
<path d="M78.2294 8.40703H69.3875L66.6657 0L63.9278 8.40703L55.0859 8.39092L62.2367 13.593L59.4988 22L66.6496 16.7979L73.8004 22L71.0786 13.593L78.2294 8.40703Z" fill="#FFC947"/>
<path d="M71.6909 15.493L71.0789 13.5925L66.666 16.7975L71.6909 15.493Z" fill="#FFC947"/>
<path d="M105.772 8.40703H96.9305L94.2087 0L91.4708 8.40703L82.6289 8.39092L89.7797 13.593L87.0418 22L94.1926 16.7979L101.343 22L98.6216 13.593L105.772 8.40703Z" fill="#FFC947"/>
<path d="M99.2319 15.493L98.6199 13.5925L94.207 16.7975L99.2319 15.493Z" fill="#FFC947"/>
<path d="M133.315 8.40703H124.473L121.752 0L119.014 8.40703L110.172 8.39092L117.323 13.593L114.585 22L121.736 16.7979L128.886 22L126.165 13.593L133.315 8.40703Z" fill="#FFC947"/>
<path d="M126.777 15.493L126.165 13.5925L121.752 16.7975L126.777 15.493Z" fill="#FFC947"/>
</svg>
