<svg width="28" height="35" viewBox="0 0 28 35" fill="none" xmlns="http://www.w3.org/2000/svg">
<path fill-rule="evenodd" clip-rule="evenodd" d="M15.6972 0.867043C11.9899 2.74301 3.63364 12.0031 0.908343 17.192C-0.734851 20.3253 -0.534403 20.5049 4.77592 20.8042L8.56326 21.0237C1.6899 32.998 2.39125 31.7208 2.33113 31.8405C0.828207 34.415 2.87218 36.1313 5.03639 34.1156C5.05643 34.0957 23.6325 19.7265 26.959 14.9568C27.3397 14.4179 27.2396 13.7993 26.3979 13.1806C25.0152 12.1628 23.1516 11.8435 16.3584 11.2847C15.2963 11.2048 14.8154 11.0851 14.8956 10.9254C15.3966 9.70806 17.3202 4.59902 18.242 2.6033C19.3241 0.268319 19.224 -0.929099 15.6972 0.867043ZM14.3144 5.33744C14.134 5.75654 11.9097 11.0651 11.8095 11.2847C11.2885 12.3224 11.6292 12.8613 12.9317 13.001C17.2601 13.46 18.9835 13.6197 20.7268 13.6995C23.6125 13.8392 23.6326 13.7194 20.5866 16.7729C17.3403 20.0458 9.0442 27.6295 8.86385 27.4499C8.70354 27.2903 11.3687 22.2212 12.0901 21.2832C13.3927 19.5868 12.9919 19.3473 8.84379 19.3473C6.98017 19.3473 5.81791 19.3074 4.93619 19.2476C4.11459 19.1877 3.6136 18.3096 4.01438 17.5712C5.5173 14.837 8.20256 11.4244 12.6712 6.53487C14.7152 4.33959 14.7552 4.29967 14.3144 5.33744Z" fill="#A259FF"/>
</svg>
