<svg width="97" height="97" viewBox="0 0 97 97" fill="none" xmlns="http://www.w3.org/2000/svg">
<path d="M0.71875 15.2314C0.71875 6.74469 7.65974 -0.120948 16.1746 0.00161584C24.4226 0.120214 31.1293 6.88444 31.1814 15.133C31.2107 19.7525 29.1828 23.8983 25.9606 26.7105C25.6205 27.0072 25.6696 27.5488 26.0581 27.7786L28.928 29.4768C29.392 29.7513 29.1973 30.4625 28.6582 30.4625L15.6619 30.4593C7.38289 30.3054 0.71875 23.5471 0.71875 15.2314Z" fill="#7ACAA6"/>
<path d="M28.928 29.4768L26.0578 27.7787C25.6714 27.5502 25.6178 27.0093 25.956 26.7143C29.215 23.8723 31.2535 19.6661 31.1796 14.9852C31.0518 6.88868 24.4987 0.242488 16.4044 0.00661473C15.2566 -0.0268117 14.1363 0.0670467 13.0566 0.274593C20.053 1.61581 25.385 7.7827 25.4314 15.1329C25.4539 18.6926 24.2549 21.971 22.2293 24.5747C21.0061 26.1469 21.4036 28.4266 23.118 29.4412L23.1781 29.4767C23.637 29.7482 23.4508 30.4458 22.9252 30.4609L28.6579 30.4623C29.1971 30.4626 29.392 29.7512 28.928 29.4768Z" fill="#57BE92"/>
<path d="M74.9344 55.2868H40.3813C31.7512 55.2868 27.0285 45.2294 32.5404 38.5887L32.8469 38.2193C35.2752 35.2938 36.6043 31.6114 36.6043 27.8095V21.1463C36.6045 9.46743 46.0719 0 57.7508 0C69.4296 0 78.897 9.46743 78.897 21.1463V28.0344C78.897 31.8762 80.2541 35.5944 82.7288 38.5331C88.3095 45.1603 83.5985 55.2868 74.9344 55.2868Z" fill="#C59191"/>
<path d="M93.0979 72.4111V95.2544H22.2188V72.5829C22.2188 67.45 25.2951 62.8175 30.0239 60.827L41.4663 55.8527L45.3189 54.1776C48.2423 52.9067 50.1327 50.0229 50.1327 46.8351V45.3564H65.1821V46.7596C65.1821 49.9606 67.0914 52.8557 70.0356 54.1172L85.5118 60.7515C90.1235 62.7949 93.0979 67.365 93.0979 72.4111Z" fill="white"/>
<path d="M41.466 61.2988C45.3713 62.4657 51.1193 63.7102 58.1258 63.5876C64.6999 63.4728 70.0964 62.1945 73.8515 60.9951L75.7174 56.552L70.0356 54.1168C67.0922 52.8551 65.1837 49.961 65.1837 46.7585V45.3564H50.1342V46.8348C50.1342 50.0222 48.2435 52.9057 45.3206 54.1767L40.7188 56.1775L41.466 61.2988Z" fill="#FFCEBF"/>
<path d="M85.5117 60.7507L73.8536 55.7539L73.8516 55.7541V95.2541H93.0988V72.4114C93.0988 67.3659 90.1246 62.7948 85.5117 60.7507Z" fill="#8795DE"/>
<path d="M41.4663 55.8525V95.2542H22.2188V72.5828C22.2188 67.4498 25.2951 62.8173 30.0239 60.8268L41.4663 55.8525Z" fill="#8795DE"/>
<path d="M62.8761 53.6166C64.6075 53.6166 66.2573 53.2689 67.7611 52.6415C66.1479 51.1524 65.1841 49.0335 65.1841 46.7585V45.3564H50.1346V46.8346C50.1346 47.986 49.8866 49.0974 49.4336 50.1077C51.7124 52.2801 54.7954 53.6164 58.1923 53.6164H62.8761V53.6166Z" fill="#FFB09E"/>
<path d="M72.7 22.7169V35.1668C72.7 42.1807 67.0141 47.8664 60.0004 47.8664H55.3168C48.3029 47.8664 42.6172 42.1805 42.6172 35.1668V22.7169C42.6172 18.1541 46.316 14.4551 50.879 14.4551H64.4384C69.0012 14.4553 72.7 18.1541 72.7 22.7169Z" fill="#FFCEBF"/>
<path d="M72.7002 29.1943C72.6945 29.2115 72.6875 29.2281 72.6824 29.2457C72.2233 30.8311 71.0185 33.8259 68.1068 36.0711C66.751 37.1168 65.2045 37.8722 63.5106 38.3167C62.7427 38.5182 62.2834 39.304 62.4849 40.0719C62.6545 40.7176 63.2367 41.1449 63.8745 41.1449C63.9952 41.1449 64.1179 41.1297 64.2403 41.0975C66.3086 40.5548 68.2001 39.6296 69.8625 38.3479C71.0106 37.4626 71.9397 36.4847 72.6919 35.5015C72.6947 35.3901 72.7004 35.2793 72.7004 35.1671V29.1943H72.7002Z" fill="#7A6D79"/>
<path d="M61.9339 42.2908H58.5653C57.0321 42.2908 55.7891 41.0478 55.7891 39.5146C55.7891 37.9813 57.0321 36.7383 58.5653 36.7383H61.9339C63.4671 36.7383 64.7101 37.9813 64.7101 39.5146C64.71 41.048 63.4671 42.2908 61.9339 42.2908Z" fill="#685E68"/>
<path d="M60.6602 11.1608C60.9828 7.09297 64.8773 4.39336 68.6046 2.99512C74.7704 6.68959 78.8982 13.4355 78.8982 21.1464V22.6002C78.5574 22.6718 78.2182 22.7345 77.8828 22.7845C75.8294 23.0912 74.0809 22.9584 72.8862 22.7845C65.1881 21.7591 60.2707 16.0737 60.6602 11.1608Z" fill="#B98080"/>
<path d="M57.7516 0C62.5272 0 66.9327 1.5837 70.4727 4.25385C68.7067 7.32662 64.6518 13.4019 57.0481 17.8996C51.4034 21.2386 46.0808 22.3606 42.8031 22.7842H36.6055V21.1461C36.6053 9.46743 46.0727 0 57.7516 0V0Z" fill="#C59191"/>
<path d="M81.3886 95.2522H35.3746L32.8366 71.3108C32.6567 69.6126 33.9879 68.1328 35.6954 68.1328H81.068C82.7756 68.1328 84.1068 69.6126 83.9268 71.3108L81.3886 95.2522Z" fill="#EFEDEF"/>
<path d="M81.0681 68.1328H75.3184C77.0259 68.1328 78.3571 69.6126 78.1772 71.3108L75.6392 95.2524H81.3889L83.9269 71.3108C84.1071 69.6126 82.7759 68.1328 81.0681 68.1328Z" fill="#E5E1E5"/>
<path d="M95.2748 96.6911H1.41637C0.633969 96.6911 0 96.057 0 95.2748C0 94.4926 0.633969 93.8584 1.41637 93.8584H95.2748C96.0572 93.8584 96.6912 94.4926 96.6912 95.2748C96.6912 96.057 96.0572 96.6911 95.2748 96.6911Z" fill="#C9BFC8"/>
<path d="M58.3822 85.7185C60.605 85.7185 62.407 83.9165 62.407 81.6937C62.407 79.4709 60.605 77.6689 58.3822 77.6689C56.1594 77.6689 54.3574 79.4709 54.3574 81.6937C54.3574 83.9165 56.1594 85.7185 58.3822 85.7185Z" fill="#C9BFC8"/>
<path d="M10.201 16.6676C10.9948 16.6676 11.6383 16.0241 11.6383 15.2303C11.6383 14.4365 10.9948 13.793 10.201 13.793C9.40719 13.793 8.76367 14.4365 8.76367 15.2303C8.76367 16.0241 9.40719 16.6676 10.201 16.6676Z" fill="white"/>
<path d="M15.951 16.6676C16.7448 16.6676 17.3883 16.0241 17.3883 15.2303C17.3883 14.4365 16.7448 13.793 15.951 13.793C15.1572 13.793 14.5137 14.4365 14.5137 15.2303C14.5137 16.0241 15.1572 16.6676 15.951 16.6676Z" fill="white"/>
<path d="M21.701 16.6676C22.4948 16.6676 23.1383 16.0241 23.1383 15.2303C23.1383 14.4365 22.4948 13.793 21.701 13.793C20.9072 13.793 20.2637 14.4365 20.2637 15.2303C20.2637 16.0241 20.9072 16.6676 21.701 16.6676Z" fill="white"/>
</svg>
