<svg width="26" height="26" viewBox="0 0 26 26" fill="none" xmlns="http://www.w3.org/2000/svg">
<path d="M18.8919 17.8509C17.9025 18.8403 15.818 20.9248 14.4128 22.33C13.6318 23.111 12.3663 23.1104 11.5853 22.3294C10.2044 20.9485 8.16156 18.9057 7.10679 17.8509C3.85242 14.5965 3.85242 9.32015 7.10679 6.06578C10.3612 2.81141 15.6375 2.81141 18.8919 6.06578C22.1463 9.32015 22.1463 14.5965 18.8919 17.8509Z" stroke="white" stroke-width="2" stroke-linecap="round" stroke-linejoin="round"/>
<path d="M16.1243 11.9583C16.1243 13.6842 14.7252 15.0833 12.9993 15.0833C11.2735 15.0833 9.87435 13.6842 9.87435 11.9583C9.87435 10.2324 11.2735 8.83333 12.9993 8.83333C14.7252 8.83333 16.1243 10.2324 16.1243 11.9583Z" stroke="white" stroke-width="2" stroke-linecap="round" stroke-linejoin="round"/>
</svg>
