<svg width="26" height="26" viewBox="0 0 26 26" fill="none" xmlns="http://www.w3.org/2000/svg">
<path d="M3.625 5.70833C3.625 4.55774 4.55774 3.625 5.70833 3.625H9.12421C9.57257 3.625 9.97064 3.91191 10.1124 4.33726L11.6726 9.01793C11.8366 9.50971 11.6139 10.0472 11.1503 10.279L8.79896 11.4547C9.94713 14.0013 11.9987 16.0529 14.5453 17.201L15.721 14.8497C15.9528 14.3861 16.4903 14.1634 16.9821 14.3274L21.6627 15.8876C22.0881 16.0294 22.375 16.4274 22.375 16.8758V20.2917C22.375 21.4423 21.4423 22.375 20.2917 22.375H19.25C10.6206 22.375 3.625 15.3794 3.625 6.75V5.70833Z" stroke="white" stroke-width="2" stroke-linecap="round" stroke-linejoin="round"/>
</svg>
